<svg width="24" height="24" viewBox="0 0 24 24" fill="none" xmlns="http://www.w3.org/2000/svg">
  <title>Ferry exit (outlined)</title>
  <g transform="matrix(
          1 0
          0 1
          1 0
        )"><path fill-rule="nonzero" clip-rule="nonzero" d="M16.2 9L19.7 9L23 4.5L19.7 0L16.2 0L18.4 3L14 3L14 6L18.4 6L16.2 9Z" fill="currentColor" opacity="1"/>
<path fill-rule="nonzero" clip-rule="nonzero" d="M19.6 18.7L21.5 13.5L11 9L5 11.6L5 7C5 6.4 5.4 6 6 6L12 6L12 1L8 1L8 3L6 3C3.8 3 2 4.8 2 7L2 12.9L0.5 13.5L2.39999 18.7C1.79999 18.9 1.4 19.2 1 19.5C0.5 19.8 0.3 20 0 20L0 23C2 23 2.90001 21.5 3.70001 21.5C4.50001 21.5 5.39999 23 7.39999 23C9.39999 23 10.3 21.5 11.1 21.5C11.9 21.5 12.8 23 14.8 23C16.8 23 17.7 21.5 18.5 21.5C19.3 21.5 20.2 23 22.2 23L22.2 20C21.9 20 21.7 19.9 21.2 19.5C20.7 19.3 20.2 19 19.6 18.7ZM14.7 20C14.4 20 14.2 19.9 13.7 19.5C13.1 19.1 12.3 18.5 11 18.5C9.7 18.5 8.89999 19.1 8.29999 19.5C7.79999 19.8 7.59999 20 7.29999 20C6.99999 20 6.79999 19.9 6.29999 19.5C6.09999 19.4 5.90001 19.2 5.60001 19.1L4.20001 15.1L10.9 12.2L17.6 15.1L16.2 19.1C16 19.2 15.7 19.4 15.5 19.5C15.1 19.9 14.9 20 14.7 20Z" fill="currentColor" opacity="1"/></g>
</svg>