<svg width="24" height="24" viewBox="0 0 24 24" fill="none" xmlns="http://www.w3.org/2000/svg">
  <title>Lifebuoy (outlined)</title>
  <g transform="matrix(
          1 0
          0 1
          1 1
        )"><path fill-rule="nonzero" clip-rule="nonzero" d="M11 0C4.9 0 0 4.9 0 11C0 17.1 4.9 22 11 22C17.1 22 22 17.1 22 11C22 4.9 17.1 0 11 0ZM15.8 13.7C16.2 12.9 16.5 12 16.5 11C16.5 10 16.2 9.09999 15.8 8.29999L17.6001 6.5C18.5001 7.8 19 9.3 19 11C19 12.7 18.5001 14.2 17.6001 15.5L15.8 13.7ZM8.5 11C8.5 9.6 9.6 8.5 11 8.5C12.4 8.5 13.5 9.6 13.5 11C13.5 12.4 12.4 13.5 11 13.5C9.6 13.5 8.5 12.4 8.5 11ZM15.5 4.39999L13.7 6.20001C12.9 5.80001 12 5.5 11 5.5C10 5.5 9.10005 5.80001 8.30005 6.20001L6.5 4.39999C7.8 3.49999 9.3 3 11 3C12.7 3 14.2 3.49999 15.5 4.39999ZM4.3999 6.5L6.19995 8.29999C5.79995 9.09999 5.5 10 5.5 11C5.5 12 5.79995 12.9 6.19995 13.7L4.3999 15.5C3.4999 14.2 3 12.7 3 11C3 9.3 3.4999 7.8 4.3999 6.5ZM6.5 17.6L8.30005 15.8C9.10005 16.2 10 16.5 11 16.5C12 16.5 12.9 16.2 13.7 15.8L15.5 17.6C14.2 18.5 12.7 19 11 19C9.3 19 7.8 18.5 6.5 17.6Z" fill="currentColor" opacity="1"/></g>
</svg>