<svg width="24" height="24" viewBox="0 0 24 24" fill="none" xmlns="http://www.w3.org/2000/svg">
  <title>Dribbble (filled)</title>
  <g transform="matrix(
          1 0
          0 1
          1 1
        )"><path fill-rule="nonzero" clip-rule="nonzero" d="M11 0C4.928 0 0 4.928 0 11C0 17.072 4.928 22 11 22C17.061 22 22 17.072 22 11C22 4.928 17.061 0 11 0ZM18.2666 5.071C19.58 6.6704 20.3654 8.7098 20.3896 10.9164C20.0794 10.857 16.9774 10.2234 13.8512 10.6172C13.7786 10.4632 13.7192 10.296 13.6488 10.1288C13.4574 9.6756 13.244 9.2092 13.0284 8.7692C16.489 7.3612 18.062 5.3328 18.2666 5.071ZM11 1.6236C13.387 1.6236 15.5694 2.519 17.2282 3.9864C17.061 4.224 15.642 6.1226 12.3002 7.3744C10.7602 4.5474 9.0552 2.233 8.7934 1.8744C9.4974 1.705 10.2366 1.6236 11 1.6236ZM7.0026 2.5058C7.2534 2.8402 8.9232 5.1656 10.4874 7.9332C6.0962 9.1014 2.2198 9.0794 1.8018 9.0794C2.409 6.1688 4.378 3.7466 7.0026 2.5058ZM1.5994 11.011C1.5994 10.9164 1.5994 10.8196 1.5994 10.725C2.0042 10.736 6.5626 10.7976 11.2508 9.3896C11.5258 9.9154 11.7766 10.4522 12.0142 10.989C11.8954 11.0242 11.7634 11.0616 11.6446 11.0968C6.8002 12.6588 4.224 16.9312 4.0084 17.2898C2.5168 15.6288 1.5994 13.4222 1.5994 11.011ZM11 20.4006C8.8286 20.4006 6.8244 19.6614 5.2382 18.4206C5.4054 18.0752 7.315 14.399 12.6104 12.551C12.6346 12.54 12.6456 12.54 12.6698 12.5268C13.9942 15.95 14.531 18.8254 14.674 19.6504C13.541 20.1388 12.3002 20.4006 11 20.4006ZM16.2382 18.7902C16.1436 18.2182 15.642 15.4726 14.4122 12.0978C17.358 11.6314 19.9364 12.397 20.2576 12.5026C19.8528 15.1162 18.3502 17.3712 16.2382 18.7902Z" fill="currentColor" opacity="1"/></g>
</svg>