<svg width="24" height="24" viewBox="0 0 24 24" fill="none" xmlns="http://www.w3.org/2000/svg">
  <title>Arrow roundabout right return (outlined)</title>
  <g transform="matrix(
          1 0
          0 1
          4 1
        )"><path fill-rule="nonzero" clip-rule="nonzero" d="M13 14.23C14.83 12.77 16 10.52 16 8C16 3.59 12.41 0 8 0C3.59 0 0 3.59 0 8C0 10.52 1.17 12.76 3 14.23L3 21L6 21L6 12.58C4.24 11.81 3 10.05 3 8C3 5.24 5.24 3 8 3C10.76 3 13 5.24 13 8C13 10.05 11.76 11.8 10 12.58L10 17.59L8 16.55L8 19.61L11.5 21.85L15 19.61L15 16.55L13 17.59L13 14.23Z" fill="currentColor" opacity="1"/></g>
</svg>