<svg width="24" height="24" viewBox="0 0 24 24" fill="none" xmlns="http://www.w3.org/2000/svg">
  <title>Microphone sound (outlined)</title>
  <g transform="matrix(
          1 0
          0 1
          0 2.010009765625
        )"><path fill-rule="nonzero" clip-rule="nonzero" d="M3.51 0C-1.17 4.68 -1.17 12.29 3.51 16.97L5.63 14.85C2.12 11.34 2.12 5.63 5.63 2.12L3.51 0Z" fill="currentColor" opacity="1"/></g>,<g transform="matrix(
          1 0
          0 1
          18.3701171875 2.010009765625
        )"><path fill-rule="nonzero" clip-rule="nonzero" d="M2.12 0L0 2.12C3.51 5.63 3.51 11.34 0 14.85L2.12 16.97C6.79 12.3 6.79 4.68 2.12 0Z" fill="currentColor" opacity="1"/></g>,<g transform="matrix(
          1 0
          0 1
          7 2
        )"><path fill-rule="nonzero" clip-rule="nonzero" d="M5 0C2.24 0 0 2.24 0 5L0 11C0 13.24 1.48 15.11 3.5 15.75L3.5 19L0 19L0 22L10 22L10 19L6.5 19L6.5 15.75C8.52 15.11 10 13.24 10 11L10 5C10 2.24 7.76 0 5 0ZM5 3C6.1 3 7 3.9 7 5L7 6.5L3 6.5L3 5C3 3.9 3.9 3 5 3ZM5 13C3.9 13 3 12.1 3 11L3 9.5L7 9.5L7 11C7 12.1 6.1 13 5 13Z" fill="currentColor" opacity="1"/></g>
</svg>