<svg width="24" height="24" viewBox="0 0 24 24" fill="none" xmlns="http://www.w3.org/2000/svg">
  <title>Hand tip (outlined)</title>
  <g transform="matrix(
          1 0
          0 1
          0.9000244140625 1
        )"><path fill-rule="nonzero" clip-rule="nonzero" d="M19.7999 10C21.1999 9 22.1 7.4 22.1 5.5C22.1 2.5 19.6 0 16.6 0C13.6 0 11.1 2.5 11.1 5.5C11.1 6 11.1999 6.5 11.2999 7L4.29993 7L0 11.3L0 22L14 22L23 15.5L23 12.2C22.5 11.8 21.7999 10.5 19.7999 10ZM16.6 3C18 3 19.1 4.1 19.1 5.5C19.1 6.9 18 8 16.6 8C15.2 8 14.1 6.9 14.1 5.5C14.1 4.1 15.2 3 16.6 3ZM20.1 14L13.1 19L3.09998 19L3.09998 12.5L5.59998 10L11.1 10L11.1 11.5L8.09998 13.5L9.59998 15L14.1 15L16.7999 13.2C17.1999 12.9 17.7 12.8 18.2 12.8C18.9 12.8 19.5 13.1 20 13.6L20 14L20.1 14Z" fill="currentColor" opacity="1"/></g>
</svg>