<svg width="24" height="24" viewBox="0 0 24 24" fill="none" xmlns="http://www.w3.org/2000/svg">
  <title>Linkedin (outlined)</title>
  <g transform="matrix(
          1 0
          0 1
          1 1
        )"><path fill-rule="nonzero" clip-rule="nonzero" d="M20.37 0L1.62 0C0.73 0 0 0.710002 0 1.58L0 20.41C0 21.29 0.73 22 1.62 22L20.37 22C21.27 22 22 21.29 22 20.41L22 1.58C22 0.710002 21.27 0 20.37 0ZM6.53 18.75L3.26 18.75L3.26 8.25L6.53 8.25L6.53 18.75ZM4.89 6.81C3.85 6.81 3 5.96 3 4.92C3 3.88 3.84 3.03 4.89 3.03C5.93 3.03 6.78 3.88 6.78 4.92C6.79 5.96 5.94 6.81 4.89 6.81ZM18.75 18.75L15.49 18.75L15.49 13.65C15.49 12.43 15.47 10.87 13.79 10.87C12.09 10.87 11.83 12.2 11.83 13.57L11.83 18.76L8.57 18.76L8.57 8.26L11.7 8.26L11.7 9.69L11.74 9.69C12.18 8.86 13.24 7.99 14.83 7.99C18.13 7.99 18.74 10.16 18.74 12.99L18.74 18.75L18.75 18.75Z" fill="currentColor" opacity="1"/></g>
</svg>