<svg width="24" height="24" viewBox="0 0 24 24" fill="none" xmlns="http://www.w3.org/2000/svg">
  <title>Car seat (filled)</title>
  <g transform="matrix(
          1 0
          0 1
          3 1
        )"><path fill-rule="evenodd" clip-rule="evenodd" d="M5 4L13 4L13 3C13 1.3 11.7 0 10 0L8 0C6.3 0 5 1.3 5 3L5 4ZM11.5002 6C11.8001 6 12.1 6 12.3999 6.09998L3 15.5L3 9.5C3 7.6 4.6 6 6.5 6L11.5 6L11.5002 6ZM4.5 18L15 18L15 18.5C15 19.3 14.3 20 13.5 20L4.5 20C3.7 20 3 19.3 3 18.5L3 18L0 18L0 18.5C0 21 2 23 4.5 23L13.5 23C16 23 18 21 18 18.5L18 18L15 18L15 9.5C15 8.9 14.8001 8.40002 14.6001 7.90002L4.5 18Z" fill="currentColor" opacity="1"/></g>
</svg>