<svg width="24" height="24" viewBox="0 0 24 24" fill="none" xmlns="http://www.w3.org/2000/svg">
  <title>Route (outlined)</title>
  <g transform="matrix(
          1 0
          0 1
          1 1
        )"><path fill-rule="evenodd" clip-rule="evenodd" d="M22 0L15 0L15 7L22 7L22 0ZM3.5 22C5.433 22 7 20.433 7 18.5C7 16.567 5.433 15 3.5 15C1.567 15 0 16.567 0 18.5C0 20.433 1.567 22 3.5 22ZM14.7413 18.9863C15.9548 18.9863 16.9663 17.9817 16.9663 16.7762L16.9663 8.94063L20 8.94063L20 16.7762C20 19.589 17.5728 22 14.7413 22C11.9098 22 9.48313 19.6895 9.48313 16.7762L9.48313 5.22373C9.48313 4.01825 8.47169 3.0137 7.25819 3.0137C6.04469 3.0137 5.03374 4.01825 5.03374 5.22373L5.03374 13.0594L2 13.0594L2 5.22373C2 2.41094 4.4267 0 7.25819 0C10.0897 0 12.5169 2.31048 12.5169 5.22373L12.5169 16.7762C12.5169 17.9817 13.5278 18.9863 14.7413 18.9863Z" fill="currentColor" opacity="1"/></g>
</svg>