<svg width="24" height="24" viewBox="0 0 24 24" fill="none" xmlns="http://www.w3.org/2000/svg">
  <title>Bike (filled)</title>
  <g transform="matrix(
          1 0
          0 1
          0 3
        )"><path fill-rule="nonzero" clip-rule="nonzero" d="M19.3999 6.10001L16.3999 0L12 0L12 3L14.6001 3L15.6001 5L9.19971 5L8 2L4 2L4 5L6 5L6.3999 6.10001C6.0999 6.10001 5.8 6 5.5 6C2.5 6 0 8.5 0 11.5C0 14.5 2.5 17 5.5 17C7.9 17 10.0998 15.4 10.7998 13L13.1997 13C13.8997 15.3 16 17 18.5 17C21.3 17 24 14.9 24 11.5C23.9 8.8 21.8999 6.50001 19.3999 6.10001ZM5.3999 14C3.9999 14 2.8999 12.9 2.8999 11.5C2.8999 10.2 3.9999 9 5.3999 9C6.7999 9 7.8999 10.1 7.8999 11.5C7.8999 13.1 6.6999 14 5.3999 14ZM13.1001 10L11.1001 10L10.2998 8L14.1997 8C13.6997 8.6 13.3001 9.3 13.1001 10ZM18.3999 14C16.9999 14 15.8999 12.9 15.8999 11.5C15.8999 10.2 16.9999 9 18.3999 9C19.7999 9 20.8999 10.1 20.8999 11.5C20.8999 13.1 19.6999 14 18.3999 14Z" fill="currentColor" opacity="1"/></g>
</svg>