<svg width="24" height="24" viewBox="0 0 24 24" fill="none" xmlns="http://www.w3.org/2000/svg">
  <title>Person group (filled)</title>
  <g transform="matrix(
          1 0
          0 1
          1 2
        )"><path fill-rule="evenodd" clip-rule="evenodd" d="M15 4C15 6.20914 13.2091 8 11 8C8.79086 8 7 6.20914 7 4C7 1.79086 8.79086 0 11 0C13.2091 0 15 1.79086 15 4ZM17 14L17 19L5 19L5 14C5 13.3 5.2 12.6 5.5 12C6.2 10.8 7.5 10 9 10L13 10C14.5 10 15.8 10.8 16.5 12C16.8 12.6 17 13.3 17 14ZM0 16L0 19L3 19L3 12.1C1.3 12.6 0 14.1 0 16ZM19 12.1L19 19L22 19L22 16C22 14.1 20.7 12.6 19 12.1ZM19 4C17.3 4 16 5.3 16 7C16 8.7 17.3 10 19 10C20.7 10 22 8.7 22 7C22 5.3 20.7 4 19 4ZM0 7C0 5.3 1.3 4 3 4C4.7 4 6 5.3 6 7C6 8.7 4.7 10 3 10C1.3 10 0 8.7 0 7Z" fill="currentColor" opacity="1"/></g>
</svg>