<svg width="24" height="24" viewBox="0 0 24 24" fill="none" xmlns="http://www.w3.org/2000/svg">
  <title>Car check front (outlined)</title>
  <g transform="matrix(
          1 0
          0 1
          13.43994140625 0.43994140625
        )"><path fill-rule="nonzero" clip-rule="nonzero" d="M10.12 2.12L8 0L4.06 3.94L2.12 2L0 4.12L4.06 8.18L10.12 2.12Z" fill="currentColor" opacity="1"/></g>,<g transform="matrix(
          1 0
          0 1
          1 3
        )"><path fill-rule="nonzero" clip-rule="nonzero" d="M18 7L18 9L14 9L14 12L18 12L18 13L4 13L4 12L8 12L8 9L4.16 9L6.16 3L10 3L10 0L5.44 0C4.58 0 3.82 0.55 3.54 1.37L2 6L0 6L0 9L1 9L1 18L5 18L5 16L17 16L17 18L21 18L21 7L18 7Z" fill="currentColor" opacity="1"/></g>
</svg>