<svg width="24" height="24" viewBox="0 0 24 24" fill="none" xmlns="http://www.w3.org/2000/svg">
  <title>Wheelchair (filled)</title>
  <g transform="matrix(
          1 0
          0 1
          1 1
        )"><path fill-rule="evenodd" clip-rule="evenodd" d="M22 3.02752C22 4.69958 20.6569 6.05505 19 6.05505C17.3431 6.05505 16 4.69958 16 3.02752C16 1.35547 17.3431 0 19 0C20.6569 0 22 1.35547 22 3.02752ZM13.7002 13.1193L18.8999 13.1193L19 14.5321L19 14.9358C19 17.156 18.3999 19.1743 17.3999 20.9909L13.7002 20.9909C14.9002 19.578 15.6999 17.8624 15.8999 15.945L13.8999 15.945C13.3999 19.3762 10.5 22 7 22C3.1 22 0 18.8716 0 14.9358C0 11 3.1 7.87159 7 7.87159C8.4 7.87159 9.6998 8.27526 10.7998 8.98168L12.2002 7.56885C10.7002 6.45875 8.9 5.85324 7 5.85324C6.85 5.85324 6.675 5.87847 6.5 5.9037C6.325 5.92893 6.15 5.95416 6 5.95416L6 2.92664L7 2.92664C10.2 2.92664 13.2 4.13765 15.5 6.45875L16.6001 7.56885L12.8999 11.3028L12.9026 11.3082C13.2017 11.9119 13.5008 12.5156 13.7002 13.1193ZM3 15.1377C3 17.3578 4.8 19.1744 7 19.1744C9.2 19.1744 11 17.3578 11 15.1377C11 12.9175 9.2 11.101 7 11.101C4.8 11.101 3 12.9175 3 15.1377Z" fill="currentColor" opacity="1"/></g>
</svg>