<svg width="24" height="24" viewBox="0 0 24 24" fill="none" xmlns="http://www.w3.org/2000/svg">
  <title>Sliders (filled)</title>
  <g transform="matrix(
          1 0
          0 1
          1 1.5
        )"><path fill-rule="evenodd" clip-rule="evenodd" d="M5 0C7.2 0 9.09995 1.5 9.69995 3.5L22 3.5L22 6.5L9.69995 6.5C9.09995 8.5 7.2 10 5 10C2.2 10 0 7.8 0 5C0 2.2 2.2 0 5 0ZM12.3 14.5C12.9 12.5 14.8 11 17 11C19.8 11 22 13.2 22 16C22 18.8 19.8 21 17 21C14.8 21 12.9 19.5 12.3 17.5L0 17.5L0 14.5L12.3 14.5Z" fill="currentColor" opacity="1"/></g>
</svg>