<svg width="24" height="24" viewBox="0 0 24 24" fill="none" xmlns="http://www.w3.org/2000/svg">
  <title>Bone (filled)</title>
  <g transform="matrix(
          1 0
          0 1
          1 1
        )"><path fill-rule="nonzero" clip-rule="nonzero" d="M18.5 3.5C18.5 1.57 16.93 0 15 0C13.07 0 11.5 1.57 11.5 3.5C11.5 4.34 11.81 5.1 12.3 5.7L5.7 12.3C5.1 11.81 4.34 11.5 3.5 11.5C1.57 11.5 0 13.07 0 15C0 16.93 1.57 18.5 3.5 18.5C3.5 20.43 5.07 22 7 22C8.93 22 10.5 20.43 10.5 18.5C10.5 17.66 10.19 16.9 9.7 16.3L16.3 9.7C16.9 10.19 17.66 10.5 18.5 10.5C20.43 10.5 22 8.93 22 7C22 5.07 20.43 3.5 18.5 3.5Z" fill="currentColor" opacity="1"/></g>
</svg>