<svg width="24" height="24" viewBox="0 0 24 24" fill="none" xmlns="http://www.w3.org/2000/svg">
  <title>Ferry enter (filled)</title>
  <g transform="matrix(
          1 0
          0 1
          1 0
        )"><path fill-rule="nonzero" clip-rule="nonzero" d="M19.6 18.7L21.5 13.5L11 9L5 11.6L5 7C5 6.5 5.5 6 6 6L12 6L12 1L8 1L8 3L6 3C3.8 3 2 4.8 2 7L2 12.9L0.5 13.5L2.39999 18.7C1.79999 18.9 1.4 19.2 1 19.5C0.5 19.8 0.3 20 0 20L0 23C2 23 2.90001 21.5 3.70001 21.5C4.50001 21.5 5.39999 23 7.39999 23C9.39999 23 10.3 21.5 11.1 21.5C11.9 21.5 12.8 23 14.8 23C16.8 23 17.7 21.5 18.5 21.5C19.3 21.5 20.2 23 22.2 23L22.2 20C21.9 20 21.7 19.9 21.2 19.5C20.7 19.3 20.2 19 19.6 18.7Z" fill="currentColor" opacity="1"/>
<path fill-rule="nonzero" clip-rule="nonzero" d="M18.6 3L20.8 0L17.3 0L14 4.5L17.3 9L20.8 9L18.6 6L23 6L23 3L18.6 3Z" fill="currentColor" opacity="1"/></g>
</svg>