<svg width="24" height="24" viewBox="0 0 24 24" fill="none" xmlns="http://www.w3.org/2000/svg">
  <title>Clock add (outlined)</title>
  <g transform="matrix(
          1 0
          0 1
          1 1
        )"><path fill-rule="nonzero" clip-rule="nonzero" d="M3 11C3 6.6 6.6 3 11 3C15.4 3 19 6.6 19 11L22 11C22 4.9 17.1 0 11 0C4.9 0 0 4.9 0 11C0 17.1 4.9 22 11 22L11 19C6.6 19 3 15.4 3 11Z" fill="currentColor" opacity="1"/></g>,<g transform="matrix(
          1 0
          0 1
          8.10009765625 6
        )"><path fill-rule="nonzero" clip-rule="nonzero" d="M2.89999 5.7L0 7.8L1.79999 10.2L5.89999 7.3L5.89999 0L2.89999 0L2.89999 5.7Z" fill="currentColor" opacity="1"/></g>,<g transform="matrix(
          1 0
          0 1
          14 14
        )"><path fill-rule="nonzero" clip-rule="nonzero" d="M9 3L6 3L6 0L3 0L3 3L0 3L0 6L3 6L3 9L6 9L6 6L9 6L9 3Z" fill="currentColor" opacity="1"/></g>
</svg>