<svg width="24" height="24" viewBox="0 0 24 24" fill="none" xmlns="http://www.w3.org/2000/svg">
  <title>Keyboard (outlined)</title>
  <g transform="matrix(
          1 0
          0 1
          19 4
        )"><path fill-rule="nonzero" clip-rule="nonzero" d="M4 0L0 0L0 4L4 4L4 0Z" fill="currentColor" opacity="1"/></g>,<g transform="matrix(
          1 0
          0 1
          7 4
        )"><path fill-rule="nonzero" clip-rule="nonzero" d="M4 0L0 0L0 4L4 4L4 0Z" fill="currentColor" opacity="1"/></g>,<g transform="matrix(
          1 0
          0 1
          13 4
        )"><path fill-rule="nonzero" clip-rule="nonzero" d="M4 0L0 0L0 4L4 4L4 0Z" fill="currentColor" opacity="1"/></g>,<g transform="matrix(
          1 0
          0 1
          1 4
        )"><path fill-rule="nonzero" clip-rule="nonzero" d="M4 0L0 0L0 4L4 4L4 0Z" fill="currentColor" opacity="1"/></g>,<g transform="matrix(
          1 0
          0 1
          9 10
        )"><path fill-rule="nonzero" clip-rule="nonzero" d="M6 0L0 0L0 4L6 4L6 0Z" fill="currentColor" opacity="1"/></g>,<g transform="matrix(
          1 0
          0 1
          17 10
        )"><path fill-rule="nonzero" clip-rule="nonzero" d="M6 0L0 0L0 4L6 4L6 0Z" fill="currentColor" opacity="1"/></g>,<g transform="matrix(
          1 0
          0 1
          1 10
        )"><path fill-rule="nonzero" clip-rule="nonzero" d="M6 0L0 0L0 4L6 4L6 0Z" fill="currentColor" opacity="1"/></g>,<g transform="matrix(
          1 0
          0 1
          1 16
        )"><path fill-rule="nonzero" clip-rule="nonzero" d="M22 0L0 0L0 4L22 4L22 0Z" fill="currentColor" opacity="1"/></g>
</svg>