<svg width="24" height="24" viewBox="0 0 24 24" fill="none" xmlns="http://www.w3.org/2000/svg">
  <title>Person speech bubble (outlined)</title>
  <g transform="matrix(
          1 0
          0 1
          1 1
        )"><path fill-rule="evenodd" clip-rule="evenodd" d="M8 0C5.2 0 3 2.2 3 5C3 7.8 5.2 10 8 10C10.8 10 13 7.8 13 5C13 2.2 10.8 0 8 0ZM8 7C6.9 7 6 6.1 6 5C6 3.9 6.9 3 8 3C9.1 3 10 3.9 10 5C10 6.1 9.1 7 8 7ZM0 18L0 22L3 22L3 18C3 16.3 4.3 15 6 15L10 15L10 12L6 12C2.7 12 0 14.7 0 18ZM12 22L12 12L22 12L22 20L14 20L12 22Z" fill="currentColor" opacity="1"/></g>
</svg>