<svg width="24" height="24" viewBox="0 0 24 24" fill="none" xmlns="http://www.w3.org/2000/svg">
  <title>Snowflake (outlined)</title>
  <g transform="matrix(
          1 0
          0 1
          0.6100000143051147 0.699999988079071
        )"><path fill-rule="nonzero" clip-rule="nonzero" d="M22 12.26L17.94 13.35L14.39 11.3L17.94 9.25L22 10.34L22.78 7.44L19.56 6.58L20.42 3.37L17.53 2.59L16.44 6.65L12.89 8.7L12.89 5.58L16.35 2.12L14.23 0L11.39 2.84L8.55 0L6.43 2.12L9.89 5.58L9.89 8.7L6.34 6.65L5.25 2.59L2.36 3.37L3.22 6.58L0 7.44L0.78 10.34L4.84 9.25L8.39 11.3L4.84 13.35L0.78 12.26L0 15.16L3.22 16.02L2.36 19.23L5.25 20.01L6.34 15.95L9.89 13.9L9.89 17.02L6.43 20.48L8.55 22.6L11.39 19.76L14.23 22.6L16.35 20.48L12.89 17.02L12.89 13.9L16.44 15.95L17.53 20.01L20.42 19.23L19.56 16.02L22.78 15.16L22 12.26Z" fill="currentColor" opacity="1"/></g>
</svg>