<svg width="24" height="24" viewBox="0 0 24 24" fill="none" xmlns="http://www.w3.org/2000/svg">
  <title>Wrench (filled)</title>
  <g transform="matrix(
          1 0
          0 1
          1 1
        )"><path fill-rule="nonzero" clip-rule="nonzero" d="M22 18L18 22L8.6001 12.6C7.9001 12.8 7.2 13 6.5 13C2.9 13 0 10.1 0 6.5C0 5.5 0.200195 4.50001 0.700195 3.70001L4.5 7.5L6.7002 6.70001L7.5 4.5L3.7002 0.700012C4.6002 0.300012 5.5 0 6.5 0C10.1 0 13 2.9 13 6.5C13 7.3 12.9001 8.00001 12.6001 8.60001L22 18Z" fill="currentColor" opacity="1"/></g>
</svg>