<svg width="24" height="24" viewBox="0 0 24 24" fill="none" xmlns="http://www.w3.org/2000/svg">
  <title>Basketball (filled)</title>
  <g transform="matrix(
          1 0
          0 1
          0.998046875 0.9981689453125
        )"><path fill-rule="evenodd" clip-rule="evenodd" d="M16.5018 20.5281C21.7631 17.4906 23.5657 10.7631 20.5281 5.50184C17.4906 0.240618 10.7631 -1.56201 5.50184 1.47556C0.240618 4.51312 -1.56201 11.2406 1.47556 16.5018C4.51312 21.7631 11.2406 23.5657 16.5018 20.5281ZM10.4986 12.8801L13.879 18.7353C12.5743 19.2225 11.1996 19.3582 9.87665 19.1751C9.93348 17.3819 9.60111 15.5579 8.84521 13.8347L10.4986 12.8801ZM12.8801 11.5051L16.2606 17.3603C17.3346 16.4742 18.1394 15.3518 18.6423 14.1149C17.0607 13.2675 15.6471 12.0676 14.5325 10.5511L12.8801 11.5051ZM13.1574 8.1696L11.5051 9.12355L8.12466 3.26841C9.42895 2.78137 10.8032 2.64556 12.1258 2.82837C12.0689 4.62188 12.4014 6.44617 13.1574 8.1696ZM16.9328 9.16529C17.5959 10.01 18.381 10.7188 19.2482 11.2816C19.285 10.2255 19.1194 9.15333 18.7353 8.12465L16.9328 9.16529ZM17.3603 5.74309L15.5578 6.78375C15.1577 5.78708 14.9363 4.75266 14.8825 3.72028C15.8156 4.21642 16.6614 4.89602 17.3603 5.74309ZM9.12355 10.4986L7.47025 11.4531C6.35588 9.93683 4.94246 8.73688 3.36105 7.88941C3.86399 6.65227 4.66888 5.52967 5.74309 4.64341L9.12355 10.4986ZM5.0699 12.8389C4.40703 11.9944 3.62222 11.2857 2.75544 10.7231C2.71874 11.7788 2.88441 12.8506 3.26841 13.879L5.0699 12.8389ZM4.64341 16.2606C5.34195 17.1073 6.18732 17.7866 7.11988 18.2827C7.06601 17.2507 6.84467 16.2167 6.44484 15.2205L4.64341 16.2606Z" fill="currentColor" opacity="1"/></g>
</svg>