<svg width="24" height="24" viewBox="0 0 24 24" fill="none" xmlns="http://www.w3.org/2000/svg">
  <title>Circle i (filled)</title>
  <g transform="matrix(
          1 0
          0 1
          1 1
        )"><path fill-rule="nonzero" clip-rule="nonzero" d="M11 0C4.9 0 0 4.9 0 11C0 17.1 4.9 22 11 22C17.1 22 22 17.1 22 11C22 4.9 17.1 0 11 0ZM12.5 18L9.5 18L9.5 10L12.5 10L12.5 18ZM11 8C9.9 8 9 7.1 9 6C9 4.9 9.9 4 11 4C12.1 4 13 4.9 13 6C13 7.1 12.1 8 11 8Z" fill="currentColor" opacity="1"/></g>
</svg>