<svg width="24" height="24" viewBox="0 0 24 24" fill="none" xmlns="http://www.w3.org/2000/svg">
  <title>Weather sleet (outlined)</title>
  <g transform="matrix(
          1 0
          0 1
          1 1
        )"><path fill-rule="nonzero" clip-rule="nonzero" d="M22 12L22 9C22 4 18 0 13 0C10.4 0 7.9998 1.1 6.2998 3C6.1998 3 6.1 3 6 3C2.7 3 0 5.7 0 9L0 12L3.7002 12L7.6001 22L10.6001 22L6.7002 12L9.2002 12L13.1001 22L16.1001 22L12.2002 12L14.7002 12L18.6001 22L21.6001 22L17.7002 12L22 12ZM6 6C6.6 6 7.1001 6.2 7.6001 6.5C8.6001 4.5 10.6 3 13 3C16.3 3 19 5.7 19 9L3 9C3 7.3 4.3 6 6 6Z" fill="currentColor" opacity="1"/></g>
</svg>