<svg width="24" height="24" viewBox="0 0 24 24" fill="none" xmlns="http://www.w3.org/2000/svg">
  <title>Arrow roundabout left slight (filled)</title>
  <g transform="matrix(
          1 0
          0 1
          3 0.989990234375
        )"><path fill-rule="nonzero" clip-rule="nonzero" d="M11.5 5.01001C10.25 5.01001 9.09 5.37001 8.09 5.98001L4.95 2.84L9.11 3L6.11 0L0 0L0 6.12L3 9.12L2.84 4.96002L5.98 8.10001C5.37 9.09001 5.01 10.26 5.01 11.51C5.01 14.58 7.15 17.15 10.01 17.83L10.01 22.01L13.01 22.01L13.01 17.83C15.87 17.15 18.01 14.58 18.01 11.51C18 7.93001 15.08 5.01001 11.5 5.01001ZM11.5 15.01C9.57 15.01 8 13.44 8 11.51C8 9.58001 9.57 8.01001 11.5 8.01001C13.43 8.01001 15 9.58001 15 11.51C15 13.44 13.43 15.01 11.5 15.01Z" fill="currentColor" opacity="1"/></g>
</svg>