<svg width="24" height="24" viewBox="0 0 24 24" fill="none" xmlns="http://www.w3.org/2000/svg">
  <title>No parking (outlined)</title>
  <g transform="matrix(
          1 0
          0 1
          1 1
        )"><path fill-rule="nonzero" clip-rule="nonzero" d="M11 0C4.9 0 0 4.9 0 11C0 17.1 4.9 22 11 22C17.1 22 22 17.1 22 11C22 4.9 17.1 0 11 0ZM11 19C6.6 19 3 15.4 3 11C3 9.3 3.5 7.8 4.4 6.5L7 9.10001L7 16L10 16L10 14L11.9 14L15.5 17.6C14.2 18.5 12.7 19 11 19ZM10 9L12 9C12.6 9 13 9.4 13 10C13 10.6 12.6 11 12 11L10 9ZM17.6 15.5L14.9 12.8C15.6 12.1 16 11.1 16 10C16 7.8 14.2 6 12 6L8.1 6L6.5 4.39999C7.8 3.49999 9.3 3 11 3C15.4 3 19 6.6 19 11C19 12.7 18.5 14.2 17.6 15.5Z" fill="currentColor" opacity="1"/></g>
</svg>