<svg width="24" height="24" viewBox="0 0 24 24" fill="none" xmlns="http://www.w3.org/2000/svg">
  <title>Recycle (filled)</title>
  <g transform="matrix(
          1 0
          0 1
          0.7998046875 1
        )"><path fill-rule="evenodd" clip-rule="evenodd" d="M7.1001 10L10.2002 4.5L12 7.5L13.7002 4.5L11.1001 0L5.90039 0L4.1001 3L7.6001 3L3.7002 10L7.1001 10ZM10.6001 15L4.30029 15L6 12L2.5 12L0 16.5L2.5 21L6 21L4.30029 18L12.3003 18L10.6001 15ZM13.1001 9.5L14.8003 6.5L18.9004 13.5L20.7002 10.5L22.4004 13.5L19.8003 18L14.6001 18L12.9004 15L16.3003 15L13.1001 9.5Z" fill="currentColor" opacity="1"/></g>
</svg>