<svg width="24" height="24" viewBox="0 0 24 24" fill="none" xmlns="http://www.w3.org/2000/svg">
  <title>Person driver (outlined)</title>
  <g transform="matrix(
          1 0
          0 1
          3 1
        )"><path fill-rule="evenodd" clip-rule="evenodd" d="M9 11C12 11 14.5 8.5 14.5 5.5C14.5 2.5 12 0 9 0C6 0 3.5 2.5 3.5 5.5C3.5 8.5 6 11 9 11ZM9 3C10.4 3 11.5 4.1 11.5 5.5C11.5 6.9 10.4 8 9 8C7.6 8 6.5 6.9 6.5 5.5C6.5 4.1 7.6 3 9 3ZM9 17C6.2 17 4 19.2 4 22L7 22C7 20.9 7.9 20 9 20C10.1 20 11 20.9 11 22L14 22C14 19.2 11.8 17 9 17ZM6 13L12 13C15.3 13 18 15.7 18 19L18 22L15 22L15 19C15 17.3 13.6 16 12 16L6 16C4.4 16 3 17.3 3 19L3 22L0 22L0 19C0 15.7 2.7 13 6 13Z" fill="currentColor" opacity="1"/></g>
</svg>