<svg width="24" height="24" viewBox="0 0 24 24" fill="none" xmlns="http://www.w3.org/2000/svg">
  <title>Weather partly cloudy (filled)</title>
  <g transform="matrix(
          1 0
          0 1
          0.89990234375 3
        )"><path fill-rule="evenodd" clip-rule="evenodd" d="M5.1001 7.70001C3.8001 7.70001 2.6001 8.00001 1.6001 8.60001C0.700098 7.70001 0.1 6.4 0 5C0 2.2 2.2 0 5 0C7.8 0 10 2.2 10 5L10 5.20001C8.9 5.90001 7.9002 6.8 7.2002 8C6.6002 7.8 5.8001 7.70001 5.1001 7.70001ZM22.1001 17L0.100098 17L0.100098 15C0.100098 12.2 2.3001 10 5.1001 10C6.3001 10 7.40029 10.5 8.30029 11.2C9.10029 8.20001 11.9001 6 15.1001 6C19.0001 6 22.1001 9.1 22.1001 13L22.1001 17Z" fill="currentColor" opacity="1"/></g>
</svg>