<svg width="24" height="24" viewBox="0 0 24 24" fill="none" xmlns="http://www.w3.org/2000/svg">
  <title>Arrow roundabout right (outlined)</title>
  <g transform="matrix(
          1 0
          0 1
          2 2
        )"><path fill-rule="nonzero" clip-rule="nonzero" d="M0 6.5C0 2.92 2.92 0 6.5 0C9.57 0 12.14 2.14 12.82 5L17.32 5L14.5 1L17.83 1L21.86 6.5L17.83 12L14.5 12L17.32 8L12.82 8C12.25 10.38 10.38 12.25 8 12.82L8 20L5 20L5 12.82C2.14 12.14 0 9.57 0 6.5ZM6.5 10C8.43 10 10 8.43 10 6.5C10 4.57 8.43 3 6.5 3C4.57 3 3 4.57 3 6.5C3 8.43 4.57 10 6.5 10Z" fill="currentColor" opacity="1"/></g>
</svg>