<svg width="24" height="24" viewBox="0 0 24 24" fill="none" xmlns="http://www.w3.org/2000/svg">
  <title>Motorcycle (outlined)</title>
  <g transform="matrix(
          1 0
          0 1
          0 4
        )"><path fill-rule="nonzero" clip-rule="nonzero" d="M19 7L22 7L22 4L19.62 4L15.62 0L12 0L12 3L14.38 3L15.39 4.01L12.86 4.01C12 3.97 10.86 4.52 10.06 5.32L9.38 6L4 6C2.34 6 1 7.34 1 9L1.02 9C0.39 9.84 0 10.87 0 12C0 14.76 2.24 17 5 17C7.42 17 9.44 15.28 9.9 13L14.1 13C14.56 15.28 16.58 17 19 17C21.76 17 24 14.76 24 12C24 9.24 21.76 7 19 7ZM5 14C3.9 14 3 13.1 3 12C3 10.9 3.9 10 5 10C6.1 10 7 10.9 7 12C7 13.1 6.1 14 5 14ZM13.88 10L9.62 10L12.18 7.44C12.42 7.21 12.72 7.05 12.86 7.01L16.87 7.01L13.88 10ZM19 14C17.9 14 17 13.1 17 12C17 10.9 17.9 10 19 10C20.1 10 21 10.9 21 12C21 13.1 20.1 14 19 14Z" fill="currentColor" opacity="1"/></g>
</svg>