<svg width="24" height="24" viewBox="0 0 24 24" fill="none" xmlns="http://www.w3.org/2000/svg">
  <title>Phone asterisk (outlined)</title>
  <g transform="matrix(
          1 0
          0 1
          0 2
        )"><path fill-rule="nonzero" clip-rule="nonzero" d="M14.57 11.25L10.39 15.78C8.78 14.63 7.36 13.22 6.22 11.61L10.75 7.43L8.05 0L0 0L0 1.5C0 12.8 9.2 22 20.5 22L22 22L22 13.95L14.57 11.25ZM4.67 8.96C3.8 7.12 3.24 5.11 3.06 3L5.95 3L7.25 6.57L4.67 8.96ZM19 18.94C16.89 18.76 14.88 18.2 13.04 17.33L15.42 14.75L18.99 16.05L18.99 18.94L19 18.94Z" fill="currentColor" opacity="1"/></g>,<g transform="matrix(
          1 0
          0 1
          11.2802734375 2
        )"><path fill-rule="nonzero" clip-rule="nonzero" d="M10.44 4.88L9.51 2.03L6.72 2.94L6.72 0L3.72 0L3.72 2.94L0.93 2.03L0 4.88L2.79 5.79L1.07 8.16L3.49 9.93L5.22 7.55L6.95 9.93L9.37 8.16L7.65 5.79L10.44 4.88Z" fill="currentColor" opacity="1"/></g>
</svg>