<svg width="24" height="24" viewBox="0 0 24 24" fill="none" xmlns="http://www.w3.org/2000/svg">
  <title>Arrow merge up (filled)</title>
  <g transform="matrix(
          1 0
          0 1
          3 0.64013671875
        )"><path fill-rule="nonzero" clip-rule="nonzero" d="M9 0L16 5.12L16 8.84L10.5 4.82001L10.5 8.72C10.5 10.66 11.63 12.43 13.38 13.25C16.19 14.56 18 17.4 18 20.5L18 22.36L15 22.36L15 20.5C15 18.56 13.87 16.79 12.12 15.97C10.85 15.38 9.79 14.47 9 13.38C8.21 14.47 7.15 15.38 5.88 15.97C4.13 16.79 3 18.56 3 20.5L3 22.36L0 22.36L0 20.5C0 17.4 1.81 14.56 4.62 13.25C6.37 12.43 7.5 10.66 7.5 8.72L7.5 4.82001L2 8.84L2 5.12L9 0Z" fill="currentColor" opacity="1"/></g>
</svg>