<svg width="24" height="24" viewBox="0 0 24 24" fill="none" xmlns="http://www.w3.org/2000/svg">
  <title>Helmet (outlined)</title>
  <g transform="matrix(
          1 0
          0 1
          1 1
        )"><path fill-rule="nonzero" clip-rule="nonzero" d="M22 13L22 11C22 4.92 17.08 0 11 0C4.92 0 0 4.92 0 11C0 12.8 0.439999 14.5 1.21 16L5.58 16L17 22.66L17 19.17L16 18.59L16 13L22 13ZM3 11C3 6.59 6.59 3 11 3C15.07 3 18.44 6.06 18.94 10L11.39 10L7.89 13L3.26 13C3.09 12.35 3 11.68 3 11ZM13 16.84L10.04 15.11L12.5 13L13 13L13 16.84Z" fill="currentColor" opacity="1"/></g>
</svg>