<svg width="24" height="24" viewBox="0 0 24 24" fill="none" xmlns="http://www.w3.org/2000/svg">
  <title>Face sad (outlined)</title>
  <g transform="matrix(
          1 0
          0 1
          7.66015625 14
        )"><path fill-rule="nonzero" clip-rule="nonzero" d="M4.34 0C2.25 0 0.5 1.28 0 3L8.68 3C8.18 1.28 6.43 0 4.34 0Z" fill="currentColor" opacity="1"/></g>,<g transform="matrix(
          1 0
          0 1
          1 1
        )"><path fill-rule="nonzero" clip-rule="nonzero" d="M11 0C4.92 0 0 4.92 0 11C0 17.08 4.92 22 11 22C17.08 22 22 17.08 22 11C22 4.92 17.08 0 11 0ZM11 19C6.59 19 3 15.41 3 11C3 6.59 6.59 3 11 3C15.41 3 19 6.59 19 11C19 15.41 15.41 19 11 19Z" fill="currentColor" opacity="1"/></g>,<g transform="matrix(
          1 0
          0 1
          7 7.5
        )"><path fill-rule="nonzero" clip-rule="nonzero" d="M2 4C3.10457 4 4 3.10457 4 2C4 0.89543 3.10457 0 2 0C0.89543 0 0 0.89543 0 2C0 3.10457 0.89543 4 2 4Z" fill="currentColor" opacity="1"/></g>,<g transform="matrix(
          1 0
          0 1
          13 7.5
        )"><path fill-rule="nonzero" clip-rule="nonzero" d="M2 4C3.10457 4 4 3.10457 4 2C4 0.89543 3.10457 0 2 0C0.89543 0 0 0.89543 0 2C0 3.10457 0.89543 4 2 4Z" fill="currentColor" opacity="1"/></g>
</svg>