<svg width="24" height="24" viewBox="0 0 24 24" fill="none" xmlns="http://www.w3.org/2000/svg">
  <title>Arrow clockwise (outlined)</title>
  <g transform="matrix(
          1 0
          0 1
          3 0
        )"><path fill-rule="nonzero" clip-rule="nonzero" d="M14.9 13C14.9 16.3 12.2 19 8.89999 19C5.59999 19 2.89999 16.3 2.89999 13C2.89999 9.7 5.59999 7 8.89999 7C9.29999 7 9.8 7.1 10.2 7.2L6.7 12L10.4 12L14.8 6L10.4 0L6.7 0L9.7 4C9.5 4 9.2 4 9 4C4 4 0 8 0 13C0 18 4 22 9 22C14 22 18 18 18 13L14.9 13Z" fill="currentColor" opacity="1"/></g>
</svg>