<svg width="24" height="24" viewBox="0 0 24 24" fill="none" xmlns="http://www.w3.org/2000/svg">
  <title>Bone (outlined)</title>
  <g transform="matrix(
          1 0
          0 1
          1 1
        )"><path fill-rule="nonzero" clip-rule="nonzero" d="M18.93 3.07001C18.03 1.25001 16.16 0 14 0C10.97 0 8.5 2.47 8.5 5.5C8.5 5.74 8.52 5.98001 8.55 6.21001L6.21 8.55C5.98 8.52 5.74 8.5 5.5 8.5C2.47 8.5 0 10.97 0 14C0 16.16 1.25 18.03 3.07 18.93C3.97 20.75 5.84 22 8 22C11.03 22 13.5 19.53 13.5 16.5C13.5 16.26 13.48 16.02 13.45 15.79L15.79 13.45C16.02 13.48 16.26 13.5 16.5 13.5C19.53 13.5 22 11.03 22 8C22 5.84 20.75 3.97001 18.93 3.07001ZM16.5 10.5C15.94 10.5 15.42 10.31 15.01 9.99001L9.99 15.01C10.31 15.42 10.5 15.94 10.5 16.5C10.5 17.88 9.38 19 8 19C6.62 19 5.5 17.88 5.5 16.5C4.12 16.5 3 15.38 3 14C3 12.62 4.12 11.5 5.5 11.5C6.06 11.5 6.58 11.69 6.99 12.01L12.01 6.99001C11.69 6.58001 11.5 6.06 11.5 5.5C11.5 4.12 12.62 3 14 3C15.38 3 16.5 4.12 16.5 5.5C17.88 5.5 19 6.62 19 8C19 9.38 17.88 10.5 16.5 10.5Z" fill="currentColor" opacity="1"/></g>
</svg>