<svg width="24" height="24" viewBox="0 0 24 24" fill="none" xmlns="http://www.w3.org/2000/svg">
  <title>Job dishwasher (outlined)</title>
  <g transform="matrix(
          1 0
          0 1
          1 0.300048828125
        )"><path fill-rule="nonzero" clip-rule="nonzero" d="M21.1 4.60004L16.5 0L11.9 4.60004C11.8 4.70004 11.6 4.90004 11.5 5.10004C10.7 4.90004 9.9 4.70001 9 4.70001C4 4.70001 0 8.70001 0 13.7C0 18.7 4 22.7 9 22.7C13.3 22.7 16.9 19.6 17.8 15.6C19 15.4 20.2 14.8 21.1 13.8C23.6 11.3 23.6 7.10004 21.1 4.60004ZM9 19.7C5.7 19.7 3 17 3 13.7C3 10.4 5.7 7.70001 9 7.70001C9.4 7.70001 9.8 7.69999 10.2 7.79999C9.7 9.89999 10.3 12.2 12 13.8C12.8 14.6 13.8 15.2 14.8 15.5C14 17.9 11.7 19.7 9 19.7ZM19 11.7C17.6 13.1 15.4 13.1 14.1 11.7C12.7 10.3 12.7 8.09999 14.1 6.79999L16.6 4.29999L19 6.70001C20.3 8.10001 20.3 10.3 19 11.7Z" fill="currentColor" opacity="1"/></g>
</svg>