<svg width="24" height="24" viewBox="0 0 24 24" fill="none" xmlns="http://www.w3.org/2000/svg">
  <title>Wine (outlined)</title>
  <g transform="matrix(
          1 0
          0 1
          1 1
        )"><path fill-rule="evenodd" clip-rule="evenodd" d="M19 2L19 6.40002C20.8 7.20002 22 9 22 11L22 22L12 22L12 11C12 8.9 13.2 7.20002 15 6.40002L15 2L14 2L14 0L20 0L20 2L19 2ZM15 11L15 19L19 19L19 11C19 10.2 18.5 9.50001 17.8 9.20001L17 8.90002L16.2 9.20001C15.5 9.50001 15 10.2 15 11ZM3.5 15.7C1.5 15.1 0 13.2 0 11L0 6L10 6L10 11C10 13.2 8.5 15.1 6.5 15.7L6.5 19L9 19L9 22L1 22L1 19L3.5 19L3.5 15.7ZM7 9L3 9L3 11C3 12.1 3.9 13 5 13C6.1 13 7 12.1 7 11L7 9Z" fill="currentColor" opacity="1"/></g>
</svg>