<svg width="24" height="24" viewBox="0 0 24 24" fill="none" xmlns="http://www.w3.org/2000/svg">
  <title>Three dots horizontal (filled)</title>
  <g transform="matrix(
          1 0
          0 1
          1.9999998807907104 9.999999046325684
        )"><path fill-rule="nonzero" clip-rule="nonzero" d="M16 2C16 3.10457 16.8954 4 18 4C19.1046 4 20 3.10457 20 2C20 0.895431 19.1046 7.47664e-07 18 6.99382e-07C16.8954 6.511e-07 16 0.895431 16 2Z" fill="currentColor" opacity="1"/>
<path fill-rule="nonzero" clip-rule="nonzero" d="M8 2C8 3.10457 8.89543 4 10 4C11.1046 4 12 3.10457 12 2C12 0.895431 11.1046 3.97973e-07 10 3.49691e-07C8.89543 3.01408e-07 8 0.895431 8 2Z" fill="currentColor" opacity="1"/>
<path fill-rule="nonzero" clip-rule="nonzero" d="M2 4C0.895431 4 -4.82823e-08 3.10457 0 2C4.82823e-08 0.89543 0.895432 -4.82822e-08 2 0C3.10457 4.82823e-08 4 0.89543 4 2C4 3.10457 3.10457 4 2 4Z" fill="currentColor" opacity="1"/></g>
</svg>