<svg width="24" height="24" viewBox="0 0 24 24" fill="none" xmlns="http://www.w3.org/2000/svg">
  <title>Bus exit (filled)</title>
  <g transform="matrix(
          1 0
          0 1
          1 2
        )"><path fill-rule="nonzero" clip-rule="nonzero" d="M18 9L18 12L4 12L4 5L12 5L12 0L5 0C2.79 0 1 1.79 1 4L1 8L0 8L0 13L1 13L1 22L5 22L5 20L17 20L17 22L21 22L21 13L22 13L22 9L18 9ZM14 15L18 15L18 17L14 17L14 15ZM8 15L8 17L4 17L4 15L8 15Z" fill="currentColor" opacity="1"/></g>,<g transform="matrix(
          1 0
          0 1
          15 0
        )"><path fill-rule="nonzero" clip-rule="nonzero" d="M2.22 9L5.7 9L9 4.5L5.7 0L2.22 0L4.42 3L0 3L0 6L4.42 6L2.22 9Z" fill="currentColor" opacity="1"/></g>
</svg>