<svg width="24" height="24" viewBox="0 0 24 24" fill="none" xmlns="http://www.w3.org/2000/svg">
  <title>Escalator down (outlined)</title>
  <g transform="matrix(
          1 0
          0 1
          1 1.300048828125
        )"><path fill-rule="evenodd" clip-rule="evenodd" d="M5 6.70001L9.5 6.70001L6.5 9.70001L0 9.70001L0 3.20001L3 0.200012L3 4.70001L7.80005 0L9.69995 1.90002L5 6.70001ZM6 13.7L14 5.69995L22 5.69995L22 13.7L17 13.7L9 21.7L0 21.7L0 13.7L6 13.7ZM15.8 10.7L19 10.7L19 8.69995L15.2 8.69995L7.19995 16.7L3 16.7L3 18.7L7.80005 18.7L15.8 10.7Z" fill="currentColor" opacity="1"/></g>
</svg>