<svg width="24" height="24" viewBox="0 0 24 24" fill="none" xmlns="http://www.w3.org/2000/svg">
  <title>Grain (outlined)</title>
  <g transform="matrix(
          1 0
          0 1
          1.22509765625 1
        )"><path fill-rule="nonzero" clip-rule="nonzero" d="M21.875 12L19.375 9.5C19.275 9.4 19.175 9.29999 19.075 9.29999C20.675 8.09999 21.775 6.19998 21.775 4.09998L21.775 0.0999756L17.775 0.0999756C15.675 0.0999756 13.675 1.19999 12.575 2.79999C12.475 2.69999 12.375 2.6 12.375 2.5L9.875 0L6.875 3C6.175 3.7 5.675 4.50002 5.375 5.40002L4.875 4.90002L1.875 7.90002C-0.625 10.4 -0.625 14.6 1.875 17.1L4.77499 20C5.97499 21.2 7.675 21.9 9.375 21.9C11.075 21.9 12.775 21.2 13.975 20L16.975 17L16.575 16.6C17.475 16.3 18.275 15.8 18.975 15.1L21.875 12ZM8.875 5L9.77499 4.09998L10.175 4.5C11.575 5.9 11.575 8.10002 10.175 9.40002L9.27499 10.3L8.875 9.90002C7.475 8.60002 7.475 6.4 8.875 5ZM5.17499 14.5L4.27499 15.4L3.875 15C2.475 13.6 2.475 11.4 3.875 10.1L4.77499 9.20001L5.17499 9.59998C6.57499 10.9 6.57499 13.1 5.17499 14.5ZM11.775 17.9C11.075 18.6 10.275 18.9 9.27499 18.9C8.27499 18.9 7.47499 18.5 6.77499 17.9L6.375 17.5L7.27499 16.6C7.97499 15.9 8.77499 15.6 9.77499 15.6C10.775 15.6 11.575 16 12.275 16.6L12.675 17L11.775 17.9ZM16.775 12.9C16.075 13.6 15.275 13.9 14.275 13.9C13.275 13.9 12.475 13.5 11.775 12.9L11.375 12.5L12.275 11.6C12.975 10.9 13.775 10.6 14.775 10.6C15.775 10.6 16.575 11 17.275 11.6L17.675 12L16.775 12.9ZM18.775 4C18.775 5.9 17.175 7.5 15.275 7.5L14.275 7.5L14.275 6.5C14.275 4.6 15.875 3 17.775 3L18.775 3L18.775 4Z" fill="currentColor" opacity="1"/></g>
</svg>