<svg width="24" height="24" viewBox="0 0 24 24" fill="none" xmlns="http://www.w3.org/2000/svg">
  <title>Hand wave (filled)</title>
  <g transform="matrix(
          1 0
          0 1
          1 0.925048828125
        )"><path fill-rule="nonzero" clip-rule="nonzero" d="M20.1 10.175C20.6 9.675 21.5 9.675 22 10.175C22.6 10.675 22.6 11.475 22 12.075L14.5 19.575C12.9 21.175 10.8 22.075 8.5 22.075C3.8 22.075 0 18.275 0 13.575L0 11.075L2.2 1.075L2.6 1.075C3.9 1.075 5 2.175 5 3.475L5 8.075L12.6 0.375C13.1 -0.125 14 -0.125 14.5 0.375C15 0.875 15 1.775 14.5 2.275L9.64331 7.13169L10.6433 8.13169L17.4 1.375C17.9 0.875 18.8 0.875 19.3 1.375C19.8 1.875 19.8 2.775 19.3 3.275L12.5433 10.0317L13.5303 11.0187L19.3 5.175C19.8 4.675 20.7 4.675 21.2 5.175C21.7 5.675 21.7 6.575 21.2 7.075L15.3933 12.8817L16.3933 13.8817L20.1 10.175Z" fill="currentColor" opacity="1"/></g>
</svg>