<svg width="24" height="24" viewBox="0 0 24 24" fill="none" xmlns="http://www.w3.org/2000/svg">
  <title>Car seat baby (outlined)</title>
  <g transform="matrix(
          1 0
          0 1
          1 1.949951171875
        )"><path fill-rule="nonzero" clip-rule="nonzero" d="M9 2.5C9 3.88071 7.88071 5 6.5 5C5.11929 5 4 3.88071 4 2.5C4 1.11929 5.11929 0 6.5 0C7.88071 0 9 1.11929 9 2.5Z" fill="currentColor" opacity="1"/>
<path fill-rule="evenodd" clip-rule="evenodd" d="M18.6 16L21.3 14.7L22.6 17.3L19.9 18.6C18.1 19.5 16.2 19.9 14.3 19.9C12.9 19.9 11.6 19.7 10.3 19.3C7.2 18.2 4.6 16 3.1 13L0 6.79998L2.7 5.49998L4.43 8.96998L13.1 4.59998L14.4 7.29998L10.7 9.09998L10.8 9.39997C11.07 9.98997 11.49 10.49 11.99 10.89L13.05 9.21998L15.58 10.83L14.88 11.93C15.53 11.92 16.18 11.78 16.8 11.5L18.9 10.4L20.2 13.1L18.1 14.2C17 14.7 15.8 15 14.7 15C14.15 15 13.6 14.95 13.05 14.82L11.88 16.66C14.18 17.25 16.48 17.02 18.6 16ZM5.69 11.47L5.8 11.7C6.54 13.25 7.7 14.52 9.1 15.43L10.32 13.51C9.36 12.8 8.55 11.91 8 10.8L7.84 10.39L5.69 11.47Z" fill="currentColor" opacity="1"/></g>
</svg>