<svg width="24" height="24" viewBox="0 0 24 24" fill="none" xmlns="http://www.w3.org/2000/svg">
  <title>Hand stop (filled)</title>
  <g transform="matrix(
          1 0
          0 1
          3 0
        )"><path fill-rule="nonzero" clip-rule="nonzero" d="M18 8.5C16.9 8.5 16 9.4 16 10.5L16 13C16 13.6 15.6 14 15 14L15 2.5C15 1.7 14.3 1 13.5 1C12.7 1 12 1.7 12 2.5L12 11L11 11L11 1.5C11 0.7 10.3 0 9.5 0C8.7 0 8 0.7 8 1.5L8 11L7 11L7 2.5C7 1.7 6.3 1 5.5 1C4.7 1 4 1.7 4 2.5L4 11L3 11L3 5.5C3 4.7 2.3 4 1.5 4C0.7 4 0 4.7 0 5.5L0 14C0 19 4 23 9 23L9.80005 23C12.8 23 15.5 21.6 17.2 19.1C18.4 17.4 19 15.4 19 13.3L19 9.5C19 8.9 18.6 8.5 18 8.5Z" fill="currentColor" opacity="1"/></g>
</svg>