<svg width="24" height="24" viewBox="0 0 24 24" fill="none" xmlns="http://www.w3.org/2000/svg">
  <title>Share android (outlined)</title>
  <g transform="matrix(
          1 0
          0 1
          1 1
        )"><path fill-rule="nonzero" clip-rule="nonzero" d="M17 12C15.6 12 14.2999 12.6 13.3999 13.5L9.8999 11.8C9.8999 11.5 10 11.3 10 11C10 10.7 9.9999 10.5 9.8999 10.2L13.3999 8.5C14.2999 9.4 15.6 10 17 10C19.8 10 22 7.8 22 5C22 2.2 19.8 0 17 0C14.2 0 12 2.2 12 5C12 5.3 12.0001 5.49999 12.1001 5.79999L8.6001 7.5C7.7001 6.6 6.4 6 5 6C2.2 6 0 8.2 0 11C0 13.8 2.2 16 5 16C6.4 16 7.7001 15.4 8.6001 14.5L12.1001 16.2C12.1001 16.5 12 16.7 12 17C12 19.8 14.2 22 17 22C19.8 22 22 19.8 22 17C22 14.2 19.8 12 17 12ZM17 3C18.1 3 19 3.9 19 5C19 6.1 18.1 7 17 7C15.9 7 15 6.1 15 5C15 3.9 15.9 3 17 3ZM5 13C3.9 13 3 12.1 3 11C3 9.9 3.9 9 5 9C6.1 9 7 9.9 7 11C7 12.1 6.1 13 5 13ZM17 19C15.9 19 15 18.1 15 17C15 15.9 15.9 15 17 15C18.1 15 19 15.9 19 17C19 18.1 18.1 19 17 19Z" fill="currentColor" opacity="1"/></g>
</svg>