<svg width="24" height="24" viewBox="0 0 24 24" fill="none" xmlns="http://www.w3.org/2000/svg">
  <title>Car pickup (outlined)</title>
  <g transform="matrix(
          1 0
          0 1
          1 0
        )"><path fill-rule="evenodd" clip-rule="evenodd" d="M20.8 0L18.6 3L23 3L23 6L18.6 6L20.8 9L17.3 9L14 4.5L17.3 0L20.8 0ZM17.9 13L17.2 11L20.3 11L21 13L21 22L17 22L17 20L5 20L5 22L1 22L1 13L0 13L0 10L2 10L3.5 5.4C3.8 4.6 4.6 4 5.4 4L12 4L12 7L6.2 7L4.2 13L8 13L8 16L4 16L4 17L18 17L18 16L14 16L14 13L17.9 13Z" fill="currentColor" opacity="1"/></g>
</svg>