<svg width="24" height="24" viewBox="0 0 24 24" fill="none" xmlns="http://www.w3.org/2000/svg">
  <title>Key (outlined)</title>
  <g transform="matrix(
          1 0
          0 1
          0 0
        )"><path fill-rule="evenodd" clip-rule="evenodd" d="M13 8C13 5.2 10.8 3 8 3C5.2 3 3 5.2 3 8C3 10.8 5.2 13 8 13L14 13L14 16L17 16L17 19L20 19L20 16L12.8999 8.89999C12.9999 8.59999 13 8.3 13 8ZM0 8C0 3.6 3.6 0 8 0C12.3 0 15.9 3.49999 16 7.79999L22.1001 13.9L23 14.8L23 16L23 19L23 22L20 22L17 22L14 22L14 19L11 19L11 16L8 16C3.6 16 0 12.4 0 8ZM10 8C10 9.10457 9.10457 10 8 10C6.89543 10 6 9.10457 6 8C6 6.89543 6.89543 6 8 6C9.10457 6 10 6.89543 10 8Z" fill="currentColor" opacity="1"/></g>
</svg>