<svg width="24" height="24.00006103515625" viewBox="0 0 24 24" fill="none" xmlns="http://www.w3.org/2000/svg">
  <title>Funicular (outlined)</title>
  <g transform="matrix(
          1 0
          0 1
          1 0.590087890625
        )"><path fill-rule="nonzero" clip-rule="nonzero" d="M19 14.05L19 3.04999L20 2.75L20 0L1 5.60999L1 8.35999L2 8.06995L2 19.0699L0 19.66L0 22.41L22 15.91L22 13.16L19 14.05ZM16 8.32996L12 9.51996L12 5.10999L16 3.92999L16 8.32996ZM9 6L9 10.41L5 11.6L5 7.19L9 6ZM5 14.72L16 11.46L16 14.89L16.16 14.89L5 18.18L5 14.72Z" fill="currentColor" opacity="1"/></g>
</svg>