<svg width="24" height="24" viewBox="0 0 24 24" fill="none" xmlns="http://www.w3.org/2000/svg">
  <title>Car clock (outlined)</title>
  <g transform="matrix(
          1 0
          0 1
          1 0
        )"><path fill-rule="nonzero" clip-rule="nonzero" d="M23 7C23 3.1 19.9 0 16 0C12.1 0 9 3.1 9 7C9 7.3 9 7.7 9.1 8L5.4 8C4.6 8 3.8 8.5 3.5 9.3L1.4 15L0 15L0 18L1 18L1 23L5 23L5 22L14 22L14 23L18 23L18 18L19 18L19 15L17.6 15L17.2 13.9C20.5 13.3 23 10.5 23 7ZM15 19L4 19L4 18L7 18L7 16L4.2 16L6.1 11L10.3 11C11.2 12.3 12.5 13.2 14 13.7L14.9 16L12 16L12 18L15 18L15 19ZM16 11C13.8 11 12 9.2 12 7C12 4.8 13.8 3 16 3C18.2 3 20 4.8 20 7C20 9.2 18.2 11 16 11Z" fill="currentColor" opacity="1"/></g>,<g transform="matrix(
          1 0
          0 1
          16 4
        )"><path fill-rule="nonzero" clip-rule="nonzero" d="M2 0L0 0L0 4L3 4L3 2L2 2L2 0Z" fill="currentColor" opacity="1"/></g>
</svg>