<svg width="24" height="24" viewBox="0 0 24 24" fill="none" xmlns="http://www.w3.org/2000/svg">
  <title>Weather lightning (filled)</title>
  <g transform="matrix(
          1 0
          0 1
          1 3
        )"><path fill-rule="nonzero" clip-rule="nonzero" d="M22 11L22 7C22 3.1 18.9 0 15 0C11.8 0 9.0002 2.20001 8.2002 5.20001C7.3002 4.50001 6.2 4 5 4C2.2 4 0 6.2 0 9L0 11L4.1001 11L3 16L7 16L7 20L7.8999 20L11 13L7.2002 13L7.6001 11L13.1001 11L12 16L16 16L16 20L16.8999 20L20 13L16.2002 13L16.6001 11L22 11Z" fill="currentColor" opacity="1"/></g>
</svg>