<svg width="24" height="24" viewBox="0 0 24 24" fill="none" xmlns="http://www.w3.org/2000/svg">
  <title>Network (outlined)</title>
  <g transform="matrix(
          1 0
          0 1
          0 0
        )"><path fill-rule="nonzero" clip-rule="nonzero" d="M22.008 13.3C22.008 13.2 22.008 13.1 22.008 13C22.008 9.1 19.7088 5.7 16.51 4.1C16.2101 1.8 14.3107 0 12.0115 0C9.71233 0 7.81299 1.8 7.51309 4.1C4.3142 5.7 2.015 9.1 2.015 13C2.015 13.1 2.015 13.2 2.015 13.3C0.0156992 14.6 -0.584092 17.2 0.61549 19.3C1.41521 20.7 2.91469 21.6 4.51413 21.6C5.11392 21.6 5.71372 21.5 6.21354 21.3C7.91295 22.3 9.91226 23 12.0115 23C14.1108 23 16.1101 22.3 17.8095 21.2C18.4093 21.4 18.9091 21.5 19.5089 21.5C21.1084 21.5 22.6078 20.7 23.4076 19.2C24.6071 17.2 23.9074 14.6 22.008 13.3ZM12.0115 3C12.8112 3 13.511 3.7 13.511 4.5C13.511 5.3 12.8112 6 12.0115 6C11.2118 6 10.512 5.3 10.512 4.5C10.512 3.7 11.2118 3 12.0115 3ZM3.21459 17.8C2.81473 17.1 3.01466 16.2 3.71441 15.8C3.91434 15.7 4.21424 15.6 4.41417 15.6C4.91399 15.6 5.41382 15.9 5.71372 16.4C6.11358 17.1 5.91365 18 5.21389 18.4C5.01396 18.5 4.71406 18.6 4.51413 18.6C4.01431 18.5 3.51448 18.2 3.21459 17.8ZM8.51274 19.1C9.2125 17.8 9.2125 16.2 8.41278 14.8C7.71302 13.5 6.41347 12.7 5.01396 12.6C5.21389 10.3 6.41347 8.3 8.31281 7.1C9.11253 8.2 10.512 9 12.0115 9C13.511 9 14.9105 8.2 15.7102 7.1C17.6096 8.3 18.8092 10.2 19.0091 12.6C17.6096 12.8 16.41 13.5 15.6103 14.8C14.8106 16.2 14.8106 17.8 15.5103 19.1C14.5107 19.7 13.3111 20 12.0115 20C10.712 20 9.51239 19.7 8.51274 19.1ZM20.8085 17.8C20.5086 18.3 20.0087 18.6 19.5089 18.6C19.209 18.6 19.0091 18.5 18.8092 18.4C18.1094 18 17.8095 17.1 18.3093 16.4C18.6092 15.9 19.1091 15.6 19.6089 15.6C19.9088 15.6 20.1087 15.7 20.3086 15.8C21.0084 16.1 21.2083 17 20.8085 17.8Z" fill="currentColor" opacity="1"/></g>
</svg>