<svg width="24" height="24" viewBox="0 0 24 24" fill="none" xmlns="http://www.w3.org/2000/svg">
  <title>Car check (filled)</title>
  <g transform="matrix(
          1 0
          0 1
          1 3
        )"><path fill-rule="nonzero" clip-rule="nonzero" d="M15.81 7.18L10.5 5.5L4 0L0 0L0 16L3.03 16C3.28 13.2 5.64 11 8.5 11C11.36 11 13.72 13.2 13.97 16L20 16L20 12.9C20 10.28 18.3 7.96 15.81 7.18Z" fill="currentColor" opacity="1"/></g>,<g transform="matrix(
          1 0
          0 1
          6 16
        )"><path fill-rule="nonzero" clip-rule="nonzero" d="M3.5 7C5.433 7 7 5.433 7 3.5C7 1.567 5.433 0 3.5 0C1.567 0 0 1.567 0 3.5C0 5.433 1.567 7 3.5 7Z" fill="currentColor" opacity="1"/></g>,<g transform="matrix(
          1 0
          0 1
          13.43994140625 0.43994140625
        )"><path fill-rule="nonzero" clip-rule="nonzero" d="M10.12 2.12L8 0L4.06 3.94L2.12 2L0 4.12L4.06 8.18L10.12 2.12Z" fill="currentColor" opacity="1"/></g>
</svg>