<svg width="24" height="24" viewBox="0 0 24 24" fill="none" xmlns="http://www.w3.org/2000/svg">
  <title>Car ski rack (outlined)</title>
  <g transform="matrix(
          1 0
          0 1
          1 1
        )"><path fill-rule="nonzero" clip-rule="nonzero" d="M20 10L18.5 5.40002C18.2 4.60002 17.5001 4 16.6001 4L16 4L16 2.79999C17.2 2.39999 18 1.3 18 0L4 0C4 1.3 4.8 2.39999 6 2.79999L6 4L5.3999 4C4.4999 4 3.8 4.60002 3.5 5.40002L2 10L0 10L0 13L1 13L1 22L5 22L5 20L17 20L17 22L21 22L21 13L22 13L22 10L20 10ZM9 3L13 3L13 4L9 4L9 3ZM18 17L17 17L5 17L4 17L4 16L8 16L8 13L4.2002 13L6.2002 7L15.8999 7L17.8999 13L14.1001 13L14.1001 16L18.1001 16L18.1001 17L18 17Z" fill="currentColor" opacity="1"/></g>
</svg>