<svg width="24" height="24" viewBox="0 0 24 24" fill="none" xmlns="http://www.w3.org/2000/svg">
  <title>Elevator up (filled)</title>
  <g transform="matrix(
          1 0
          0 1
          1 1
        )"><path fill-rule="evenodd" clip-rule="evenodd" d="M11 0L11 22L0 22L0 0L11 0ZM9 9L5.5 3.5L2 9L9 9ZM9 17L5.5 11.5L2 17L9 17ZM18 5C19.3807 5 20.5 3.88071 20.5 2.5C20.5 1.11929 19.3807 0 18 0C16.6193 0 15.5 1.11929 15.5 2.5C15.5 3.88071 16.6193 5 18 5ZM17 7C15.3 7 14 8.3 14 10L14 16L15 16L15 22L21 22L21 16L22 16L22 10C22 8.3 20.7 7 19 7L17 7Z" fill="currentColor" opacity="1"/></g>
</svg>