<svg width="24" height="24" viewBox="0 0 24 24" fill="none" xmlns="http://www.w3.org/2000/svg">
  <title>Delivery bag remove (outlined)</title>
  <g transform="matrix(
          1 0
          0 1
          1 1
        )"><path fill-rule="evenodd" clip-rule="evenodd" d="M3 8L3 16C3 17.7 4.3 19 6 19L10 19L10 22L6 22C2.7 22 0 19.3 0 16L0 5L5 5L5 0L17 0L17 5L22 5L22 10L19 10L19 8L3 8ZM14 3L8 3L8 5L14 5L14 3ZM19.8999 12.4L22.1001 14.6L19.3999 17.2L22.1001 19.9L19.8999 22.1L17.2 19.4L14.6001 22.1L12.3999 19.9L15.1001 17.2L12.3999 14.6L14.6001 12.4L17.2 15.1L19.8999 12.4Z" fill="currentColor" opacity="1"/></g>
</svg>