<svg width="24" height="24" viewBox="0 0 24 24" fill="none" xmlns="http://www.w3.org/2000/svg">
  <title>Stop left (outlined)</title>
  <g transform="matrix(
          1 0
          0 1
          1 0
        )"><path fill-rule="evenodd" clip-rule="evenodd" d="M6 12L6 8.70001C7.7 8.10001 9 6.4 9 4.5C9 2 7 0 4.5 0C2 0 0 2 0 4.5C0 6.5 1.3 8.10001 3 8.70001L3 12L6 12ZM4.5 3C5.3 3 6 3.7 6 4.5C6 5.3 5.3 6 4.5 6C3.7 6 3 5.3 3 4.5C3 3.7 3.7 3 4.5 3ZM4.7002 23L7.7002 23L16.6001 1L13.6001 1L4.7002 23ZM13.7002 23L10.7002 23L12.7002 18L15.7002 18L13.7002 23ZM13.8999 15L17 15L19.3999 9L16.3999 9L13.8999 15ZM17.6001 6L19.6001 1L22.6001 1L20.6001 6L17.6001 6Z" fill="currentColor" opacity="1"/></g>
</svg>