<svg width="24" height="24" viewBox="0 0 24 24" fill="none" xmlns="http://www.w3.org/2000/svg">
  <title>Chart scatter (filled)</title>
  <g transform="matrix(
          1 0
          0 1
          1 1
        )"><path fill-rule="nonzero" clip-rule="nonzero" d="M3 0L0 0L0 22L22 22L22 19L3 19L3 0Z" fill="currentColor" opacity="1"/></g>,<g transform="matrix(
          1 0
          0 1
          6 4
        )"><path fill-rule="nonzero" clip-rule="nonzero" d="M3 6C4.65685 6 6 4.65685 6 3C6 1.34315 4.65685 0 3 0C1.34315 0 0 1.34315 0 3C0 4.65685 1.34315 6 3 6Z" fill="currentColor" opacity="1"/></g>,<g transform="matrix(
          1 0
          0 1
          12 11
        )"><path fill-rule="nonzero" clip-rule="nonzero" d="M3 6C4.65685 6 6 4.65685 6 3C6 1.34315 4.65685 0 3 0C1.34315 0 0 1.34315 0 3C0 4.65685 1.34315 6 3 6Z" fill="currentColor" opacity="1"/></g>,<g transform="matrix(
          1 0
          0 1
          17 2
        )"><path fill-rule="nonzero" clip-rule="nonzero" d="M3 6C4.65685 6 6 4.65685 6 3C6 1.34315 4.65685 0 3 0C1.34315 0 0 1.34315 0 3C0 4.65685 1.34315 6 3 6Z" fill="currentColor" opacity="1"/></g>
</svg>