<svg width="24" height="24" viewBox="0 0 24 24" fill="none" xmlns="http://www.w3.org/2000/svg">
  <title>Mosque (outlined)</title>
  <g transform="matrix(
          1 0
          0 1
          1.0999755859375 1.04296875
        )"><path fill-rule="evenodd" clip-rule="evenodd" d="M14.8472 3.46481L18.312 0L21.7768 3.46481L18.312 6.92961L14.8472 3.46481ZM9.5 5.25698C9.5 9.25698 12.7001 12.457 16.7001 12.457C18.7001 12.457 20.5 11.557 22 10.357L22 11.057C22 17.157 17.1 22.057 11 22.057C4.9 22.057 0 17.157 0 11.057C0 4.95697 4.9 0.0569702 11 0.0569702L11.7001 0.0569702C10.4001 1.35697 9.5 3.25698 9.5 5.25698ZM2.90002 10.957C2.90002 15.357 6.50002 18.957 10.9 18.957C13.7 18.957 16.1 17.557 17.5 15.457L16.6 15.457C11 15.457 6.40002 10.957 6.40002 5.25698L6.40002 4.35702C4.30002 5.75702 2.90002 8.15699 2.90002 10.957Z" fill="currentColor" opacity="1"/></g>
</svg>