<svg width="24" height="24" viewBox="0 0 24 24" fill="none" xmlns="http://www.w3.org/2000/svg">
  <title>Weather moon (outlined)</title>
  <g transform="matrix(
          1 0
          0 1
          1 1
        )"><path fill-rule="nonzero" clip-rule="nonzero" d="M6.5 4.39999C6 10.7 11.3001 16 17.6001 15.5C16.2001 17.6 13.7 19 11 19C6.6 19 3 15.4 3 11C3 8.2 4.4 5.79999 6.5 4.39999ZM11 0C4.9 0 0 4.9 0 11C0 17.1 4.9 22 11 22C17.1 22 22 17.1 22 11C22 10.8 22 10.5 22 10.3C20.7 11.7 18.7998 12.5 16.7998 12.5C12.7998 12.5 9.6001 9.29999 9.6001 5.29999C9.6001 3.29999 10.4998 1.40001 11.7998 0.100006C11.4998 6.10203e-06 11.2 0 11 0Z" fill="currentColor" opacity="1"/></g>
</svg>