<svg width="24" height="24" viewBox="0 0 24 24" fill="none" xmlns="http://www.w3.org/2000/svg">
  <title>Car check front (filled)</title>
  <g transform="matrix(
          1 0
          0 1
          1 3
        )"><path fill-rule="nonzero" clip-rule="nonzero" d="M4.83 7L6.16 3L10 3L10 0L5.44 0C4.58 0 3.82 0.55 3.54 1.37L2 6L0 6L0 9L1 9L1 18L5 18L5 16L17 16L17 18L21 18L21 9L22 9L22 7L4.83 7ZM8 13L4 13L4 11L8 11L8 13ZM18 13L14 13L14 11L18 11L18 13Z" fill="currentColor" opacity="1"/></g>,<g transform="matrix(
          1 0
          0 1
          13.43994140625 0.43994140625
        )"><path fill-rule="nonzero" clip-rule="nonzero" d="M10.12 2.12L8 0L4.06 3.94L2.12 2L0 4.12L4.06 8.18L10.12 2.12Z" fill="currentColor" opacity="1"/></g>
</svg>