<svg width="24" height="24" viewBox="0 0 24 24" fill="none" xmlns="http://www.w3.org/2000/svg">
  <title>Delivery bag remove (filled)</title>
  <g transform="matrix(
          1 0
          0 1
          1 1
        )"><path fill-rule="evenodd" clip-rule="evenodd" d="M22 12.4C21 11.8 19.8 11.5 18.5 11.5C14.6 11.5 11.5 14.6 11.5 18.5C11.5 19.8 11.7999 21 12.3999 22L6 22C2.7 22 0 19.3 0 16L0 6L4 6L4 0L18 0L18 6L22 6L22 12.4ZM7 3L7 6L15 6L15 3L7 3ZM18.5 16.5L21 14L23 16L20.5 18.5L23 21L21 23L18.5 20.5L16 23L14 21L16.5 18.5L14 16L16 14L18.5 16.5Z" fill="currentColor" opacity="1"/></g>
</svg>