<svg width="24" height="24" viewBox="0 0 24 24" fill="none" xmlns="http://www.w3.org/2000/svg">
  <title>Car bus (filled)</title>
  <g transform="matrix(
          1 0
          0 1
          7 0
        )"><path fill-rule="nonzero" clip-rule="nonzero" d="M16 5L16 3C16 1.34 14.66 0 13 0L4 0C2.34 0 1 1.34 1 3L1 5L0 5L0 9L1 9L4 9L4 4L13 4L13 10L7.75 10C8.24 10.43 8.64 10.97 8.87 11.6L9.71 14L12 14L12 16L12 17L16 17L16 10L17 10L17 5L16 5Z" fill="currentColor" opacity="1"/></g>,<g transform="matrix(
          1 0
          0 1
          0 11
        )"><path fill-rule="nonzero" clip-rule="nonzero" d="M14 1.3C13.7 0.500003 12.9 0 12.1 0L4.9 0C4 0 3.3 0.500003 3 1.3L1.7 5L0 5L0 8L1 8L1 12L4 12L4 11L13 11L13 12L16 12L16 8L17 8L17 5L15.3 5L14 1.3ZM6 9L3 9L3 7L6 7L6 9ZM14 9L11 9L11 7L14 7L14 8L14 9Z" fill="currentColor" opacity="1"/></g>
</svg>