<svg width="24" height="24" viewBox="0 0 24 24" fill="none" xmlns="http://www.w3.org/2000/svg">
  <title>Bell (filled)</title>
  <g transform="matrix(
          1 0
          0 1
          3 0
        )"><path fill-rule="evenodd" clip-rule="evenodd" d="M17 10L17 15L18 15L18 18L0 18L0 15L1 15L1 10C1 6.3 3.6 3.19999 7 2.29999L7 0L11 0L11 2.29999C14.4 3.19999 17 6.3 17 10ZM9 23C8.4 23 7.80005 22.8 7.30005 22.3L5 20L13 20L10.7 22.3C10.3 22.7 9.6 23 9 23Z" fill="currentColor" opacity="1"/></g>
</svg>