<svg width="24" height="24" viewBox="0 0 24 24" fill="none" xmlns="http://www.w3.org/2000/svg">
  <title>Tire flat (filled)</title>
  <g transform="matrix(
          1 0
          0 1
          1 2
        )"><path fill-rule="nonzero" clip-rule="nonzero" d="M20.34 16.77C21.38 15.09 22 13.13 22 11C22 4.92 17.08 0 11 0C4.92 0 0 4.92 0 11C0 13.12 0.62 15.09 1.66 16.77C0.66 17.5 0 18.67 0 20L22 20C22 18.67 21.34 17.49 20.34 16.77ZM17.96 11.69L14.97 10.72C14.92 10.05 14.72 9.43002 14.39 8.90002L16.23 6.37C17.33 7.60999 18 9.23001 18 11.01C18 11.23 17.99 11.46 17.96 11.69ZM13.8 4.59003L11.96 7.13C11.65 7.05 11.33 7 11 7C10.67 7 10.35 7.05 10.04 7.13L8.2 4.59003C9.06 4.21003 10 4 11 4C12 4 12.94 4.21003 13.8 4.59003ZM5.77 6.35999L7.61 8.89001C7.28 9.43001 7.07 10.05 7.03 10.71L4.04 11.68C4.01 11.46 4 11.23 4 11C4 9.22 4.67 7.59999 5.77 6.35999ZM6.12 16C5.67 15.56 5.29 15.07 4.98 14.53L7.96 13.56C8.38 14.05 8.9 14.45 9.5 14.7L9.5 16L6.12 16L6.12 16ZM12.5 16L12.5 14.7C13.11 14.45 13.63 14.06 14.04 13.56L17.02 14.53C16.71 15.06 16.33 15.56 15.88 16L12.5 16L12.5 16Z" fill="currentColor" opacity="1"/></g>
</svg>