<svg width="24" height="24" viewBox="0 0 24 24" fill="none" xmlns="http://www.w3.org/2000/svg">
  <title>Stop right (outlined)</title>
  <g transform="matrix(
          1 0
          0 1
          0.39990234375 0
        )"><path fill-rule="evenodd" clip-rule="evenodd" d="M22.6001 4.5C22.6001 2 20.6001 0 18.1001 0C15.6001 0 13.6001 2 13.6001 4.5C13.6001 6.5 14.9001 8.10001 16.6001 8.70001L16.6001 12L19.6001 12L19.6001 8.70001C21.3001 8.10001 22.6001 6.5 22.6001 4.5ZM18.1001 6C17.3001 6 16.6001 5.3 16.6001 4.5C16.6001 3.7 17.3001 3 18.1001 3C18.9001 3 19.6001 3.7 19.6001 4.5C19.6001 5.3 18.9001 6 18.1001 6ZM6 1L14.8999 23L17.8999 23L9 1L6 1ZM0 1L3 1L5 6L2 6L0 1ZM6.2002 9L3.2002 9L5.6001 15L8.7002 15L6.2002 9ZM8.8999 23L6.8999 18L9.8999 18L11.8999 23L8.8999 23Z" fill="currentColor" opacity="1"/></g>
</svg>