<svg width="24" height="24" viewBox="0 0 24 24" fill="none" xmlns="http://www.w3.org/2000/svg">
  <title>Ear (outlined)</title>
  <g transform="matrix(
          1 0
          0 1
          4 1
        )"><path fill-rule="nonzero" clip-rule="nonzero" d="M11.5 22C10.18 22 8.93 21.42 8.07 20.42L1.91 13.19C0.68 11.74 0 9.9 0 8C0 3.59 3.59 0 8 0C12.41 0 16 3.59 16 8L10.5 8C9.67 8 9 8.67 9 9.5C9 9.99 9.24 10.45 9.65 10.73L14.07 13.8C15.28 14.64 16.01 16.02 16.01 17.5C16 19.98 13.98 22 11.5 22ZM8 3C5.24 3 3 5.24 3 8C3 9.19 3.42 10.34 4.19 11.24L10.35 18.47C10.64 18.81 11.05 19 11.49 19C12.32 19 12.99 18.33 12.99 17.5C12.99 17.01 12.75 16.55 12.34 16.27L7.94 13.2C6.73 12.36 6 10.98 6 9.5C6 7.02 8.02 5 10.5 5L12 5C11.09 3.79 9.63 3 8 3Z" fill="currentColor" opacity="1"/></g>
</svg>