<svg width="24" height="24" viewBox="0 0 24 24" fill="none" xmlns="http://www.w3.org/2000/svg">
  <title>Fire (outlined)</title>
  <g transform="matrix(
          1 0
          0 1
          3 1
        )"><path fill-rule="nonzero" clip-rule="nonzero" d="M9 3.95C11.66 6.42 15 10.27 15 13C15 14.49 14.6 15.77 13.85 16.76C12.86 15.03 11.43 13.88 10.38 13.34L8.99 12.61L7.6 13.34C6.56 13.88 5.13 15.04 4.13 16.76C3.4 15.77 3 14.49 3 13C3 10.29 6.35 6.43 9 3.95ZM9 0C9 0 0 7 0 13C0 17.33 2.51 20.42 6 21.53L6 21.5C5.79 17.68 9 16 9 16C9 16 12.21 17.68 12 21.5L12 21.53C15.49 20.41 18 17.33 18 13C18 7 9 0 9 0Z" fill="currentColor" opacity="1"/></g>
</svg>