<svg width="24" height="24" viewBox="0 0 24 24" fill="none" xmlns="http://www.w3.org/2000/svg">
  <title>Thermometer (outlined)</title>
  <g transform="matrix(
          1 0
          0 1
          6 1
        )"><path fill-rule="nonzero" clip-rule="nonzero" d="M10 11.54L10 4C10 1.79 8.21 0 6 0C3.79 0 2 1.79 2 4L2 11.54C0.77 12.63 0 14.23 0 16C0 19.31 2.69 22 6 22C9.31 22 12 19.31 12 16C12 14.23 11.23 12.63 10 11.54ZM6 19C4.35 19 3 17.65 3 16C3 14.7 3.84 13.59 5 13.18L5 9L7 9L7 13.18C8.16 13.59 9 14.7 9 16C9 17.65 7.65 19 6 19Z" fill="currentColor" opacity="1"/></g>
</svg>