<svg width="24" height="24" viewBox="0 0 24 24" fill="none" xmlns="http://www.w3.org/2000/svg">
  <title>Text strikethrough (outlined)</title>
  <g transform="matrix(
          1 0
          0 1
          2 2
        )"><path fill-rule="nonzero" clip-rule="nonzero" d="M8.5 8C7.6 7.5 7 6.6 7 5.5C7 3.9 8.8 3 10.5 3C12.9 3 13.7 5 13.9 6L17 6C16.7 4 15 0 10.5 0C7.3 0 4 2.1 4 5.5C4 6.4 4.19998 7.2 4.59998 8L0 8L0 11L20 11L20 8L8.5 8Z" fill="currentColor" opacity="1"/>
<path fill-rule="nonzero" clip-rule="nonzero" d="M13.9 13C14 13.4 14 13.9 14 14.5C14 15.7 12.6 17 10.5 17C8.3 17 6.8 15.2 6.5 14L3.5 14C3.5 14.1 3.5 14.2 3.5 14.2C3.9 17 6.6 20 10.5 20C14.5 20 17 17.1 17 14.5C17 13.9 17 13.5 16.9 13L13.9 13Z" fill="currentColor" opacity="1"/></g>
</svg>