<svg width="24" height="24" viewBox="0 0 24 24" fill="none" xmlns="http://www.w3.org/2000/svg">
  <title>Sushi (filled)</title>
  <g transform="matrix(
          1 0
          0 1
          1 1
        )"><path fill-rule="evenodd" clip-rule="evenodd" d="M0 6.5C0 2.9 4.9 0 11 0C17.1 0 22 2.9 22 6.5L22 15.5C22 19.1 17.1 22 11 22C4.9 22 0 19.1 0 15.5L0 6.5ZM19 6.5C19 5 15.4 3 11 3C8 3 3 4.4 3 6.5C3 8 6.6 10 11 10C14 10 19 8.6 19 6.5ZM13.5 6.5C13.5 7.32843 12.3807 8 11 8C9.61929 8 8.5 7.32843 8.5 6.5C8.5 5.67157 9.61929 5 11 5C12.3807 5 13.5 5.67157 13.5 6.5Z" fill="currentColor" opacity="1"/></g>
</svg>