<svg width="24" height="24" viewBox="0 0 24 24" fill="none" xmlns="http://www.w3.org/2000/svg">
  <title>Leather (outlined)</title>
  <g transform="matrix(
          1 0
          0 1
          2 1
        )"><path fill-rule="nonzero" clip-rule="nonzero" d="M10.9 3C12 4.3 13.6 5.60002 15.9 6.40002C14.7 7.60002 13.9 9.3 13.9 11C13.9 12.8 14.6 14.4 15.8 15.6C13.2 16.2 11.2 17.2 9.9 18.1C8.6 17.2 6.7 16.2 4 15.6C5.2 14.4 5.9 12.8 5.9 11C5.9 9.2 5.2 7.60002 3.9 6.40002C6.2 5.60002 7.8 4.3 8.9 3L10.9 3ZM12.5 0L7.5 0C7.5 0 5.5 4 0 4L0 7.5C1.7 7.8 3 9.3 3 11C3 12.7 1.7 14.2 0 14.5L0 18C7.5 18.5 10 22 10 22C10 22 12.5 18.5 20 18L20 14.5C18.3 14.2 17 12.7 17 11C17 9.3 18.3 7.8 20 7.5L20 4C14.5 4 12.5 0 12.5 0Z" fill="currentColor" opacity="1"/></g>
</svg>