<svg width="24" height="24" viewBox="0 0 24 24" fill="none" xmlns="http://www.w3.org/2000/svg">
  <title>Peanut (filled)</title>
  <g transform="matrix(
          1 0
          0 1
          2 2
        )"><path fill-rule="nonzero" clip-rule="nonzero" d="M17.06 0L15.88 0C12.46 0 9.34 2.15001 8.11 5.35001C7.62 6.61001 6.61 7.62 5.34 8.11C1.99 9.4 0 12.9 0 15.25C0 17.86 2.12 20 4.75 20C7.04 20 10.57 18.1 11.89 14.65C12.38 13.39 13.39 12.38 14.66 11.89C17.85 10.66 20 7.54 20 4.12L20 2.94C20 1.32 18.68 0 17.06 0Z" fill="currentColor" opacity="1"/></g>
</svg>