<svg width="24.060054779052734" height="24" viewBox="0 0 24 24" fill="none" xmlns="http://www.w3.org/2000/svg">
  <title>Video camera off (outlined)</title>
  <g transform="matrix(
          1 0
          0 1
          0 1.44000244140625
        )"><path fill-rule="nonzero" clip-rule="nonzero" d="M23.06 2.06L17.06 6.73L17.06 4.67999L19.62 2.12L17.5 0L13.94 3.56L1.06 3.56L1.06 16.44L0 17.5L2.12 19.62L4.18 17.56L17.06 17.56L17.06 14.39L23.06 19.06L23.06 2.06ZM4.06 6.56L10.94 6.56L4.06 13.44L4.06 6.56ZM14.06 14.56L7.18 14.56L14.06 7.67999L14.06 9.06L14.06 12.06L14.06 14.56ZM20.06 12.93L17.06 10.6L17.06 10.53L20.06 8.2L20.06 12.93Z" fill="currentColor" opacity="1"/></g>
</svg>