<svg width="24" height="24" viewBox="0 0 24 24" fill="none" xmlns="http://www.w3.org/2000/svg">
  <title>Arrow circular (outlined)</title>
  <g transform="matrix(
          1 0
          0 1
          0.5 2
        )"><path fill-rule="evenodd" clip-rule="evenodd" d="M4.39999 3L0 3L3 0L10.5 0L10.5 7.5L7.5 10.5L7.5 4.3C5.7 5.5 4.5 7.6 4.5 10C4.5 13.5 7.1 16.4 10.5 16.9L10.5 17L10.5 19.9C5.5 19.4 1.5 15.2 1.5 10C1.5 7.3 2.59999 4.8 4.39999 3ZM21.5 9.99997C21.5 12.7 20.4 15.2 18.6 17L23 17L20 20L12.5 20L12.5 12.5L15.5 9.49997L15.5 15.7C17.3 14.5 18.5 12.4 18.5 9.99997C18.5 6.49997 15.9 3.59998 12.5 3.09998L12.5 2.99997L12.5 0.0999756C17.5 0.599976 21.5 4.79997 21.5 9.99997Z" fill="currentColor" opacity="1"/></g>
</svg>