<svg width="24" height="24" viewBox="0 0 24 24" fill="none" xmlns="http://www.w3.org/2000/svg">
  <title>Chart bar (filled)</title>
  <g transform="matrix(
          1 0
          0 1
          6 5
        )"><path fill-rule="nonzero" clip-rule="nonzero" d="M4 0L0 0L0 13L4 13L4 0Z" fill="currentColor" opacity="1"/></g>,<g transform="matrix(
          1 0
          0 1
          12 11
        )"><path fill-rule="nonzero" clip-rule="nonzero" d="M4 0L0 0L0 7L4 7L4 0Z" fill="currentColor" opacity="1"/></g>,<g transform="matrix(
          1 0
          0 1
          18 4
        )"><path fill-rule="nonzero" clip-rule="nonzero" d="M4 0L0 0L0 14L4 14L4 0Z" fill="currentColor" opacity="1"/></g>,<g transform="matrix(
          1 0
          0 1
          1 1
        )"><path fill-rule="nonzero" clip-rule="nonzero" d="M3 19L3 0L0 0L0 22L22 22L22 19L3 19Z" fill="currentColor" opacity="1"/></g>
</svg>