<svg width="24" height="24" viewBox="0 0 24 24" fill="none" xmlns="http://www.w3.org/2000/svg">
  <title>Bike pedals (outlined)</title>
  <g transform="matrix(
          1 0
          0 1
          1 1
        )"><path fill-rule="nonzero" clip-rule="nonzero" d="M22 3L22 0L16.17 0L13.92 3.56C13.02 3.2 12.03 3 11 3C6.58 3 3 6.58 3 11C3 13.3 3.98 15.38 5.54 16.84L4.17 19L0 19L0 22L5.83 22L8.08 18.44C8.98 18.8 9.97 19 11 19C15.42 19 19 15.42 19 11C19 8.7 18.02 6.62 16.46 5.16L17.83 3L22 3ZM11 16C8.24 16 6 13.76 6 11C6 8.24 8.24 6 11 6C13.76 6 16 8.24 16 11C16 13.76 13.76 16 11 16Z" fill="currentColor" opacity="1"/></g>,<g transform="matrix(
          1 0
          0 1
          10 10
        )"><path fill-rule="nonzero" clip-rule="nonzero" d="M2 4C3.10457 4 4 3.10457 4 2C4 0.89543 3.10457 0 2 0C0.89543 0 0 0.89543 0 2C0 3.10457 0.89543 4 2 4Z" fill="currentColor" opacity="1"/></g>
</svg>