<svg width="24" height="24" viewBox="0 0 24 24" fill="none" xmlns="http://www.w3.org/2000/svg">
  <title>Qr code (filled)</title>
  <g transform="matrix(
          1 0
          0 1
          2 2
        )"><path fill-rule="evenodd" clip-rule="evenodd" d="M0 0L0 20L20 20L20 0L0 0ZM16 7L13 7L13 4L16 4L16 7ZM13 10L13 7L10 7L10 4L4 4L4 10L7 10L7 13L4 13L4 16L7 16L7 13L10 13L10 16L16 16L16 10L13 10ZM10 10L7 10L7 7L10 7L10 10ZM10 10L13 10L13 13L10 13L10 10Z" fill="currentColor" opacity="1"/></g>
</svg>