<svg width="24" height="24" viewBox="0 0 24 24" fill="none" xmlns="http://www.w3.org/2000/svg">
  <title>Snapchat (outlined)</title>
  <g transform="matrix(
          1 0
          0 1
          1 1
        )"><path fill-rule="nonzero" clip-rule="nonzero" d="M18.5 0L3.5 0C1.56 0 0 1.57 0 3.5L0 18.49C0 20.43 1.57 21.99 3.5 21.99L18.5 21.99C20.44 21.99 22 20.42 22 18.49L22 3.5C22 1.57 20.43 0 18.5 0ZM16.97 16.1C16.66 16.14 16.82 17.14 16.41 17.14L16.4 17.14C16.37 17.14 15.54 17 15.15 17C14.28 17 13.95 17.19 13.25 17.69C11.71 18.8 10.4 18.89 8.72 17.7C8.02 17.2 7.68 17.01 6.82 17.01C6.42 17.01 5.59 17.16 5.57 17.16C5.15 17.16 5.31 16.15 4.99 16.09C2.76 15.74 2.74 15.07 3.07 15.03C5.4 14.65 6.44 12.27 6.49 12.17C6.49 12.16 6.49 12.16 6.5 12.16C6.64 11.87 6.67 11.62 6.58 11.42C6.29 10.74 4.47 10.72 4.61 10C4.65 9.76 4.98 9.59 5.24 9.59C5.35 9.59 6.45 10.11 6.75 9.69C6.68 8.6 6.52 6.83 6.92 5.95C8.37 2.72 13.5 2.43 15.07 5.95C15.45 6.8 15.33 8.43 15.23 9.7C15.74 10.2 16.47 9.39999 16.98 9.64999L16.99 9.64999C17.23 9.72999 17.38 9.90001 17.38 10.07C17.4 10.74 15.69 10.76 15.41 11.44C15.32 11.64 15.35 11.9 15.49 12.18C15.49 12.19 15.49 12.19 15.5 12.19C15.54 12.29 16.59 14.67 18.92 15.06C19.15 15.1 19.38 15.74 16.97 16.1Z" fill="currentColor" opacity="1"/></g>
</svg>