<svg width="24" height="24" viewBox="0 0 24 24" fill="none" xmlns="http://www.w3.org/2000/svg">
  <title>Hand wave (outlined)</title>
  <g transform="matrix(
          1 0
          0 1
          0 0
        )"><path fill-rule="evenodd" clip-rule="evenodd" d="M10.9 1.2C11.6 0.4 12.6 0 13.7 0C14.8 0 15.8 0.5 16.6 1.2C16.6729 1.18541 16.7438 1.17082 16.8131 1.15654C17.2188 1.07295 17.5729 1 18 1C19 1 20.1 1.5 20.7 2.2C21.5 2.9 21.9 3.9 21.9 5L21.9 5.6L22 5.6L22.3 6C23.6 7.4 23.8 9.4 22.9 10.9C23.6 11.6 24 12.5 24 13.6C24 14.6 23.6 15.6 22.8 16.4L18.2 21C16.3 22.9 13.7 24 11 24C4.9 24 0 19.1 0 13L0 4.3C0 2.5 1.5 1 3.4 1C5.5 1 7.3 2.1 8.3 3.8L10.9 1.2ZM14.7 4C14.7 3.5 14.3 3 13.7 3C13.4 3 13.1 3.1 13 3.2L6 10.2L6 6.7C6 5.2 4.8 4 3.3 4C3.1 4 3 4.1 3 4.3L3 13C3 17.4 6.6 21 11 21C12.9 21 14.8 20.2 16.1 18.9L20.7 14.3C20.9 14.1 21 13.9 21 13.6C21 13 20.5 12.6 20 12.6C19.8 12.6 19.5 12.7 19.3 12.9L16.1499 16.0501L14.9499 14.8501L20.2 9.6C20.6 9.2 20.6 8.6 20.2 8.2C20 8 19.8 7.9 19.5 7.9C19.3 7.9 19 8 18.8 8.2L13.5499 13.4501L12.2499 12.1501L18.7 5.7C18.9 5.5 19 5.3 19 5C19 4.7 18.9 4.5 18.7 4.3C18.5 4.1 18.3 4 18 4C17.7 4 17.5 4.1 17.3 4.2L10.7999 10.7001L9.59991 9.50009L14.4 4.7C14.6 4.5 14.7 4.2 14.7 4Z" fill="currentColor" opacity="1"/></g>
</svg>