<svg width="24" height="24" viewBox="0 0 24 24" fill="none" xmlns="http://www.w3.org/2000/svg">
  <title>Burst (filled)</title>
  <g transform="matrix(
          1 0
          0 1
          1 1
        )"><path fill-rule="evenodd" clip-rule="evenodd" d="M9.5 0L12.5 0L12.5 5L9.5 5L9.5 0ZM9.5 17L12.5 17L12.5 22L9.5 22L9.5 17ZM5 9.5L0 9.5L0 12.5L5 12.5L5 9.5ZM17 9.5L22 9.5L22 12.5L17 12.5L17 9.5ZM5.67588 14.1803L2.14038 17.7158L4.26168 19.8371L7.79718 16.3016L5.67588 14.1803ZM14.1614 5.72437L17.6969 2.18887L19.8182 4.31017L16.2827 7.84566L14.1614 5.72437ZM4.42599 2.07469L2.30469 4.19629L5.84069 7.73179L7.96199 5.61019L4.42599 2.07469ZM14.2969 16.2168L16.4182 14.0952L19.9542 17.6307L17.8329 19.7523L14.2969 16.2168Z" fill="currentColor" opacity="1"/></g>
</svg>