<svg width="24" height="24" viewBox="0 0 24 24" fill="none" xmlns="http://www.w3.org/2000/svg">
  <title>Radioactive (outlined)</title>
  <g transform="matrix(
          1 0
          0 1
          0.740234375 1.75
        )"><path fill-rule="nonzero" clip-rule="nonzero" d="M16.16 11.25L22.52 11.25C22.52 6.44 19.93 2.24 16.02 0L12.84 5.5C12.34 5.34 11.81 5.25 11.26 5.25C10.71 5.25 10.18 5.34 9.68 5.5L6.5 0C2.59 2.24 0 6.44 0 11.25L6.36 11.25C6.58 12.33 7.15 13.29 7.95 13.99L4.77 19.5C6.68 20.61 8.89 21.25 11.26 21.25C13.63 21.25 15.84 20.61 17.75 19.5L14.57 13.99C15.37 13.29 15.94 12.33 16.16 11.25ZM11.26 12.25C10.13 12.25 9.26 11.32 9.26 10.25C9.26 9.15 10.16 8.25 11.26 8.25C12.36 8.25 13.26 9.15 13.26 10.25C13.26 11.32 12.39 12.25 11.26 12.25ZM16.89 4.49001C17.93 5.61001 18.67 6.95 19.06 8.25L15.85 8.25C15.69 7.9 15.51 7.58 15.28 7.28L16.89 4.49001ZM5.63 4.49001L7.24 7.28C7.01 7.58 6.83 7.9 6.67 8.25L3.46 8.25C3.85 6.95 4.59 5.61001 5.63 4.49001ZM13.43 18.01C12.05 18.32 10.55 18.34 9.09 18.01L10.7 15.21C11.02 15.26 11.5 15.26 11.82 15.21L13.43 18.01Z" fill="currentColor" opacity="1"/></g>
</svg>