<svg width="24" height="24" viewBox="0 0 24 24" fill="none" xmlns="http://www.w3.org/2000/svg">
  <title>Arrow left exit (filled)</title>
  <g transform="matrix(
          1 0
          0 1
          15 2
        )"><path fill-rule="nonzero" clip-rule="nonzero" d="M0 0L0 6.34L1.99 8.33C2.36 8.7 2.69 9.09 3 9.5L3 0L0 0Z" fill="currentColor" opacity="1"/></g>,<g transform="matrix(
          1 0
          0 1
          3 2
        )"><path fill-rule="nonzero" clip-rule="nonzero" d="M5.12 3L9.5 3L6.5 0L0 0L0 6.5L3 9.5L3 5.12L10.1 12.22C11.33 13.45 12 15.08 12 16.82L12 20L15 20L15 16.81C15 14.27 14.01 11.89 12.22 10.09L5.12 3Z" fill="currentColor" opacity="1"/></g>
</svg>