<svg width="24" height="24" viewBox="0 0 24 24" fill="none" xmlns="http://www.w3.org/2000/svg">
  <title>Cargo bike (outlined)</title>
  <g transform="matrix(
          1 0
          0 1
          5 8
        )"><path fill-rule="nonzero" clip-rule="nonzero" d="M0 0L0 9.5L2.5 12L5.5 12L5.5 15L8.5 15L8.5 12L11.5 12L14 9.5L14 0L0 0ZM11 8.26L10.26 9L3.75 9L3 8.26L3 3L11 3L11 8.26Z" fill="currentColor" opacity="1"/></g>,<g transform="matrix(
          1 0
          0 1
          6 1
        )"><path fill-rule="nonzero" clip-rule="nonzero" d="M4.5 5L7.5 5L7.5 3L12 3L12 0L0 0L0 3L4.5 3L4.5 5Z" fill="currentColor" opacity="1"/></g>
</svg>