<svg width="24" height="24" viewBox="0 0 24 24" fill="none" xmlns="http://www.w3.org/2000/svg">
  <title>Rocket (outlined)</title>
  <g transform="matrix(
          1 0
          0 1
          0.8798828125 2
        )"><path fill-rule="nonzero" clip-rule="nonzero" d="M21.12 0C20.14 0.03 13.34 0.34 7.82999 5L2 5L0 7L3.44 10.44C1.31 14.43 1.12 18.28 1.12 20C2.84 20 6.68999 19.81 10.68 17.68L14.12 21.12L16.12 19.12L16.12 13.29C20.78 7.78 21.09 0.98 21.12 0ZM11.12 13.88L7.23999 10C10.22 5.91 14.55 4.2 17.62 3.5C16.92 6.56 15.21 10.9 11.12 13.88ZM4.41 16.71C4.64 15.44 5.02998 14.06 5.66998 12.67L8.44998 15.45C7.05998 16.09 5.68 16.48 4.41 16.71Z" fill="currentColor" opacity="1"/></g>
</svg>