<svg width="24" height="24" viewBox="0 0 24 24" fill="none" xmlns="http://www.w3.org/2000/svg">
  <title>Weather snow (filled)</title>
  <g transform="matrix(
          1 0
          0 1
          1 2
        )"><path fill-rule="evenodd" clip-rule="evenodd" d="M8.2002 5.20001C9.0002 2.20001 11.8 0 15 0C18.9 0 22 3.1 22 7L22 11L0 11L0 9C0 6.2 2.2 4 5 4C6.2 4 7.3002 4.50001 8.2002 5.20001ZM9 14C9 15.1046 8.10457 16 7 16C5.89543 16 5 15.1046 5 14C5 12.8954 5.89543 12 7 12C8.10457 12 9 12.8954 9 14ZM5 19C5 20.1046 4.10457 21 3 21C1.89543 21 1 20.1046 1 19C1 17.8954 1.89543 17 3 17C4.10457 17 5 17.8954 5 19ZM21 19C21 20.1046 20.1046 21 19 21C17.8954 21 17 20.1046 17 19C17 17.8954 17.8954 17 19 17C20.1046 17 21 17.8954 21 19ZM11 21C12.1046 21 13 20.1046 13 19C13 17.8954 12.1046 17 11 17C9.89543 17 9 17.8954 9 19C9 20.1046 9.89543 21 11 21ZM15 16C16.1046 16 17 15.1046 17 14C17 12.8954 16.1046 12 15 12C13.8954 12 13 12.8954 13 14C13 15.1046 13.8954 16 15 16Z" fill="currentColor" opacity="1"/></g>
</svg>