<svg width="24" height="24" viewBox="0 0 24 24" fill="none" xmlns="http://www.w3.org/2000/svg">
  <title>Sound off (outlined)</title>
  <g transform="matrix(
          1 0
          0 1
          1 3
        )"><path fill-rule="evenodd" clip-rule="evenodd" d="M0 4L4 4L7.5 0L11 0L11 18L7.5 18L4 14L0 14L0 4ZM5.30005 11L8 14L8 4L5.30005 7L3 7L3 11L5.30005 11ZM20 4.5L22 6.5L19.5 9L22 11.5L20 13.5L17.5 11L15 13.5L13 11.5L15.5 9L13 6.5L15 4.5L17.5 7L20 4.5Z" fill="currentColor" opacity="1"/></g>
</svg>