<svg width="24" height="24" viewBox="0 0 24 24" fill="none" xmlns="http://www.w3.org/2000/svg">
  <title>Airplane fly (outlined)</title>
  <g transform="matrix(
          1 0
          0 1
          0 2.9000244140625
        )"><path fill-rule="nonzero" clip-rule="nonzero" d="M21.7998 9.5C23.6998 8.6 24.5001 6.29999 23.6001 4.39999C22.7001 2.29999 20.2002 1.5 18.2002 2.5L15.2002 4L8.1001 0L4.6001 1.70001L7.6001 7.70001L4.6001 9.20001L2.6001 8.20001L0 9.30002L4.3999 18L21.7998 9.5ZM11.7998 9L9.2998 3.89999L15.2998 7.30002L19.7002 5.10001C20.2002 4.90001 20.8 5.10001 21 5.60001C21.2 6.10001 21.0001 6.60002 20.6001 6.80002L6 14.1L5.1001 12.4L11.7998 9Z" fill="currentColor" opacity="1"/></g>
</svg>