<svg width="24" height="24" viewBox="0 0 24 24" fill="none" xmlns="http://www.w3.org/2000/svg">
  <title>Gear (outlined)</title>
  <g transform="matrix(
          1 0
          0 1
          1.199951171875 1
        )"><path fill-rule="nonzero" clip-rule="nonzero" d="M21.8 12.5L21.8 9.5L18.7 9.5C18.5 8.4 18.1 7.4 17.5 6.5L19.7 4.3L17.6001 2.2L15.4001 4.39999C14.5001 3.79999 13.5001 3.4 12.4001 3.2L12.4001 0L9.40015 0L9.40015 3.10001C8.30015 3.30001 7.30015 3.7 6.40015 4.3L4.19995 2.10001L2.1001 4.2L4.30005 6.39999C3.70005 7.29999 3.3001 8.29999 3.1001 9.39999L0 9.39999L0 12.4L3.1001 12.4C3.3001 13.5 3.70005 14.5 4.30005 15.4L2.1001 17.6L4.19995 19.7L6.40015 17.5C7.30015 18.1 8.30015 18.5 9.40015 18.7L9.40015 21.8L12.4001 21.8L12.4001 18.7C13.5001 18.5 14.5001 18.1 15.4001 17.5L17.6001 19.7L19.7 17.6L17.5 15.4C18.1 14.5 18.5 13.5 18.7 12.4L21.8 12.4L21.8 12.5ZM10.8 16C8.00005 16 5.80005 13.8 5.80005 11C5.80005 8.2 8.00005 6 10.8 6C13.6 6 15.8 8.2 15.8 11C15.8 13.8 13.6 16 10.8 16Z" fill="currentColor" opacity="1"/></g>
</svg>