<svg width="24" height="24" viewBox="0 0 24 24" fill="none" xmlns="http://www.w3.org/2000/svg">
  <title>Stop right (filled)</title>
  <g transform="matrix(
          1 0
          0 1
          1 0
        )"><path fill-rule="evenodd" clip-rule="evenodd" d="M17.5 0C20 0 22 2 22 4.5C22 6.5 20.7 8.10001 19 8.70001L19 12L16 12L16 8.70001C14.3 8.10001 13 6.5 13 4.5C13 2 15 0 17.5 0ZM16 4.5C16 5.3 16.7 6 17.5 6C18.3 6 19 5.3 19 4.5C19 3.7 18.3 3 17.5 3C16.7 3 16 3.7 16 4.5ZM5.5 6L3.5 1L8.3999 1L17.2998 23L12.3999 23L10.3999 18L7.3999 18L9.3999 23L0 23L0 1L0.5 1L2.5 6L5.5 6ZM3.7998 9L6.2002 15L9.2002 15L6.7998 9L3.7998 9Z" fill="currentColor" opacity="1"/></g>
</svg>