<svg width="24" height="24" viewBox="0 0 24 24" fill="none" xmlns="http://www.w3.org/2000/svg">
  <title>Bike jump check (outlined)</title>
  <g transform="matrix(
          1 0
          0 1
          0 7
        )"><path fill-rule="nonzero" clip-rule="nonzero" d="M19.78 5.85L21 4.62L21 2L15.88 2L14.96 0L11 0L11 3L13.04 3L13.93 4.95L10.88 8L9.99 8L6.99 1L2 1L2 4L5.01 4L5.46 5.05C5.31 5.03 5.16 5 5 5C2.24 5 0 7.24 0 10C0 12.76 2.24 15 5 15C7.41 15 9.43 13.28 9.9 11L12.1 11C12.56 13.28 14.58 15 17 15C19.76 15 22 12.76 22 10C22 8.27 21.12 6.74 19.78 5.85ZM5 12C3.9 12 3 11.1 3 10C3 8.9 3.9 8 5 8C6.1 8 7 8.9 7 10C7 11.1 6.1 12 5 12ZM17 12C15.9 12 15 11.1 15 10C15 8.9 15.9 8 17 8C18.1 8 19 8.9 19 10C19 11.1 18.1 12 17 12Z" fill="currentColor" opacity="1"/></g>,<g transform="matrix(
          1 0
          0 1
          15.509765625 0.010009765625
        )"><path fill-rule="nonzero" clip-rule="nonzero" d="M8.48 1.98L6.5 0L3.49 3.01L1.98 1.5L0 3.48L3.49 6.97L8.48 1.98Z" fill="currentColor" opacity="1"/></g>
</svg>