<svg width="24" height="24" viewBox="0 0 24 24" fill="none" xmlns="http://www.w3.org/2000/svg">
  <title>Weather fog (outlined)</title>
  <g transform="matrix(
          1 0
          0 1
          1 1
        )"><path fill-rule="evenodd" clip-rule="evenodd" d="M6.2998 3C7.9998 1.1 10.4 0 13 0C18 0 22 4 22 9L22 12L0 12L0 9C0 5.7 2.7 3 6 3L6.2998 3ZM6 6C4.3 6 3 7.3 3 9L19 9C19 5.7 16.3 3 13 3C10.6 3 8.6001 4.5 7.6001 6.5C7.1001 6.2 6.6 6 6 6ZM22 14L0 14L0 17L22 17L22 14ZM22 19L0 19L0 22L22 22L22 19Z" fill="currentColor" opacity="1"/></g>
</svg>