<svg width="24" height="24" viewBox="0 0 24 24" fill="none" xmlns="http://www.w3.org/2000/svg">
  <title>Whatsapp (outlined)</title>
  <g transform="matrix(
          1 0
          0 1
          1 1
        )"><path fill-rule="evenodd" clip-rule="evenodd" d="M18.7043 3.19692C16.6464 1.13638 13.9094 0.00104543 10.9932 0C4.98408 0 0.0935659 4.88999 0.091475 10.9007C0.0904296 12.8222 0.592758 14.6977 1.54671 16.3505L0 22L5.77913 20.4841C7.37132 21.3529 9.16423 21.8103 10.9885 21.8108L10.9932 21.8108C10.9937 21.8108 10.9927 21.8108 10.9932 21.8108C17.0013 21.8108 21.8923 16.9203 21.8944 10.9096C21.8955 7.99648 20.7627 5.25746 18.7043 3.19692ZM10.9932 19.9698L10.9895 19.9698C9.3639 19.9693 7.7691 19.5323 6.37764 18.7069L6.04676 18.5104L2.61723 19.4099L3.5325 16.0661L3.31715 15.7232C2.41024 14.2806 1.93091 12.6131 1.93195 10.9012C1.93404 5.90563 5.99867 1.841 10.9969 1.841C13.417 1.84205 15.6919 2.78554 17.4027 4.49848C19.1136 6.21089 20.055 8.48783 20.0539 10.9085C20.0518 15.9046 15.9872 19.9698 10.9932 19.9698ZM15.9632 13.1834C15.6908 13.0469 14.3516 12.3883 14.1018 12.2974C13.8519 12.2064 13.6705 12.1609 13.4892 12.4338C13.3078 12.7067 12.7856 13.3203 12.6267 13.5017C12.4678 13.6836 12.3089 13.7061 12.0365 13.5697C11.7642 13.4332 10.8866 13.1457 9.84585 12.2179C9.03616 11.4955 8.4894 10.6038 8.3305 10.3309C8.17159 10.0581 8.31377 9.91066 8.44968 9.77528C8.57199 9.65296 8.72201 9.45695 8.85844 9.29804C8.99487 9.13914 9.03982 9.02519 9.13077 8.8438C9.22173 8.6619 9.17625 8.50299 9.1083 8.36656C9.04034 8.23014 8.49568 6.88937 8.2683 6.34418C8.04719 5.81311 7.82242 5.88524 7.65567 5.87635C7.49677 5.86851 7.31539 5.86695 7.13348 5.86695C6.9521 5.86695 6.65677 5.9349 6.40691 6.20776C6.15705 6.48061 5.45348 7.13975 5.45348 8.47999C5.45348 9.82076 6.42939 11.116 6.56581 11.2979C6.70224 11.4799 8.48679 14.2309 11.219 15.4112C11.8688 15.6919 12.3763 15.8597 12.772 15.9851C13.4243 16.1926 14.0182 16.1634 14.4876 16.0933C15.0108 16.0149 16.0991 15.4342 16.3259 14.798C16.5528 14.1619 16.5528 13.6162 16.4848 13.5028C16.4169 13.3883 16.2355 13.3198 15.9632 13.1834Z" fill="currentColor" opacity="1"/></g>
</svg>