<svg width="24" height="24" viewBox="0 0 24 24" fill="none" xmlns="http://www.w3.org/2000/svg">
  <title>Arrow roundabout straight (filled)</title>
  <g transform="matrix(
          1 0
          0 1
          6 0.5
        )"><path fill-rule="nonzero" clip-rule="nonzero" d="M12 13.5C12 10.71 10.08 8.37001 7.5 7.70001L7.5 4.28998L11 6.75L11 3.65997L6 0L1 3.65997L1 6.75L4.5 4.28998L4.5 7.70001C1.92 8.37001 0 10.71 0 13.5C0 16.29 1.92 18.63 4.5 19.3L4.5 23.5L7.5 23.5L7.5 19.3C10.08 18.63 12 16.29 12 13.5ZM6 16.5C4.35 16.5 3 15.15 3 13.5C3 11.85 4.35 10.5 6 10.5C7.65 10.5 9 11.85 9 13.5C9 15.15 7.65 16.5 6 16.5Z" fill="currentColor" opacity="1"/></g>
</svg>