<svg width="24" height="24" viewBox="0 0 24 24" fill="none" xmlns="http://www.w3.org/2000/svg">
  <title>Person female (filled)</title>
  <g transform="matrix(
          1 0
          0 1
          7 1
        )"><path fill-rule="evenodd" clip-rule="evenodd" d="M7.5 2.5C7.5 3.88071 6.38071 5 5 5C3.61929 5 2.5 3.88071 2.5 2.5C2.5 1.11929 3.61929 0 5 0C6.38071 0 7.5 1.11929 7.5 2.5ZM6.5 7C7.5 7 8.3 7.70001 8.5 8.60001L10 16L10 17L8 17L8 22L2 22L2 17L0 17L0 16L1.7002 8.60001C2.0002 7.70001 2.8002 7 3.7002 7L6.5 7Z" fill="currentColor" opacity="1"/></g>
</svg>