<svg width="24" height="24" viewBox="0 0 24 24" fill="none" xmlns="http://www.w3.org/2000/svg">
  <title>Enter (outlined)</title>
  <g transform="matrix(
          1 0
          0 1
          4 1
        )"><path fill-rule="nonzero" clip-rule="nonzero" d="M16 15L13 15L13 19L3 19L3 3L13 3L13 7L16 7L16 0L0 0L0 22L16 22L16 15Z" fill="currentColor" opacity="1"/></g>,<g transform="matrix(
          1 0
          0 1
          8.26953125 7
        )"><path fill-rule="nonzero" clip-rule="nonzero" d="M7.13 0L3.65 0L0 5L3.65 10L7.13 10L4.56 6.5L11.73 6.5L11.73 3.5L4.56 3.5L7.13 0Z" fill="currentColor" opacity="1"/></g>
</svg>