<svg width="24" height="24" viewBox="0 0 24 24" fill="none" xmlns="http://www.w3.org/2000/svg">
  <title>Mothers room (outlined)</title>
  <g transform="matrix(
          1 0
          0 1
          2 0
        )"><path fill-rule="evenodd" clip-rule="evenodd" d="M7.5 0C10.5 0 13 2.5 13 5.5C13 8.5 10.5 11 7.5 11C4.5 11 2 8.5 2 5.5C2 2.5 4.5 0 7.5 0ZM5 5.5C5 6.9 6.1 8 7.5 8C8.9 8 10 6.9 10 5.5C10 4.1 8.9 3 7.5 3C6.1 3 5 4.1 5 5.5ZM0 23L0 20C0 16.1 3.1 13 7 13L7 16C4.8 16 3 17.8 3 20L3 23L0 23ZM11.8 14.3L15.4 16.1C14.2 17.9 12.2 19 10 19L8 19L8 22L10 22C13.7 22 16.9 20 18.6 16.7L19.5 14.8L13.2 11.6L11.8 14.3ZM22 9C22 10.6569 20.6569 12 19 12C17.3431 12 16 10.6569 16 9C16 7.34315 17.3431 6 19 6C20.6569 6 22 7.34315 22 9Z" fill="currentColor" opacity="1"/></g>
</svg>