<svg width="24" height="24" viewBox="0 0 24 24" fill="none" xmlns="http://www.w3.org/2000/svg">
  <title>Airplane depart (outlined)</title>
  <g transform="matrix(
          1 0
          0 1
          0 0.9000244140625
        )"><path fill-rule="evenodd" clip-rule="evenodd" d="M23.6001 4.39999C24.5001 6.29999 23.6998 8.6 21.7998 9.5L4.3999 18L0 9.30002L2.6001 8.20001L4.6001 9.20001L7.6001 7.70001L4.6001 1.70001L8.1001 0L15.2002 4L18.2002 2.5C20.2002 1.5 22.7001 2.29999 23.6001 4.39999ZM9.2998 3.89999L11.7998 9L5.1001 12.4L6 14.1L20.6001 6.80002C21.0001 6.60002 21.2 6.10001 21 5.60001C20.8 5.10001 20.2002 4.90001 19.7002 5.10001L15.2998 7.30002L9.2998 3.89999ZM0 20.1L24 20.1L24 23.1L0 23.1L0 20.1Z" fill="currentColor" opacity="1"/></g>
</svg>