<svg width="24" height="24" viewBox="0 0 24 24" fill="none" xmlns="http://www.w3.org/2000/svg">
  <title>Thermometer (filled)</title>
  <g transform="matrix(
          1 0
          0 1
          6 1
        )"><path fill-rule="nonzero" clip-rule="nonzero" d="M10 11.54L10 4C10 1.79 8.21 0 6 0C3.79 0 2 1.79 2 4L2 11.54C0.78 12.64 0 14.23 0 16C0 19.31 2.69 22 6 22C9.31 22 12 19.31 12 16C12 14.23 11.22 12.64 10 11.54ZM5 4C5 3.45 5.45 3 6 3C6.55 3 7 3.45 7 4L7 9L5 9L5 4Z" fill="currentColor" opacity="1"/></g>
</svg>