<svg width="24" height="24" viewBox="0 0 24 24" fill="none" xmlns="http://www.w3.org/2000/svg">
  <title>Database (outlined)</title>
  <g transform="matrix(
          1 0
          0 1
          2 1
        )"><path fill-rule="nonzero" clip-rule="nonzero" d="M10 0C4.48 0 0 2.24 0 5L0 17C0 19.76 4.49 22 10 22C15.51 22 20 19.76 20 17L20 5C20 2.24 15.52 0 10 0ZM3 8.57C4.8 9.45 7.27 10 10 10C12.73 10 15.2 9.45 17 8.57L17 10.9C16.65 11.53 14.19 13 10 13C5.81 13 3.35 11.54 3 10.9L3 8.57ZM10 3C14.01 3 16.43 4.33 16.94 5C16.43 5.67 14.01 7 10 7C5.99 7 3.57 5.67 3.06 5C3.57 4.33 5.99 3 10 3ZM10 19C5.81 19 3.35 17.54 3 16.9L3 14.56C4.81 15.45 7.28 16 10 16C12.72 16 15.19 15.45 17 14.56L17 16.9C16.65 17.54 14.19 19 10 19Z" fill="currentColor" opacity="1"/></g>
</svg>