<svg width="24" height="24" viewBox="0 0 24 24" fill="none" xmlns="http://www.w3.org/2000/svg">
  <title>Box heart (outlined)</title>
  <g transform="matrix(
          1 0
          0 1
          1 3
        )"><path fill-rule="evenodd" clip-rule="evenodd" d="M0 18L0 0L22 0L22 18L0 18ZM3 3L3 15L19 15L19 3L3 3ZM15 9.70004L11 13L7 9.70004C6.4 9.20004 6 8.40004 6 7.60004C6 6.10004 7.1001 4.90002 8.6001 4.90002C9.7001 4.90002 10.6 5.50002 11 6.40002C11.5 5.50002 12.3999 4.90002 13.3999 4.90002C14.7999 4.90002 16 6.10004 16 7.60004C16 8.50004 15.6 9.20004 15 9.70004Z" fill="currentColor" opacity="1"/></g>
</svg>