<svg width="24" height="24" viewBox="0 0 24 24" fill="none" xmlns="http://www.w3.org/2000/svg">
  <title>Circle slash (outlined)</title>
  <g transform="matrix(
          1 0
          0 1
          1 1
        )"><path fill-rule="nonzero" clip-rule="nonzero" d="M11 0C4.9 0 0 4.9 0 11C0 17.1 4.9 22 11 22C17.1 22 22 17.1 22 11C22 4.9 17.1 0 11 0ZM3 11C3 6.6 6.6 3 11 3C12.7 3 14.3 3.49999 15.6 4.39999L4.5 15.5C3.5 14.3 3 12.7 3 11ZM11 19C9.3 19 7.70002 18.5 6.40002 17.6L17.5 6.5C18.4 7.8 18.9 9.39998 18.9 11.1C19 15.4 15.4 19 11 19Z" fill="currentColor" opacity="1"/></g>
</svg>