<svg width="24" height="24" viewBox="0 0 24 24" fill="none" xmlns="http://www.w3.org/2000/svg">
  <title>Arrow roundabout left sharp (outlined)</title>
  <g transform="matrix(
          1 0
          0 1
          1 2
        )"><path fill-rule="nonzero" clip-rule="nonzero" d="M20 6.5C20 2.92 17.08 0 13.5 0C9.92 0 7 2.92 7 6.5C7 7.21 7.12 7.90001 7.33 8.54001L2.67 13.2L3 8.88L0 11.88L0 18L6.12 18L9.12 15L4.8 15.33L8.97 11.16C9.8 11.97 10.84 12.55 12 12.83L12 20L15 20L15 12.82C17.86 12.14 20 9.57 20 6.5ZM13.5 10C11.57 10 10 8.43 10 6.5C10 4.57 11.57 3 13.5 3C15.43 3 17 4.57 17 6.5C17 8.43 15.43 10 13.5 10Z" fill="currentColor" opacity="1"/></g>
</svg>