<svg width="24" height="24" viewBox="0 0 24 24" fill="none" xmlns="http://www.w3.org/2000/svg">
  <title>Arrow three down (outlined)</title>
  <g transform="matrix(
          1 0
          0 1
          1 2
        )"><path fill-rule="evenodd" clip-rule="evenodd" d="M8 7.40002L5.5 9.20001L5.5 0L2.5 0L2.5 9.20001L0 7.29999L0 10.8L4 13.7L8 10.8L8 7.40002ZM19.5 9.20001L19.5 0L16.5 0L16.5 9.20001L14 7.29999L14 10.8L18 13.7L22 10.8L22 7.40002L19.5 9.20001ZM9.5 0L12.5 0L12.5 17.2L16 14.6L16 18.1L11 21.7L6 18.1L6 14.6L9.5 17.2L9.5 0Z" fill="currentColor" opacity="1"/></g>
</svg>