<svg width="24" height="24" viewBox="0 0 24 24" fill="none" xmlns="http://www.w3.org/2000/svg">
  <title>Restroom (filled)</title>
  <g transform="matrix(
          1 0
          0 1
          2 1
        )"><path fill-rule="evenodd" clip-rule="evenodd" d="M6.5 2.5C6.5 3.88071 5.38071 5 4 5C2.61929 5 1.5 3.88071 1.5 2.5C1.5 1.11929 2.61929 0 4 0C5.38071 0 6.5 1.11929 6.5 2.5ZM17.5 7C18.5 7 19.3 7.69998 19.5 8.59998L21 16L21 17L19 17L19 22L13 22L13 17L11 17L11 16L12.7 8.59998C13 7.69998 13.8 7 14.7 7L17.5 7ZM3 7C1.3 7 0 8.3 0 10L0 16L1 16L1 22L7 22L7 16L8 16L8 10C8 8.3 6.7 7 5 7L3 7ZM18.5 2.5C18.5 3.88071 17.3807 5 16 5C14.6193 5 13.5 3.88071 13.5 2.5C13.5 1.11929 14.6193 0 16 0C17.3807 0 18.5 1.11929 18.5 2.5Z" fill="currentColor" opacity="1"/></g>
</svg>