<svg width="24" height="24" viewBox="0 0 24 24" fill="none" xmlns="http://www.w3.org/2000/svg">
  <title>Subway (outlined)</title>
  <g transform="matrix(
          1 0
          0 1
          0 0
        )"><path fill-rule="nonzero" clip-rule="nonzero" d="M24 12C24 5.38 18.62 0 12 0C5.38 0 0 5.38 0 12C0 16.08 2.05001 19.68 5.17001 21.85L3.01999 24L6.98001 24L9.98001 21L14.02 21L17.02 24L20.98 24L18.83 21.85C21.95 19.68 24 16.08 24 12ZM8 17L10 17L10 14L8 14L8 12.5C8 10.57 9.57 9 11.5 9L12.5 9C14.43 9 16 10.57 16 12.5L16 14L14 14L14 17L16 17L16 18L8 18L8 17ZM3 12C3 7.04 7.04 3 12 3C16.96 3 21 7.04 21 12C21 14.13 20.24 16.07 19 17.61L19 12.5C19 8.92 16.08 6 12.5 6L11.5 6C7.92 6 5 8.92 5 12.5L5 17.61C3.76 16.07 3 14.13 3 12Z" fill="currentColor" opacity="1"/></g>
</svg>