<svg width="24" height="24" viewBox="0 0 24 24" fill="none" xmlns="http://www.w3.org/2000/svg">
  <title>Vegan (filled)</title>
  <g transform="matrix(
          1 0
          0 1
          0.99853515625 3
        )"><path fill-rule="evenodd" clip-rule="evenodd" d="M11.0015 2.5C11.6084 1.75082 12.3686 1.14014 13.231 0.70895C14.0933 0.277758 15.038 0.0360336 16.0015 0C19.5015 -4.44089e-16 22.0015 2.9 22.0015 6.5C21.9885 7.34613 21.8046 8.18091 21.461 8.95421C21.1173 9.72751 20.6208 10.4234 20.0015 11L11.0015 19.5L2.00148 11C1.35676 10.4439 0.84309 9.75209 0.497307 8.97408C0.151525 8.19606 -0.0177995 7.35117 0.00147967 6.5C0.00147967 2.9 2.50148 0 6.00148 0C6.96045 0.0578245 7.89781 0.309125 8.7571 0.73877C9.61638 1.16841 10.3798 1.76752 11.0015 2.5L11.0015 2.5ZM11.0015 9.2L14.7015 5.7L16.7015 7.7L11.0015 13.2L5.30148 7.7L7.30148 5.7L11.0015 9.2Z" fill="currentColor" opacity="1"/></g>
</svg>