<svg width="24" height="24" viewBox="0 0 24 24" fill="none" xmlns="http://www.w3.org/2000/svg">
  <title>Megaphone (outlined)</title>
  <g transform="matrix(
          1 0
          0 1
          1 1
        )"><path fill-rule="nonzero" clip-rule="nonzero" d="M18 0L14.2 2.5C12.7 3.5 11 4 9.30005 4L8 4L6 4C2.7 4 0 6.7 0 10C0 12.2 1.2 14.2 3 15.2L3 22L11 22L11 16.2C12.2 16.4 13.3 16.9 14.2 17.5L18 20L22 20L22 0L18 0ZM6 7L8 7L8 13L6 13C4.3 13 3 11.7 3 10C3 8.3 4.3 7 6 7ZM8 19L6 19L6 16L8 16L8 19ZM19 17L15.8999 15C14.3999 14 12.7 13.4 11 13.1L11 6.90002C12.8 6.60002 14.3999 6 15.8999 5L18.8999 3L19 3L19 17Z" fill="currentColor" opacity="1"/></g>
</svg>