<svg width="24" height="24" viewBox="0 0 24 24" fill="none" xmlns="http://www.w3.org/2000/svg">
  <title>List numbered (outlined)</title>
  <g transform="matrix(
          1 0
          0 1
          11 3
        )"><path fill-rule="nonzero" clip-rule="nonzero" d="M12 0L0 0L0 3L12 3L12 0Z" fill="currentColor" opacity="1"/></g>,<g transform="matrix(
          1 0
          0 1
          11 10
        )"><path fill-rule="nonzero" clip-rule="nonzero" d="M12 0L0 0L0 3L12 3L12 0Z" fill="currentColor" opacity="1"/></g>,<g transform="matrix(
          1 0
          0 1
          11 17
        )"><path fill-rule="nonzero" clip-rule="nonzero" d="M12 0L0 0L0 3L12 3L12 0Z" fill="currentColor" opacity="1"/></g>,<g transform="matrix(
          1 0
          0 1
          1 3
        )"><path fill-rule="nonzero" clip-rule="nonzero" d="M5 0L0 0L0 3L2 3L2 14L0 14L0 17L7 17L7 14L5 14L5 0Z" fill="currentColor" opacity="1"/></g>
</svg>