<svg width="24" height="24" viewBox="0 0 24 24" fill="none" xmlns="http://www.w3.org/2000/svg">
  <title>Wing (outlined)</title>
  <g transform="matrix(
          1 0
          0 1
          1.00244140625 1.199951171875
        )"><path fill-rule="nonzero" clip-rule="nonzero" d="M3.24758 9.67C0.147581 11.46 -0.922419 15.45 0.867581 18.55C2.02758 20.55 4.17758 21.8 6.49758 21.8C7.63758 21.8 8.75758 21.5 9.74758 20.93L15.9976 17.32L15.9976 13.86L8.24758 18.33C7.71758 18.64 7.10758 18.8 6.49758 18.8C5.24758 18.8 4.08758 18.13 3.46758 17.05C2.49758 15.38 3.07758 13.23 4.74758 12.27L19.9976 3.47L19.9976 0L3.24758 9.67Z" fill="currentColor" opacity="1"/></g>,<g transform="matrix(
          1 0
          0 1
          6.00048828125 8.1300048828125
        )"><path fill-rule="nonzero" clip-rule="nonzero" d="M0.199655 9.12C0.479655 9.6 0.979655 9.87 1.49965 9.87C1.74965 9.87 2.00965 9.81 2.24965 9.67L12.9997 3.46L12.9997 0L0.749655 7.07C0.0296547 7.49 -0.210345 8.4 0.199655 9.12Z" fill="currentColor" opacity="1"/></g>
</svg>