<svg width="24" height="24" viewBox="0 0 24 24" fill="none" xmlns="http://www.w3.org/2000/svg">
  <title>Bug (filled)</title>
  <g transform="matrix(
          1 0
          0 1
          1 1
        )"><path fill-rule="evenodd" clip-rule="evenodd" d="M17.8999 8L4.19995 8C4.59995 5.9 5.80005 4.7 6.80005 4C5.60005 3 4.70005 1.6 4.30005 0L7.3999 0C7.9999 1.5 9.4001 2.5 11.1001 2.5C12.8001 2.5 14.2 1.5 14.8 0L17.8999 0C17.5999 1.6 16.6999 3 15.3999 4C16.5999 5 17.4999 6.4 17.8999 8ZM22 13L18 13L18 15L18 15.8L22 17.8L22 21.2L17 18.7C15.7 20.7 13.6 22 11 22C8.4 22 6.2 20.7 5 18.7L0 21.2L0 17.8L4 15.8L4 15L4 13L0 13L0 10L22 10L22 13Z" fill="currentColor" opacity="1"/></g>
</svg>