<svg width="24" height="24" viewBox="0 0 24 24" fill="none" xmlns="http://www.w3.org/2000/svg">
  <title>Camera flip (outlined)</title>
  <g transform="matrix(
          1 0
          0 1
          1 1
        )"><path fill-rule="evenodd" clip-rule="evenodd" d="M15.5 0L17 3L22 3L22 20L0 20L0 3L5 3L6.5 0L15.5 0ZM3 17L19 17L19.1001 17L19.1001 6L15.2 6L13.7 3L8.3999 3L6.8999 6L3 6L3 17ZM12.6001 10L11.5 8L14.7 8L16.6001 11.5L14.7 15L11.5 15L12.6001 13L10.1001 13C7.8001 13 6 11.2 6 8.90002L6 7L9 7L9 8.90002C9 9.50002 9.5001 10 10.1001 10L12.6001 10Z" fill="currentColor" opacity="1"/></g>
</svg>