<svg width="24" height="24" viewBox="0 0 24 24" fill="none" xmlns="http://www.w3.org/2000/svg">
  <title>Weather snow (outlined)</title>
  <g transform="matrix(
          1 0
          0 1
          1 1
        )"><path fill-rule="evenodd" clip-rule="evenodd" d="M6.2998 3C7.9998 1.1 10.4 0 13 0C18 0 22 4 22 9L22 12L0 12L0 9C0 5.7 2.7 3 6 3L6.2998 3ZM6 6C4.3 6 3 7.3 3 9L19 9C19 5.7 16.3 3 13 3C10.6 3 8.6001 4.5 7.6001 6.5C7.1001 6.2 6.6 6 6 6ZM5 20C5 21.1046 4.10457 22 3 22C1.89543 22 1 21.1046 1 20C1 18.8954 1.89543 18 3 18C4.10457 18 5 18.8954 5 20ZM19 22C20.1046 22 21 21.1046 21 20C21 18.8954 20.1046 18 19 18C17.8954 18 17 18.8954 17 20C17 21.1046 17.8954 22 19 22ZM13 20C13 21.1046 12.1046 22 11 22C9.89543 22 9 21.1046 9 20C9 18.8954 9.89543 18 11 18C12.1046 18 13 18.8954 13 20ZM7 17C8.10457 17 9 16.1046 9 15C9 13.8954 8.10457 13 7 13C5.89543 13 5 13.8954 5 15C5 16.1046 5.89543 17 7 17ZM17 15C17 16.1046 16.1046 17 15 17C13.8954 17 13 16.1046 13 15C13 13.8954 13.8954 13 15 13C16.1046 13 17 13.8954 17 15Z" fill="currentColor" opacity="1"/></g>
</svg>