<svg width="24" height="24" viewBox="0 0 24 24" fill="none" xmlns="http://www.w3.org/2000/svg">
  <title>Chevron right three (filled)</title>
  <g transform="matrix(
          1 0
          0 1
          14.97998046875 6
        )"><path fill-rule="nonzero" clip-rule="nonzero" d="M8.41 6L3.79 12L0 12L4.63 6L0 0L3.79 0L8.41 6Z" fill="currentColor" opacity="1"/></g>,<g transform="matrix(
          1 0
          0 1
          8.0400390625 6
        )"><path fill-rule="nonzero" clip-rule="nonzero" d="M8.41 6L3.78 12L0 12L4.62 6L0 0L3.78 0L8.41 6Z" fill="currentColor" opacity="1"/></g>,<g transform="matrix(
          1 0
          0 1
          1.090087890625 6
        )"><path fill-rule="nonzero" clip-rule="nonzero" d="M8.41 6L3.79 12L0 12L4.63 6L0 0L3.79 0L8.41 6Z" fill="currentColor" opacity="1"/></g>
</svg>