<svg width="24" height="24" viewBox="0 0 24 24" fill="none" xmlns="http://www.w3.org/2000/svg">
  <title>Restaurant (outlined)</title>
  <g transform="matrix(
          1 0
          0 1
          1 1
        )"><path fill-rule="evenodd" clip-rule="evenodd" d="M10 7L10 0L8 0L8 7L6 7L6 0L4 0L4 7L2 7L2 0L0 0L0 7C0 9.3 1.5 11.2 3.5 11.8L3.5 22L6.5 22L6.5 11.8C8.5 11.1 10 9.2 10 7ZM12 5C12 2.2 14.2 0 17 0C19.8 0 22 2.2 22 5L22 7C22 9.2 20.5 11.1 18.5 11.7L18.5 22L15.5 22L15.5 11.7C13.5 11.1 12 9.2 12 7L12 5ZM17 9C18.1 9 19 8.1 19 7L19 5C19 3.9 18.1 3 17 3C15.9 3 15 3.9 15 5L15 7C15 8.1 15.9 9 17 9Z" fill="currentColor" opacity="1"/></g>
</svg>