<svg width="24" height="24" viewBox="0 0 24 24" fill="none" xmlns="http://www.w3.org/2000/svg">
  <title>Fuel ev (filled)</title>
  <g transform="matrix(
          1 0
          0 1
          1 1
        )"><path fill-rule="nonzero" clip-rule="nonzero" d="M17 0L17 4.19995L18 5.19995L18 16C18 17.1 17.1 18 16 18C14.9 18 14 17.1 14 16L14 0L0 0L0 22L14 22L14 20.6C14.6 20.9 15.3 21 16 21C18.8 21 21 18.8 21 16L21 11C22.1 11 23 10.1 23 9L23 6.09998L23 6L17 0ZM2.5 13L7 3.5L7 9L11.5 9L7 18.5L7 13L2.5 13Z" fill="currentColor" opacity="1"/></g>
</svg>