<svg width="24" height="24" viewBox="0 0 24 24" fill="none" xmlns="http://www.w3.org/2000/svg">
  <title>Fan (filled)</title>
  <g transform="matrix(
          1 0
          0 1
          1 1
        )"><path fill-rule="nonzero" clip-rule="nonzero" d="M19 4.5C19 2 17 0 14.5 0C13.1 0 12 1.1 12 2.5L12 10L13.5 10C16.5 10 19 7.5 19 4.5Z" fill="currentColor" opacity="1"/>
<path fill-rule="nonzero" clip-rule="nonzero" d="M3 17.5C3 20 5 22 7.5 22C8.9 22 10 20.9 10 19.5L10 12L8.5 12C5.5 12 3 14.5 3 17.5Z" fill="currentColor" opacity="1"/>
<path fill-rule="nonzero" clip-rule="nonzero" d="M19.5 12L12 12L12 13.5C12 16.5 14.5 19 17.5 19C20 19 22 17 22 14.5C22 13.1 20.9 12 19.5 12Z" fill="currentColor" opacity="1"/>
<path fill-rule="nonzero" clip-rule="nonzero" d="M4.5 3C2 3 0 5 0 7.5C0 8.9 1.1 10 2.5 10L10 10L10 8.5C10 5.5 7.5 3 4.5 3Z" fill="currentColor" opacity="1"/></g>
</svg>