<svg width="24" height="24" viewBox="0 0 24 24" fill="none" xmlns="http://www.w3.org/2000/svg">
  <title>Clock add (filled)</title>
  <g transform="matrix(
          1 0
          0 1
          1 1
        )"><path fill-rule="nonzero" clip-rule="nonzero" d="M18.5 12C19.7 12 20.9 12.3 21.8 12.9C21.9 12.3 22 11.6 22 11C22 4.9 17.1 0 11 0C4.9 0 0 4.9 0 11C0 17.1 4.9 22 11 22C11.7 22 12.3 21.9 12.9 21.8C12.3 20.8 12 19.7 12 18.5C12 14.9 14.9 12 18.5 12ZM12.9 11.4L7.10001 14.3L5.79999 11.6L10 9.5L10 3L13 3L13 11.4L12.9 11.4Z" fill="currentColor" opacity="1"/></g>,<g transform="matrix(
          1 0
          0 1
          15 15
        )"><path fill-rule="nonzero" clip-rule="nonzero" d="M9 3L6 3L6 0L3 0L3 3L0 3L0 6L3 6L3 9L6 9L6 6L9 6L9 3Z" fill="currentColor" opacity="1"/></g>
</svg>