<svg width="24" height="24" viewBox="0 0 24 24" fill="none" xmlns="http://www.w3.org/2000/svg">
  <title>Pill (outlined)</title>
  <g transform="matrix(
          1 0
          0 1
          1.27490234375 1.2750244140625
        )"><path fill-rule="nonzero" clip-rule="nonzero" d="M19.725 1.725C17.425 -0.575 13.525 -0.575 11.225 1.725L1.725 11.225C-0.575 13.525 -0.575 17.425 1.725 19.725C4.025 22.025 7.925 22.025 10.225 19.725L19.725 10.225C22.025 7.925 22.025 4.025 19.725 1.725ZM8.1249 17.625C6.9249 18.825 5.0251 18.825 3.8251 17.625C2.6251 16.425 2.6251 14.525 3.8251 13.325L7.52505 9.62502L11.8251 13.925L8.1249 17.625ZM17.6249 8.12502L13.925 11.825L9.6249 7.52499L13.3251 3.82498C14.5251 2.62498 16.4249 2.62498 17.6249 3.82498C18.8249 5.02498 18.8249 6.92502 17.6249 8.12502Z" fill="currentColor" opacity="1"/></g>
</svg>