<svg width="24" height="24" viewBox="0 0 24 24" fill="none" xmlns="http://www.w3.org/2000/svg">
  <title>Show (filled)</title>
  <g transform="matrix(
          1 0
          0 1
          0 2
        )"><path fill-rule="evenodd" clip-rule="evenodd" d="M0 10C1.4 4.2 6.2 0 12 0C17.8 0 22.6 4.2 24 10C22.6 15.8 17.8 20 12 20C6.2 20 1.4 15.8 0 10ZM7 10C7 12.8 9.2 15 12 15C14.8 15 17 12.8 17 10C17 7.2 14.8 5 12 5C9.2 5 7 7.2 7 10ZM14 10C14 11.1046 13.1046 12 12 12C10.8954 12 10 11.1046 10 10C10 8.89543 10.8954 8 12 8C13.1046 8 14 8.89543 14 10Z" fill="currentColor" opacity="1"/></g>
</svg>