<svg width="24" height="24" viewBox="0 0 24 24" fill="none" xmlns="http://www.w3.org/2000/svg">
  <title>Feed (outlined)</title>
  <g transform="matrix(
          1 0
          0 1
          1 5
        )"><path fill-rule="nonzero" clip-rule="nonzero" d="M0 0L0 3C8.27 3 15 9.73 15 18L18 18C18 8.08 9.93 0 0 0Z" fill="currentColor" opacity="1"/></g>,<g transform="matrix(
          1 0
          0 1
          1 11
        )"><path fill-rule="nonzero" clip-rule="nonzero" d="M0 0L0 3C4.96 3 9 7.04 9 12L12 12C12 5.38 6.62 0 0 0Z" fill="currentColor" opacity="1"/></g>,<g transform="matrix(
          1 0
          0 1
          1 17
        )"><path fill-rule="nonzero" clip-rule="nonzero" d="M0 0L0 6L6 6C6 2.69 3.31 0 0 0Z" fill="currentColor" opacity="1"/></g>
</svg>