<svg width="24" height="24" viewBox="0 0 24 24" fill="none" xmlns="http://www.w3.org/2000/svg">
  <title>Youtube (outlined)</title>
  <g transform="matrix(
          1 0
          0 1
          1 4
        )"><path fill-rule="nonzero" clip-rule="nonzero" d="M22 8C22 8 22 4.15 21.54 2.42C21.29 1.47 20.54 0.720007 19.6 0.460007C17.88 6.70552e-06 11 0 11 0C11 0 4.12 6.70552e-06 2.4 0.460007C1.45 0.710007 0.71 1.47 0.46 2.42C2.98023e-08 4.15 0 8 0 8C0 8 0.04 11.85 0.5 13.58C0.75 14.53 1.5 15.28 2.45 15.54C4.16 16 11.04 16 11.04 16C11.04 16 17.92 16 19.64 15.54C20.59 15.29 21.33 14.53 21.58 13.58C22.04 11.85 22 8 22 8ZM9 11.27L9 4.73L14.5 8L9 11.27Z" fill="currentColor" opacity="1"/></g>
</svg>