<svg width="24" height="24" viewBox="0 0 24 24" fill="none" xmlns="http://www.w3.org/2000/svg">
  <title>Lifebuoy (filled)</title>
  <g transform="matrix(
          1 0
          0 1
          1 1.0999755859375
        )"><path fill-rule="evenodd" clip-rule="evenodd" d="M11 5.89999C10.2 5.89999 9.39995 6.1 8.69995 6.5L4.3999 2.19998C6.1999 0.799982 8.5 0 11 0C13.5 0 15.8001 0.799982 17.6001 2.19998L13.3 6.5C12.6 6.1 11.8 5.89999 11 5.89999ZM15.3999 13.2C15.7999 12.5 16 11.7001 16 10.9001C16 10.1001 15.7999 9.30007 15.3999 8.60007L19.7 4.30005C21.1 6.10005 21.8999 8.40005 21.8999 10.9001C21.8999 13.4001 21.1 15.7001 19.7 17.5001L15.3999 13.2ZM13.3 15.3C12.6 15.7 11.8 15.9001 11 15.9001C10.2 15.9001 9.39995 15.7 8.69995 15.3L4.3999 19.6001C6.1999 21.0001 8.5 21.8 11 21.8C13.5 21.8 15.8001 21.0001 17.6001 19.6001L13.3 15.3ZM0 10.9001C0 8.40005 0.799951 6.10005 2.19995 4.30005L6.5 8.60007C6.1 9.30007 5.8999 10.1001 5.8999 10.9001C5.8999 11.7001 6.1 12.5 6.5 13.2L2.19995 17.5001C0.799951 15.7001 0 13.4001 0 10.9001Z" fill="currentColor" opacity="1"/></g>
</svg>