<svg width="24" height="24" viewBox="0 0 24 24" fill="none" xmlns="http://www.w3.org/2000/svg">
  <title>Arrow merge right (filled)</title>
  <g transform="matrix(
          1 0
          0 1
          1 3
        )"><path fill-rule="nonzero" clip-rule="nonzero" d="M22.36 9L17.24 16L13.52 16L17.54 10.5L13.64 10.5C11.7 10.5 9.93 11.63 9.11 13.38C7.8 16.19 4.96 18 1.86 18L0 18L0 15L1.86 15C3.8 15 5.57 13.87 6.39 12.12C6.98 10.85 7.89 9.79 8.98 9C7.89 8.21 6.98 7.15 6.39 5.88C5.57 4.13 3.8 3 1.86 3L0 3L0 0L1.86 0C4.96 0 7.8 1.81 9.11 4.62C9.93 6.37 11.7 7.5 13.64 7.5L17.54 7.5L13.52 2L17.24 2L22.36 9Z" fill="currentColor" opacity="1"/></g>
</svg>