<svg width="24" height="24" viewBox="0 0 24 24" fill="none" xmlns="http://www.w3.org/2000/svg">
  <title>Stadium (outlined)</title>
  <g transform="matrix(
          1 0
          0 1
          1 0
        )"><path fill-rule="nonzero" clip-rule="nonzero" d="M17 7L17 5.5L21 3.5L14 0L14 7L7 7L7 5.5L11 3.5L4 0L4 7L0 7L0 22L10 22L10 17C10 16.4 10.4 16 11 16C11.6 16 12 16.4 12 17L12 22L22 22L22 7L17 7ZM19 19L15 19L15 17C15 14.8 13.2 13 11 13C8.8 13 7 14.8 7 17L7 19L3 19L3 10L19 10L19 19Z" fill="currentColor" opacity="1"/></g>
</svg>