<svg width="24" height="24" viewBox="0 0 24 24" fill="none" xmlns="http://www.w3.org/2000/svg">
  <title>Clock arrow right (filled)</title>
  <g transform="matrix(
          1 0
          0 1
          1 1
        )"><path fill-rule="evenodd" clip-rule="evenodd" d="M21.8 12.9C20.9 12.3 19.7 12 18.5 12C14.9 12 12 14.9 12 18.5C12 19.7 12.2999 20.8 12.8999 21.8L12.8995 21.8001C12.2996 21.9 11.6998 22 11 22C4.9 22 0 17.1 0 11C0 4.9 4.9 0 11 0C17.1 0 22 4.9 22 11C22 11.6 21.9 12.3 21.8 12.9ZM7.19995 14.3L13 11.4L13.1001 11.4L13.1001 3L10.1001 3L10.1001 9.5L5.8999 11.6L7.19995 14.3ZM15.8999 14L19.6001 14L22.8999 18.5L19.6001 23L15.8999 23L18 20L14 20L14 17L18 17L15.8999 14Z" fill="currentColor" opacity="1"/></g>
</svg>