<svg width="24" height="24" viewBox="0 0 24 24" fill="none" xmlns="http://www.w3.org/2000/svg">
  <title>Computer chip (filled)</title>
  <g transform="matrix(
          1 0
          0 1
          1 1
        )"><path fill-rule="nonzero" clip-rule="nonzero" d="M22 10L22 7L19 7L19 3L15 3L15 0L12 0L12 3L10 3L10 0L7 0L7 3L3 3L3 7L0 7L0 10L3 10L3 12L0 12L0 15L3 15L3 19L7 19L7 22L10 22L10 19L12 19L12 22L15 22L15 19L19 19L19 15L22 15L22 12L19 12L19 10L22 10ZM13 13L9 13L9 9L13 9L13 13Z" fill="currentColor" opacity="1"/></g>
</svg>