<svg width="24" height="24" viewBox="0 0 24 24" fill="none" xmlns="http://www.w3.org/2000/svg">
  <title>Report map (outlined)</title>
  <g transform="matrix(
          1 0
          0 1
          0.89990234375 0.074920654296875
        )"><path fill-rule="evenodd" clip-rule="evenodd" d="M16.8003 10.925L20.1001 10.925L22 21.925L0 21.925L2 10.925L5.30029 10.925C3.40029 8.22499 3.7001 4.425 6.1001 2.025C8.8001 -0.675 13.3 -0.675 16 2.025C18.4 4.425 18.7003 8.22499 16.8003 10.925ZM14 4.12501C12.4 2.52501 9.90029 2.52501 8.30029 4.12501C6.70029 5.62501 6.6999 8.22499 8.3999 9.82499L11.2002 12.625L14 9.82499C15.6 8.22499 15.6 5.72501 14 4.12501ZM4.6001 13.925L3.7002 18.925L18.5 18.925L17.6001 13.925L14 13.925L11.1001 16.825L8.2002 13.925L4.6001 13.925ZM12.6001 6.92505C12.6001 7.75348 11.9285 8.42505 11.1001 8.42505C10.2717 8.42505 9.6001 7.75348 9.6001 6.92505C9.6001 6.09662 10.2717 5.42505 11.1001 5.42505C11.9285 5.42505 12.6001 6.09662 12.6001 6.92505Z" fill="currentColor" opacity="1"/></g>
</svg>