<svg width="24" height="24" viewBox="0 0 24 24" fill="none" xmlns="http://www.w3.org/2000/svg">
  <title>Museum (filled)</title>
  <g transform="matrix(
          1 0
          0 1
          1 20
        )"><path fill-rule="nonzero" clip-rule="nonzero" d="M22 0L0 0L0 3L22 3L22 0Z" fill="currentColor" opacity="1"/></g>,<g transform="matrix(
          1 0
          0 1
          2 1
        )"><path fill-rule="nonzero" clip-rule="nonzero" d="M2 17L7 17L7 12C7 10.34 8.34 9 10 9C11.66 9 13 10.34 13 12L13 17L18 17L18 8L20 8L20 6L10 0L0 6L0 8L2 8L2 17Z" fill="currentColor" opacity="1"/></g>
</svg>