<svg width="24" height="24" viewBox="0 0 24 24" fill="none" xmlns="http://www.w3.org/2000/svg">
  <title>Meat (outlined)</title>
  <g transform="matrix(
          1 0
          0 1
          2 1
        )"><path fill-rule="nonzero" clip-rule="nonzero" d="M8.5 3C11.53 3 14 5.47 14 8.5L14 17.25C14 18.21 13.21 19 12.25 19C11.68 19 11.29 18.73 11.05 18.51L9.83 17.36L8 15.62L8.01 15.62L4.71 12.48C3.61 11.43 3 10.01 3 8.5C3 5.47 5.47 3 8.5 3ZM8.5 0C3.81 0 0 3.81 0 8.5C0 10.92 1.02 13.1 2.65 14.65L2.64 14.65L8.98 20.68L8.99 20.68C9.84 21.49 10.99 21.99 12.26 21.99C14.88 21.99 17.01 19.86 17.01 17.24L17.01 8.5C17 3.81 13.19 0 8.5 0Z" fill="currentColor" opacity="1"/>
<path fill-rule="nonzero" clip-rule="nonzero" d="M8.5 11C9.88071 11 11 9.88071 11 8.5C11 7.11929 9.88071 6 8.5 6C7.11929 6 6 7.11929 6 8.5C6 9.88071 7.11929 11 8.5 11Z" fill="currentColor" opacity="1"/></g>
</svg>