<svg width="24" height="24" viewBox="0 0 24 24" fill="none" xmlns="http://www.w3.org/2000/svg">
  <title>Person (outlined)</title>
  <g transform="matrix(
          1 0
          0 1
          3 1
        )"><path fill-rule="evenodd" clip-rule="evenodd" d="M14.5 5.5C14.5 8.5 12 11 9 11C6 11 3.5 8.5 3.5 5.5C3.5 2.5 6 0 9 0C12 0 14.5 2.5 14.5 5.5ZM11.5 5.5C11.5 4.1 10.4 3 9 3C7.6 3 6.5 4.1 6.5 5.5C6.5 6.9 7.6 8 9 8C10.4 8 11.5 6.9 11.5 5.5ZM0 19C0 15.7 2.7 13 6 13L12 13C15.3 13 18 15.7 18 19L18 22L15 22L15 19C15 17.3 13.6 16 12 16L6 16C4.4 16 3 17.3 3 19L3 22L0 22L0 19Z" fill="currentColor" opacity="1"/></g>
</svg>