<svg width="24" height="24" viewBox="0 0 24 24" fill="none" xmlns="http://www.w3.org/2000/svg">
  <title>Ticket (outlined)</title>
  <g transform="matrix(
          1 0
          0 1
          1 3
        )"><path fill-rule="evenodd" clip-rule="evenodd" d="M22 0L22 7C20.9 7 20 7.9 20 9C20 10.1 20.9 11 22 11L22 18L0 18L0 11C1.1 11 2 10.1 2 9C2 7.9 1.1 7 0 7L0 0L22 0ZM5 9C5 10.6 4.2 12.1 3 13L3 15L19 15L19 13C17.8 12.1 17 10.6 17 9C17 7.4 17.8 5.9 19 5L19 3L3 3L3 5C4.2 5.9 5 7.4 5 9Z" fill="currentColor" opacity="1"/></g>
</svg>