<svg width="24" height="24" viewBox="0 0 24 24" fill="none" xmlns="http://www.w3.org/2000/svg">
  <title>Bike (outlined)</title>
  <g transform="matrix(
          1 0
          0 1
          0 3
        )"><path fill-rule="nonzero" clip-rule="nonzero" d="M19.3999 6.10001L16.3999 0L12 0L12 3L14.6001 3L15.6001 5L9.19971 5L8 2L4 2L4 5L6 5L6.3999 6.10001C6.0999 6.10001 5.8 6 5.5 6C2.5 6 0 8.5 0 11.5C0 14.5 2.5 17 5.5 17C6.5 17 7.39971 16.8 8.19971 16.3C8.59971 16.1 8.89971 15.8 9.19971 15.5C9.89971 14.8 10.3997 13.9 10.6997 13L13.1001 13C13.8001 15.3 15.8999 17 18.3999 17C19.8999 17 21.3 16.4 22.5 15.3L22.6997 15.1C23.4997 14.1 24 12.9 24 11.5C23.9 8.8 21.8999 6.50001 19.3999 6.10001ZM7.2998 13.1C6.6998 13.7 6.0999 14 5.3999 14C3.9999 14 2.8999 12.9 2.8999 11.5C2.8999 10.6 3.39971 9.79999 4.19971 9.29999C4.59971 9.09999 4.9999 9 5.3999 9C6.7999 9 7.8999 10.1 7.8999 11.5C7.8999 12.1 7.6998 12.7 7.2998 13.1ZM13.1001 10L11.1001 10L10.2998 8L14.1997 8C13.6997 8.6 13.3001 9.3 13.1001 10ZM20.2998 13.1C19.6998 13.7 19.0999 14 18.3999 14C16.9999 14 15.8999 12.9 15.8999 11.5C15.8999 10.6 16.3997 9.79999 17.1997 9.29999C17.5997 9.09999 17.9999 9 18.3999 9C19.7999 9 20.8999 10.1 20.8999 11.5C20.8999 12.1 20.6998 12.7 20.2998 13.1Z" fill="currentColor" opacity="1"/></g>
</svg>