<svg width="24" height="24" viewBox="0 0 24 24" fill="none" xmlns="http://www.w3.org/2000/svg">
  <title>Rails (outlined)</title>
  <g transform="matrix(
          1 0
          0 1
          3 1
        )"><path fill-rule="nonzero" clip-rule="nonzero" d="M18 5L18 2L16 2L16 0L13 0L13 2L5 2L5 0L2 0L2 2L0 2L0 5L2 5L2 7L0 7L0 10L2 10L2 12L0 12L0 15L2 15L2 17L0 17L0 20L2 20L2 22L5 22L5 20L13 20L13 22L16 22L16 20L18 20L18 17L16 17L16 15L18 15L18 12L16 12L16 10L18 10L18 7L16 7L16 5L18 5ZM13 17L5 17L5 15L13 15L13 17ZM13 12L5 12L5 10L13 10L13 12ZM13 7L5 7L5 5L13 5L13 7Z" fill="currentColor" opacity="1"/></g>
</svg>