<svg width="24" height="24" viewBox="0 0 24 24" fill="none" xmlns="http://www.w3.org/2000/svg">
  <title>Id check (outlined)</title>
  <g transform="matrix(
          1 0
          0 1
          1 3
        )"><path fill-rule="evenodd" clip-rule="evenodd" d="M3 15L12 15L12 18L0 18L0 0L22 0L22 9L19 9L19 3L3 3L3 15ZM9 11C10.6569 11 12 9.65685 12 8C12 6.34315 10.6569 5 9 5C7.34315 5 6 6.34315 6 8C6 9.65685 7.34315 11 9 11ZM18 19L14 15.7L15.9 13.4L17.9 15L20.9 12L23 14.1L18 19Z" fill="currentColor" opacity="1"/></g>
</svg>