<svg width="24" height="24" viewBox="0 0 24 24" fill="none" xmlns="http://www.w3.org/2000/svg">
  <title>Person cross (outlined)</title>
  <g transform="matrix(
          1 0
          0 1
          1 1
        )"><path fill-rule="evenodd" clip-rule="evenodd" d="M9 10C11.8 10 14 7.8 14 5C14 2.2 11.8 0 9 0C6.2 0 4 2.2 4 5C4 7.8 6.2 10 9 10ZM9 3C10.1 3 11 3.9 11 5C11 6.1 10.1 7 9 7C7.9 7 7 6.1 7 5C7 3.9 7.9 3 9 3ZM0 18L0 22L3 22L3 18C3 16.3 4.3 15 6 15L10 15L10 12L6 12C2.7 12 0 14.7 0 18ZM19.8999 12.4L22.1001 14.6L19.3999 17.2L22.1001 19.9L19.8999 22.1L17.2002 19.4L14.6001 22.1L12.3999 19.9L15.1001 17.2L12.3999 14.6L14.6001 12.4L17.2002 15.1L19.8999 12.4Z" fill="currentColor" opacity="1"/></g>
</svg>