<svg width="24" height="24" viewBox="0 0 24 24" fill="none" xmlns="http://www.w3.org/2000/svg">
  <title>Elevator people (outlined)</title>
  <g transform="matrix(
          1 0
          0 1
          1 1
        )"><path fill-rule="evenodd" clip-rule="evenodd" d="M10 22L10 0L0 0L0 22L10 22ZM5 4L8 9L2 9L5 4ZM8 14L5 19L2 14L8 14ZM22 9.5C22 7.6 20.4 6 18.5 6L15.5 6C13.6 6 12 7.6 12 9.5L12 17L13 17L13 22L16 22L16 14L15 14L15 9.5C15 9.2 15.2 9 15.5 9L18.5 9C18.8 9 19 9.2 19 9.5L19 14L18 14L18 22L21 22L21 17L22 17L22 9.5ZM19.5 2.5C19.5 3.88071 18.3807 5 17 5C15.6193 5 14.5 3.88071 14.5 2.5C14.5 1.11929 15.6193 0 17 0C18.3807 0 19.5 1.11929 19.5 2.5Z" fill="currentColor" opacity="1"/></g>
</svg>