<svg width="24" height="24" viewBox="0 0 24 24" fill="none" xmlns="http://www.w3.org/2000/svg">
  <title>Cruise control (outlined)</title>
  <g transform="matrix(
          1 0
          0 1
          0.97509765625 1
        )"><path fill-rule="nonzero" clip-rule="nonzero" d="M19.0249 3L19.0249 0L16.0249 0L16.0249 6L22.0249 6L22.0249 3L19.0249 3Z" fill="currentColor" opacity="1"/>
<path fill-rule="nonzero" clip-rule="nonzero" d="M10.025 7.10007L12.425 4.70008C9.125 3.40008 5.325 4.00008 2.625 6.70008C-0.875 10.2001 -0.875 15.9001 2.625 19.4001L4.725 17.3001C2.425 15.0001 2.425 11.2001 4.725 8.80005C6.225 7.30005 8.125 6.80007 10.025 7.10007Z" fill="currentColor" opacity="1"/>
<path fill-rule="nonzero" clip-rule="nonzero" d="M14.9251 12C15.2251 13.8 14.7251 15.8 13.2251 17.2L15.3251 19.3C17.9251 16.7 18.6251 12.8 17.3251 9.5L14.9251 12Z" fill="currentColor" opacity="1"/>
<path fill-rule="nonzero" clip-rule="nonzero" d="M16.1249 8.10001L14.0249 6L8.9249 11.1C7.9249 11.2 7.0249 12 7.0249 13.1C7.0249 14.2 7.9249 15.1 9.0249 15.1C10.1249 15.1 10.9249 14.3 11.0249 13.2L16.1249 8.10001Z" fill="currentColor" opacity="1"/></g>
</svg>