<svg width="24" height="24" viewBox="0 0 24 24" fill="none" xmlns="http://www.w3.org/2000/svg">
  <title>Face happy (filled)</title>
  <g transform="matrix(
          1 0
          0 1
          1 1
        )"><path fill-rule="nonzero" clip-rule="nonzero" d="M11 0C4.92 0 0 4.92 0 11C0 17.08 4.92 22 11 22C17.08 22 22 17.08 22 11C22 4.92 17.08 0 11 0ZM15 6C16.1 6 17 6.9 17 8C17 9.1 16.1 10 15 10C13.9 10 13 9.1 13 8C13 6.9 13.9 6 15 6ZM7 6C8.1 6 9 6.9 9 8C9 9.1 8.1 10 7 10C5.9 10 5 9.1 5 8C5 6.9 5.9 6 7 6ZM11 18C8.21 18 5.80999 16.36 4.67999 14L17.32 14C16.19 16.36 13.79 18 11 18Z" fill="currentColor" opacity="1"/></g>
</svg>