<svg width="24" height="24" viewBox="0 0 24 24" fill="none" xmlns="http://www.w3.org/2000/svg">
  <title>Credit card front (outlined)</title>
  <g transform="matrix(
          1 0
          0 1
          1 3
        )"><path fill-rule="nonzero" clip-rule="nonzero" d="M0 0L0 18L22 18L22 0L0 0ZM19 15L3 15L3 3L19 3L19 15Z" fill="currentColor" opacity="1"/></g>,<g transform="matrix(
          1 0
          0 1
          6 8
        )"><path fill-rule="nonzero" clip-rule="nonzero" d="M5 0L0 0L0 3L5 3L5 0Z" fill="currentColor" opacity="1"/></g>,<g transform="matrix(
          1 0
          0 1
          6 13
        )"><path fill-rule="nonzero" clip-rule="nonzero" d="M7 0L0 0L0 3L7 3L7 0Z" fill="currentColor" opacity="1"/></g>,<g transform="matrix(
          1 0
          0 1
          15 13
        )"><path fill-rule="nonzero" clip-rule="nonzero" d="M3 0L0 0L0 3L3 3L3 0Z" fill="currentColor" opacity="1"/></g>
</svg>