<svg width="24" height="24" viewBox="0 0 24 24" fill="none" xmlns="http://www.w3.org/2000/svg">
  <title>Share android (filled)</title>
  <g transform="matrix(
          1 0
          0 1
          1.10009765625 1.20001220703125
        )"><path fill-rule="evenodd" clip-rule="evenodd" d="M17.3999 12.8C16.1999 12.8 15.0998 13.3 14.2998 14.1L8.8999 11.4C8.8999 11.2 9 11 9 10.9C9 10.8 8.9999 10.5 8.8999 10.4L14.2998 7.70001C15.0998 8.50001 16.1999 9 17.3999 9C19.8999 9 21.8999 7 21.8999 4.5C21.8999 2 19.8999 0 17.3999 0C14.8999 0 12.8999 2 12.8999 4.5C12.8999 4.7 12.9 4.9 13 5L7.6001 7.70001C6.8001 6.90001 5.7 6.39996 4.5 6.39996C2 6.39996 0 8.39996 0 10.9C0 13.4 2 15.4 4.5 15.4C5.7 15.4 6.8001 14.9 7.6001 14.1L13 16.8C13 17 12.8999 17.2 12.8999 17.3C12.8999 19.8 14.8999 21.8 17.3999 21.8C19.8999 21.8 21.8999 19.8 21.8999 17.3C21.8999 14.8 19.8999 12.8 17.3999 12.8Z" fill="currentColor" opacity="1"/></g>
</svg>