<svg width="24" height="24" viewBox="0 0 24 24" fill="none" xmlns="http://www.w3.org/2000/svg">
  <title>Music note (outlined)</title>
  <g transform="matrix(
          1 0
          0 1
          0 1
        )"><path fill-rule="nonzero" clip-rule="nonzero" d="M7 0L7 12.4C6.4 12.1 5.7 12 5 12C2.2 12 0 14.2 0 17C0 19.8 2.2 22 5 22C7.8 22 10 19.8 10 17L10 8L19 8L19 12.4C18.4 12.1 17.7 12 17 12C14.2 12 12 14.2 12 17C12 19.8 14.2 22 17 22C19.8 22 22 19.8 22 17L22 0L7 0ZM5 19C3.9 19 3 18.1 3 17C3 15.9 3.9 15 5 15C6.1 15 7 15.9 7 17C7 18.1 6.1 19 5 19ZM17 19C15.9 19 15 18.1 15 17C15 15.9 15.9 15 17 15C18.1 15 19 15.9 19 17C19 18.1 18.1 19 17 19ZM10 5L10 3L19 3L19 5L10 5Z" fill="currentColor" opacity="1"/></g>
</svg>