<svg width="24" height="24" viewBox="0 0 24 24" fill="none" xmlns="http://www.w3.org/2000/svg">
  <title>Power (filled)</title>
  <g transform="matrix(
          1 0
          0 1
          1.5 1
        )"><path fill-rule="evenodd" clip-rule="evenodd" d="M9 0L12 0L12 10L9 10L9 0ZM0 11.5C0 17.3 4.7 22 10.5 22C16.3 22 21.0002 17.3 21.2002 11.5C21.2002 7.70003 19.0999 4.30002 15.8999 2.40002L14.3999 5.00003C16.6999 6.30003 18.1001 8.80003 18.1001 11.5C18.1001 15.6 14.7001 19 10.6001 19C6.5001 19 3.1001 15.6 3.1001 11.5C3.1001 8.80003 4.4998 6.30003 6.7998 5.00003L5.2998 2.40002C1.9998 4.30002 0 7.80003 0 11.5Z" fill="currentColor" opacity="1"/></g>
</svg>