<svg width="24" height="24" viewBox="0 0 24 24" fill="none" xmlns="http://www.w3.org/2000/svg">
  <title>Bike pedals (filled)</title>
  <g transform="matrix(
          1 0
          0 1
          1 1
        )"><path fill-rule="nonzero" clip-rule="nonzero" d="M22 3L22 0L16.17 0L13.92 3.56C13.02 3.2 12.03 3 11 3C6.58 3 3 6.58 3 11C3 13.3 3.98 15.38 5.54 16.84L4.17 19L0 19L0 22L5.83 22L8.08 18.44C8.98 18.8 9.97 19 11 19C15.42 19 19 15.42 19 11C19 8.7 18.02 6.62 16.46 5.16L17.83 3L22 3ZM11 14C9.34 14 8 12.66 8 11C8 9.34 9.34 8 11 8C12.66 8 14 9.34 14 11C14 12.66 12.66 14 11 14Z" fill="currentColor" opacity="1"/></g>
</svg>