<svg width="24" height="24" viewBox="0 0 24 24" fill="none" xmlns="http://www.w3.org/2000/svg">
  <title>Weather partly cloudy (outlined)</title>
  <g transform="matrix(
          1 0
          0 1
          1 4
        )"><path fill-rule="nonzero" clip-rule="nonzero" d="M14 4C13.2 4 12.4998 4.09999 11.7998 4.29999C11.0998 1.79999 8.8 0 6 0C2.7 0 0 2.7 0 6C0 7.4 0.499805 8.70001 1.2998 9.70001C0.499805 10.8 0 12.1 0 13.5L0 17L22 17L22 12C22 7.6 18.4 4 14 4ZM6 3C7.6 3 8.9 4.19999 9 5.79999C8.5 6.19999 8.10019 6.60001 7.7002 7.10001C7.3002 7.00001 6.9 7 6.5 7C5.4 7 4.4 7.30001 3.5 7.70001C3.2 7.20001 3 6.6 3 6C3 4.3 4.3 3 6 3ZM19 14L3 14L3 13.5C3 11.6 4.6 10 6.5 10C7.5 10 8.4001 10.5 9.1001 11.2C9.5001 8.80001 11.5 7 14 7C16.8 7 19 9.2 19 12L19 14Z" fill="currentColor" opacity="1"/></g>
</svg>