<svg width="24" height="24" viewBox="0 0 24 24" fill="none" xmlns="http://www.w3.org/2000/svg">
  <title>Circle check (outlined)</title>
  <g transform="matrix(
          1 0
          0 1
          1 1
        )"><path fill-rule="evenodd" clip-rule="evenodd" d="M0 11C0 4.9 4.9 0 11 0C17.1 0 22 4.9 22 11C22 17.1 17.1 22 11 22C4.9 22 0 17.1 0 11ZM3 11C3 15.4 6.6 19 11 19C15.4 19 19 15.4 19 11C19 6.6 15.4 3 11 3C6.6 3 3 6.6 3 11ZM9.49988 11.9L14.8999 6.40002L17.0999 8.60004L9.49988 16.1L4.8999 11.6L7.09985 9.40002L9.49988 11.9Z" fill="currentColor" opacity="1"/></g>
</svg>