<svg width="24" height="24" viewBox="0 0 24 24" fill="none" xmlns="http://www.w3.org/2000/svg">
  <title>Fuel diesel (filled)</title>
  <g transform="matrix(
          1 0
          0 1
          1 1
        )"><path fill-rule="nonzero" clip-rule="nonzero" d="M16 0.0999756L16 3.20001C17.2 3.50001 18.1 4.30002 18.6 5.40002L17 7L17 12L19 12L19 15.5C19 16.9 17.9 18 16.5 18C15.1 18 14 16.9 14 15.5L14 0L0 0L0 22L14 22L14 20.4C14.8 20.8 15.6 21 16.5 21C19.5 21 22 18.5 22 15.5L22 7C22 3.5 19.4 0.599976 16 0.0999756ZM11 10C11 12.2 9.2 14 7 14L3 14L3 5L7 5C9.2 5 11 6.8 11 9L11 10ZM7 7L5 7L5 12L7 12C8.1 12 9 11.1 9 10L9 9C9 7.9 8.1 7 7 7Z" fill="currentColor" opacity="1"/></g>
</svg>