<svg width="24" height="24" viewBox="0 0 24 24" fill="none" xmlns="http://www.w3.org/2000/svg">
  <title>Circle plus (outlined)</title>
  <g transform="matrix(
          1 0
          0 1
          1 1
        )"><path fill-rule="evenodd" clip-rule="evenodd" d="M0 11C0 4.9 4.9 0 11 0C17.1 0 22 4.9 22 11C22 17.1 17.1 22 11 22C4.9 22 0 17.1 0 11ZM3 11C3 15.4 6.6 19 11 19C15.4 19 19 15.4 19 11C19 6.6 15.4 3 11 3C6.6 3 3 6.6 3 11ZM12.5 5L12.5 9.5L17 9.5L17 12.5L12.5 12.5L12.5 17L9.5 17L9.5 12.5L5 12.5L5 9.5L9.5 9.5L9.5 5L12.5 5Z" fill="currentColor" opacity="1"/></g>
</svg>