<svg width="24" height="24" viewBox="0 0 24 24" fill="none" xmlns="http://www.w3.org/2000/svg">
  <title>Center (filled)</title>
  <g transform="matrix(
          1 0
          0 1
          0 0
        )"><path fill-rule="evenodd" clip-rule="evenodd" d="M20.8999 10.5L24 10.5L24 13.5L20.8999 13.5C20.1999 17.3 17.3 20.3 13.5 20.9L13.5 24L10.5 24L10.5 20.9C6.7 20.2 3.7001 17.3 3.1001 13.5L0 13.5L0 10.5L3.1001 10.5C3.8001 6.7 6.7 3.70001 10.5 3.10001L10.5 0L13.5 0L13.5 3.10001C17.3 3.80001 20.2999 6.7 20.8999 10.5ZM6 12C6 15.3 8.7 18 12 18C15.3 18 18 15.3 18 12C18 8.7 15.3 6 12 6C8.7 6 6 8.7 6 12ZM15 12C15 13.6569 13.6569 15 12 15C10.3431 15 9 13.6569 9 12C9 10.3431 10.3431 9 12 9C13.6569 9 15 10.3431 15 12Z" fill="currentColor" opacity="1"/></g>
</svg>