<svg width="24" height="24" viewBox="0 0 24 24" fill="none" xmlns="http://www.w3.org/2000/svg">
  <title>Person male (filled)</title>
  <g transform="matrix(
          1 0
          0 1
          8 1
        )"><path fill-rule="evenodd" clip-rule="evenodd" d="M6.5 2.5C6.5 3.88071 5.38071 5 4 5C2.61929 5 1.5 3.88071 1.5 2.5C1.5 1.11929 2.61929 0 4 0C5.38071 0 6.5 1.11929 6.5 2.5ZM0 10C0 8.3 1.3 7 3 7L5 7C6.7 7 8 8.3 8 10L8 16L7 16L7 22L1 22L1 16L0 16L0 10Z" fill="currentColor" opacity="1"/></g>
</svg>