<svg width="24" height="24" viewBox="0 0 24 24" fill="none" xmlns="http://www.w3.org/2000/svg">
  <title>Face mask (outlined)</title>
  <g transform="matrix(
          1 0
          0 1
          0 3
        )"><path fill-rule="nonzero" clip-rule="nonzero" d="M19 3C17.7 3 16.5 2.5 15.6 1.6L15.4 1.4C14.5 0.5 13.3 0 12 0C10.7 0 9.5 0.5 8.6 1.4L8.4 1.6C7.5 2.5 6.3 3 5 3L0 3L0 12.5C0 12.5 7 17 12 17C17 17 24 12.5 24 12.5L24 3L19 3ZM3 6L5 6L5 11.8C4.3 11.4 3.6 11.1 3 10.8L3 6ZM8 13.1L8 5.4C8.9 5 9.8 4.4 10.5 3.7L10.7 3.5C11.1 3.2 11.5 3 12 3C12.5 3 12.9 3.2 13.3 3.5L13.5 3.7C14.2 4.4 15.1 5 16 5.4L16 13.1C14.6 13.6 13.2 14 12 14C10.8 14 9.4 13.6 8 13.1ZM21 10.8C20.4 11.1 19.7 11.5 19 11.8L19 6L21 6L21 10.8Z" fill="currentColor" opacity="1"/></g>
</svg>