<svg width="24" height="24" viewBox="0 0 24 24" fill="none" xmlns="http://www.w3.org/2000/svg">
  <title>Car clock (filled)</title>
  <g transform="matrix(
          1 0
          0 1
          12 0
        )"><path fill-rule="nonzero" clip-rule="nonzero" d="M6 0C2.7 0 0 2.7 0 6C0 9.3 2.7 12 6 12C9.3 12 12 9.3 12 6C12 2.7 9.3 0 6 0ZM9 7L5 7L5 2L7 2L7 5L9 5L9 7Z" fill="currentColor" opacity="1"/></g>,<g transform="matrix(
          1 0
          0 1
          1 8
        )"><path fill-rule="nonzero" clip-rule="nonzero" d="M17.2 6C17.1 6 17 6 17 6C13.3 6 10.1 3.4 9.2 0L5.4 0C4.5 0 3.8 0.5 3.5 1.3L1.8 6L0 6L0 9L1 9L1 15L5 15L5 14L14 14L14 15L18 15L18 9L19 9L19 6L17.2 6ZM7 11L3 11L3 9L7 9L7 11ZM16 11L12 11L12 9L16 9L16 11Z" fill="currentColor" opacity="1"/></g>
</svg>