<svg width="24" height="24" viewBox="0 0 24 24" fill="none" xmlns="http://www.w3.org/2000/svg">
  <title>Train (outlined)</title>
  <g transform="matrix(
          1 0
          0 1
          3 1
        )"><path fill-rule="nonzero" clip-rule="nonzero" d="M18 4C18 4 15.5 0 9 0C2.5 0 0 4 0 4L0 16.5L2.76001 19.26L0.019989 22L3.98001 22L6.98001 19L11.02 19L14.02 22L17.98 22L15.24 19.26L18 16.5L18 4L18 4ZM9 3C12.33 3 14.19 4.32003 15 5.09003L15 7L3 7L3 5.09003C3.81 4.32003 5.67 3 9 3ZM14.26 16L3.73999 16L3 15.26L3 10L15 10L15 15.26L14.26 16Z" fill="currentColor" opacity="1"/></g>,<g transform="matrix(
          1 0
          0 1
          9 13
        )"><path fill-rule="nonzero" clip-rule="nonzero" d="M6 0L0 0L0 3L6 3L6 0Z" fill="currentColor" opacity="1"/></g>
</svg>