<svg width="24" height="24" viewBox="0 0 24 24" fill="none" xmlns="http://www.w3.org/2000/svg">
  <title>Megaphone (filled)</title>
  <g transform="matrix(
          1 0
          0 1
          1 1
        )"><path fill-rule="evenodd" clip-rule="evenodd" d="M16.8 2.20001L19.8999 0L22 0L22 18L19.8999 18L16.8 15.8C15.1 14.6 13.1001 14 11.1001 14L11.1001 4C13.1001 4 15.1 3.40001 16.8 2.20001ZM4 13.9C1.7 13.4 0 11.4 0 9C0 6.2 2.2 4 5 4L9 4L9 11.5L9 14L9 21L4 21L4 13.9Z" fill="currentColor" opacity="1"/></g>
</svg>