<svg width="24" height="24" viewBox="0 0 24 24" fill="none" xmlns="http://www.w3.org/2000/svg">
  <title>Coat hanger (filled)</title>
  <g transform="matrix(
          1 0
          0 1
          1 3
        )"><path fill-rule="nonzero" clip-rule="nonzero" d="M19.88 9.07001L14.12 6.48999C14.67 5.78999 15 4.93 15 4C15 1.79 13.21 0 11 0C8.79 0 7 1.79 7 4L10 4C10 3.45 10.45 3 11 3C11.55 3 12 3.45 12 4C12 4.39 11.77 4.74997 11.41 4.90997L2.14 9.07001C0.84 9.65001 0 10.95 0 12.38C0 14.38 1.63 16 3.62 16L18.4 16C20.4 16 22.02 14.37 22.02 12.38C22.02 10.95 21.18 9.65001 19.88 9.07001ZM18.4 13L3.62 13C3.28 13 3 12.72 3 12.38C3 12.13 3.14 11.91 3.37 11.81L11.01 8.38L18.65 11.81C18.87 11.91 19.02 12.13 19.02 12.38C19.02 12.72 18.74 13 18.4 13Z" fill="currentColor" opacity="1"/></g>
</svg>