<svg width="24" height="24" viewBox="0 0 24 24" fill="none" xmlns="http://www.w3.org/2000/svg">
  <title>Traffic lights (filled)</title>
  <g transform="matrix(
          1 0
          0 1
          5 1
        )"><path fill-rule="nonzero" clip-rule="nonzero" d="M0 0L0 22L14 22L14 0L0 0ZM7 19C5.9 19 5 18.1 5 17C5 15.9 5.9 15 7 15C8.1 15 9 15.9 9 17C9 18.1 8.1 19 7 19ZM7 13C5.9 13 5 12.1 5 11C5 9.9 5.9 9 7 9C8.1 9 9 9.9 9 11C9 12.1 8.1 13 7 13ZM7 7C5.9 7 5 6.1 5 5C5 3.9 5.9 3 7 3C8.1 3 9 3.9 9 5C9 6.1 8.1 7 7 7Z" fill="currentColor" opacity="1"/></g>
</svg>