<svg width="24" height="24" viewBox="0 0 24 24" fill="none" xmlns="http://www.w3.org/2000/svg">
  <title>Speedometer (filled)</title>
  <g transform="matrix(
          1 0
          0 1
          1 1
        )"><path fill-rule="nonzero" clip-rule="nonzero" d="M11 0C4.9 0 0 4.9 0 11C0 17.1 4.9 22 11 22C17.1 22 22 17.1 22 11C22 4.9 17.1 0 11 0ZM7.3999 14.6L5.3999 16.6C2.2999 13.5 2.2999 8.49999 5.3999 5.39999C7.5999 3.19999 10.8 2.6 13.5 3.5L11.1001 5.89999C9.7001 5.89999 8.3999 6.30002 7.3999 7.40002C5.3999 9.40002 5.3999 12.6 7.3999 14.6ZM11 13C9.9 13 9 12.1 9 11C9 9.9 9.9 9 11 9L15.6001 4.39999C16.4001 4.89999 17.0001 5.59999 17.6001 6.39999L13 11C13 12.1 12.1 13 11 13Z" fill="currentColor" opacity="1"/></g>
</svg>