<svg width="24" height="24" viewBox="0 0 24 24" fill="none" xmlns="http://www.w3.org/2000/svg">
  <title>Weather clouds (outlined)</title>
  <g transform="matrix(
          1 0
          0 1
          1 1
        )"><path fill-rule="nonzero" clip-rule="nonzero" d="M13 0C10.4 0 7.9998 1.1 6.2998 3C6.1998 3 6.1 3 6 3C2.7 3 0 5.7 0 9L0 19L22 19L22 9C22 4 18 0 13 0ZM6 6C6.6 6 7.1001 6.2 7.6001 6.5C8.6001 4.5 10.6 3 13 3C16.3 3 19 5.7 19 9L19 9.3C17.4 7.9 15.3 7 13 7C10.4 7 7.9998 8.1 6.2998 10C6.1998 10 6.1 10 6 10C4.9 10 3.9 10.3 3 10.8L3 9C3 7.3 4.3 6 6 6ZM3 16C3 14.3 4.3 13 6 13C6.6 13 7.1001 13.2 7.6001 13.5C8.6001 11.5 10.6 10 13 10C16.3 10 19 12.7 19 16L3 16Z" fill="currentColor" opacity="1"/></g>
</svg>