<svg width="24" height="24" viewBox="0 0 24 24" fill="none" xmlns="http://www.w3.org/2000/svg">
  <title>Report map (filled)</title>
  <g transform="matrix(
          1 0
          0 1
          1 1
        )"><path fill-rule="evenodd" clip-rule="evenodd" d="M15.2001 10.3L10.9999 14.5L6.79971 10.3C4.49971 7.89999 4.49971 4.09999 6.79971 1.79999C7.89971 0.599988 9.4999 0 10.9999 0C12.4999 0 14.0001 0.599988 15.2001 1.79999C17.5001 4.19999 17.5001 7.99999 15.2001 10.3ZM12.4999 6C12.4999 5.2 11.7999 4.5 10.9999 4.5C10.1999 4.5 9.4999 5.2 9.4999 6C9.4999 6.8 10.1999 7.5 10.9999 7.5C11.7999 7.5 12.4999 6.8 12.4999 6ZM18.2998 10L20 10L22 21L0 21L2 10L3.7002 10L11 17.3C10.6 17.7 15.9998 12.3 18.2998 10Z" fill="currentColor" opacity="1"/></g>
</svg>