<svg width="24" height="24" viewBox="0 0 24 24" fill="none" xmlns="http://www.w3.org/2000/svg">
  <title>Subway exit (outlined)</title>
  <g transform="matrix(
          1 0
          0 1
          15 0
        )"><path fill-rule="nonzero" clip-rule="nonzero" d="M2.22 9L5.70001 9L9 4.5L5.70001 0L2.22 0L4.42001 3L0 3L0 6L4.42001 6L2.22 9Z" fill="currentColor" opacity="1"/></g>,<g transform="matrix(
          1 0
          0 1
          -0.0048828125 2
        )"><path fill-rule="nonzero" clip-rule="nonzero" d="M22.0046 11C22.0046 10.32 21.9346 9.65 21.8146 9L18.7446 9C18.9146 9.64 19.0046 10.31 19.0046 11C19.0046 12.38 18.6546 13.7 18.0046 14.88L18.0046 12C18.0046 8.14 14.8646 5 11.0046 5C7.14458 5 4.00458 8.14 4.00458 12L4.00458 14.79C3.41458 13.72 3.04458 12.51 3.00458 11.23C2.86458 6.16001 7.06458 3 11.0046 3C11.6946 3 12.3646 3.10001 13.0046 3.26001L13.0046 0.190002C12.3546 0.0700024 11.6846 0 11.0046 0C5.56458 0 -0.185416 4.4 0.00458398 11.31C0.094584 14.68 1.79457 17.71 4.33457 19.68L2.01459 22L5.97459 22L8.97459 19L13.0146 19L16.0146 22L19.9746 22L17.6946 19.72C22.2246 16.28 22.0046 11.22 22.0046 11ZM15.0046 15L15.0046 16L7.00458 16L7.00458 15L9.00458 15L9.00458 12L7.00458 12C7.00458 9.79 8.79458 8 11.0046 8C13.2146 8 15.0046 9.79 15.0046 12L13.0046 12L13.0046 15L15.0046 15Z" fill="currentColor" opacity="1"/></g>
</svg>