<svg width="24" height="24" viewBox="0 0 24 24" fill="none" xmlns="http://www.w3.org/2000/svg">
  <title>Chart flame (filled)</title>
  <g transform="matrix(
          1 0
          0 1
          1 7
        )"><path fill-rule="nonzero" clip-rule="nonzero" d="M7 0L0 0L0 4L7 4L7 0Z" fill="currentColor" opacity="1"/></g>,<g transform="matrix(
          1 0
          0 1
          1 13
        )"><path fill-rule="nonzero" clip-rule="nonzero" d="M9 0L0 0L0 4L9 4L9 0Z" fill="currentColor" opacity="1"/></g>,<g transform="matrix(
          1 0
          0 1
          1 19
        )"><path fill-rule="nonzero" clip-rule="nonzero" d="M22 0L0 0L0 4L22 4L22 0Z" fill="currentColor" opacity="1"/></g>,<g transform="matrix(
          1 0
          0 1
          1 1
        )"><path fill-rule="nonzero" clip-rule="nonzero" d="M5 0L0 0L0 4L5 4L5 0Z" fill="currentColor" opacity="1"/></g>,<g transform="matrix(
          1 0
          0 1
          13 7
        )"><path fill-rule="nonzero" clip-rule="nonzero" d="M7 0L0 0L0 4L7 4L7 0Z" fill="currentColor" opacity="1"/></g>,<g transform="matrix(
          1 0
          0 1
          13 13
        )"><path fill-rule="nonzero" clip-rule="nonzero" d="M9 0L0 0L0 4L9 4L9 0Z" fill="currentColor" opacity="1"/></g>,<g transform="matrix(
          1 0
          0 1
          13 1
        )"><path fill-rule="nonzero" clip-rule="nonzero" d="M5 0L0 0L0 4L5 4L5 0Z" fill="currentColor" opacity="1"/></g>
</svg>