<svg width="24" height="24" viewBox="0 0 24 24" fill="none" xmlns="http://www.w3.org/2000/svg">
  <title>Stethoscope (filled)</title>
  <g transform="matrix(
          1 0
          0 1
          1 1
        )"><path fill-rule="nonzero" clip-rule="nonzero" d="M22 7.5C22 5.6 20.4 4 18.5 4C16.6 4 15 5.6 15 7.5C15 8.9 15.8 10.1 17 10.7L17 14.5C17 17 15 19 12.5 19C10.8 19 9.3001 18 8.6001 16.7C11.2001 15.8 13 13.4 13 10.5L13 0L8 0L8 6L10 6L10 10.5C10 12.4 8.4 14 6.5 14C4.6 14 3 12.4 3 10.5L3 6L5 6L5 0L0 0L0 10.5C0 13.7 2.2999 16.4 5.3999 16.9C6.3999 19.9 9.2 22 12.5 22C16.6 22 20 18.6 20 14.5L20 10.7C21.2 10.1 22 8.9 22 7.5Z" fill="currentColor" opacity="1"/></g>
</svg>