<svg width="24" height="24" viewBox="0 0 24 24" fill="none" xmlns="http://www.w3.org/2000/svg">
  <title>Contacts (filled)</title>
  <g transform="matrix(
          1 0
          0 1
          1 1
        )"><path fill-rule="nonzero" clip-rule="nonzero" d="M2 0L2 2L0 2L0 6L2 6L2 16L0 16L0 20L2 20L2 22L20 22L20 0L2 0ZM11 4C12.7 4 14 5.3 14 7C14 8.7 12.7 10 11 10C9.3 10 8 8.7 8 7C8 5.3 9.3 4 11 4ZM16 18L6 18L6 16C6 14.3 7.3 13 9 13L13 13C14.7 13 16 14.3 16 16L16 18Z" fill="currentColor" opacity="1"/></g>
</svg>