<svg width="24" height="24" viewBox="0 0 24 24" fill="none" xmlns="http://www.w3.org/2000/svg">
  <title>Siren light (outlined)</title>
  <g transform="matrix(
          1 0
          0 1
          1.5 0
        )"><path fill-rule="evenodd" clip-rule="evenodd" d="M12 0L12 4.10001C11.5 4.00001 11 4 10.5 4C10 4 9.5 4.00001 9 4.10001L9 0L12 0ZM21 5.60004L18.5 8.00003C17.9 7.20003 17.1 6.50002 16.3 5.90002L19 3.40002L21 5.60004ZM4.69995 5.90002L2.1001 3.40002L0 5.60004L2.5 8.00003C3.1 7.20003 3.89995 6.50002 4.69995 5.90002ZM10.5 6C14.9 6 18.5 9.6 18.5 14L18.5 19L20.5 19L20.5 22L0.5 22L0.5 19L2.5 19L2.5 14C2.5 9.6 6.1 6 10.5 6ZM5.5 14L5.5 19L15.5 19L15.5 14C15.5 11.2 13.3 9 10.5 9C7.7 9 5.5 11.2 5.5 14Z" fill="currentColor" opacity="1"/></g>
</svg>