<svg width="24" height="24" viewBox="0 0 24 24" fill="none" xmlns="http://www.w3.org/2000/svg">
  <title>Coin star (outlined)</title>
  <g transform="matrix(
          1 0
          0 1
          1 1
        )"><path fill-rule="nonzero" clip-rule="nonzero" d="M10.9999 5.19995L9.1999 8.69995L5.3999 8.89995L8.1999 11.7L7.0999 15.6L10.9999 13.6L14.8999 15.6L13.7999 11.7L16.5999 8.89995L12.7999 8.69995L10.9999 5.19995Z" fill="currentColor" opacity="1"/>
<path fill-rule="nonzero" clip-rule="nonzero" d="M11 3C15.4 3 19 6.6 19 11C19 15.4 15.4 19 11 19C6.6 19 3 15.4 3 11C3 6.6 6.6 3 11 3ZM11 0C4.9 0 0 4.9 0 11C0 17.1 4.9 22 11 22C17.1 22 22 17.1 22 11C22 4.9 17.1 0 11 0Z" fill="currentColor" opacity="1"/></g>
</svg>