<svg width="24" height="24" viewBox="0 0 24 24" fill="none" xmlns="http://www.w3.org/2000/svg">
  <title>Ferry (filled)</title>
  <g transform="matrix(
          1 0
          0 1
          1 1
        )"><path fill-rule="nonzero" clip-rule="nonzero" d="M19.7002 17.8L22 11.5L20 10.7L20 6C20 3.8 18.2 2 16 2L14 2L14 0L8 0L8 2L6 2C3.8 2 2 3.8 2 6L2 10.7L0 11.5L2.2998 17.8C1.0998 18.2 0.5 19 0 19L0 22C2 22 2.9002 20.5 3.7002 20.5C4.5002 20.5 5.2999 22 7.3999 22C9.3999 22 10.3001 20.5 11.1001 20.5C11.9001 20.5 12.7998 22 14.7998 22C16.7998 22 17.7 20.5 18.5 20.5C19.3 20.5 20.2002 22 22.2002 22L22.2002 19C21.4002 19 20.9002 18.2 19.7002 17.8ZM5 6C5 5.4 5.4 5 6 5L16 5C16.6 5 17 5.4 17 6L17 9.5L11 7L5 9.5L5 6Z" fill="currentColor" opacity="1"/></g>
</svg>