<svg width="24" height="24" viewBox="0 0 24 24" fill="none" xmlns="http://www.w3.org/2000/svg">
  <title>Hide (filled)</title>
  <g transform="matrix(
          1 0
          0 1
          0 2
        )"><path fill-rule="evenodd" clip-rule="evenodd" d="M12 15C9.2 15 7 12.8 7 10C7 7.2 9.2 5 12 5C14.8 5 17 7.2 17 10C17 10.3 16.9999 10.7 16.8999 11C17.6999 10.7 18.6 10.5 19.5 10.5C21 10.5 22.3 11 23.5 11.7C23.5408 11.5775 23.5817 11.4592 23.6216 11.3433C23.7775 10.8917 23.9204 10.4775 24 10C22.6 4.2 17.8 0 12 0C6.2 0 1.4 4.2 0 10C1.4 15.8 6.2 20 12 20L13 20C12.7 19.2 12.5 18.4 12.5 17.5C12.5 16.6 12.7 15.7 13 14.9C12.7001 15 12.3002 15 12.0002 15L12 15ZM12 12C13.1046 12 14 11.1046 14 10C14 8.89543 13.1046 8 12 8C10.8954 8 10 8.89543 10 10C10 11.1046 10.8954 12 12 12ZM19.5 15.5L22 13L24 15L21.5 17.5L24 20L22 22L19.5 19.5L17 22L15 20L17.5 17.5L15 15L17 13L19.5 15.5Z" fill="currentColor" opacity="1"/></g>
</svg>