<svg width="24" height="24" viewBox="0 0 24 24" fill="none" xmlns="http://www.w3.org/2000/svg">
  <title>Circle chevron right (outlined)</title>
  <g transform="matrix(
          1 0
          0 1
          1 1
        )"><path fill-rule="nonzero" clip-rule="nonzero" d="M11 0C4.9 0 0 4.9 0 11C0 17.1 4.9 22 11 22C17.1 22 22 17.1 22 11C22 4.9 17.1 0 11 0ZM11 19C6.6 19 3 15.4 3 11C3 6.6 6.6 3 11 3C15.4 3 19 6.6 19 11C19 15.4 15.4 19 11 19Z" fill="currentColor" opacity="1"/></g>,<g transform="matrix(
          1 0
          0 1
          9 7
        )"><path fill-rule="nonzero" clip-rule="nonzero" d="M0 0L3.9 5L0 10L3.6 10L7.5 5L3.6 0L0 0Z" fill="currentColor" opacity="1"/></g>
</svg>