<svg width="24" height="24" viewBox="0 0 24 24" fill="none" xmlns="http://www.w3.org/2000/svg">
  <title>Hindu temple (outlined)</title>
  <g transform="matrix(
          1 0
          0 1
          1 0
        )"><path fill-rule="evenodd" clip-rule="evenodd" d="M13.6 3C14.4284 3 15.1 2.32843 15.1 1.5C15.1 0.671573 14.4284 0 13.6 0C12.7715 0 12.1 0.671573 12.1 1.5C12.1 2.32843 12.7715 3 13.6 3ZM17.6 9C16 9 14.5 9.90001 13.7 11.2C13.4 11.7 12.8 12 12.1 12L11 12C10.9 9.8 8.99993 8 6.79993 8L0 8L0 11L6.79993 11C7.49993 11 8 11.6 8 12.2C8 12.8 7.39993 13.4 6.79993 13.4L4 13.4L4 16.4L6.79993 16.4C7.49993 16.4 8 17 8 17.6C8 18.2 7.39993 18.8 6.79993 18.8L4.29993 18.8C3.59993 18.8 3.09998 18.2 3.09998 17.6L3.09998 17L0.0999756 17L0.0999756 17.8C0.0999756 20.1 1.99993 22 4.29993 22L6.79993 22C9.09993 22 11 20.1 11 17.8C11 16.7 10.6 15.8 10 15L12.1 15C13.8 15 15.4 14.1 16.2 12.7C16.5 12.2 17 12 17.5 12C18.3 12 19 12.7 19 13.5L19 17.5C19 18.3 18.3 19 17.5 19C16.7 19 16 18.3 16 17.5L16 16L13 16L13 17.5C13 20 15 22 17.5 22C20 22 22 20 22 17.5L22 13.5C22.1 11 20.1 9 17.6 9ZM19.1 2.20007C18.7 4.90007 16.4 7.00006 13.6 7.00006C10.8 7.00006 8.49998 4.90007 8.09998 2.20007L11.1 1.80005C11.3 3.10005 12.3 4.00006 13.6 4.00006C14.9 4.00006 15.9 3.00005 16.1 1.80005L19.1 2.20007Z" fill="currentColor" opacity="1"/></g>
</svg>