<svg width="24" height="24" viewBox="0 0 24 24" fill="none" xmlns="http://www.w3.org/2000/svg">
  <title>Bow tie (outlined)</title>
  <g transform="matrix(
          1 0
          0 1
          0 4.199951171875
        )"><path fill-rule="nonzero" clip-rule="nonzero" d="M24 7.8C24 4.8 22.9 2.1 21.1 0L14.8 3.7C14 3.1 13.1 2.8 12 2.8C10.9 2.8 10 3.1 9.1 3.7L2.9 0C1.1 2.1 0 4.8 0 7.8C0 10.8 1.1 13.5 2.9 15.6L9.2 11.9C10 12.5 10.9 12.8 12 12.8C13.1 12.8 14 12.5 14.9 11.9L21.2 15.6C22.9 13.5 24 10.8 24 7.8ZM3 7.8C3 6.5 3.3 5.2 3.8 4L7.3 6.1C7.1 6.6 7 7.2 7 7.8C7 8.4 7.1 9 7.3 9.5L3.8 11.6C3.3 10.4 3 9.1 3 7.8ZM10 7.8C10 6.7 10.9 5.8 12 5.8C13.1 5.8 14 6.7 14 7.8C14 8.9 13.1 9.8 12 9.8C10.9 9.8 10 8.9 10 7.8ZM20.2 11.6L16.7 9.5C16.9 9 17 8.4 17 7.8C17 7.2 16.9 6.6 16.7 6.1L20.2 4C20.7 5.2 21 6.5 21 7.8C21 9.1 20.7 10.4 20.2 11.6Z" fill="currentColor" opacity="1"/></g>
</svg>