<svg width="24" height="24" viewBox="0 0 24 24" fill="none" xmlns="http://www.w3.org/2000/svg">
  <title>Link unlink (filled)</title>
  <g transform="matrix(
          1 0
          0 1
          0.02490234375 0
        )"><path fill-rule="evenodd" clip-rule="evenodd" d="M15.475 0C17.175 0 18.775 0.600002 20.075 1.9C22.575 4.4 22.575 8.6 20.075 11.1L17.075 14.1C15.775 15.4 14.175 16 12.475 16C10.775 16 9.175 15.4 7.875 14.1L6.875 13.1L8.975 11L9.975 12C10.675 12.6 11.475 13 12.475 13C13.475 13 14.275 12.7 14.975 12L16.475 10.5L17.975 9C19.375 7.6 19.375 5.4 17.975 4C17.275 3.4 16.475 3 15.475 3C14.475 3 13.675 3.3 12.975 4L12.475 4.6C11.575 4.2 10.475 4 9.475 4L8.775 4L10.875 1.9C12.175 0.600002 13.775 0 15.475 0ZM9.475 17.4L8.975 18C8.275 18.7 7.475 19 6.475 19C5.475 19 4.675 18.6 3.975 18C2.575 16.6 2.575 14.4 3.975 13L5.475 11.5L6.975 10C7.675 9.3 8.475 9 9.475 9C10.475 9 11.275 9.4 11.975 10L12.975 11L15.075 8.9L14.075 7.9C12.775 6.6 11.175 6 9.475 6C7.775 6 6.175 6.6 4.875 7.9L1.875 10.9C-0.625 13.4 -0.625 17.6 1.875 20.1C3.175 21.4 4.775 22 6.475 22C8.175 22 9.775 21.4 11.075 20.1L13.175 18L12.475 18C11.475 18 10.375 17.8 9.475 17.4ZM23.9751 18L21.9751 16L19.9751 18L17.9751 16L15.9751 18L17.9751 20L15.9751 22L17.9751 24L19.9751 22L21.9751 24L23.9751 22L21.9751 20L23.9751 18Z" fill="currentColor" opacity="1"/></g>
</svg>