<svg width="24" height="24" viewBox="0 0 24 24" fill="none" xmlns="http://www.w3.org/2000/svg">
  <title>Shopping cart (outlined)</title>
  <g transform="matrix(
          1 0
          0 1
          0.89990234375 2
        )"><path fill-rule="evenodd" clip-rule="evenodd" d="M4.6001 15L20.1001 15L22.1001 3L5.6001 3L5.1001 0L0 0L0 3L2.5 3L4.6001 15ZM18.6001 6L17.6001 12L7.1001 12L6.1001 6L18.6001 6ZM6.6001 20C7.70467 20 8.6001 19.1046 8.6001 18C8.6001 16.8954 7.70467 16 6.6001 16C5.49553 16 4.6001 16.8954 4.6001 18C4.6001 19.1046 5.49553 20 6.6001 20ZM20.6001 18C20.6001 19.1046 19.7047 20 18.6001 20C17.4955 20 16.6001 19.1046 16.6001 18C16.6001 16.8954 17.4955 16 18.6001 16C19.7047 16 20.6001 16.8954 20.6001 18Z" fill="currentColor" opacity="1"/></g>
</svg>