<svg width="24" height="24" viewBox="0 0 24 24" fill="none" xmlns="http://www.w3.org/2000/svg">
  <title>Brain (filled)</title>
  <g transform="matrix(
          1 0
          0 1
          1 1
        )"><path fill-rule="nonzero" clip-rule="nonzero" d="M8.25 0.0100098C8.16 0.0100098 8.07 0 7.97 0C6.77 0 2.27 2.19999 0.61 8.73999C0.45 9.37999 0.93 10 1.58 10L3.5 10C4.05 10 4.5 10.45 4.5 11C4.5 11.55 4.05 12 3.5 12L1.02 12C0.49 12 0.04 12.41 0.02 12.94C0.00999998 13.28 0 13.64 0 14C0 21.5 6.68 22.03 7.03 22.03C7.25 22.03 7.71 22.02 8.28 22.02C9.23 22.02 10 21.25 10 20.3L10 18C10 17.45 9.55 17 9 17L7.5 17C6.95 17 6.5 16.55 6.5 16C6.5 15.45 6.95 15 7.5 15L9 15C9.55 15 10 14.55 10 14L10 8C10 7.45 9.55 7 9 7L7.5 7C6.95 7 6.5 6.55 6.5 6C6.5 5.45 6.95 5 7.5 5L9 5C9.55 5 10 4.55 10 4L10 1.82001C10 0.860007 9.21 0.0200098 8.25 0.0100098Z" fill="currentColor" opacity="1"/></g>,<g transform="matrix(
          1 0
          0 1
          13 1
        )"><path fill-rule="nonzero" clip-rule="nonzero" d="M9.98 12.94C9.96 12.41 9.51 12 8.98 12L6.5 12C5.95 12 5.5 11.55 5.5 11C5.5 10.45 5.95 10 6.5 10L8.42 10C9.07 10 9.55 9.37999 9.39 8.73999C7.73 2.19999 3.23 0 2.03 0C1.93 0 1.85 0.0100098 1.75 0.0100098C0.79 0.0200098 0 0.860007 0 1.82001L0 4C0 4.55 0.45 5 1 5L2.5 5C3.05 5 3.5 5.45 3.5 6C3.5 6.55 3.05 7 2.5 7L1 7C0.45 7 0 7.45 0 8L0 14C0 14.55 0.45 15 1 15L2.5 15C3.05 15 3.5 15.45 3.5 16C3.5 16.55 3.05 17 2.5 17L1 17C0.45 17 0 17.45 0 18L0 20.32C0 21.26 0.76 22.02 1.7 22.02L1.72 22.02C2.29 22.02 2.75 22.03 2.97 22.03C3.32 22.03 10 21.5 10 14C10 13.64 9.99 13.28 9.98 12.94Z" fill="currentColor" opacity="1"/></g>
</svg>