<svg width="24" height="24" viewBox="0 0 24 24" fill="none" xmlns="http://www.w3.org/2000/svg">
  <title>Traffic (outlined)</title>
  <g transform="matrix(
          1 0
          0 1
          0 1
        )"><path fill-rule="nonzero" clip-rule="nonzero" d="M24 5L22.3 5L21 1.3C20.7 0.5 20 0 19.1 0L9.9 0C9.1 0 8.3 0.5 8 1.3L6 7L4.9 7C4.1 7 3.3 7.5 3 8.3L1.7 12L0 12L0 15L1 15L1 22L4 22L4 21L15 21L15 22L18 22L18 14L20 14L20 15L23 15L23 8L24 8L24 5ZM15 18L4 18L4 17L7 17L7 14L4.18 14L5.6 10L13.4 10L14.82 14L12 14L12 17L15 17L15 18ZM20 11L16.9 11L15.9 8.3C15.6 7.5 14.9 7 14 7L9.1 7L10.5 3L18.3 3L20 7.5L20 11Z" fill="currentColor" opacity="1"/></g>
</svg>