<svg width="24" height="24" viewBox="0 0 24 24" fill="none" xmlns="http://www.w3.org/2000/svg">
  <title>Masks (outlined)</title>
  <g transform="matrix(
          1 0
          0 1
          1 1
        )"><path fill-rule="nonzero" clip-rule="nonzero" d="M7 0L7 7L0 7L0 14.5C0 18.6 3.4 22 7.5 22C11.5 22 14.7 18.9 15 15C18.9 14.8 22 11.5 22 7.5L22 0L7 0ZM12 14.6C12 17.1 10 19 7.5 19C5 19 3 17 3 14.5L3 10L12 10L12 14.6ZM19 7.5C19 9.8 17.2 11.7 15 12L15 7L10 7L10 3L19 3L19 7.5Z" fill="currentColor" opacity="1"/></g>
</svg>