<svg width="24" height="24" viewBox="0 0 24 24" fill="none" xmlns="http://www.w3.org/2000/svg">
  <title>Airplane arrive (outlined)</title>
  <g transform="matrix(
          1 0
          0 1
          0 0.0999755859375
        )"><path fill-rule="evenodd" clip-rule="evenodd" d="M23.7002 15.3C23.1002 16.8 21.6 17.8 20 17.8C19.6 17.8 19.1998 17.7 18.7998 17.6L0.5 11.5L3.6001 2.2L6.2002 3.2L6.8999 5.29999L10.1001 6.39999L12.2002 0L15.8999 1.2L18.1001 9L21.2998 10.1C23.3998 10.8 24.5002 13.2 23.7002 15.3ZM12 10.2L4.8999 7.79999L4.3999 9.79999L19.7998 14.9C20.2998 15 20.8 14.8 21 14.3C21.2 13.7 20.8999 13.2 20.3999 13L15.7002 11.4L13.7998 4.79999L12 10.2ZM0 23.9L0 20.9L24 20.9L24 23.9L0 23.9Z" fill="currentColor" opacity="1"/></g>
</svg>