<svg width="24" height="24" viewBox="0 0 24 24" fill="none" xmlns="http://www.w3.org/2000/svg">
  <title>Concert hall (outlined)</title>
  <g transform="matrix(
          1 0
          0 1
          5 0
        )"><path fill-rule="nonzero" clip-rule="nonzero" d="M14 14.6C14 11.7 11.8 9.40001 9 9.10001L9 7.80002L10.7 7C12.1 6.4 13 5 13 3.5C13 1.6 11.4 0 9.5 0C7.6 0 6 1.6 6 3.5L6 5.80002L4.09998 6.70001C1.59998 7.80001 0 10.3 0 13.1C0 16.6 2.6 19.5 6 20L6 20.3C5.4 20.6 5 21.3 5 22C5 23.1 5.9 24 7 24C8.1 24 9 23.1 9 22L9 20C11.8 19.8 14 17.5 14 14.6ZM9 3.60001C9 3.30001 9.2 3.10001 9.5 3.10001C9.8 3.10001 10 3.30001 10 3.60001C10 3.90001 9.8 4.20002 9.5 4.30002L9 4.5L9 3.60001ZM3 13.1C3 11.5 3.90005 10.1 5.30005 9.5L6 9.20001L6 17C4.3 16.5 3 15 3 13.1ZM9 17L9 12.1C10.1 12.3 11 13.3 11 14.5C11 15.7 10.1 16.8 9 17Z" fill="currentColor" opacity="1"/></g>
</svg>