<svg width="24" height="24" viewBox="0 0 24 24" fill="none" xmlns="http://www.w3.org/2000/svg">
  <title>Hide (outlined)</title>
  <g transform="matrix(
          1 0
          0 1
          0 2
        )"><path fill-rule="evenodd" clip-rule="evenodd" d="M12.5 17L12 17C8 17 4.4001 14.2 3.1001 10C4.4001 5.8 8 3 12 3C16 3 19.5999 5.8 20.8999 10C20.8499 10.1 20.825 10.2 20.8 10.3C20.7751 10.4 20.7502 10.5 20.7002 10.6C21.7002 10.8 22.7 11.2 23.5 11.7C23.5408 11.5775 23.5817 11.4592 23.6216 11.3433C23.7775 10.8917 23.9204 10.4775 24 10C22.6 4.2 17.8 0 12 0C6.2 0 1.4 4.2 0 10C1.4 15.8 6.2 20 12 20L13 20C12.7 19.2 12.5 18.4 12.5 17.5L12.5 17ZM12 14C14.2091 14 16 12.2091 16 10C16 7.79086 14.2091 6 12 6C9.79086 6 8 7.79086 8 10C8 12.2091 9.79086 14 12 14ZM19.5 15.5L22 13L24 15L21.5 17.5L24 20L22 22L19.5 19.5L17 22L15 20L17.5 17.5L15 15L17 13L19.5 15.5Z" fill="currentColor" opacity="1"/></g>
</svg>