<svg width="24" height="24" viewBox="0 0 24 24" fill="none" xmlns="http://www.w3.org/2000/svg">
  <title>Tram (outlined)</title>
  <g transform="matrix(
          1 0
          0 1
          3.52001953125 1
        )"><path fill-rule="nonzero" clip-rule="nonzero" d="M16.96 22L13.17 18.21C14.56 17.33 15.48 15.77 15.48 14L15.48 6C15.48 4.34 14.14 3 12.48 3L11.48 3L14.48 0L2.48 0L5.48 3L4.48 3C2.82 3 1.48 4.34 1.48 6L1.48 14C1.48 15.77 2.4 17.33 3.79 18.21L0 22L3.96 22L6.96 19L10 19L13 22L16.96 22ZM10.48 16L6.48 16C5.38 16 4.48 15.1 4.48 14L12.48 14C12.48 15.1 11.58 16 10.48 16ZM12.48 6L12.48 11L4.48 11L4.48 6L12.48 6Z" fill="currentColor" opacity="1"/></g>
</svg>