<svg width="24" height="24" viewBox="0 0 24 24" fill="none" xmlns="http://www.w3.org/2000/svg">
  <title>Delivery bag two (filled)</title>
  <g transform="matrix(
          1 0
          0 1
          15 2
        )"><path fill-rule="nonzero" clip-rule="nonzero" d="M6 5L6 0L0 0L0 3L1 3L3 3L3 5L3 14C3 15.54 2.41 16.94 1.46 18L5 18C7.21 18 9 16.21 9 14L9 5L6 5Z" fill="currentColor" opacity="1"/></g>,<g transform="matrix(
          1 0
          0 1
          0 2
        )"><path fill-rule="nonzero" clip-rule="nonzero" d="M13 0L3 0L3 5L0 5L0 14C0 16.21 1.79 18 4 18L12 18C14.21 18 16 16.21 16 14L16 5L13 5L13 0ZM6 5L6 3L10 3L10 5L6 5Z" fill="currentColor" opacity="1"/></g>
</svg>