<svg width="24" height="24" viewBox="0 0 24 24" fill="none" xmlns="http://www.w3.org/2000/svg">
  <title>Id check (filled)</title>
  <g transform="matrix(
          1 0
          0 1
          1 2
        )"><path fill-rule="evenodd" clip-rule="evenodd" d="M12.0548 16.5L12.0548 17.3C12.105 17.4 12.1301 17.525 12.1553 17.65C12.1804 17.775 12.2055 17.9 12.2557 18L0 18L0 0L22 0L22 11C21.8493 10.95 21.7237 10.875 21.5982 10.8C21.4726 10.725 21.347 10.65 21.1963 10.6C20.9954 10.5 20.6941 10.4 20.3927 10.3L20.3927 10.3C20.3298 10.2791 20.2713 10.2583 20.2153 10.2383C20.0031 10.1626 19.8275 10.1 19.589 10.1L19.3881 10.1C19.0868 10 18.7854 10 18.484 10C17.5799 10 16.7763 10.2 15.9726 10.5C14.0639 11.3 12.5571 13.1 12.1553 15.2C12.0548 15.6 12.0548 16.1 12.0548 16.5ZM4.01826 7C4.01826 8.7 5.3242 10 7.03196 10C8.73973 10 10.0457 8.7 10.0457 7C10.0457 5.3 8.73973 4 7.03196 4C5.3242 4 4.01826 5.3 4.01826 7ZM14 16.7L18 20L23 15.1L20.9 12.9L17.9 16L15.9 14.3L14 16.7Z" fill="currentColor" opacity="1"/></g>
</svg>