<svg width="24" height="24" viewBox="0 0 24 24" fill="none" xmlns="http://www.w3.org/2000/svg">
  <title>Download (outlined)</title>
  <g transform="matrix(
          1 0
          0 1
          1 0
        )"><path fill-rule="evenodd" clip-rule="evenodd" d="M11 0C13.4 0 15.7001 1.20001 17.1001 3.20001C19.9001 3.90001 22 6.5 22 9.5C22 13.1 19.1 16 15.5 16L14.5 16L14.5 13L15.5 13C17.4 13 19 11.4 19 9.5C19 7.6 17.4 6 15.5 6L15.2002 6C14.6002 4.3 12.9 3 11 3C9.1 3 7.3998 4.2 6.7998 6L6.5 6C4.6 6 3 7.6 3 9.5C3 11.4 4.6 13 6.5 13L7.5 13L7.5 16L6.5 16C2.9 16 0 13.1 0 9.5C0 6.5 2.0999 3.90001 4.8999 3.20001C6.1999 1.20001 8.6 0 11 0ZM9.5 19.6L9.5 12L12.5 12L12.5 19.6L16 17.3L16 20.7L11 24L6 20.7L6 17.3L9.5 19.6Z" fill="currentColor" opacity="1"/></g>
</svg>