<svg width="24" height="24" viewBox="0 0 24 24" fill="none" xmlns="http://www.w3.org/2000/svg">
  <title>Github (outlined)</title>
  <g transform="matrix(
          1 0
          0 1
          1 1
        )"><path fill-rule="evenodd" clip-rule="evenodd" d="M11 0C4.92265 0 0 5.04816 0 11.2805C0 16.2663 3.15347 20.4904 7.52241 21.9862C8.06937 22.09 8.27194 21.7438 8.27194 21.4391C8.27194 21.169 8.26519 20.4627 8.25844 19.5209C5.19951 20.1996 4.55126 18.0113 4.55126 18.0113C4.05156 16.7095 3.32904 16.3563 3.32904 16.3563C2.32965 15.6569 3.40331 15.6708 3.40331 15.6708C4.50399 15.7539 5.09147 16.8341 5.09147 16.8341C6.07059 18.5584 7.66421 18.0598 8.2922 17.769C8.39349 17.0419 8.6771 16.5433 8.98772 16.2594C6.55003 15.9824 3.98404 15.0129 3.98404 10.6918C3.98404 9.45924 4.40945 8.45515 5.11848 7.66572C5.00368 7.37488 4.62554 6.23229 5.21977 4.68115C5.21977 4.68115 6.14487 4.37646 8.24494 5.83758C9.12277 5.58829 10.0614 5.46364 11 5.45672C11.9319 5.46364 12.8772 5.58829 13.7551 5.83758C15.8551 4.37646 16.7802 4.68115 16.7802 4.68115C17.3812 6.23229 17.0031 7.38181 16.8883 7.66572C17.5905 8.45515 18.016 9.45924 18.016 10.6918C18.016 15.0268 15.4432 15.9754 12.992 16.2594C13.3837 16.6056 13.7416 17.2981 13.7416 18.3506C13.7416 19.8602 13.7281 21.0721 13.7281 21.446C13.7281 21.7507 13.9239 22.0969 14.4843 21.9862C18.8533 20.4904 22 16.2663 22 11.2874C22 5.04816 17.0773 0 11 0Z" fill="currentColor" opacity="1"/></g>
</svg>