<svg width="24" height="24" viewBox="0 0 24 24" fill="none" xmlns="http://www.w3.org/2000/svg">
  <title>Flat truck (filled)</title>
  <g transform="matrix(
          1 0
          0 1
          1 1
        )"><path fill-rule="nonzero" clip-rule="nonzero" d="M10 3L0 3L0 5.9L5 5.9L5 9L0 9L0 17C0 18.1 0.9 19 2 19L4 19C4 16.2 6.2 14 9 14C10.6 14 12.1 14.8 13 16L13 0L10 0L10 3Z" fill="currentColor" opacity="1"/></g>,<g transform="matrix(
          1 0
          0 1
          16 17
        )"><path fill-rule="nonzero" clip-rule="nonzero" d="M7 0L0 0L0 3L7 3L7 0Z" fill="currentColor" opacity="1"/></g>,<g transform="matrix(
          1 0
          0 1
          7 17
        )"><path fill-rule="nonzero" clip-rule="nonzero" d="M3 6C4.65685 6 6 4.65685 6 3C6 1.34315 4.65685 0 3 0C1.34315 0 0 1.34315 0 3C0 4.65685 1.34315 6 3 6Z" fill="currentColor" opacity="1"/></g>
</svg>