<svg width="24" height="24" viewBox="0 0 24 24" fill="none" xmlns="http://www.w3.org/2000/svg">
  <title>Box heart (filled)</title>
  <g transform="matrix(
          1 0
          0 1
          1 3
        )"><path fill-rule="nonzero" clip-rule="nonzero" d="M0 0L0 18L22 18L22 0L0 0ZM15 9.70001L11 13L7 9.70001C6.4 9.20001 6 8.50001 6 7.60001C6 6.10001 7.2001 4.89999 8.6001 4.89999C9.6001 4.89999 10.5 5.49999 11 6.39999C11.4 5.49999 12.2999 4.89999 13.3999 4.89999C14.8999 4.89999 16 6.10001 16 7.60001C16 8.50001 15.6 9.30001 15 9.70001Z" fill="currentColor" opacity="1"/></g>
</svg>