<svg width="24" height="24" viewBox="0 0 24 24" fill="none" xmlns="http://www.w3.org/2000/svg">
  <title>Backspace (outlined)</title>
  <g transform="matrix(
          1 0
          0 1
          0 3
        )"><path fill-rule="nonzero" clip-rule="nonzero" d="M8.5 0L0 9L8.5 18L24 18L24 0L8.5 0ZM21 15L9.56 15L3.89 9L9.56 3L21 3L21 15Z" fill="currentColor" opacity="1"/></g>,<g transform="matrix(
          1 0
          0 1
          10.509765625 7.510009765625
        )"><path fill-rule="nonzero" clip-rule="nonzero" d="M1.98 8.98L4.49 6.47L7 8.98L8.98 7L6.47 4.49L8.98 1.98L7 0L4.49 2.51L1.98 0L0 1.98L2.51 4.49L0 7L1.98 8.98Z" fill="currentColor" opacity="1"/></g>
</svg>