<svg width="24" height="24" viewBox="0 0 24 24" fill="none" xmlns="http://www.w3.org/2000/svg">
  <title>Confluence (outlined)</title>
  <g transform="matrix(
          1 0
          0 1
          2 2
        )"><path fill-rule="nonzero" clip-rule="nonzero" d="M0.733633 15.2639C0.542902 15.628 0.288593 16.0252 0.0978618 16.3562C-0.0928696 16.6541 0.00249614 17.0514 0.320382 17.25L4.4529 19.8981C4.73899 20.0967 5.15224 19.9974 5.34298 19.6664C5.50192 19.3685 5.72444 19.0044 5.94696 18.6071C7.56818 15.7935 9.22118 16.1245 12.2093 17.6141L16.31 19.6333C16.6279 19.7988 17.0094 19.6664 17.1683 19.3354C17.1683 19.3354 17.1683 19.3354 17.1683 19.3023L19.1392 14.668C19.2664 14.337 19.1392 13.9398 18.8213 13.8074C17.963 13.3771 16.2465 12.5495 14.6888 11.7551C9.09403 8.94146 4.35753 9.14007 0.733633 15.2639Z" fill="currentColor" opacity="1"/>
<path fill-rule="nonzero" clip-rule="nonzero" d="M19.2664 4.73756C19.4889 4.37344 19.7114 3.97622 19.9021 3.6452C20.0929 3.34729 19.9975 2.95007 19.6796 2.75146L15.5471 0.103329C15.261 -0.0952812 14.8478 0.00402368 14.657 0.301938L14.6252 0.33504C14.4663 0.632954 14.2438 0.997072 14.0213 1.39429C12.3682 4.20793 10.747 3.87691 7.75891 2.38734L3.68997 0.368141C3.37208 0.202633 2.99062 0.33504 2.83168 0.666056C2.83168 0.666056 2.83168 0.666056 2.83168 0.699158L0.860787 5.33338C0.733633 5.6644 0.860787 6.06162 1.17867 6.19403C2.03696 6.62435 3.75355 7.45189 5.31119 8.24633C10.906 11.06 15.6425 10.8614 19.2664 4.73756Z" fill="currentColor" opacity="1"/></g>
</svg>