<svg width="24" height="24" viewBox="0 0 24 24" fill="none" xmlns="http://www.w3.org/2000/svg">
  <title>Scan qr code (filled)</title>
  <g transform="matrix(
          1 0
          0 1
          2 2
        )"><path fill-rule="evenodd" clip-rule="evenodd" d="M3 3L8 3L8 0L0 0L0 7L3 7L3 3Z" fill="currentColor" opacity="1"/></g>,<g transform="matrix(
          1 0
          0 1
          14 14
        )"><path fill-rule="evenodd" clip-rule="evenodd" d="M5 5L0 5L0 8L8 8L8 0L5 0L5 5Z" fill="currentColor" opacity="1"/></g>,<g transform="matrix(
          1 0
          0 1
          2 14
        )"><path fill-rule="evenodd" clip-rule="evenodd" d="M3 0L0 0L0 8L8 8L8 5L3 5L3 0Z" fill="currentColor" opacity="1"/></g>,<g transform="matrix(
          1 0
          0 1
          14 2
        )"><path fill-rule="evenodd" clip-rule="evenodd" d="M0 0L0 3L5 3L5 8L8 8L8 0L0 0Z" fill="currentColor" opacity="1"/></g>,<g transform="matrix(
          1 0
          0 1
          7 7
        )"><path fill-rule="nonzero" clip-rule="nonzero" d="M5 0L0 0L0 5L5 5L5 0Z" fill="currentColor" opacity="1"/></g>,<g transform="matrix(
          1 0
          0 1
          12 12
        )"><path fill-rule="nonzero" clip-rule="nonzero" d="M5 0L0 0L0 5L5 5L5 0Z" fill="currentColor" opacity="1"/></g>
</svg>