<svg width="24" height="24" viewBox="0 0 24 24" fill="none" xmlns="http://www.w3.org/2000/svg">
  <title>Bow tie (filled)</title>
  <g transform="matrix(
          1 0
          0 1
          0 4.5
        )"><path fill-rule="nonzero" clip-rule="nonzero" d="M7 7.5C7 6 7.7 4.60001 8.8 3.70001L2.6 0C1 2.1 0 4.7 0 7.5C0 10.3 1 12.9 2.6 15L8.8 11.3C7.7 10.4 7 9 7 7.5Z" fill="currentColor" opacity="1"/></g>,<g transform="matrix(
          1 0
          0 1
          15.2001953125 4.5
        )"><path fill-rule="nonzero" clip-rule="nonzero" d="M6.2 0L0 3.70001C1.1 4.60001 1.8 6 1.8 7.5C1.8 9 1.1 10.4 0 11.3L6.2 15C7.8 13 8.8 10.4 8.8 7.5C8.8 4.6 7.8 2.1 6.2 0Z" fill="currentColor" opacity="1"/></g>,<g transform="matrix(
          1 0
          0 1
          9 9
        )"><path fill-rule="nonzero" clip-rule="nonzero" d="M3 6C4.65685 6 6 4.65685 6 3C6 1.34315 4.65685 0 3 0C1.34315 0 0 1.34315 0 3C0 4.65685 1.34315 6 3 6Z" fill="currentColor" opacity="1"/></g>
</svg>