<svg width="24" height="24" viewBox="0 0 24 24" fill="none" xmlns="http://www.w3.org/2000/svg">
  <title>Geofence (outlined)</title>
  <g transform="matrix(
          1 0
          0 1
          1 1
        )"><path fill-rule="nonzero" clip-rule="nonzero" d="M19 13.3L19 8.7C20.7 8.1 22 6.4 22 4.5C22 2 20 0 17.5 0C15.5 0 13.9 1.3 13.3 3L8.7 3C8.1 1.3 6.4 0 4.5 0C2 0 0 2 0 4.5C0 6.5 1.3 8.1 3 8.7L3 13.3C1.3 13.9 0 15.6 0 17.5C0 20 2 22 4.5 22C6.5 22 8.1 20.7 8.7 19L13.3 19C13.9 20.7 15.6 22 17.5 22C20 22 22 20 22 17.5C22 15.5 20.7 13.9 19 13.3ZM13.3 16L8.7 16C8.2 14.7 7.2 13.7 6 13.3L6 8.7C7.3 8.2 8.3 7.2 8.7 6L13.3 6C13.8 7.3 14.8 8.3 16 8.7L16 13.3C14.7 13.7 13.7 14.7 13.3 16ZM17.5 3C18.3 3 19 3.7 19 4.5C19 5.3 18.3 6 17.5 6C16.7 6 16 5.3 16 4.5C16 3.7 16.7 3 17.5 3ZM4.5 3C5.3 3 6 3.7 6 4.5C6 5.3 5.3 6 4.5 6C3.7 6 3 5.3 3 4.5C3 3.7 3.7 3 4.5 3ZM4.5 19C3.7 19 3 18.3 3 17.5C3 16.7 3.7 16 4.5 16C5.3 16 6 16.7 6 17.5C6 18.3 5.3 19 4.5 19ZM17.5 19C16.7 19 16 18.3 16 17.5C16 16.7 16.7 16 17.5 16C18.3 16 19 16.7 19 17.5C19 18.3 18.3 19 17.5 19Z" fill="currentColor" opacity="1"/></g>
</svg>