<svg width="24" height="24" viewBox="0 0 24 24" fill="none" xmlns="http://www.w3.org/2000/svg">
  <title>Person female (outlined)</title>
  <g transform="matrix(
          1 0
          0 1
          6 1
        )"><path fill-rule="evenodd" clip-rule="evenodd" d="M8.5 2.5C8.5 3.88071 7.38071 5 6 5C4.61929 5 3.5 3.88071 3.5 2.5C3.5 1.11929 4.61929 0 6 0C7.38071 0 8.5 1.11929 8.5 2.5ZM7.19971 6C8.89971 6 10.2996 7.19999 10.5996 8.89999L12 16L12 18L10 18L10 22L7 22L7 15L8.7998 15L7.7998 9.39999C7.7998 9.19999 7.4998 9 7.2998 9L4.69971 9C4.39971 9 4.19971 9.19999 4.19971 9.39999L3.19971 15L5 15L5 22L2 22L2 18L0 18L0 15.7L1.19971 8.89999C1.39971 7.19999 2.89961 6 4.59961 6L7.19971 6Z" fill="currentColor" opacity="1"/></g>
</svg>