<svg width="24" height="24" viewBox="0 0 24 24" fill="none" xmlns="http://www.w3.org/2000/svg">
  <title>Weather lightning (outlined)</title>
  <g transform="matrix(
          1 0
          0 1
          1 1
        )"><path fill-rule="nonzero" clip-rule="nonzero" d="M13 0C10.4 0 7.9998 1.1 6.2998 3C6.1998 3 6.1 3 6 3C2.7 3 0 5.7 0 9L0 13L4.1001 13L3 18L7 18L7 22L7.8999 22L11 15L7.2002 15L7.6001 13L13.1001 13L12 18L16 18L16 22L16.8999 22L20 15L16.2002 15L16.6001 13L22 13L22 9C22 4 18 0 13 0ZM19 10L3 10L3 9C3 7.3 4.3 6 6 6C6.6 6 7.1001 6.2 7.6001 6.5C8.6001 4.5 10.6 3 13 3C16.3 3 19 5.7 19 9L19 10Z" fill="currentColor" opacity="1"/></g>
</svg>