<svg width="24" height="24" viewBox="0 0 24 24" fill="none" xmlns="http://www.w3.org/2000/svg">
  <title>Massage chair (filled)</title>
  <g transform="matrix(
          1 0
          0 1
          7.25 6.1298828125
        )"><path fill-rule="nonzero" clip-rule="nonzero" d="M3.75 5.87L10.75 5.87C10.75 4.21 9.41 2.87 7.75 2.87L4.99 2.87L2.12 0L0 2.12L3.75 5.87Z" fill="currentColor" opacity="1"/></g>,<g transform="matrix(
          1 0
          0 1
          3 1
        )"><path fill-rule="nonzero" clip-rule="nonzero" d="M2.5 5C3.88071 5 5 3.88071 5 2.5C5 1.11929 3.88071 0 2.5 0C1.11929 0 0 1.11929 0 2.5C0 3.88071 1.11929 5 2.5 5Z" fill="currentColor" opacity="1"/></g>,<g transform="matrix(
          1 0
          0 1
          0.43994140625 6.43994140625
        )"><path fill-rule="nonzero" clip-rule="nonzero" d="M23.12 12.5L19.5 8.88C18.65 8.03 17.52 7.56 16.32 7.56L9.73 7.56L2.12 0L0 2.12L5.56 7.65L5.56 16.56L17.56 16.56L17.56 11.18L21 14.62L23.12 12.5Z" fill="currentColor" opacity="1"/></g>
</svg>