<svg width="24" height="24" viewBox="0 0 24 24" fill="none" xmlns="http://www.w3.org/2000/svg">
  <title>Car front (outlined)</title>
  <g transform="matrix(
          1 0
          0 1
          1 3
        )"><path fill-rule="nonzero" clip-rule="nonzero" d="M20 6L18.5 1.4C18.2 0.6 17.5 0 16.6 0L5.4 0C4.6 -4.44089e-16 3.8 0.6 3.5 1.4L2 6L0 6L0 9L1 9L1 18L5 18L5 16L17 16L17 18L21 18L21 9L22 9L22 6L20 6ZM17 13L5 13L4 13L4 12L8 12L8 9L4.2 9L6.2 3L15.9 3L17.9 9L14 9L14 12L18 12L18 13L17 13Z" fill="currentColor" opacity="1"/></g>
</svg>