<svg width="24" height="24" viewBox="0 0 24 24" fill="none" xmlns="http://www.w3.org/2000/svg">
  <title>Wrench (outlined)</title>
  <g transform="matrix(
          1 0
          0 1
          1 1
        )"><path fill-rule="nonzero" clip-rule="nonzero" d="M14.8999 8.89999C14.9999 8.49999 15 8 15 7.5C15 3.4 11.6 0 7.5 0C3.4 0 0 3.4 0 7.5C0 11.6 3.4 15 7.5 15C8 15 8.3999 15 8.8999 14.9L17 23L23 17L14.8999 8.89999ZM9.7998 11.8C8.4998 12 8.1 12.2 7.5 12.2C4.9 12.2 2.7998 10.1 2.7998 7.5C2.7998 6.9 2.9002 6.20001 3.2002 5.70001L6 8.5L8 8L8.5 6L5.7002 3.20001C6.3002 3.00001 6.9 2.79999 7.5 2.79999C10.1 2.79999 12.2002 4.9 12.2002 7.5C12.2002 8.1 12.0998 8.49999 11.7998 9.79999L19 17L17 19L9.7998 11.8Z" fill="currentColor" opacity="1"/></g>
</svg>