<svg width="24" height="24" viewBox="0 0 24 24" fill="none" xmlns="http://www.w3.org/2000/svg">
  <title>Traffic lights (outlined)</title>
  <g transform="matrix(
          1 0
          0 1
          5 1
        )"><path fill-rule="nonzero" clip-rule="nonzero" d="M0 0L0 22L14 22L14 0L0 0ZM11 19L3 19L3 3L11 3L11 19Z" fill="currentColor" opacity="1"/></g>,<g transform="matrix(
          1 0
          0 1
          10 5
        )"><path fill-rule="nonzero" clip-rule="nonzero" d="M2 4C3.10457 4 4 3.10457 4 2C4 0.89543 3.10457 0 2 0C0.89543 0 0 0.89543 0 2C0 3.10457 0.89543 4 2 4Z" fill="currentColor" opacity="1"/></g>,<g transform="matrix(
          1 0
          0 1
          10 15
        )"><path fill-rule="nonzero" clip-rule="nonzero" d="M2 4C3.10457 4 4 3.10457 4 2C4 0.89543 3.10457 0 2 0C0.89543 0 0 0.89543 0 2C0 3.10457 0.89543 4 2 4Z" fill="currentColor" opacity="1"/></g>,<g transform="matrix(
          1 0
          0 1
          10 10
        )"><path fill-rule="nonzero" clip-rule="nonzero" d="M2 4C3.10457 4 4 3.10457 4 2C4 0.89543 3.10457 0 2 0C0.89543 0 0 0.89543 0 2C0 3.10457 0.89543 4 2 4Z" fill="currentColor" opacity="1"/></g>
</svg>