<svg width="24" height="24" viewBox="0 0 24 24" fill="none" xmlns="http://www.w3.org/2000/svg">
  <title>Download (filled)</title>
  <g transform="matrix(
          1 0
          0 1
          1 1
        )"><path fill-rule="evenodd" clip-rule="evenodd" d="M16.2998 4L16.5 4C19.5 4 22 6.5 22 9.5C22 12.5 19.5 15 16.5 15L14.5 15L14.5 10L7.5 10L7.5 15L5.5 15C2.5 15 0 12.5 0 9.5C0 6.5 2.5 4 5.5 4L5.7002 4C6.4002 1.7 8.5 0 11 0C13.5 0 15.5998 1.7 16.2998 4ZM9.5 18.6L9.5 12L12.5 12L12.5 18.6L16 16.3L16 19.7L11 23L6 19.7L6 16.3L9.5 18.6Z" fill="currentColor" opacity="1"/></g>
</svg>