<svg width="24" height="24" viewBox="0 0 24 24" fill="none" xmlns="http://www.w3.org/2000/svg">
  <title>Dolly (filled)</title>
  <g transform="matrix(
          1 0
          0 1
          1 1
        )"><path fill-rule="nonzero" clip-rule="nonzero" d="M19 16L6 16L6 4.5C6 2 4 0 1.5 0L0 0L0 3L1.5 3C2.3 3 3 3.7 3 4.5L3 19C3 20.7 4.3 22 6 22C7.7 22 9 20.7 9 19L16 19C16 20.7 17.3 22 19 22C20.7 22 22 20.7 22 19C22 17.3 20.7 16 19 16Z" fill="currentColor" opacity="1"/>
<path fill-rule="nonzero" clip-rule="nonzero" d="M20 2L8 2L8 14L20 14L20 2Z" fill="currentColor" opacity="1"/></g>
</svg>