<svg width="24" height="24" viewBox="0 0 24 24" fill="none" xmlns="http://www.w3.org/2000/svg">
  <title>Car sunroof (filled)</title>
  <g transform="matrix(
          1 0
          0 1
          1 3
        )"><path fill-rule="nonzero" clip-rule="nonzero" d="M20 7L18 1.3C17.7 0.500003 17 0 16.1 0L15 0L15 1C15 1.5 14.5 2 14 2L8 2C7.5 2 7 1.5 7 1L7 0L5.89999 0C4.99999 0 4.3 0.500003 4 1.3L2 7L0 7L0 10L1 10L1 19L5 19L5 17L17 17L17 19L21 19L21 10L22 10L22 7L20 7ZM4 12L8 12L8 14L4 14L4 12ZM18 12L18 14L14 14L14 12L18 12ZM5.89999 5L16.1 5L17.2 8L4.89999 8L5.89999 5Z" fill="currentColor" opacity="1"/></g>
</svg>