<svg width="24" height="24" viewBox="0 0 24 24" fill="none" xmlns="http://www.w3.org/2000/svg">
  <title>Flat truck (outlined)</title>
  <g transform="matrix(
          1 0
          0 1
          1 1
        )"><path fill-rule="nonzero" clip-rule="nonzero" d="M22 16L14.9 16C14.8 15.3 14.4 14.6 14 14L14 0L11 0L11 3L0 3L0 16C0 17.7 1.3 19 3 19L5.4 19C6.2 20.8 7.9 22 10 22C12.1 22 13.8 20.8 14.6 19L22 19L22 16ZM3 11L7 11L7 8L3 8L3 6L11 6L11 12.1C10.7 12 10.3 12 10 12C7.6 12 5.6 13.7 5.1 16L3 16L3 11ZM10 19C8.9 19 8 18.1 8 17C8 15.9 8.9 15 10 15C11.1 15 12 15.9 12 17C12 18.1 11.1 19 10 19Z" fill="currentColor" opacity="1"/></g>
</svg>