<svg width="24" height="24" viewBox="0 0 24 24" fill="none" xmlns="http://www.w3.org/2000/svg">
  <title>Car seat power (outlined)</title>
  <g transform="matrix(
          1 0
          0 1
          0.39990234375 1
        )"><path fill-rule="nonzero" clip-rule="nonzero" d="M16.6001 2L12.6001 5L16.6001 8L16.6001 2Z" fill="currentColor" opacity="1"/>
<path fill-rule="nonzero" clip-rule="nonzero" d="M19.6001 2L19.6001 8L23.6001 5L19.6001 2Z" fill="currentColor" opacity="1"/>
<path fill-rule="nonzero" clip-rule="nonzero" d="M17.3 12L12.2 12L9.1 3.79999C8.2 1.49999 6 0 3.6 0L0 0L4.1 22L22.6 22L22.6 17.3C22.6 14.4 20.2 12 17.3 12ZM19.6 19L6.6 19L3.6 3C4.8 3 5.9 3.70002 6.3 4.90002L10.1 15L17.3 15C18.6 15 19.6 16 19.6 17.3L19.6 19Z" fill="currentColor" opacity="1"/></g>
</svg>