<svg width="24" height="24" viewBox="0 0 24 24" fill="none" xmlns="http://www.w3.org/2000/svg">
  <title>Network (filled)</title>
  <g transform="matrix(
          1 0
          0 1
          0.479736328125 0.5
        )"><path fill-rule="nonzero" clip-rule="nonzero" d="M21.5203 13.4C21.5203 13.1 21.5203 12.8 21.5203 12.5C21.5203 8.4 19.0202 4.8 15.4202 3.3C15.1202 1.4 13.4203 0 11.5203 0C9.62026 0 7.92036 1.4 7.62036 3.3C4.02036 4.8 1.52026 8.4 1.52026 12.5C1.52026 12.8 1.52026 13.1 1.52026 13.4C0.0202591 14.6 -0.479741 16.8 0.520259 18.5C1.52026 20.2 3.52021 20.9 5.22021 20.3C6.92021 21.7 9.12016 22.5 11.4202 22.5C13.8202 22.5 15.9204 21.7 17.6204 20.3C19.4204 20.9 21.4203 20.2 22.3203 18.5C23.5203 16.8 23.0203 14.6 21.5203 13.4ZM7.62036 18.3C8.22036 17.1 8.22026 15.7 7.52026 14.5C6.92026 13.4 5.72026 12.7 4.52026 12.5C4.52026 9.8 6.02021 7.5 8.22021 6.3C8.92021 7.3 10.1203 8 11.5203 8C12.9203 8 14.0203 7.3 14.8203 6.3C17.0203 7.5 18.5203 9.8 18.5203 12.5C17.3203 12.7 16.2203 13.3 15.5203 14.5C14.8203 15.7 14.8202 17.1 15.4202 18.3C14.3202 19.1 12.9203 19.5 11.5203 19.5C10.0203 19.5 8.72036 19.1 7.62036 18.3Z" fill="currentColor" opacity="1"/></g>
</svg>