<svg width="24" height="24" viewBox="0 0 24 24" fill="none" xmlns="http://www.w3.org/2000/svg">
  <title>Heart (outlined)</title>
  <g transform="matrix(
          1 0
          0 1
          1 2
        )"><path fill-rule="nonzero" clip-rule="nonzero" d="M15 3C17.5 3 19 4.90001 19 7.20001C19 8.40001 18.4 9.49999 17.7 10.3C16.5 11.5 11 16 11 16C11 16 5.50005 11.5 4.30005 10.3C3.50005 9.49999 3 8.40001 3 7.20001C3 4.90001 4.5 3 7 3C8.7 3 10.3 4.6 11 6C11.7 4.6 13.3 3 15 3ZM15 0C13.5 0 12.1 0.599994 11 1.39999C9.9 0.499994 8.5 0 7 0C3 0 0 3.10001 0 7.20001C0 9.10001 0.799951 10.9 2.19995 12.4C3.59995 13.9 11 19.9 11 19.9C11 19.9 18.4 13.9 19.8 12.4C21.2 10.9 22 9.10001 22 7.20001C22 3.10001 19 0 15 0Z" fill="currentColor" opacity="1"/></g>
</svg>