<svg width="24" height="24" viewBox="0 0 24 24" fill="none" xmlns="http://www.w3.org/2000/svg">
  <title>Bug (outlined)</title>
  <g transform="matrix(
          1 0
          0 1
          1.199951171875 1
        )"><path fill-rule="nonzero" clip-rule="nonzero" d="M18.8 12L21.8 12L21.8 9L17.8 9C17.7 7 16.7 5.2 15.2 4C16.5 3 17.4 1.6 17.7 0L14.8 0C14.2 1.6 12.7001 2.70001 10.9001 2.70001C9.10015 2.70001 7.6 1.6 7 0L4.1001 0C4.5001 1.6 5.4001 3 6.6001 4C5.1001 5.2 4.1 7 4 9L0 9L0 12L3 12L3 14C3 14.8 3.10005 15.5 3.30005 16.2L0 17.9L0 21.3L4.69995 19C6.19995 20.9 8.5 22.1 11 22.1C13.5 22.1 15.9 20.9 17.3 19L22 21.3L22 17.9L18.7 16.2C18.9 15.5 19 14.8 19 14L19 12L18.8 12ZM10.8 5.5C12.8 5.5 14.5 7 14.7 9L6.80005 9C7.10005 7 8.80005 5.5 10.8 5.5ZM10.8 19C8.00005 19 5.80005 16.8 5.80005 14L5.80005 12L15.8 12L15.8 14C15.8 16.8 13.6 19 10.8 19Z" fill="currentColor" opacity="1"/></g>
</svg>