<svg width="24" height="24" viewBox="0 0 24 24" fill="none" xmlns="http://www.w3.org/2000/svg">
  <title>Vegan (outlined)</title>
  <g transform="matrix(
          1 0
          0 1
          0.9951171875 1.999755859375
        )"><path fill-rule="nonzero" clip-rule="nonzero" d="M15.0049 3.0003C15.5499 2.99081 16.091 3.09452 16.594 3.30489C17.0969 3.51526 17.5507 3.82771 17.9266 4.22246C18.3026 4.61722 18.5925 5.0857 18.7781 5.59827C18.9637 6.11085 19.0409 6.65636 19.0049 7.2003C18.955 8.35557 18.4939 9.45499 17.7049 10.3003C16.5049 11.5003 11.0049 16.0003 11.0049 16.0003C11.0049 16.0003 5.50488 11.5003 4.30488 10.3003C3.89517 9.89432 3.56947 9.41158 3.34641 8.87966C3.12335 8.34775 3.0073 7.77709 3.00488 7.2003C2.96883 6.65636 3.04604 6.11085 3.23164 5.59827C3.41724 5.0857 3.70719 4.61722 4.08315 4.22246C4.45911 3.82771 4.9129 3.51526 5.41581 3.30489C5.91873 3.09452 6.45983 2.99081 7.00488 3.0003C8.70488 3.0003 10.3049 4.6003 11.0049 6.0003C11.7049 4.6003 13.3049 3.0003 15.0049 3.0003ZM15.0049 0.000303338C13.5578 0.0364899 12.1587 0.526195 11.0049 1.4003C9.87404 0.484258 8.46016 -0.0106026 7.00488 0.000303338C6.06618 -0.00847321 5.13545 0.173285 4.26901 0.534581C3.40257 0.895876 2.61844 1.4292 1.96405 2.10228C1.30967 2.77535 0.798648 3.5742 0.461898 4.45047C0.125147 5.32673 -0.0303266 6.26221 0.00488367 7.2003C0.0452894 9.1514 0.832735 11.0126 2.20488 12.4003C3.60488 13.9003 11.0049 19.9003 11.0049 19.9003C11.0049 19.9003 18.4049 13.9003 19.8049 12.4003C21.177 11.0126 21.9645 9.1514 22.0049 7.2003C22.0401 6.26221 21.8846 5.32673 21.5479 4.45047C21.2111 3.5742 20.7001 2.77535 20.0457 2.10228C19.3913 1.4292 18.6072 0.895876 17.7408 0.534581C16.8743 0.173285 15.9436 -0.00847321 15.0049 0.000303338L15.0049 0.000303338Z" fill="currentColor" opacity="1"/></g>,<g transform="matrix(
          1 0
          0 1
          6.910003662109375 8.360107421875
        )"><path fill-rule="nonzero" clip-rule="nonzero" d="M5.09 6.61L0 2.28L1.95 0L5.09 2.67L8.23 0L10.18 2.28L5.09 6.61Z" fill="currentColor" opacity="1"/></g>
</svg>