<svg width="24" height="24" viewBox="0 0 24 24" fill="none" xmlns="http://www.w3.org/2000/svg">
  <title>Location marker (outlined)</title>
  <g transform="matrix(
          1 0
          0 1
          2.5250396728515625 1
        )"><path fill-rule="evenodd" clip-rule="evenodd" d="M9.475 0C11.875 0 14.375 0.9 16.175 2.8C19.875 6.5 19.875 12.6 16.175 16.2L9.475 23L2.775 16.3C-0.925 12.6 -0.925 6.5 2.775 2.8C4.575 0.9 7.075 0 9.475 0ZM9.475 18.8L14.075 14.2C16.575 11.6 16.575 7.5 14.075 4.9C12.875 3.7 11.175 3 9.475 3C7.775 3 6.075 3.7 4.875 4.9C2.375 7.5 2.375 11.6 4.875 14.2L9.475 18.8ZM11.475 9.5C11.475 10.6046 10.5795 11.5 9.47498 11.5C8.37041 11.5 7.47498 10.6046 7.47498 9.5C7.47498 8.39543 8.37041 7.5 9.47498 7.5C10.5795 7.5 11.475 8.39543 11.475 9.5Z" fill="currentColor" opacity="1"/></g>
</svg>