<svg width="24" height="24" viewBox="0 0 24 24" fill="none" xmlns="http://www.w3.org/2000/svg">
  <title>Wifi (outlined)</title>
  <g transform="matrix(
          1 0
          0 1
          0.7001953125 4
        )"><path fill-rule="evenodd" clip-rule="evenodd" d="M11.2998 0C6.9998 0 3 1.69995 0 4.69995L2.09961 6.80005C4.59961 4.30005 7.7998 3 11.2998 3C14.7998 3 18 4.40005 20.5 6.80005L22.5996 4.69995C19.5996 1.69995 15.5998 0 11.2998 0ZM3.8999 8.59998L6 10.7C7.4 9.29995 9.2998 8.5 11.2998 8.5C13.2998 8.5 15.1996 9.29995 16.5996 10.7L18.6997 8.59998C16.6997 6.59998 14.0998 5.5 11.2998 5.5C8.4998 5.5 5.8999 6.59998 3.8999 8.59998ZM11.2998 16L7.7998 12.5C8.6998 11.5 9.9998 11 11.2998 11C12.5998 11 13.8998 11.6 14.7998 12.5L11.2998 16Z" fill="currentColor" opacity="1"/></g>
</svg>