<svg width="24" height="24" viewBox="0 0 24 24" fill="none" xmlns="http://www.w3.org/2000/svg">
  <title>Traffic (filled)</title>
  <g transform="matrix(
          1 0
          0 1
          0 10
        )"><path fill-rule="nonzero" clip-rule="nonzero" d="M14 1.3C13.7 0.5 12.9 0 12.1 0L4.9 0C4 0 3.3 0.5 3 1.3L1.7 5L0 5L0 8L1 8L1 13L4 13L4 12L13 12L13 13L16 13L16 8L17 8L17 5L15.3 5L14 1.3ZM6 9L3 9L3 7L6 7L6 9ZM14 9L11 9L11 7L14 7L14 8L14 9Z" fill="currentColor" opacity="1"/></g>,<g transform="matrix(
          1 0
          0 1
          8 1
        )"><path fill-rule="nonzero" clip-rule="nonzero" d="M16 5L14.3 5L13 1.3C12.7 0.5 12 0 11.1 0L3.9 0C3.1 0 2.3 0.5 2 1.3L0 7L4.1 7C5.8 7 7.3 8.1 7.9 9.7L8.7 12L12 12L12 13L15 13L15 8L16 8L16 5ZM13 9L10 9L10 7L13 7L13 9Z" fill="currentColor" opacity="1"/></g>
</svg>