<svg width="24" height="24" viewBox="0 0 24 24" fill="none" xmlns="http://www.w3.org/2000/svg">
  <title>Sunset (filled)</title>
  <g transform="matrix(
          1 0
          0 1
          4 18
        )"><path fill-rule="nonzero" clip-rule="nonzero" d="M16 0L0 0L0 3L16 3L16 0Z" fill="currentColor" opacity="1"/></g>,<g transform="matrix(
          1 0
          0 1
          1 2
        )"><path fill-rule="nonzero" clip-rule="nonzero" d="M16.74 11C17.53 9.87 18 8.49 18 7C18 3.13 14.87 0 11 0C7.13 0 4 3.13 4 7C4 8.49 4.47 9.87 5.26 11L0 11L0 14L22 14L22 11L16.74 11Z" fill="currentColor" opacity="1"/></g>
</svg>