<svg width="24" height="24" viewBox="0 0 24 24" fill="none" xmlns="http://www.w3.org/2000/svg">
  <title>Contacts (outlined)</title>
  <g transform="matrix(
          1 0
          0 1
          1 1
        )"><path fill-rule="evenodd" clip-rule="evenodd" d="M2 3L2 0L20 0L20 22L2 22L2 19L0 19L0 16L2 16L2 6L0 6L0 3L2 3ZM5 3L5 19L17 19L17 3L5 3ZM11 11C12.6569 11 14 9.65685 14 8C14 6.34315 12.6569 5 11 5C9.34315 5 8 6.34315 8 8C8 9.65685 9.34315 11 11 11ZM15 16C15 14.3 13.7 13 12 13L10 13C8.3 13 7 14.3 7 16L7 17L15 17L15 16Z" fill="currentColor" opacity="1"/></g>
</svg>