<svg width="24" height="24" viewBox="0 0 24 24" fill="none" xmlns="http://www.w3.org/2000/svg">
  <title>Circle i (outlined)</title>
  <g transform="matrix(
          1 0
          0 1
          1 1
        )"><path fill-rule="evenodd" clip-rule="evenodd" d="M11 0C4.9 0 0 4.9 0 11C0 17.1 4.9 22 11 22C17.1 22 22 17.1 22 11C22 4.9 17.1 0 11 0ZM11 19C6.6 19 3 15.4 3 11C3 6.6 6.6 3 11 3C15.4 3 19 6.6 19 11C19 15.4 15.4 19 11 19ZM9.5 10L9.5 17L12.5 17L12.5 10L9.5 10ZM13 7C13 8.10457 12.1046 9 11 9C9.89543 9 9 8.10457 9 7C9 5.89543 9.89543 5 11 5C12.1046 5 13 5.89543 13 7Z" fill="currentColor" opacity="1"/></g>
</svg>