<svg width="24" height="24" viewBox="0 0 24 24" fill="none" xmlns="http://www.w3.org/2000/svg">
  <title>Multistop (outlined)</title>
  <g transform="matrix(
          1 0
          0 1
          1 1
        )"><path fill-rule="nonzero" clip-rule="nonzero" d="M17.5 6C15.54 6 13.87 7.25 13.26 9L8.74 9C8.29 7.72 7.28 6.71 6 6.26L6 0L3 0L3 6.26C1.25 6.87 0 8.54 0 10.5C0 12.99 2.01 15 4.5 15C6.46 15 8.13 13.75 8.74 12L13.26 12C13.71 13.28 14.72 14.29 16 14.74L16 21L19 21L19 14.74C20.75 14.13 22 12.46 22 10.5C22 8.01 19.99 6 17.5 6ZM4.5 12C3.67 12 3 11.33 3 10.5C3 9.67 3.67 9 4.5 9C5.33 9 6 9.67 6 10.5C6 11.33 5.33 12 4.5 12ZM17.5 12C16.67 12 16 11.33 16 10.5C16 9.67 16.67 9 17.5 9C18.33 9 19 9.67 19 10.5C19 11.33 18.33 12 17.5 12Z" fill="currentColor" opacity="1"/></g>
</svg>