<svg width="24" height="24" viewBox="0 0 24 24" fill="none" xmlns="http://www.w3.org/2000/svg">
  <title>Wheels (outlined)</title>
  <g transform="matrix(
          1 0
          0 1
          1 1
        )"><path fill-rule="nonzero" clip-rule="nonzero" d="M11 0C4.9 0 0 4.9 0 11C0 17.1 4.9 22 11 22C17.1 22 22 17.1 22 11C22 4.9 17.1 0 11 0ZM19 11C19 11.3 19 11.7 18.9 12L16 11C16 9.9 15.6 8.9 15 8L16.8 5.5C18.2 7 19 8.9 19 11ZM11 13C9.9 13 9 12.1 9 11C9 9.9 9.9 9 11 9C12.1 9 13 9.9 13 11C13 12.1 12.1 13 11 13ZM14.4 3.8L12.6 6.3C12.1 6.1 11.6 6 11 6C10.4 6 9.89999 6.1 9.39999 6.3L7.60001 3.8C8.60001 3.3 9.8 3 11 3C12.2 3 13.4 3.3 14.4 3.8ZM5.20001 5.5L7 8C6.4 8.8 6 9.8 6 11L3.10001 12C3.10001 11.7 3 11.3 3 11C3 8.9 3.80001 7 5.20001 5.5ZM4 14.9L6.89999 13.9C7.49999 14.8 8.4 15.4 9.5 15.7L9.5 18.8C7.1 18.4 5.1 16.9 4 14.9ZM12.5 18.9L12.5 15.8C13.5 15.5 14.4 14.8 15.1 14L18 15C16.9 16.9 14.9 18.4 12.5 18.9Z" fill="currentColor" opacity="1"/></g>
</svg>