<svg width="24" height="24" viewBox="0 0 24 24" fill="none" xmlns="http://www.w3.org/2000/svg">
  <title>Face neutral (filled)</title>
  <g transform="matrix(
          1 0
          0 1
          1 1
        )"><path fill-rule="nonzero" clip-rule="nonzero" d="M11 0C4.92 0 0 4.92 0 11C0 17.08 4.92 22 11 22C17.08 22 22 17.08 22 11C22 4.92 17.08 0 11 0ZM7 6C8.1 6 9 6.9 9 8C9 9.1 8.1 10 7 10C5.9 10 5 9.1 5 8C5 6.9 5.9 6 7 6ZM15 17L7 17C6.17 17 5.5 16.33 5.5 15.5C5.5 14.67 6.17 14 7 14L15 14C15.83 14 16.5 14.67 16.5 15.5C16.5 16.33 15.83 17 15 17ZM15 10C13.9 10 13 9.1 13 8C13 6.9 13.9 6 15 6C16.1 6 17 6.9 17 8C17 9.1 16.1 10 15 10Z" fill="currentColor" opacity="1"/></g>
</svg>