<svg width="24" height="24" viewBox="0 0 24 24" fill="none" xmlns="http://www.w3.org/2000/svg">
  <title>Speedometer (outlined)</title>
  <g transform="matrix(
          1 0
          0 1
          0.97491455078125 0.9000244140625
        )"><path fill-rule="evenodd" clip-rule="evenodd" d="M11.025 3.10001C11.925 3.10001 12.8251 3.3 13.6251 3.5L15.925 1.20001C14.425 0.500012 12.725 0 11.025 0C8.12505 0 5.325 1.10001 3.225 3.20001C-1.075 7.50001 -1.075 14.5 3.225 18.8L5.3251 16.7C2.2251 13.6 2.2251 8.49999 5.3251 5.39999C6.9251 3.89999 8.92505 3.10001 11.025 3.10001ZM20.8252 6.19995L18.5251 8.49997C19.5251 11.3 18.8252 14.5 16.6252 16.8L18.7251 18.8999C22.2251 15.4999 22.9252 10.3 20.8252 6.19995ZM17.8895 2.09998C18.703 2.71015 19.415 3.42202 20.0251 4.23558L14.025 10.2356C14.1267 10.5407 14.1268 10.744 14.1268 11.0491C14.1268 12.7779 12.8048 14.1 11.076 14.1C9.34717 14.1 8.02515 12.7779 8.02515 11.0491C8.02515 9.32031 9.34717 7.99827 11.076 7.99827C11.3811 7.99827 11.6862 7.99831 11.8896 8.10001L17.8895 2.09998Z" fill="currentColor" opacity="1"/></g>
</svg>