<svg width="24" height="24" viewBox="0 0 24 24" fill="none" xmlns="http://www.w3.org/2000/svg">
  <title>Microphone 2 (outlined)</title>
  <g transform="matrix(
          1 0
          0 1
          1.974853515625 0.97503662109375
        )"><path fill-rule="nonzero" clip-rule="nonzero" d="M20.6251 15.425L11.925 5.02499C11.725 3.82499 11.125 2.625 10.225 1.725C7.925 -0.575 4.125 -0.575 1.725 1.725C-0.575 4.025 -0.575 7.825 1.725 10.225C2.625 11.125 3.72505 11.725 5.02505 11.925L7.02505 13.625L7.02505 22.025L10.025 22.025L10.025 16.125L15.425 20.625L20.6251 15.425ZM3.8251 3.92501C3.8251 3.92501 3.9251 3.92501 3.8251 3.92501C3.9251 3.92501 3.9251 3.92501 3.8251 3.92501C5.0251 2.72501 6.92515 2.72501 8.12515 3.92501C8.12515 3.92501 8.125 3.92501 8.225 3.92501C8.525 4.22501 8.9251 4.82501 9.3251 5.42501L5.52505 9.225C4.82505 8.825 4.32505 8.42496 4.02505 8.12496C4.02505 8.12496 4.02505 8.12499 4.02505 8.02499C2.72505 7.02499 2.7251 5.12501 3.8251 3.92501ZM8.3251 10.825L10.8251 8.32498L16.6251 15.225L15.225 16.625L8.3251 10.825Z" fill="currentColor" opacity="1"/></g>
</svg>