<svg width="24" height="24" viewBox="0 0 24 24" fill="none" xmlns="http://www.w3.org/2000/svg">
  <title>Brain (outlined)</title>
  <g transform="matrix(
          1 0
          0 1
          1 1
        )"><path fill-rule="nonzero" clip-rule="nonzero" d="M14.03 0C13.86 0 13.69 0 13.5 0C12.55 0 11.69 0.349994 11 0.899994C10.31 0.349994 9.45 0 8.5 0C8.32 0 8.14 0 7.97 0C6.17 0 0 2.34 0 13C0 21.44 6.68 22.03 7.03 22.03C7.25 22.03 7.71 22.03 8.28 22.03C9.32 22.03 10.26 21.63 11 21C11.74 21.63 12.68 22.02 13.72 22.03C14.29 22.03 14.75 22.03 14.97 22.03C15.32 22.03 22 21.45 22 13C22 2.34 15.83 0 14.03 0ZM8.27 19.02C7.78 19.02 7.37 19.02 7.13 19.02C6.33 18.95 3 18.29 3 13L4.5 13C5.33 13 6 12.33 6 11.5C6 10.67 5.33 10 4.5 10L3.21 10C4.15 3.64 7.97 3.01 7.98 3L8.51 3C9.06 3 9.51 3.45 9.51 4L9.51 4.53L9.51 7L8.51 7C7.68 7 7.01 7.67 7.01 8.5C7.01 9.33 7.68 10 8.51 10L9.51 10L9.51 13L8.51 13C7.68 13 7.01 13.67 7.01 14.5C7.01 15.33 7.68 16 8.51 16L9.51 16L9.51 16.54L9.51 17.79C9.5 18.46 8.95 19.02 8.27 19.02ZM14.87 19.03C14.63 19.03 14.22 19.03 13.73 19.03C13.05 19.03 12.5 18.47 12.5 17.79L12.5 16.54L12.5 16L13.5 16C14.33 16 15 15.33 15 14.5C15 13.67 14.33 13 13.5 13L12.5 13L12.5 10L13.5 10C14.33 10 15 9.33 15 8.5C15 7.67 14.33 7 13.5 7L12.5 7L12.5 4.53L12.5 4C12.5 3.45 12.95 3 13.5 3L14 3C14.2 3.03 17.89 3.77 18.8 10L17.5 10C16.67 10 16 10.67 16 11.5C16 12.33 16.67 13 17.5 13L19 13C19 18.29 15.67 18.95 14.87 19.03Z" fill="currentColor" opacity="1"/></g>
</svg>