<svg width="24" height="24" viewBox="0 0 24 24" fill="none" xmlns="http://www.w3.org/2000/svg">
  <title>Printer (outlined)</title>
  <g transform="matrix(
          1 0
          0 1
          1 1
        )"><path fill-rule="nonzero" clip-rule="nonzero" d="M22 10C22 7.8 20.2 6 18 6L18 0L4 0L4 6C1.8 6 0 7.8 0 10L0 19L4 19L4 22L18 22L18 19L22 19L22 10ZM7 3L15 3L15 6L7 6L7 3ZM15 19L7 19L7 16L15 16L15 19ZM19 16L18 16L18 13L4 13L4 16L3 16L3 10C3 9.5 3.5 9 4 9L18 9C18.5 9 19 9.5 19 10L19 16Z" fill="currentColor" opacity="1"/></g>
</svg>