<svg width="24" height="24" viewBox="0 0 24 24" fill="none" xmlns="http://www.w3.org/2000/svg">
  <title>Airplane (outlined)</title>
  <g transform="matrix(
          1 0
          0 1
          0 1
        )"><path fill-rule="nonzero" clip-rule="nonzero" d="M20 7L16.6001 7L11.8999 0L8 0L8 7L4.1001 7L2.7998 5L0 5L0 17L2.7998 17L4.1001 15L8 15L8 22L11.8999 22L16.6001 15L20 15C22.2 15 24 13.2 24 11C24 8.8 22.2 7 20 7ZM20 12L15 12L11 18L11 12L3 12L3 10L11 10L11 4L15 10L20 10C20.5 10 21 10.4 21 11C21 11.5 20.6 12 20 12Z" fill="currentColor" opacity="1"/></g>
</svg>