<svg width="24" height="24" viewBox="0 0 24 24" fill="none" xmlns="http://www.w3.org/2000/svg">
  <title>Restaurant (filled)</title>
  <g transform="matrix(
          1 0
          0 1
          1 1
        )"><path fill-rule="evenodd" clip-rule="evenodd" d="M8 7L8 0L10 0L10 7C10 9.3 8.5 11.2 6.5 11.8L6.5 22L3.5 22L3.5 11.8C1.5 11.1 0 9.2 0 7L0 0L2 0L2 7L4 7L4 0L6 0L6 7L8 7ZM12 5C12 2.2 14.2 0 17 0C19.8 0 22 2.2 22 5L22 7C22 9.2 20.5 11.1 18.5 11.7L18.5 22L15.5 22L15.5 11.7C13.5 11.1 12 9.2 12 7L12 5Z" fill="currentColor" opacity="1"/></g>
</svg>