<svg width="24" height="24" viewBox="0 0 24 24" fill="none" xmlns="http://www.w3.org/2000/svg">
  <title>Job dishwasher (filled)</title>
  <g transform="matrix(
          1 0
          0 1
          1 6
        )"><path fill-rule="nonzero" clip-rule="nonzero" d="M10.4 0.200012C9.8 0.100012 9.2 0 8.5 0C3.8 0 0 3.8 0 8.5C0 13.2 3.8 17 8.5 17C12.7 17 16.2 14 16.9 10C15.1 9.9 13.5 9.09999 12.2 7.79999C10.1 5.79999 9.5 2.80001 10.4 0.200012Z" fill="currentColor" opacity="1"/></g>,<g transform="matrix(
          1 0
          0 1
          13.02490234375 0.699951171875
        )"><path fill-rule="nonzero" clip-rule="nonzero" d="M9.375 3.89996L5.475 0L1.575 3.89996C-0.525 5.99996 -0.525 9.50001 1.575 11.7C2.675 12.8 4.075 13.3 5.475 13.3C6.875 13.3 8.275 12.8 9.375 11.7C11.475 9.50001 11.475 6.09996 9.375 3.89996Z" fill="currentColor" opacity="1"/></g>
</svg>