<svg width="24" height="24" viewBox="0 0 24 24" fill="none" xmlns="http://www.w3.org/2000/svg">
  <title>Mothers room (filled)</title>
  <g transform="matrix(
          1 0
          0 1
          2 0
        )"><path fill-rule="evenodd" clip-rule="evenodd" d="M12 5C12 7.76142 9.76142 10 7 10C4.23858 10 2 7.76142 2 5C2 2.23858 4.23858 0 7 0C9.76142 0 12 2.23858 12 5ZM0 23L0 20C0 16.1 3.1 13 7 13L7 23L0 23ZM11.8 14.3L15.4 16.1C14.2 17.9 12.2 19 10 19L10 22C13.7 22 16.9 20 18.6 16.7L19.5 14.8L13.2 11.6L11.8 14.3ZM22 9C22 10.6569 20.6569 12 19 12C17.3431 12 16 10.6569 16 9C16 7.34315 17.3431 6 19 6C20.6569 6 22 7.34315 22 9Z" fill="currentColor" opacity="1"/></g>
</svg>