<svg width="24" height="24" viewBox="0 0 24 24" fill="none" xmlns="http://www.w3.org/2000/svg">
  <title>Key (filled)</title>
  <g transform="matrix(
          1 0
          0 1
          1 1
        )"><path fill-rule="nonzero" clip-rule="nonzero" d="M13.8999 8.39999C13.9999 7.99999 14 7.5 14 7C14 3.1 10.9 0 7 0C3.1 0 0 3.1 0 7C0 10.7 2.9 13.7 6.5 14C6.7 14 6.8 14 7 14L12 14L12 16L13 17L16 17L16 20L17 21L22 21L22 16.5L13.8999 8.39999ZM7 9C5.9 9 5 8.1 5 7C5 5.9 5.9 5 7 5C8.1 5 9 5.9 9 7C9 8.1 8.1 9 7 9Z" fill="currentColor" opacity="1"/></g>
</svg>