<svg width="24" height="24" viewBox="0 0 24 24" fill="none" xmlns="http://www.w3.org/2000/svg">
  <title>Bike seat (outlined)</title>
  <g transform="matrix(
          1 0
          0 1
          0 3
        )"><path fill-rule="nonzero" clip-rule="nonzero" d="M19 0L6.5 0C2.91 0 0 2.91 0 6.5C0 10.09 2.91 13 6.5 13L12.08 13L15.08 19L18.43 19L14.37 10.89L16 10L19 10C21.76 10 24 7.76 24 5C24 2.24 21.76 0 19 0ZM19 7L15.23 7L9.73 10L6.5 10C4.57 10 3 8.43 3 6.5C3 4.57 4.57 3 6.5 3L19 3C20.1 3 21 3.9 21 5C21 6.1 20.1 7 19 7Z" fill="currentColor" opacity="1"/></g>
</svg>