<svg width="24" height="24" viewBox="0 0 24 24" fill="none" xmlns="http://www.w3.org/2000/svg">
  <title>Globe (filled)</title>
  <g transform="matrix(
          1 0
          0 1
          1 1
        )"><path fill-rule="nonzero" clip-rule="nonzero" d="M11 0C4.9 0 0 4.9 0 11C0 17.1 4.9 22 11 22C17.1 22 22 17.1 22 11C22 4.9 17.1 0 11 0ZM19 11C19 11.7 18.9 12.4 18.7 13C18.1 11.5 17.1 9.89999 15.7 8.29999L17.5 6.5C18.5 7.8 19 9.3 19 11ZM5.5 5.5C6.8 5.5 9.1 6.29999 11.5 8.39999L8.30005 11.6C6.10005 8.80001 5.5 6.5 5.5 5.5ZM13.6001 10.5C15.9001 13.2 16.5 15.5 16.5 16.5C15.2 16.5 12.9 15.7 10.5 13.6L13.6001 10.5ZM15.5 4.39999L13.6001 6.29999C12.0001 4.89999 10.3999 3.89999 8.8999 3.29999C9.5999 3.09999 10.1999 3 10.8999 3C12.6999 3 14.2 3.49999 15.5 4.39999ZM3 11C3 10.3 3.10005 9.6 3.30005 9C3.90005 10.5 4.90005 12.1 6.30005 13.7L4.5 15.5C3.5 14.2 3 12.7 3 11ZM6.5 17.6L8.3999 15.7C9.9999 17.1 11.6001 18.1 13.1001 18.7C12.4001 18.9 11.8001 19 11.1001 19C9.3001 19 7.8 18.5 6.5 17.6Z" fill="currentColor" opacity="1"/></g>
</svg>