<svg width="24" height="24" viewBox="0 0 24 24" fill="none" xmlns="http://www.w3.org/2000/svg">
  <title>Bus (outlined)</title>
  <g transform="matrix(
          1 0
          0 1
          1 1
        )"><path fill-rule="nonzero" clip-rule="nonzero" d="M22 8L21 8L21 4.5C21 2.01 18.99 0 16.5 0L5.5 0C3.01 0 1 2.01 1 4.5L1 8L0 8L0 13L1 13L1 22L5 22L5 20L17 20L17 22L21 22L21 13L22 13L22 8ZM4 16L8 16L8 13L4 13L4 4.5C4 3.67 4.67 3 5.5 3L16.5 3C17.33 3 18 3.67 18 4.5L18 13L14 13L14 16L18 16L18 17L4 17L4 16Z" fill="currentColor" opacity="1"/></g>
</svg>