<svg width="24" height="24" viewBox="0 0 24 24" fill="none" xmlns="http://www.w3.org/2000/svg">
  <title>Ski boots (outlined)</title>
  <g transform="matrix(
          1 0
          0 1
          3 1
        )"><path fill-rule="nonzero" clip-rule="nonzero" d="M18.67 12.53L12 10.16L12 0L0 0L0 21L7 21L7 20L13 20L13 21L20 21L20 14.41C20 13.57 19.47 12.81 18.67 12.53ZM17 15.12L17 17L3 17L3 8L9 8L9 9.38L4.94 13.44L7.06 15.56L9.99 12.63L11 12.99L17 15.12ZM9 3L9 5L3 5L3 3L9 3Z" fill="currentColor" opacity="1"/></g>
</svg>