<svg width="24" height="24" viewBox="0 0 24 24" fill="none" xmlns="http://www.w3.org/2000/svg">
  <title>Database (filled)</title>
  <g transform="matrix(
          1 0
          0 1
          3 16.18994140625
        )"><path fill-rule="nonzero" clip-rule="nonzero" d="M0.0899999 0.0599976C0.0399999 1.18 0 2.3 0 2.81C0 5.02 4.03 6.81 9 6.81C13.97 6.81 18 5.02 18 2.81C18 2.07 18 1.04 18 0C15.94 1.44 12.76 2.31 9 2.31C5.29 2.31 2.15 1.46 0.0899999 0.0599976Z" fill="currentColor" opacity="1"/></g>,<g transform="matrix(
          1 0
          0 1
          3 9.18994140625
        )"><path fill-rule="nonzero" clip-rule="nonzero" d="M9 2.31C5.24 2.31 2.06 1.44 0 0C0 1.22 0 2.36 0 2.81C0 5.02 4.03 6.81 9 6.81C13.97 6.81 18 5.02 18 2.81C18 2.06 17.94 1.07 17.87 0.0899963C15.81 1.47 12.69 2.31 9 2.31Z" fill="currentColor" opacity="1"/></g>,<g transform="matrix(
          1 0
          0 1
          3 1
        )"><path fill-rule="nonzero" clip-rule="nonzero" d="M9 8C13.9706 8 18 6.20914 18 4C18 1.79086 13.9706 0 9 0C4.02944 0 0 1.79086 0 4C0 6.20914 4.02944 8 9 8Z" fill="currentColor" opacity="1"/></g>
</svg>