<svg width="24" height="24" viewBox="0 0 24 24" fill="none" xmlns="http://www.w3.org/2000/svg">
  <title>Soy (outlined)</title>
  <g transform="matrix(
          1 0
          0 1
          1 1
        )"><path fill-rule="nonzero" clip-rule="nonzero" d="M3 0L0 0L0 3C0 13.49 8.51 22 19 22L22 22L22 19C22 8.51 13.49 0 3 0ZM3 3C11.82 3 19 10.18 19 19C10.18 19 3 11.82 3 3Z" fill="currentColor" opacity="1"/></g>,<g transform="matrix(
          1 0
          0 1
          10 10
        )"><path fill-rule="nonzero" clip-rule="nonzero" d="M2 4C3.10457 4 4 3.10457 4 2C4 0.89543 3.10457 0 2 0C0.89543 0 0 0.89543 0 2C0 3.10457 0.89543 4 2 4Z" fill="currentColor" opacity="1"/></g>,<g transform="matrix(
          1 0
          0 1
          14 14
        )"><path fill-rule="nonzero" clip-rule="nonzero" d="M2 4C3.10457 4 4 3.10457 4 2C4 0.89543 3.10457 0 2 0C0.89543 0 0 0.89543 0 2C0 3.10457 0.89543 4 2 4Z" fill="currentColor" opacity="1"/></g>,<g transform="matrix(
          1 0
          0 1
          6 6
        )"><path fill-rule="nonzero" clip-rule="nonzero" d="M2 4C3.10457 4 4 3.10457 4 2C4 0.89543 3.10457 0 2 0C0.89543 0 0 0.89543 0 2C0 3.10457 0.89543 4 2 4Z" fill="currentColor" opacity="1"/></g>
</svg>