<svg width="24" height="24" viewBox="0 0 24 24" fill="none" xmlns="http://www.w3.org/2000/svg">
  <title>Person unaccompanied minor (filled)</title>
  <g transform="matrix(
          1 0
          0 1
          3 1
        )"><path fill-rule="evenodd" clip-rule="evenodd" d="M4 5C5.38071 5 6.5 3.88071 6.5 2.5C6.5 1.11929 5.38071 0 4 0C2.61929 0 1.5 1.11929 1.5 2.5C1.5 3.88071 2.61929 5 4 5ZM17 5.5C17 6.88071 15.8807 8 14.5 8C13.1193 8 12 6.88071 12 5.5C12 4.11929 13.1193 3 14.5 3C15.8807 3 17 4.11929 17 5.5ZM17 17L17 22L12 22L12 17L11 17L11 13C11 11.3 12.3 10 14 10L15 10C16.7 10 18 11.3 18 13L18 17L17 17ZM3 7L5 7C6.7 7 8 8.3 8 10L8 16L7 16L7 22L1 22L1 16L0 16L0 10C0 8.3 1.3 7 3 7Z" fill="currentColor" opacity="1"/></g>
</svg>