<svg width="24" height="24" viewBox="0 0 24 24" fill="none" xmlns="http://www.w3.org/2000/svg">
  <title>Calculator (outlined)</title>
  <g transform="matrix(
          1 0
          0 1
          3 1
        )"><path fill-rule="evenodd" clip-rule="evenodd" d="M0 0L0 22L18 22L18 0L0 0ZM15 19L3 19L3 3L15 3L15 19Z" fill="currentColor" opacity="1"/>
<path fill-rule="nonzero" clip-rule="nonzero" d="M8 9L5 9L5 12L8 12L8 9Z" fill="currentColor" opacity="1"/>
<path fill-rule="nonzero" clip-rule="nonzero" d="M13 9L10 9L10 12L13 12L13 9Z" fill="currentColor" opacity="1"/>
<path fill-rule="nonzero" clip-rule="nonzero" d="M8 14L5 14L5 17L8 17L8 14Z" fill="currentColor" opacity="1"/>
<path fill-rule="nonzero" clip-rule="nonzero" d="M13 14L10 14L10 17L13 17L13 14Z" fill="currentColor" opacity="1"/></g>
</svg>