<svg width="23.999996185302734" height="24" viewBox="0 0 24 24" fill="none" xmlns="http://www.w3.org/2000/svg">
  <title>Ear (filled)</title>
  <g transform="matrix(
          1 0
          0 1
          3 1
        )"><path fill-rule="nonzero" clip-rule="nonzero" d="M15 18.75C15 20.54 13.54 22 11.75 22C10.78 22 9.91 21.57 9.31 20.9L1.87 12.46C0.709999 11.14 0 9.4 0 7.5C0 3.36 3.36 0 7.5 0C10.37 0 12.87 1.62 14.12 4L11.5 4C8.47 4 6 6.47 6 9.5C6 11.92 7.55 14.03 9.85 14.75L12.72 15.65C14.09 16.07 15 17.32 15 18.75Z" fill="currentColor" opacity="1"/></g>,<g transform="matrix(
          1 0
          0 1
          12 8
        )"><path fill-rule="nonzero" clip-rule="nonzero" d="M6 0.5L6 6.41C5.57 6.15 5.11 5.94 4.62 5.79L1.75 4.89C0.7 4.56 0 3.6 0 2.5C0 1.12 1.12 0 2.5 0L5.97 0C5.99 0.17 6 0.33 6 0.5Z" fill="currentColor" opacity="1"/></g>
</svg>