<svg width="24" height="24" viewBox="0 0 24 24" fill="none" xmlns="http://www.w3.org/2000/svg">
  <title>Peanut (outlined)</title>
  <g transform="matrix(
          1 0
          0 1
          2 2
        )"><path fill-rule="nonzero" clip-rule="nonzero" d="M16 3C16.55 3 17 3.45 17 4L17 5C17 6.14 16.65 7.23 16.03 8.14C15.4 9.06 14.51 9.79001 13.42 10.21C11.94 10.78 10.78 11.94 10.21 13.42C9.25 15.94 6.68 17 5.5 17C4.08 17 3 15.83 3 14.5C3 13.66 3.78 10.87 6.58 9.78999C8.06 9.21999 9.22 8.06 9.79 6.58C10.63 4.39 12.73 3 15 3L16 3ZM16 0L15 0C11.47 0 8.25 2.20999 6.99 5.50999C6.72 6.19999 6.2 6.73001 5.5 6.99001C1.49 8.53001 0 12.42 0 14.5C0 17.53 2.47 20 5.5 20C7.75 20 11.56 18.29 13.01 14.49C13.27 13.8 13.8 13.28 14.5 13.01C16.13 12.38 17.51 11.28 18.51 9.84C19.49 8.4 20.01 6.73 20.01 5L20.01 4C20 1.79 18.21 0 16 0Z" fill="currentColor" opacity="1"/></g>
</svg>