<svg width="24" height="24" viewBox="0 0 24 24" fill="none" xmlns="http://www.w3.org/2000/svg">
  <title>Bike jump (outlined)</title>
  <g transform="matrix(
          1 0
          0 1
          0 3
        )"><path fill-rule="nonzero" clip-rule="nonzero" d="M24 2L17.33 2L16.5 0L12 0L12 3L14.5 3L15.65 5.76L11.38 10L10.76 10L7.49 2L3 2L3 5L5.5 5L5.93 6.03C5.79 6.02 5.65 6 5.5 6C2.47 6 0 8.47 0 11.5C0 14.53 2.47 17 5.5 17C8.01 17 10.13 15.3 10.79 13L12.62 13L13.1 12.52C13.58 15.07 15.82 17 18.5 17C21.53 17 24 14.53 24 11.5C24 9.76 23.19 8.21 21.92 7.2L24 5.12L24 2ZM5.5 14C4.12 14 3 12.88 3 11.5C3 10.12 4.12 9 5.5 9C6.51 9 7.42 9.6 7.81 10.54C7.94 10.84 8 11.17 8 11.5C8 12.88 6.88 14 5.5 14ZM19.88 5L18.97 5.91L18.58 5L19.88 5ZM18.5 14C17.12 14 16 12.88 16 11.5C16 10.12 17.12 9 18.5 9C19.88 9 21 10.12 21 11.5C21 12.88 19.88 14 18.5 14Z" fill="currentColor" opacity="1"/></g>
</svg>