<svg width="24" height="24" viewBox="0 0 24 24" fill="none" xmlns="http://www.w3.org/2000/svg">
  <title>Delivery bag alert (outlined)</title>
  <g transform="matrix(
          1 0
          0 1
          1 1
        )"><path fill-rule="evenodd" clip-rule="evenodd" d="M3 16L3 8L19 8L19 10L22 10L22 5L17 5L17 0L5 0L5 5L0 5L0 16C0 19.3 2.7 22 6 22L10 22L10 19L6 19C4.3 19 3 17.7 3 16ZM8 3L14 3L14 5L8 5L8 3ZM14 12L17 12L17 18L14 18L14 12ZM15.5 23C16.3284 23 17 22.3284 17 21.5C17 20.6716 16.3284 20 15.5 20C14.6716 20 14 20.6716 14 21.5C14 22.3284 14.6716 23 15.5 23Z" fill="currentColor" opacity="1"/></g>
</svg>