<svg width="24" height="24" viewBox="0 0 24 24" fill="none" xmlns="http://www.w3.org/2000/svg">
  <title>Instagram (outlined)</title>
  <g transform="matrix(
          1 0
          0 1
          0.984619140625 0.984619140625
        )"><path fill-rule="nonzero" clip-rule="nonzero" d="M20.1654 1.86542C18.0654 -0.244582 15.2454 0.0154192 11.0154 0.0154192C7.05542 0.0154192 4.01542 -0.294582 1.86542 1.86542C-0.244581 3.96542 0.015419 6.78542 0.015419 11.0154C0.015419 14.9654 -0.294581 18.0154 1.86542 20.1654C3.96542 22.2754 6.78542 22.0154 11.0154 22.0154C14.9754 22.0154 18.0154 22.3254 20.1654 20.1654C22.2654 18.0654 22.0154 15.2454 22.0154 11.0154C22.0154 6.70542 22.2554 3.94542 20.1654 1.86542ZM18.7654 18.7654C17.3954 20.1354 15.5854 20.0354 11.0154 20.0354C6.72542 20.0354 4.67542 20.1854 3.26542 18.7654C1.82542 17.3254 1.99542 15.2554 1.99542 11.0154C1.99542 6.78542 1.84542 4.68542 3.26542 3.26542C4.67542 1.85542 6.61542 1.99542 11.0154 1.99542C15.2454 1.99542 17.3454 1.84542 18.7654 3.26542C20.1454 4.64542 20.0354 6.48542 20.0354 11.0154C20.0354 15.2554 20.1854 17.3554 18.7654 18.7654Z" fill="currentColor" opacity="1"/>
<path fill-rule="nonzero" clip-rule="nonzero" d="M11.0154 5.36536C7.89536 5.36536 5.36536 7.89536 5.36536 11.0154C5.36536 14.1354 7.89536 16.6654 11.0154 16.6654C14.1354 16.6654 16.6654 14.1354 16.6654 11.0154C16.6654 7.89536 14.1354 5.36536 11.0154 5.36536ZM11.0154 14.6854C8.99536 14.6854 7.34536 13.0454 7.34536 11.0154C7.34536 8.98536 8.98536 7.34536 11.0154 7.34536C13.0454 7.34536 14.6854 8.98536 14.6854 11.0154C14.6854 13.0354 13.0354 14.6854 11.0154 14.6854Z" fill="currentColor" opacity="1"/>
<path fill-rule="nonzero" clip-rule="nonzero" d="M16.8854 3.82544C16.1554 3.82544 15.5654 4.41544 15.5654 5.14544C15.5654 5.87544 16.1554 6.46544 16.8854 6.46544C17.6154 6.46544 18.2054 5.87544 18.2054 5.14544C18.2054 4.41544 17.6154 3.82544 16.8854 3.82544Z" fill="currentColor" opacity="1"/></g>
</svg>