<svg width="24" height="24" viewBox="0 0 24 24" fill="none" xmlns="http://www.w3.org/2000/svg">
  <title>Car seat (outlined)</title>
  <g transform="matrix(
          1 0
          0 1
          3 1
        )"><path fill-rule="evenodd" clip-rule="evenodd" d="M5 4L13 4L13 3C13 1.3 11.7 0 10 0L8 0C6.3 0 5 1.3 5 3L5 4ZM16 9.5L16 18L18 18L18 18.5C18 21 16 23 13.5 23L4.5 23C2 23 0 21 0 18.5L0 18L2 18L2 9.5C2 7.6 3.6 6 5.5 6L12.5 6C14.4 6 16 7.6 16 9.5ZM6.1001 19L13 19L13 12.1L6.1001 19ZM5.5 9C5.2 9 5 9.2 5 9.5L5 15.9L11.8999 9L5.5 9Z" fill="currentColor" opacity="1"/></g>
</svg>