<svg width="24" height="24" viewBox="0 0 24 24" fill="none" xmlns="http://www.w3.org/2000/svg">
  <title>Slack (filled)</title>
  <g transform="matrix(
          1 0
          0 1
          13 1
        )"><path fill-rule="nonzero" clip-rule="nonzero" d="M0 2C0 0.89543 0.895431 0 2 0C3.10457 0 4 0.89543 4 2L4 8C4 9.10457 3.10457 10 2 10C0.895431 10 0 9.10457 0 8L0 2Z" fill="currentColor" opacity="1"/>
<path fill-rule="nonzero" clip-rule="nonzero" d="M6 8C6 6.89543 6.89543 6 8 6C9.10457 6 10 6.89543 10 8C10 9.10457 9.10457 10 8 10L6 10L6 8Z" fill="currentColor" opacity="1"/></g>,<g transform="matrix(
          1 0
          0 1
          13 13
        )"><path fill-rule="nonzero" clip-rule="nonzero" d="M8 1.77636e-15C9.10457 4.82823e-08 10 0.895431 10 2C10 3.10457 9.10457 4 8 4L2 4C0.895431 4 -4.82823e-08 3.10457 0 2C4.82823e-08 0.895431 0.895431 -4.82823e-08 2 1.77636e-15L8 1.77636e-15Z" fill="currentColor" opacity="1"/>
<path fill-rule="nonzero" clip-rule="nonzero" d="M2 6C3.10457 6 4 6.89543 4 8C4 9.10457 3.10457 10 2 10C0.895431 10 -4.82823e-08 9.10457 0 8L0 6L2 6Z" fill="currentColor" opacity="1"/></g>,<g transform="matrix(
          1 0
          0 1
          1 13
        )"><path fill-rule="nonzero" clip-rule="nonzero" d="M6 2C6 0.895431 6.89543 0 8 0C9.10457 0 10 0.895431 10 2L10 8C10 9.10457 9.10457 10 8 10C6.89543 10 6 9.10457 6 8L6 2Z" fill="currentColor" opacity="1"/>
<path fill-rule="nonzero" clip-rule="nonzero" d="M0 2C0 0.895431 0.89543 0 2 0L4 0L4 2C4 3.10457 3.10457 4 2 4C0.89543 4 0 3.10457 0 2Z" fill="currentColor" opacity="1"/></g>,<g transform="matrix(
          -4.371138828673793e-8 1
          -1 -4.371138828673793e-8
          11 1.0000004768371582
        )"><path fill-rule="nonzero" clip-rule="nonzero" d="M6 2C6 0.895431 6.89543 0 8 0C9.10457 0 10 0.895431 10 2L10 8C10 9.10457 9.10457 10 8 10C6.89543 10 6 9.10457 6 8L6 2Z" fill="currentColor" opacity="1"/>
<path fill-rule="nonzero" clip-rule="nonzero" d="M0 2C0 0.895431 0.89543 0 2 0L4 0L4 2C4 3.10457 3.10457 4 2 4C0.89543 4 0 3.10457 0 2Z" fill="currentColor" opacity="1"/></g>
</svg>