<svg width="24" height="24" viewBox="0 0 24 24" fill="none" xmlns="http://www.w3.org/2000/svg">
  <title>Location return (outlined)</title>
  <g transform="matrix(
          1 0
          0 1
          2 0
        )"><path fill-rule="evenodd" clip-rule="evenodd" d="M14.9334 14.9661L14.8974 15.0011L9.9995 19.7991L5.05262 14.9521L5.04962 14.9491C4.21364 14.1132 3.61766 13.1022 3.28967 12.0002L9.68951 12.0002L7.49956 15.0001L10.7005 15.0001L13.9994 10.5002L10.7005 6.00028L7.49956 6.00028L9.68951 9.00024L3.07867 9.00024C3.29067 7.51026 3.96665 6.13328 5.04962 5.0503C7.78556 2.31434 12.2134 2.31434 14.9504 5.0503C17.6533 7.75425 17.7233 12.1752 14.9334 14.9661ZM17.0713 2.92833C13.1654 -0.97561 6.83358 -0.97661 2.92868 2.92833C-0.976226 6.83427 -0.976226 13.1662 2.92868 17.0701C2.95368 17.0951 2.97868 17.1201 3.00267 17.1441L9.9995 24L16.9963 17.1441C17.0213 17.1201 17.0463 17.0951 17.0713 17.0701C20.9762 13.1662 20.9762 6.83427 17.0713 2.92833Z" fill="currentColor" opacity="1"/></g>
</svg>