<svg width="24" height="24" viewBox="0 0 24 24" fill="none" xmlns="http://www.w3.org/2000/svg">
  <title>Compost (filled)</title>
  <g transform="matrix(
          1 0
          0 1
          0 2
        )"><path fill-rule="evenodd" clip-rule="evenodd" d="M5.01992 0.0131867C5.46424 0.306635 10 3.30224 10 9C10 12.8 8 15.4 6.5 16.8L6.5 22L3.5 22L3.5 16.8C2 15.4 0 12.8 0 9C0 3.30224 4.53576 0.306635 4.98008 0.0131866C4.98806 0.00792105 4.99471 0.0035255 5 0C5.00529 0.00352551 5.01194 0.00792107 5.01992 0.0131867ZM23 0L18.5 4.5L18.5 7L22 7L22 10L18.5 10L18.5 13L22 13C22 18.6977 17.4643 21.6933 17.0199 21.9868C17.0119 21.9921 17.0053 21.9965 17 22C16.9947 21.9965 16.9881 21.9921 16.9801 21.9868C16.5357 21.6933 12 18.6977 12 13L15.5 13L15.5 10L12 10L12 7L15.5 7L15.5 4.5L11 0L15.1 0L17 1.9L18.9 0L23 0Z" fill="currentColor" opacity="1"/></g>
</svg>