<svg width="24" height="24" viewBox="0 0 24 24" fill="none" xmlns="http://www.w3.org/2000/svg">
  <title>Festival tent (outlined)</title>
  <g transform="matrix(
          1 0
          0 1
          1 1
        )"><path fill-rule="nonzero" clip-rule="nonzero" d="M11 0C6 4.5 0 6 0 6L0 19L22 19L22 6C22 6 16 4.5 11 0ZM3 8.20001C4.4 7.70001 6.5001 6.8 8.6001 5.5C7.3001 9.4 4.9 13.1 3 15.7L3 8.20001ZM6.3999 16C7.9999 13.7 9.7 10.8 11 7.59998C12.2 10.7 14.0001 13.6 15.6001 16L6.3999 16ZM13.3999 5.5C15.4999 6.8 17.5 7.70001 19 8.20001L19 15.7C17.1 13 14.7999 9.4 13.3999 5.5Z" fill="currentColor" opacity="1"/></g>
</svg>