<svg width="24" height="24" viewBox="0 0 24 24" fill="none" xmlns="http://www.w3.org/2000/svg">
  <title>Arrow dropoff (filled)</title>
  <g transform="matrix(
          1 0
          0 1
          10 19
        )"><path fill-rule="nonzero" clip-rule="nonzero" d="M2 4C3.10457 4 4 3.10457 4 2C4 0.89543 3.10457 0 2 0C0.89543 0 0 0.89543 0 2C0 3.10457 0.89543 4 2 4Z" fill="currentColor" opacity="1"/></g>,<g transform="matrix(
          1 0
          0 1
          5 2
        )"><path fill-rule="nonzero" clip-rule="nonzero" d="M8.5 10.67L8.5 0L5.5 0L5.5 10.67L0 6.64L0 10.11L7 15.23L14 10.11L14 6.64L8.5 10.67Z" fill="currentColor" opacity="1"/></g>
</svg>