<svg width="24" height="24" viewBox="0 0 24 24" fill="none" xmlns="http://www.w3.org/2000/svg">
  <title>Meat (filled)</title>
  <g transform="matrix(
          1 0
          0 1
          2 1
        )"><path fill-rule="nonzero" clip-rule="nonzero" d="M8.5 0C3.81 0 0 3.81 0 8.5C0 10.92 1.02 13.1 2.65 14.65L2.64 14.65L8.98 20.68L8.99 20.68C9.84 21.49 10.99 21.99 12.26 21.99C14.88 21.99 17.01 19.86 17.01 17.24L17.01 8.5C17 3.81 13.19 0 8.5 0ZM8.5 12C6.57 12 5 10.43 5 8.5C5 6.57 6.57 5 8.5 5C10.43 5 12 6.57 12 8.5C12 10.43 10.43 12 8.5 12Z" fill="currentColor" opacity="1"/></g>
</svg>