<svg width="24" height="24" viewBox="0 0 24 24" fill="none" xmlns="http://www.w3.org/2000/svg">
  <title>Stopwatch (outlined)</title>
  <g transform="matrix(
          1 0
          0 1
          2.5 1
        )"><path fill-rule="evenodd" clip-rule="evenodd" d="M6.5 0L12.5 0L12.5 3L9.5 3L6.5 3L6.5 0ZM9.5 3C14.7 3 19 7.3 19 12.5C19 17.7 14.7 22 9.5 22C4.3 22 0 17.7 0 12.5C0 7.3 4.3 3 9.5 3ZM3 12.5C3 16.1 5.9 19 9.5 19C13.1 19 16 16.1 16 12.5C16 11.3 15.6 10.1 15 9.09998L10.5 13.6L8.3999 11.5L12.8999 7C11.8999 6.4 10.7 6 9.5 6C5.9 6 3 8.9 3 12.5Z" fill="currentColor" opacity="1"/></g>
</svg>