<svg width="24" height="24" viewBox="0 0 24 24" fill="none" xmlns="http://www.w3.org/2000/svg">
  <title>Bike person (outlined)</title>
  <g transform="matrix(
          1 0
          0 1
          0 1
        )"><path fill-rule="evenodd" clip-rule="evenodd" d="M15.5 5C16.8807 5 18 3.88071 18 2.5C18 1.11929 16.8807 0 15.5 0C14.1193 0 13 1.11929 13 2.5C13 3.88071 14.1193 5 15.5 5ZM13.3998 9.5L13.1 9.5L11.1 11.6L13.9999 14.5L13.9999 19L10.9999 19L10.9999 15.7L7.6 12.3C6.8 11.5 6.8 10.1 7.6 9.29999L10.2001 6.70001C10.7001 6.20001 11.2998 6 11.8998 6L13.2001 6C13.8001 6 14.3997 6.30001 14.7997 6.70001L17.1 9L18.9999 9L18.9999 12L16.7001 12C16.2001 12 15.6997 11.8 15.2997 11.4L13.3998 9.5ZM15 17.5C15 15 17 13 19.5 13C22 13 24 15 24 17.5C24 20 22 22 19.5 22C17 22 15 20 15 17.5ZM18 17.5C18 18.3 18.7 19 19.5 19C20.3 19 21 18.3 21 17.5C21 16.7 20.3 16 19.5 16C18.7 16 18 16.7 18 17.5ZM0 17.5C0 15 2 13 4.5 13C7 13 9 15 9 17.5C9 20 7 22 4.5 22C2 22 0 20 0 17.5ZM3 17.5C3 18.3 3.7 19 4.5 19C5.3 19 6 18.3 6 17.5C6 16.7 5.3 16 4.5 16C3.7 16 3 16.7 3 17.5Z" fill="currentColor" opacity="1"/></g>
</svg>