<svg width="24" height="24" viewBox="0 0 24 24" fill="none" xmlns="http://www.w3.org/2000/svg">
  <title>Museum (outlined)</title>
  <g transform="matrix(
          1 0
          0 1
          1 20
        )"><path fill-rule="nonzero" clip-rule="nonzero" d="M22 0L0 0L0 3L22 3L22 0Z" fill="currentColor" opacity="1"/></g>,<g transform="matrix(
          1 0
          0 1
          8 8.5
        )"><path fill-rule="nonzero" clip-rule="nonzero" d="M8 9.5L8 4C8 1.79 6.21 0 4 0C1.79 0 0 1.79 0 4L0 9.5L3 9.5L3 4C3 3.45 3.45 3 4 3C4.55 3 5 3.45 5 4L5 9.5L8 9.5Z" fill="currentColor" opacity="1"/></g>,<g transform="matrix(
          1 0
          0 1
          1 0.5
        )"><path fill-rule="nonzero" clip-rule="nonzero" d="M11 0L0 6.5L0 8.5L2 8.5L2 17.5L5 17.5L5 14.5L5 13L5 8.5L5 7.03L11 3.48L17 7.03L17 8.5L17 13L17 14.5L17 17.5L20 17.5L20 8.5L22 8.5L22 6.5L11 0Z" fill="currentColor" opacity="1"/></g>
</svg>