<svg width="24" height="24" viewBox="0 0 24 24" fill="none" xmlns="http://www.w3.org/2000/svg">
  <title>Headset (outlined)</title>
  <g transform="matrix(
          1 0
          0 1
          2 1
        )"><path fill-rule="nonzero" clip-rule="nonzero" d="M10 0C4.49 0 0 4.49 0 10L0 12C0 17.51 4.49 22 10 22L10 19C7.63 19 5.53 17.81 4.26 16L8 16L8 7L3.68 7C4.8 4.64 7.21 3 10 3C12.79 3 15.2 4.64 16.32 7L12 7L12 16L19.16 16C19.7 14.78 20 13.42 20 12L20 10C20 4.49 15.51 0 10 0ZM5 10L5 13L3.08 13C3.02 12.67 3 12.34 3 12L3 10L5 10ZM15 13L15 10L17 10L17 12C17 12.34 16.98 12.67 16.92 13L15 13Z" fill="currentColor" opacity="1"/></g>
</svg>