<svg width="24" height="24" viewBox="0 0 24 24" fill="none" xmlns="http://www.w3.org/2000/svg">
  <title>Person driver (filled)</title>
  <g transform="matrix(
          1 0
          0 1
          3 1
        )"><path fill-rule="evenodd" clip-rule="evenodd" d="M9 11C12.0376 11 14.5 8.53757 14.5 5.5C14.5 2.46243 12.0376 0 9 0C5.96243 0 3.5 2.46243 3.5 5.5C3.5 8.53757 5.96243 11 9 11ZM6 22C6 20.3 7.4 19 9 19C10.6 19 12 20.3 12 22L6 22ZM18 22L18 19C18 15.7 15.3 13 12 13L6 13C2.7 13 0 15.7 0 19L0 22L3 22C3 18.7 5.7 16 9 16C12.3 16 15 18.7 15 22L18 22Z" fill="currentColor" opacity="1"/></g>
</svg>