<svg width="24" height="24" viewBox="0 0 24 24" fill="none" xmlns="http://www.w3.org/2000/svg">
  <title>Halal (outlined)</title>
  <g transform="matrix(
          1 0
          0 1
          8 4
        )"><path fill-rule="nonzero" clip-rule="nonzero" d="M15 10C15 7.24 12.76 5 10 5L10 8C11.1 8 12 8.9 12 10L8 10L8 0L5 0L5 9.75C5 10.99 3.99 12 2.75 12L0 12L0 15L2.75 15C4.41 15 5.88 14.21 6.84 13L15 13L15 10Z" fill="currentColor" opacity="1"/></g>,<g transform="matrix(
          1 0
          0 1
          0 4
        )"><path fill-rule="nonzero" clip-rule="nonzero" d="M3 11.5C3 11.78 2.78 12 2.5 12L0 12L0 15L2.5 15C4.43 15 6 13.43 6 11.5L6 0L3 0L3 11.5Z" fill="currentColor" opacity="1"/></g>,<g transform="matrix(
          1 0
          0 1
          8 4
        )"><path fill-rule="nonzero" clip-rule="nonzero" d="M3 0L0 0L0 10L3 10L3 0Z" fill="currentColor" opacity="1"/></g>
</svg>