<svg width="24" height="24" viewBox="0 0 24 24" fill="none" xmlns="http://www.w3.org/2000/svg">
  <title>Dot grid (filled)</title>
  <g transform="matrix(
          1 0
          0 1
          2 2
        )"><path fill-rule="nonzero" clip-rule="nonzero" d="M4 0L0 0L0 4L4 4L4 0Z" fill="currentColor" opacity="1"/>
<path fill-rule="nonzero" clip-rule="nonzero" d="M20 0L16 0L16 4L20 4L20 0Z" fill="currentColor" opacity="1"/>
<path fill-rule="nonzero" clip-rule="nonzero" d="M12 0L8 0L8 4L12 4L12 0Z" fill="currentColor" opacity="1"/>
<path fill-rule="nonzero" clip-rule="nonzero" d="M4 16L0 16L0 20L4 20L4 16Z" fill="currentColor" opacity="1"/>
<path fill-rule="nonzero" clip-rule="nonzero" d="M20 16L16 16L16 20L20 20L20 16Z" fill="currentColor" opacity="1"/>
<path fill-rule="nonzero" clip-rule="nonzero" d="M12 16L8 16L8 20L12 20L12 16Z" fill="currentColor" opacity="1"/>
<path fill-rule="nonzero" clip-rule="nonzero" d="M4 8L0 8L0 12L4 12L4 8Z" fill="currentColor" opacity="1"/>
<path fill-rule="nonzero" clip-rule="nonzero" d="M20 8L16 8L16 12L20 12L20 8Z" fill="currentColor" opacity="1"/>
<path fill-rule="nonzero" clip-rule="nonzero" d="M12 8L8 8L8 12L12 12L12 8Z" fill="currentColor" opacity="1"/></g>
</svg>