<svg width="24" height="24" viewBox="0 0 24 24" fill="none" xmlns="http://www.w3.org/2000/svg">
  <title>Person add (outlined)</title>
  <g transform="matrix(
          1 0
          0 1
          1 1
        )"><path fill-rule="evenodd" clip-rule="evenodd" d="M9 0C6.2 0 4 2.2 4 5C4 7.8 6.2 10 9 10C11.8 10 14 7.8 14 5C14 2.2 11.8 0 9 0ZM9 7C7.9 7 7 6.1 7 5C7 3.9 7.9 3 9 3C10.1 3 11 3.9 11 5C11 6.1 10.1 7 9 7ZM0 19L0 22L3 22L3 19C3 17.3 4.3 16 6 16L10 16L10 13L6 13C2.7 13 0 15.7 0 19ZM19 16L22 16L22 19L19 19L19 22L16 22L16 19L13 19L13 16L16 16L16 13L19 13L19 16Z" fill="currentColor" opacity="1"/></g>
</svg>