<svg width="24" height="24" viewBox="0 0 24 24" fill="none" xmlns="http://www.w3.org/2000/svg">
  <title>Trash (outlined)</title>
  <g transform="matrix(
          1 0
          0 1
          1 0
        )"><path fill-rule="evenodd" clip-rule="evenodd" d="M20 3L19 3L22 6L22 23L12 23L12 6L15 3L14 3L14 0L20 0L20 3ZM15 20L19 20L19 7.19995L17.7 6L16.2 6L15 7.19995L15 20ZM10 23L0 23L0 1L10 1L10 23ZM3 15L7 15L7 9L3 9L3 15ZM3 18L3 20L7 20L7 18L3 18ZM7 6L7 4L3 4L3 6L7 6Z" fill="currentColor" opacity="1"/></g>
</svg>