<svg width="24" height="24" viewBox="0 0 24 24" fill="none" xmlns="http://www.w3.org/2000/svg">
  <title>Staircase down (outlined)</title>
  <g transform="matrix(
          1 0
          0 1
          1 1.29998779296875
        )"><path fill-rule="nonzero" clip-rule="nonzero" d="M9.5 6.70001L5 6.70001L9.69995 1.90002L7.80005 0L3 4.70001L3 0.200012L0 3.20001L0 9.70001L6.5 9.70001L9.5 6.70001Z" fill="currentColor" opacity="1"/></g>,<g transform="matrix(
          1 0
          0 1
          5 5
        )"><path fill-rule="nonzero" clip-rule="nonzero" d="M12 0L12 6L6 6L6 12L0 12L0 18L3 18L3 15L9 15L9 9L15 9L15 3L18 3L18 0L12 0Z" fill="currentColor" opacity="1"/></g>
</svg>