<svg width="24" height="24" viewBox="0 0 24 24" fill="none" xmlns="http://www.w3.org/2000/svg">
  <title>Car front plus (outlined)</title>
  <g transform="matrix(
          1 0
          0 1
          1 4
        )"><path fill-rule="nonzero" clip-rule="nonzero" d="M18 7L18 9L14 9L14 12L18 12L18 13L4 13L4 12L8 12L8 9L4.2 9L6.2 3L10 3L10 0L5.4 0C4.5 0 3.8 0.6 3.5 1.4L2 6L0 6L0 9L1 9L1 18L5 18L5 16L17 16L17 18L21 18L21 7L18 7Z" fill="currentColor" opacity="1"/></g>,<g transform="matrix(
          1 0
          0 1
          14 0
        )"><path fill-rule="nonzero" clip-rule="nonzero" d="M9 3L6 3L6 0L3 0L3 3L0 3L0 6L3 6L3 9L6 9L6 6L9 6L9 3Z" fill="currentColor" opacity="1"/></g>
</svg>