<svg width="24" height="24" viewBox="0 0 24 24" fill="none" xmlns="http://www.w3.org/2000/svg">
  <title>Storefront (outlined)</title>
  <g transform="matrix(
          1 0
          0 1
          6 13
        )"><path fill-rule="nonzero" clip-rule="nonzero" d="M6 0L0 0L0 4L6 4L6 0Z" fill="currentColor" opacity="1"/></g>,<g transform="matrix(
          1 0
          0 1
          0 0
        )"><path fill-rule="nonzero" clip-rule="nonzero" d="M20 0L4 0L0 7.5L0 10L1 11L1 22L23 22L23 11L24 10L24 7.5L20 0ZM5.8 3L18.2 3L20.3 7L3.7 7L5.8 3ZM20 19L18 19L18 13L14 13L14 19L4 19L4 11L20 11L20 19Z" fill="currentColor" opacity="1"/></g>
</svg>