<svg width="24" height="24" viewBox="0 0 24 24" fill="none" xmlns="http://www.w3.org/2000/svg">
  <title>Text underline (outlined)</title>
  <g transform="matrix(
          1 0
          0 1
          3 2
        )"><path fill-rule="nonzero" clip-rule="nonzero" d="M18 17L0 17L0 20L18 20L18 17Z" fill="currentColor" opacity="1"/>
<path fill-rule="nonzero" clip-rule="nonzero" d="M8.70001 15L9.29999 15C10.7 15 11.9 14.6 13 13.9L13 15L16 15L16 0L13 0L13 8.3C13 10.3 11.3 12 9.29999 12L8.70001 12C6.70001 12 5 10.3 5 8.3L5 0L2 0L2 8.3C2 12 5.00001 15 8.70001 15Z" fill="currentColor" opacity="1"/></g>
</svg>