<svg width="24" height="24" viewBox="0 0 24 24" fill="none" xmlns="http://www.w3.org/2000/svg">
  <title>Scooter foot break (filled)</title>
  <g transform="matrix(
          1 0
          0 1
          0 3
        )"><path fill-rule="nonzero" clip-rule="nonzero" d="M14.5 5C11.43 5 8.85 7.13 8.18 10L6.14 10C6.85 6.03 10.33 3 14.5 3C16.52 3 18.48 3.73001 20.03 5.04001L21.97 2.76001C19.88 0.98001 17.23 0 14.5 0C8.67 0 3.85 4.37 3.11 10L0 10L0 13L8.18 13C8.85 15.87 11.43 18 14.5 18C18.09 18 21 15.09 21 11.5C21 7.91 18.09 5 14.5 5ZM14.5 13.5C13.4 13.5 12.5 12.6 12.5 11.5C12.5 10.4 13.4 9.5 14.5 9.5C15.6 9.5 16.5 10.4 16.5 11.5C16.5 12.6 15.6 13.5 14.5 13.5Z" fill="currentColor" opacity="1"/></g>
</svg>