<svg width="24" height="24" viewBox="0 0 24 24" fill="none" xmlns="http://www.w3.org/2000/svg">
  <title>Fan (outlined)</title>
  <g transform="matrix(
          1 0
          0 1
          1 1
        )"><path fill-rule="nonzero" clip-rule="nonzero" d="M19 9L17.3 9C17.7 8.1 18 7.1 18 6C18 2.7 15.3 0 12 0C10.3 0 9 1.3 9 3L9 4.7C8.1 4.3 7.1 4 6 4C2.7 4 0 6.7 0 10C0 11.7 1.3 13 3 13L4.7 13C4.3 13.9 4 14.9 4 16C4 19.3 6.7 22 10 22C11.7 22 13 20.7 13 19L13 17.3C13.9 17.7 14.9 18 16 18C19.3 18 22 15.3 22 12C22 10.3 20.7 9 19 9ZM3 10C3 8.3 4.3 7 6 7C7.9 7 9.4 8.3 9.9 10L3 10ZM10 19C8.3 19 7 17.7 7 16C7 14.1 8.3 12.6 10 12.1L10 19ZM12 9.89999L12 3C13.7 3 15 4.3 15 6C15 7.9 13.7 9.39999 12 9.89999ZM16 15C14.1 15 12.6 13.7 12.1 12L19 12C19 13.7 17.7 15 16 15Z" fill="currentColor" opacity="1"/></g>
</svg>