<svg width="24" height="24" viewBox="0 0 24 24" fill="none" xmlns="http://www.w3.org/2000/svg">
  <title>Scissors (filled)</title>
  <g transform="matrix(
          1 0
          0 1
          2 3
        )"><path fill-rule="nonzero" clip-rule="nonzero" d="M19.83 1.16L10 6.07L8.88 5.51C8.95 5.18 9 4.85 9 4.5C9 2.02 6.98 0 4.5 0C2.02 0 0 2.02 0 4.5C0 6.98 2.02 9 4.5 9C2.02 9 0 11.02 0 13.5C0 15.98 2.02 18 4.5 18C6.98 18 9 15.98 9 13.5C9 13.15 8.95 12.82 8.88 12.49L10 11.93L19.83 16.84L21.17 14.16L10.85 9L21.17 3.84L19.83 1.16ZM3 4.5C3 3.67 3.67 3 4.5 3C5.33 3 6 3.67 6 4.5C6 5.33 5.33 6 4.5 6C3.67 6 3 5.33 3 4.5ZM4.5 15C3.67 15 3 14.33 3 13.5C3 12.67 3.67 12 4.5 12C5.33 12 6 12.67 6 13.5C6 14.33 5.33 15 4.5 15Z" fill="currentColor" opacity="1"/></g>
</svg>