<svg width="24" height="24" viewBox="0 0 24 24" fill="none" xmlns="http://www.w3.org/2000/svg">
  <title>Arrow clockwise pill (filled)</title>
  <g transform="matrix(
          1 0
          0 1
          1 2
        )"><path fill-rule="nonzero" clip-rule="nonzero" d="M16 4.1L16 7.2C17.7 7.6 19 9.2 19 11.1C19 13.3 17.2 15.1 15 15.1L7 15.1C4.8 15.1 3 13.3 3 11.1C3 8.9 4.8 7.1 7 7.1L9.3 7.1L6.2 11.1L9.7 11.1L13.9 5.6L9.7 0L6.3 0L9.4 4L7 4C3.1 4 0 7.1 0 11C0 14.9 3.1 18 7 18L15 18C18.9 18 22 14.9 22 11C22 7.5 19.4 4.6 16 4.1Z" fill="currentColor" opacity="1"/></g>
</svg>