<svg width="24" height="24" viewBox="0 0 24 24" fill="none" xmlns="http://www.w3.org/2000/svg">
  <title>Arrow clockwise (filled)</title>
  <g transform="matrix(
          1 0
          0 1
          3 0
        )"><path fill-rule="nonzero" clip-rule="nonzero" d="M14.9 13C14.9 16.3 12.2 19 8.9 19C5.6 19 2.9 16.3 2.9 13C2.9 9.7 5.6 7 8.9 7C9.3 7 9.8 7.1 10.2 7.2L6.7 12L10.4 12L14.8 6L10.4 0L6.7 0L9.7 4C9.5 4 9.20001 4 9.00001 4C4.00001 4 0 8 0 13C0 18 4.00001 22 9.00001 22C14 22 18 18 18 13L14.9 13Z" fill="currentColor" opacity="1"/></g>
</svg>