<svg width="24" height="24" viewBox="0 0 24 24" fill="none" xmlns="http://www.w3.org/2000/svg">
  <title>Radioactive (filled)</title>
  <g transform="matrix(
          1 0
          0 1
          1 2.47998046875
        )"><path fill-rule="nonzero" clip-rule="nonzero" d="M8.5 5.19C7 6.06 6 7.67 6 9.52L0 9.52C0 5.45 2.22 1.9 5.5 0L8.5 5.19Z" fill="currentColor" opacity="1"/></g>,<g transform="matrix(
          1 0
          0 1
          14.5 2.47998046875
        )"><path fill-rule="nonzero" clip-rule="nonzero" d="M8.5 9.52L2.5 9.52C2.5 7.67 1.5 6.06 0 5.19L3 0C6.28 1.9 8.5 5.45 8.5 9.52Z" fill="currentColor" opacity="1"/></g>,<g transform="matrix(
          1 0
          0 1
          6.5 16.330078125
        )"><path fill-rule="nonzero" clip-rule="nonzero" d="M11 5.19C9.38 6.13 7.5 6.67 5.5 6.67C3.5 6.67 1.62 6.13 0 5.19L3 0C4.52 0.89 6.48 0.89 8 0L11 5.19Z" fill="currentColor" opacity="1"/></g>,<g transform="matrix(
          1 0
          0 1
          9 9
        )"><path fill-rule="nonzero" clip-rule="nonzero" d="M3 6C4.65685 6 6 4.65685 6 3C6 1.34315 4.65685 0 3 0C1.34315 0 0 1.34315 0 3C0 4.65685 1.34315 6 3 6Z" fill="currentColor" opacity="1"/></g>
</svg>