<svg width="24" height="24" viewBox="0 0 24 24" fill="none" xmlns="http://www.w3.org/2000/svg">
  <title>Weather sun (outlined)</title>
  <g transform="matrix(
          1 0
          0 1
          1 1
        )"><path fill-rule="evenodd" clip-rule="evenodd" d="M12.5 0L9.5 0L9.5 3L12.5 3L12.5 0ZM3 9.5L0 9.5L0 12.5L3 12.5L3 9.5ZM9.5 22L9.5 19L12.5 19L12.5 22L9.5 22ZM22 9.5L19 9.5L19 12.5L22 12.5L22 9.5ZM15.5571 4.33887L17.6784 2.21757L19.7997 4.33887L17.6784 6.46017L15.5571 4.33887ZM4.24288 15.6031L2.12158 17.7244L4.24288 19.8457L6.36418 17.7244L4.24288 15.6031ZM15.6191 17.8569L17.7407 15.7359L19.8617 17.8575L17.7401 19.9785L15.6191 17.8569ZM4.355 2.30014L2.2334 4.42114L4.3544 6.54274L6.476 4.42174L4.355 2.30014ZM5 11C5 7.7 7.7 5 11 5C14.3 5 17 7.7 17 11C17 14.3 14.3 17 11 17C7.7 17 5 14.3 5 11ZM8 11C8 12.7 9.3 14 11 14C12.7 14 14 12.7 14 11C14 9.3 12.7 8 11 8C9.3 8 8 9.3 8 11Z" fill="currentColor" opacity="1"/></g>
</svg>