<svg width="24" height="24" viewBox="0 0 24 24" fill="none" xmlns="http://www.w3.org/2000/svg">
  <title>Arrow roundabout left (filled)</title>
  <g transform="matrix(
          1 0
          0 1
          0.14013671875 2
        )"><path fill-rule="nonzero" clip-rule="nonzero" d="M21.86 6.5C21.86 2.92 18.94 0 15.36 0C12.29 0 9.72 2.14 9.04 5L4.54 5L7.36 1L4.03 1L0 6.5L4.03 12L7.36 12L4.54 8L9.04 8C9.61 10.38 11.48 12.25 13.86 12.82L13.86 20L16.86 20L16.86 12.82C19.72 12.14 21.86 9.57 21.86 6.5ZM15.36 10C13.43 10 11.86 8.43 11.86 6.5C11.86 4.57 13.43 3 15.36 3C17.29 3 18.86 4.57 18.86 6.5C18.86 8.43 17.29 10 15.36 10Z" fill="currentColor" opacity="1"/></g>
</svg>