<svg width="24.000076293945312" height="24" viewBox="0 0 24 24" fill="none" xmlns="http://www.w3.org/2000/svg">
  <title>Location share (filled)</title>
  <g transform="matrix(
          1 0
          0 1
          0.07250964641571045 3.5999755859375
        )"><path fill-rule="nonzero" clip-rule="nonzero" d="M5.5175 2L3.5175 0C-1.1725 4.6 -1.1725 12.2 3.5175 16.9L5.5175 14.9C2.0175 11.3 2.0175 5.5 5.5175 2Z" fill="currentColor" opacity="1"/>
<path fill-rule="nonzero" clip-rule="nonzero" d="M20.3375 0L18.3375 2C21.8375 5.5 21.8375 11.3 18.3375 14.9L20.3375 16.9C25.0275 12.2 25.0275 4.6 20.3375 0Z" fill="currentColor" opacity="1"/>
<path fill-rule="evenodd" clip-rule="evenodd" d="M6.97749 13.35L11.9275 18.3L16.8775 13.35C19.6075 10.62 19.6075 6.17997 16.8775 3.44997C14.1475 0.719966 9.70749 0.719966 6.97749 3.44997C4.24749 6.17997 4.24749 10.62 6.97749 13.35ZM13.9275 8.40002C13.9275 9.50459 13.0321 10.4 11.9275 10.4C10.8229 10.4 9.92749 9.50459 9.92749 8.40002C9.92749 7.29545 10.8229 6.40002 11.9275 6.40002C13.0321 6.40002 13.9275 7.29545 13.9275 8.40002Z" fill="currentColor" opacity="1"/></g>
</svg>