<svg width="24" height="24" viewBox="0 0 24 24" fill="none" xmlns="http://www.w3.org/2000/svg">
  <title>Headset (filled)</title>
  <g transform="matrix(
          1 0
          0 1
          2 1
        )"><path fill-rule="nonzero" clip-rule="nonzero" d="M10 0C4.49 0 0 4.49 0 10L0 12C0 17.51 4.49 22 10 22L10 19C7.21 19 4.8 17.36 3.68 15L6 15L6 8L3.29 8C4.15 5.11 6.83 3 10 3C13.17 3 15.85 5.11 16.71 8L14 8L14 15L19.54 15C19.84 14.05 20 13.05 20 12L20 10C20 4.49 15.51 0 10 0Z" fill="currentColor" opacity="1"/></g>
</svg>