<svg width="24" height="24" viewBox="0 0 24 24" fill="none" xmlns="http://www.w3.org/2000/svg">
  <title>Car transmission (filled)</title>
  <g transform="matrix(
          1 0
          0 1
          1.5 1
        )"><path fill-rule="nonzero" clip-rule="nonzero" d="M21 3C21 1.3 19.7 0 18 0C16.3 0 15 1.3 15 3C15 4.1 15.6 5.10001 16.5 5.60001L16.5 9.5L12 9.5L12 5.60001C12.9 5.10001 13.5 4.1 13.5 3C13.5 1.3 12.2 0 10.5 0C8.8 0 7.5 1.3 7.5 3C7.5 4.1 8.1 5.10001 9 5.60001L9 9.5L4.5 9.5L4.5 5.60001C5.4 5.10001 6 4.1 6 3C6 1.3 4.7 0 3 0C1.3 0 0 1.3 0 3C0 4.1 0.6 5.10001 1.5 5.60001L1.5 16.4C0.6 16.9 0 17.9 0 19C0 20.7 1.3 22 3 22C4.7 22 6 20.7 6 19C6 17.9 5.4 16.9 4.5 16.4L4.5 12.5L9 12.5L9 16.4C8.1 16.9 7.5 17.9 7.5 19C7.5 20.7 8.8 22 10.5 22C12.2 22 13.5 20.7 13.5 19C13.5 17.9 12.9 16.9 12 16.4L12 12.5L19.5 12.5L19.5 5.60001C20.4 5.10001 21 4.1 21 3Z" fill="currentColor" opacity="1"/></g>
</svg>