<svg width="24" height="24" viewBox="0 0 24 24" fill="none" xmlns="http://www.w3.org/2000/svg">
  <title>Truck exit (outlined)</title>
  <g transform="matrix(
          1 0
          0 1
          1 1
        )"><path fill-rule="nonzero" clip-rule="nonzero" d="M17 10L17 13L13 13L13 16L17 16L17 17L5 17L5 16L9 16L9 13L5 13L5 8L12 8L12 5L4 5L4 3L12 3L12 0L1 0L1 9L0 9L0 15L2 15L2 22L6 22L6 20L16 20L16 22L20 22L20 15L22 15L22 10L17 10Z" fill="currentColor" opacity="1"/></g>,<g transform="matrix(
          1 0
          0 1
          15 0
        )"><path fill-rule="nonzero" clip-rule="nonzero" d="M2.22 9L5.70001 9L9 4.5L5.70001 0L2.22 0L4.42001 3L0 3L0 6L4.42001 6L2.22 9Z" fill="currentColor" opacity="1"/></g>
</svg>