<svg width="24" height="24" viewBox="0 0 24 24" fill="none" xmlns="http://www.w3.org/2000/svg">
  <title>Dashboard (filled)</title>
  <g transform="matrix(
          1 0
          0 1
          2 2
        )"><path fill-rule="nonzero" clip-rule="nonzero" d="M7 0L0 0L0 7L7 7L7 0Z" fill="currentColor" opacity="1"/></g>,<g transform="matrix(
          1 0
          0 1
          11 2
        )"><path fill-rule="nonzero" clip-rule="nonzero" d="M11 0L0 0L0 7L11 7L11 0Z" fill="currentColor" opacity="1"/></g>,<g transform="matrix(
          1 0
          0 1
          2 11
        )"><path fill-rule="nonzero" clip-rule="nonzero" d="M12 0L0 0L0 11L12 11L12 0Z" fill="currentColor" opacity="1"/></g>,<g transform="matrix(
          1 0
          0 1
          16 11
        )"><path fill-rule="nonzero" clip-rule="nonzero" d="M6 0L0 0L0 11L6 11L6 0Z" fill="currentColor" opacity="1"/></g>
</svg>