<svg width="24" height="24" viewBox="0 0 24 24" fill="none" xmlns="http://www.w3.org/2000/svg">
  <title>Restroom (outlined)</title>
  <g transform="matrix(
          1 0
          0 1
          1 1
        )"><path fill-rule="evenodd" clip-rule="evenodd" d="M7 2.5C7 3.88071 5.88071 5 4.5 5C3.11929 5 2 3.88071 2 2.5C2 1.11929 3.11929 0 4.5 0C5.88071 0 7 1.11929 7 2.5ZM5 22L8 22L8 17L9 17L9 9.5C9 7.6 7.4 6 5.5 6L3.5 6C1.6 6 0 7.6 0 9.5L0 17L1 17L1 22L4 22L4 14L3 14L3 9.5C3 9.2 3.2 9 3.5 9L5.5 9C5.8 9 6 9.2 6 9.5L6 14L5 14L5 22ZM21 22L18 22L18 15L19.9 15L19.2 9.40002C19.2 9.10002 19 9 18.7 9L16.3 9C16 9 15.8 9.20002 15.8 9.40002L15.1 15L17 15L17 22L14 22L14 18L12 18L12 15.8L12.8 9.09998C13 7.29998 14.5 6 16.3 6L18.7 6C20.5 6 22 7.29998 22.2 9.09998L23 16L23 18L21 18L21 22ZM20 2.5C20 3.88071 18.8807 5 17.5 5C16.1193 5 15 3.88071 15 2.5C15 1.11929 16.1193 0 17.5 0C18.8807 0 20 1.11929 20 2.5Z" fill="currentColor" opacity="1"/></g>
</svg>