<svg width="24" height="24" viewBox="0 0 24 24" fill="none" xmlns="http://www.w3.org/2000/svg">
  <title>Route flag (outlined)</title>
  <g transform="matrix(
          1 0
          0 1
          1 1
        )"><path fill-rule="evenodd" clip-rule="evenodd" d="M8 0L22 0L19 5L22 10L8 10L8 0ZM11 7L16.7002 7L15.5 5L16.7002 3L11 3L11 7ZM4.5 13L16.5 13C19 13 21 15 21 17.5C21 20 19 22 16.5 22L4 22L4 19L16.5 19C17.3 19 18 18.3 18 17.5C18 16.7 17.3 16 16.5 16L4.5 16C2 16 0 14 0 11.5C0 9 2 7 4.5 7L6 7L6 10L4.5 10C3.7 10 3 10.7 3 11.5C3 12.3 3.7 13 4.5 13Z" fill="currentColor" opacity="1"/></g>
</svg>