<svg width="24" height="24" viewBox="0 0 24 24" fill="none" xmlns="http://www.w3.org/2000/svg">
  <title>Car side (outlined)</title>
  <g transform="matrix(
          1 0
          0 1
          1 1
        )"><path fill-rule="nonzero" clip-rule="nonzero" d="M21.9004 11.9457C21.9004 9.15838 19.9092 6.76923 17.2214 6.27149L11.0498 5.0769L4.47962 0L0 0L0 2.98643L3.48415 2.98643L9.85506 7.86429L16.7237 9.25792C18.0178 9.55656 19.0136 10.6516 19.0136 12.0452L19.0136 15.0317L13.8369 15.0317C13.1401 12.7421 11.0498 11.0498 8.56114 11.0498C6.07247 11.0498 3.98169 12.7421 3.28486 15.0317L0.0996443 15.0317L0.0996443 18.0181L3.28486 18.0181C3.98169 20.3077 6.07247 22 8.56114 22C11.0498 22 13.1401 20.3077 13.8369 18.0181L22 18.0181L22 11.9457L21.9004 11.9457ZM8.4615 18.914C7.06784 18.914 5.97282 17.819 5.97282 16.4254C5.97282 15.0317 7.06784 13.9367 8.4615 13.9367C9.85516 13.9367 10.9502 15.0317 10.9502 16.4254C10.9502 17.819 9.85516 18.914 8.4615 18.914Z" fill="currentColor" opacity="1"/></g>
</svg>