<svg width="24" height="24" viewBox="0 0 24 24" fill="none" xmlns="http://www.w3.org/2000/svg">
  <title>Lock open (filled)</title>
  <g transform="matrix(
          1 0
          0 1
          3 1.0999755859375
        )"><path fill-rule="nonzero" clip-rule="nonzero" d="M6 7.90002L6 5.90002C6 4.20002 7.4 2.90002 9 2.90002C10.1 2.90002 11.2 3.50004 11.7 4.60004L14.3999 3.30005C13.3999 1.30005 11.3 0 9 0C5.7 0 3 2.7 3 6L3 8L0 8L0 22L18 22L18 8L6 8L6 7.90002ZM11 15.9L7 15.9L7 12.9L11 12.9L11 15.9Z" fill="currentColor" opacity="1"/></g>
</svg>