<svg width="24" height="24" viewBox="0 0 24 24" fill="none" xmlns="http://www.w3.org/2000/svg">
  <title>Lock open (outlined)</title>
  <g transform="matrix(
          1 0
          0 1
          3 1.0999755859375
        )"><path fill-rule="evenodd" clip-rule="evenodd" d="M6 5.90002L6 6.90002L6 7L18 7L18 22L0 22L0 7L3 7L3 6C3 2.7 5.7 0 9 0C11.3 0 13.3999 1.20005 14.3999 3.30005L11.7 4.60004C11.2 3.50004 10.1 2.90002 9 2.90002C7.3 2.90002 6 4.20002 6 5.90002ZM3 9.90002L3 18.9L15 18.9L15 9.90002L3 9.90002ZM7.5 15.9L7.5 12.9L10.5 12.9L10.5 15.9L7.5 15.9Z" fill="currentColor" opacity="1"/></g>
</svg>