<svg width="24" height="24" viewBox="0 0 24 24" fill="none" xmlns="http://www.w3.org/2000/svg">
  <title>Location share (outlined)</title>
  <g transform="matrix(
          1 0
          0 1
          0.06500244140625 3.5999755859375
        )"><path fill-rule="nonzero" clip-rule="nonzero" d="M3.525 0L5.525 2C2.025 5.5 2.025 11.3 5.525 14.9L3.525 16.9C-1.175 12.2 -1.175 4.6 3.525 0Z" fill="currentColor" opacity="1"/>
<path fill-rule="nonzero" clip-rule="nonzero" d="M20.345 0L18.345 2C21.845 5.5 21.845 11.3 18.345 14.9L20.345 16.9C25.045 12.2 25.045 4.6 20.345 0Z" fill="currentColor" opacity="1"/>
<path fill-rule="nonzero" clip-rule="nonzero" d="M11.935 9.90002C12.7634 9.90002 13.435 9.22845 13.435 8.40002C13.435 7.5716 12.7634 6.90002 11.935 6.90002C11.1066 6.90002 10.435 7.5716 10.435 8.40002C10.435 9.22845 11.1066 9.90002 11.935 9.90002Z" fill="currentColor" opacity="1"/>
<path fill-rule="evenodd" clip-rule="evenodd" d="M6.985 3.45002C8.355 2.08002 10.145 1.40002 11.935 1.40002C13.725 1.40002 15.515 2.08002 16.885 3.45002C19.615 6.18003 19.615 10.62 16.885 13.35L11.935 18.3L6.985 13.35C4.255 10.62 4.255 6.18003 6.985 3.45002ZM14.765 5.57002C14.005 4.82002 13.005 4.40002 11.935 4.40002C10.865 4.40002 9.865 4.82002 9.105 5.57002C7.545 7.13002 7.545 9.67002 9.105 11.23L11.935 14.06L14.765 11.23C16.325 9.67002 16.325 7.13002 14.765 5.57002Z" fill="currentColor" opacity="1"/></g>
</svg>