<svg width="24" height="24" viewBox="0 0 24 24" fill="none" xmlns="http://www.w3.org/2000/svg">
  <title>Face neutral (outlined)</title>
  <g transform="matrix(
          1 0
          0 1
          1 1
        )"><path fill-rule="nonzero" clip-rule="nonzero" d="M11 0C4.92 0 0 4.92 0 11C0 17.08 4.92 22 11 22C17.08 22 22 17.08 22 11C22 4.92 17.08 0 11 0ZM11 19C6.59 19 3 15.41 3 11C3 6.59 6.59 3 11 3C15.41 3 19 6.59 19 11C19 15.41 15.41 19 11 19Z" fill="currentColor" opacity="1"/></g>,<g transform="matrix(
          1 0
          0 1
          7 8.5
        )"><path fill-rule="nonzero" clip-rule="nonzero" d="M1.75 3.5C2.7165 3.5 3.5 2.7165 3.5 1.75C3.5 0.783502 2.7165 0 1.75 0C0.783502 0 0 0.783502 0 1.75C0 2.7165 0.783502 3.5 1.75 3.5Z" fill="currentColor" opacity="1"/></g>,<g transform="matrix(
          1 0
          0 1
          13.5 8.5
        )"><path fill-rule="nonzero" clip-rule="nonzero" d="M1.75 3.5C2.7165 3.5 3.5 2.7165 3.5 1.75C3.5 0.783502 2.7165 0 1.75 0C0.783502 0 0 0.783502 0 1.75C0 2.7165 0.783502 3.5 1.75 3.5Z" fill="currentColor" opacity="1"/></g>,<g transform="matrix(
          1 0
          0 1
          7.5 14
        )"><path fill-rule="nonzero" clip-rule="nonzero" d="M7.5 0L1.5 0C0.67 0 0 0.67 0 1.5C0 2.33 0.67 3 1.5 3L7.5 3C8.33 3 9 2.33 9 1.5C9 0.67 8.33 0 7.5 0Z" fill="currentColor" opacity="1"/></g>
</svg>