<svg width="24" height="24" viewBox="0 0 24 24" fill="none" xmlns="http://www.w3.org/2000/svg">
  <title>Bike check (outlined)</title>
  <g transform="matrix(
          1 0
          0 1
          0 6
        )"><path fill-rule="nonzero" clip-rule="nonzero" d="M18.56 6.28L15.43 0L11 0L11 3L13.57 3L14.57 5L8.27 5L6.98 2L3 2L3 5L5.01 5L5.46 6.05C5.31 6.04 5.16 6 5 6C2.24 6 0 8.24 0 11C0 13.76 2.24 16 5 16C7.41 16 9.43 14.28 9.9 12L12.1 12C12.56 14.28 14.58 16 17 16C19.76 16 22 13.76 22 11C22 8.79 20.55 6.94 18.56 6.28ZM5 13C3.9 13 3 12.1 3 11C3 9.9 3.9 9 5 9C6.1 9 7 9.9 7 11C7 12.1 6.1 13 5 13ZM9.99 9L9.56 8L11.88 8L10.88 9L9.99 9ZM17 13C15.9 13 15 12.1 15 11C15 9.9 15.9 9 17 9C18.1 9 19 9.9 19 11C19 12.1 18.1 13 17 13Z" fill="currentColor" opacity="1"/></g>,<g transform="matrix(
          1 0
          0 1
          15.509765625 0.010009765625
        )"><path fill-rule="nonzero" clip-rule="nonzero" d="M8.48 1.98L6.5 0L3.49 3.01L1.98 1.5L0 3.48L3.49 6.97L8.48 1.98Z" fill="currentColor" opacity="1"/></g>
</svg>