<svg width="24" height="24" viewBox="0 0 24 24" fill="none" xmlns="http://www.w3.org/2000/svg">
  <title>Currency usd (filled)</title>
  <g transform="matrix(
          1 0
          0 1
          5.4501953125 1
        )"><path fill-rule="nonzero" clip-rule="nonzero" d="M7.02 9.58C4.42 8.71 3.55 8.21 3.55 7C3.55 5.9 4.52 5 5.72 5L6.05 5C7.53 5 8.8 5.93 9.3 7.23L12.12 6.2C11.37 4.21 9.66 2.68 7.55 2.18L7.55 0L4.55 0L4.55 2.13C2.26 2.64 0.550003 4.63 0.550003 7C0.550003 10.58 3.74 11.65 6.08 12.42C8.68 13.29 9.55 13.79 9.55 15C9.55 16.1 8.58 17 7.38 17L6.55 17C4.9 17 3.32 15.9 2.76 14.54L0 15.69C0.89 17.86 3.05 19.56 5.55 19.92L5.55 22L8.55 22L8.55 19.87C10.84 19.36 12.55 17.37 12.55 15C12.55 11.42 9.36 10.35 7.02 9.58Z" fill="currentColor" opacity="1"/></g>
</svg>