<svg width="24" height="24" viewBox="0 0 24 24" fill="none" xmlns="http://www.w3.org/2000/svg">
  <title>Trailer (outlined)</title>
  <g transform="matrix(
          1 0
          0 1
          1 2
        )"><path fill-rule="nonzero" clip-rule="nonzero" d="M20 13L20 5C20 2.2 17.8 0 15 0L0 0L0 16L3.1 16C3.6 18.3 5.6 20 8 20C10.4 20 12.4 18.3 12.9 16L22 16L22 13L20 13ZM8 17C6.9 17 6 16.1 6 15C6 13.9 6.9 13 8 13C9.1 13 10 13.9 10 15C10 16.1 9.1 17 8 17ZM12.6 13C11.8 11.2 10.1 10 8 10C5.9 10 4.2 11.2 3.4 13L3 13L3 3L15 3C16.1 3 17 3.9 17 5L17 13L12.6 13Z" fill="currentColor" opacity="1"/></g>
</svg>