<svg width="24" height="24" viewBox="0 0 24 24" fill="none" xmlns="http://www.w3.org/2000/svg">
  <title>Fingerprint (filled)</title>
  <g transform="matrix(
          1 0
          0 1
          3 1
        )"><path fill-rule="nonzero" clip-rule="nonzero" d="M9 0C4.04 0 0 4.04 0 9L0 20L3 20L3 18L5 18L5 22L8 22L8 9C8 8.45 8.45 8 9 8C9.55 8 10 8.45 10 9L10 22L13 22L13 13L15 13L15 20L18 20L18 9C18 4.04 13.96 0 9 0ZM13 10L13 9C13 6.79 11.21 5 9 5C6.79 5 5 6.79 5 9L5 15L3 15L3 9C3 5.69 5.69 3 9 3C12.31 3 15 5.69 15 9L15 10L13 10Z" fill="currentColor" opacity="1"/></g>
</svg>