<svg width="24" height="24" viewBox="0 0 24 24" fill="none" xmlns="http://www.w3.org/2000/svg">
  <title>Behance (outlined)</title>
  <g transform="matrix(
          1 0
          0 1
          1 1
        )"><path fill-rule="nonzero" clip-rule="nonzero" d="M8.44 11.76C8.2 11.65 7.87 11.6 7.44 11.59L4.99 11.59L4.99 14.25L7.41 14.25C7.84 14.25 8.18 14.19 8.42 14.07C8.86 13.85 9.07 13.44 9.07 12.83C9.07 12.31 8.86 11.96 8.44 11.76ZM15.88 10C15.39 10 15 10.14 14.73 10.42C14.46 10.7 14.29 11.08 14.22 11.56L17.54 11.56C17.5 11.05 17.33 10.66 17.03 10.4C16.72 10.14 16.33 10 15.88 10ZM8.46 9.7C8.73 9.54 8.86 9.24 8.86 8.82C8.86 8.36 8.68 8.05 8.32 7.9C8.01 7.8 7.62 7.74 7.14 7.74L4.99 7.74L4.99 9.94L7.41 9.94C7.84 9.94 8.19 9.86 8.46 9.7ZM0 0L0 22L22 22L22 0L0 0ZM13.2 6.51L18 6.51L18 7.54L13.2 7.54L13.2 6.51ZM10.73 14.56C10.54 14.87 10.31 15.13 10.02 15.34C9.7 15.58 9.33 15.75 8.89 15.84C8.46 15.93 7.99 15.98 7.48 15.98L3 15.98L3 6.02L7.82 6.02C9.04 6.04 9.9 6.39 10.4 7.08C10.7 7.5 10.86 8.01 10.86 8.6C10.86 9.21 10.71 9.7 10.4 10.07C10.23 10.28 9.97 10.47 9.64 10.64C10.15 10.82 10.53 11.12 10.79 11.52C11.05 11.92 11.18 12.41 11.18 12.98C11.17 13.56 11.03 14.09 10.73 14.56ZM14.94 14.39C15.23 14.57 15.59 14.67 16 14.67C16.44 14.67 16.8 14.56 17.07 14.33C17.22 14.21 17.35 14.04 17.47 13.82L19.44 13.82C19.39 14.26 19.15 14.7 18.73 15.15C18.07 15.87 17.15 16.23 15.96 16.23C14.98 16.23 14.11 15.93 13.36 15.32C12.61 14.72 12.24 13.73 12.24 12.37C12.24 11.09 12.58 10.11 13.26 9.43C13.94 8.75 14.82 8.41 15.9 8.41C16.54 8.41 17.12 8.53 17.63 8.76C18.14 8.99 18.57 9.35 18.9 9.85C19.2 10.29 19.4 10.8 19.49 11.37C19.54 11.71 19.56 12.2 19.55 12.83L14.18 12.83C14.2 13.58 14.46 14.09 14.94 14.39Z" fill="currentColor" opacity="1"/></g>
</svg>