<svg width="24" height="24" viewBox="0 0 24 24" fill="none" xmlns="http://www.w3.org/2000/svg">
  <title>Microphone off (outlined)</title>
  <g transform="matrix(
          1 0
          0 1
          2.5 0
        )"><path fill-rule="nonzero" clip-rule="nonzero" d="M19 2.10001L17 0L14.1 2.79999C12.9 1.69999 11.3 1 9.5 1C5.6 1 2.5 4.1 2.5 8L2.5 11C2.5 12 2.7 12.9 3.1 13.8L0 16.9L2.1 19L4.9 16.2C5.8 17 6.8 17.5 8 17.8L8 20L4.5 20L4.5 23L14.5 23L14.5 20L11 20L11 17.8C14.1 17.1 16.5 14.3 16.5 11L16.5 8C16.5 7 16.3 6.10001 15.9 5.20001L19 2.10001ZM5.5 11L5.5 8C5.5 5.8 7.3 4 9.5 4C10.4 4 11.3 4.29999 12 4.89999L5.5 11.4C5.5 11.2 5.5 11.1 5.5 11ZM13.5 8L13.5 11C13.5 13.2 11.7 15 9.5 15C8.6 15 7.7 14.7 7 14.1L13.5 7.60001C13.5 7.80001 13.5 7.9 13.5 8Z" fill="currentColor" opacity="1"/></g>
</svg>