<svg width="24" height="24" viewBox="0 0 24 24" fill="none" xmlns="http://www.w3.org/2000/svg">
  <title>Light bulb (outlined)</title>
  <g transform="matrix(
          1 0
          0 1
          3.5 1
        )"><path fill-rule="nonzero" clip-rule="nonzero" d="M8.5 0C3.8 0 0 3.8 0 8.5C0 9.8 0.300049 11 0.800049 12.1L5.3999 22L11.5 22L16.1001 12.1C16.6001 11 16.8999 9.8 16.8999 8.5C16.9999 3.8 13.2 0 8.5 0ZM13.5 10.8L11.1001 16L6 16L3.6001 10.8C3.3001 10.1 3.1001 9.3 3.1001 8.5C3.1001 5.5 5.6001 3 8.6001 3C11.6001 3 14.1001 5.5 14.1001 8.5C14.0001 9.3 13.8 10.1 13.5 10.8Z" fill="currentColor" opacity="1"/></g>
</svg>