<svg width="24" height="24" viewBox="0 0 24 24" fill="none" xmlns="http://www.w3.org/2000/svg">
  <title>Person share (outlined)</title>
  <g transform="matrix(
          1 0
          0 1
          1 1
        )"><path fill-rule="evenodd" clip-rule="evenodd" d="M16 5C16 7.8 13.8 10 11 10C8.2 10 6 7.8 6 5C6 2.2 8.2 0 11 0C13.8 0 16 2.2 16 5ZM13 5C13 3.9 12.1 3 11 3C9.9 3 9 3.9 9 5C9 6.1 9.9 7 11 7C12.1 7 13 6.1 13 5ZM9 12L16 12C19.3 12 22.0001 14.7 22.1001 18L22.1001 22L19.1001 22L19.1001 18C19.1001 16.3 17.8001 15 16.1001 15L9.7998 15C8.9998 13.9 8.1001 13 7.1001 12.3C7.7001 12.1 8.3 12 9 12ZM0 12L0 15C3.9 15 7 18.1 7 22L10 22C10 16.5 5.5 12 0 12ZM0 20L0 17C2.8 17 5 19.2 5 22L2 22C2 20.9 1.1 20 0 20Z" fill="currentColor" opacity="1"/></g>
</svg>