<svg width="24" height="24" viewBox="0 0 24 24" fill="none" xmlns="http://www.w3.org/2000/svg">
  <title>Hand stop (outlined)</title>
  <g transform="matrix(
          1 0
          0 1
          2 0
        )"><path fill-rule="nonzero" clip-rule="nonzero" d="M17 7C16.7 7 16.3 7.00001 16 7.10001L16 5C16 2.8 14.2 1 12 1C11.6 1 11.2 1.1 10.8 1.2C10.1 0.499997 9.1 0 8 0C6.3 0 4.90005 1 4.30005 2.5C4.20005 2.5 4.1 2.5 4 2.5C1.8 2.5 0 4.3 0 6.5L0 15.1C0 20 4.00002 24 8.90002 24L10.3 24C14.2 24 17.8 21.7 19.4 18.1C20.1 16.5 20.5 14.8 20.5 13L20.5 10.5C20.5 8.6 18.9 7 17 7ZM17.5 13C17.5 14.3 17.2 15.6 16.7 16.9C15.6 19.4 13.1 21.1 10.3 21.1L8.90002 21.1C5.60002 21.1 3 18.4 3 15.2L3 6.60001C3 6.10001 3.4 5.60001 4 5.60001C4.6 5.60001 5 6.10001 5 6.60001L5 13.1L7 13.1L7 4.10001C7 3.60001 7.4 3.10001 8 3.10001C8.6 3.10001 9 3.60001 9 4.10001L9 13.1L11 13.1L11 5.10001C11 4.60001 11.4 4.10001 12 4.10001C12.6 4.10001 13 4.60001 13 5.10001L13 14.1L14 14.1C14.6 14.1 15 13.7 15 13.1L15 12.1C15 11 15.9 10.1 17 10.1C17.3 10.1 17.5 10.3 17.5 10.6L17.5 13Z" fill="currentColor" opacity="1"/></g>
</svg>