<svg width="24" height="24" viewBox="0 0 24 24" fill="none" xmlns="http://www.w3.org/2000/svg">
  <title>Arrow roundabout right sharp (filled)</title>
  <g transform="matrix(
          1 0
          0 1
          3 2
        )"><path fill-rule="nonzero" clip-rule="nonzero" d="M0 6.5C0 2.92 2.92 0 6.5 0C10.08 0 13 2.92 13 6.5C13 7.21 12.88 7.9 12.67 8.54L17.33 13.2L17 8.88L20 11.88L20 18L13.88 18L10.88 15L15.2 15.33L11.03 11.16C10.2 11.97 9.16 12.55 8 12.83L8 20L5 20L5 12.82C2.14 12.14 0 9.57 0 6.5ZM6.5 10C8.43 10 10 8.43 10 6.5C10 4.57 8.43 3 6.5 3C4.57 3 3 4.57 3 6.5C3 8.43 4.57 10 6.5 10Z" fill="currentColor" opacity="1"/></g>
</svg>