<svg width="24" height="24" viewBox="0 0 24 24" fill="none" xmlns="http://www.w3.org/2000/svg">
  <title>Android (outlined)</title>
  <g transform="matrix(
          1 0
          0 1
          3 2
        )"><path fill-rule="evenodd" clip-rule="evenodd" d="M12.297 1.41487L12.0636 1.75812C13.8346 2.56192 15.0335 4.08434 15.0335 5.82653L3.34167 5.82653C3.34167 4.08434 4.54054 2.56192 6.31283 1.75812L6.07814 1.41487L5.8447 1.07655L5.32456 0.315967C5.26113 0.222127 5.28777 0.096184 5.38292 0.0344483C5.47934 -0.0272873 5.60874 -0.00259046 5.67344 0.0912446L6.46634 1.24818L6.70358 1.59637C7.45842 1.31115 8.30079 1.15187 9.18758 1.15187C10.0756 1.15187 10.9167 1.31115 11.6716 1.59637L12.7043 0.0912446C12.7664 -0.00259046 12.8971 -0.0285211 12.9922 0.0344483C13.0887 0.096184 13.1153 0.222127 13.0506 0.315967L12.5305 1.07655L12.297 1.41487ZM11.0663 3.59053C11.0663 3.9276 11.3467 4.20048 11.693 4.20048C12.0393 4.20048 12.3197 3.9276 12.3197 3.59053C12.3197 3.25345 12.0393 2.98181 11.693 2.98181C11.3467 2.98181 11.0663 3.25345 11.0663 3.59053ZM6.68189 4.20048C6.33555 4.20048 6.05518 3.9276 6.05518 3.59053C6.05518 3.25345 6.33555 2.98181 6.68189 2.98181C7.02822 2.98181 7.3086 3.25345 7.3086 3.59053C7.3086 3.9276 7.02822 4.20048 6.68189 4.20048Z" fill="currentColor" opacity="1"/>
<path fill-rule="nonzero" clip-rule="nonzero" d="M3.34167 6.63904L15.0335 6.63904L15.0335 15.5809C15.0335 16.2909 14.4423 16.8687 13.7116 16.8687L12.7563 16.8687C12.7892 16.9761 12.8083 17.0885 12.8083 17.207L12.8083 19.7814C12.8083 20.4543 12.2463 21.0001 11.5536 21.0001C10.8622 21.0001 10.3014 20.4543 10.3014 19.7814L10.3014 17.207C10.3014 17.0885 10.3192 16.9761 10.3509 16.8687L8.02423 16.8687C8.05595 16.9761 8.07498 17.0885 8.07498 17.207L8.07498 19.7814C8.07498 20.4543 7.51297 21.0001 6.82156 21.0001C6.13015 21.0001 5.56814 20.4543 5.56814 19.7814L5.56814 17.207C5.56814 17.0885 5.5859 16.9761 5.61889 16.8687L4.66487 16.8687C3.93413 16.8687 3.34167 16.2909 3.34167 15.5809L3.34167 6.63904Z" fill="currentColor" opacity="1"/>
<path fill-rule="nonzero" clip-rule="nonzero" d="M1.25342 6.63904C0.56074 6.63904 0 7.18479 0 7.85771L0 13.0744C0 13.7473 0.56074 14.2931 1.25342 14.2931C1.94483 14.2931 2.50557 13.7473 2.50557 13.0744L2.50557 7.85771C2.50557 7.18479 1.94483 6.63904 1.25342 6.63904Z" fill="currentColor" opacity="1"/>
<path fill-rule="nonzero" clip-rule="nonzero" d="M15.8695 7.85771C15.8695 7.18479 16.4302 6.63904 17.1229 6.63904C17.8143 6.63904 18.3751 7.18479 18.3751 7.85771L18.3751 13.0744C18.3751 13.7473 17.8143 14.2931 17.1229 14.2931C16.4302 14.2931 15.8695 13.7473 15.8695 13.0744L15.8695 7.85771Z" fill="currentColor" opacity="1"/></g>
</svg>