<svg width="24" height="24" viewBox="0 0 24 24" fill="none" xmlns="http://www.w3.org/2000/svg">
  <title>Moped (outlined)</title>
  <g transform="matrix(
          1 0
          0 1
          0 3
        )"><path fill-rule="nonzero" clip-rule="nonzero" d="M21.05 7.45L22.82 5.68C21.23 2.14 18.42 0 15.25 0L15 0L15 3L15.25 3C16.27 3 17.17 3.39 17.93 4L13.34 9L11.62 9L6.62 4L0 4L0 7L5 7C2.24 7 0 9.24 0 12C0 14.76 2.24 17 5 17C7.05 17 8.81 15.76 9.58 14L14.42 14C15.19 15.76 16.95 17 19 17C21.76 17 24 14.76 24 12C24 9.97 22.79 8.23 21.05 7.45ZM5 14C3.9 14 3 13.1 3 12C3 10.9 3.9 10 5 10C6.1 10 7 10.9 7 12C7 13.1 6.1 14 5 14ZM19 14C17.9 14 17 13.1 17 12C17 10.9 17.9 10 19 10C20.1 10 21 10.9 21 12C21 13.1 20.1 14 19 14Z" fill="currentColor" opacity="1"/></g>
</svg>