<svg width="24" height="24" viewBox="0 0 24 24" fill="none" xmlns="http://www.w3.org/2000/svg">
  <title>Escalator up (outlined)</title>
  <g transform="matrix(
          1 0
          0 1
          1 1
        )"><path fill-rule="evenodd" clip-rule="evenodd" d="M7 5L2.19995 9.70001L0.300049 7.79999L5 3L0.5 3L3.5 0L10 0L10 6.5L7 9.5L7 5ZM0 14L6 14L14 6L22 6L22 14L17 14L9 22L0 22L0 14ZM15.8 11L19 11L19 9L15.2 9L7.19995 17L3 17L3 19L7.80005 19L15.8 11Z" fill="currentColor" opacity="1"/></g>
</svg>