<svg width="24" height="24" viewBox="0 0 24 24" fill="none" xmlns="http://www.w3.org/2000/svg">
  <title>Job busser (filled)</title>
  <g transform="matrix(
          1 0
          0 1
          1 2
        )"><path fill-rule="nonzero" clip-rule="nonzero" d="M8 9.79999C8 9.89999 8 10 8 10L0.4 10C0.1 9.2 0 8.4 0 7.5C0 3.4 3.4 0 7.5 0C9.7 0 11.7 1 13.1 2.5C10.1 3.6 8 6.39999 8 9.79999Z" fill="currentColor" opacity="1"/></g>,<g transform="matrix(
          1 0
          0 1
          11 6
        )"><path fill-rule="nonzero" clip-rule="nonzero" d="M11.5 5.79999C11.5 5.89999 11.5 6 11.5 6L0 6C0 5.9 0 5.79999 0 5.79999C0 2.59999 2.6 0 5.8 0C9 0 11.5 2.59999 11.5 5.79999Z" fill="currentColor" opacity="1"/></g>,<g transform="matrix(
          1 0
          0 1
          1 14
        )"><path fill-rule="nonzero" clip-rule="nonzero" d="M22 0L0 0L0 3C0 5.8 2.2 8 5 8L17 8C19.8 8 22 5.8 22 3L22 0Z" fill="currentColor" opacity="1"/></g>
</svg>