<svg width="24" height="24" viewBox="0 0 24 24" fill="none" xmlns="http://www.w3.org/2000/svg">
  <title>Massage chair (outlined)</title>
  <g transform="matrix(
          1 0
          0 1
          7.25 6.1298828125
        )"><path fill-rule="nonzero" clip-rule="nonzero" d="M3.75 5.87L10.75 5.87C10.75 4.21 9.41 2.87 7.75 2.87L4.99 2.87L2.12 0L0 2.12L3.75 5.87Z" fill="currentColor" opacity="1"/></g>,<g transform="matrix(
          1 0
          0 1
          3 1
        )"><path fill-rule="nonzero" clip-rule="nonzero" d="M2.5 5C3.88071 5 5 3.88071 5 2.5C5 1.11929 3.88071 0 2.5 0C1.11929 0 0 1.11929 0 2.5C0 3.88071 1.11929 5 2.5 5Z" fill="currentColor" opacity="1"/></g>,<g transform="matrix(
          1 0
          0 1
          0.449951171875 6.43994140625
        )"><path fill-rule="nonzero" clip-rule="nonzero" d="M23.11 12.5L19.49 8.88C18.64 8.03 17.51 7.56 16.31 7.56L9.72 7.56L2.11 0L0 2.13L5.55 7.65L5.55 16.56L17.55 16.56L17.55 11.18L20.99 14.62L23.11 12.5ZM8.55 13.56L8.55 10.56L14.55 10.56L14.55 13.56L8.55 13.56Z" fill="currentColor" opacity="1"/></g>
</svg>