<svg width="24" height="24" viewBox="0 0 24 24" fill="none" xmlns="http://www.w3.org/2000/svg">
  <title>Beta (filled)</title>
  <g transform="matrix(
          1 0
          0 1
          7 1
        )"><path fill-rule="nonzero" clip-rule="nonzero" d="M8.85 8.14999C9.56 7.28999 10 6.2 10 5C10 2.24 7.76 0 5 0C2.24 0 0 2.24 0 5L0 22L3 22L3 17.39C3.75 17.78 4.6 18 5.5 18C8.53 18 11 15.53 11 12.5C11 10.73 10.16 9.15999 8.85 8.14999ZM5.5 15C4.12 15 3 13.88 3 12.5L3 5C3 3.9 3.9 3 5 3C6.1 3 7 3.9 7 5C7 6.1 6.1 7 5 7L5 10C5.17 10 5.33 9.97 5.5 9.95L5.5 10C6.88 10 8 11.12 8 12.5C8 13.88 6.88 15 5.5 15Z" fill="currentColor" opacity="1"/></g>
</svg>