<svg width="24" height="24" viewBox="0 0 24 24" fill="none" xmlns="http://www.w3.org/2000/svg">
  <title>Figma (filled)</title>
  <g transform="matrix(
          1 0
          0 1
          5 1
        )"><path fill-rule="nonzero" clip-rule="nonzero" d="M0 3C0 4.66 1.34 6 3 6L6 6L6 0L3 0C1.34 0 0 1.34 0 3Z" fill="currentColor" opacity="1"/></g>,<g transform="matrix(
          1 0
          0 1
          5 9
        )"><path fill-rule="nonzero" clip-rule="nonzero" d="M0 3C0 4.66 1.34 6 3 6L6 6L6 0L3 0C1.34 0 0 1.34 0 3Z" fill="currentColor" opacity="1"/></g>,<g transform="matrix(
          1 0
          0 1
          5 17
        )"><path fill-rule="nonzero" clip-rule="nonzero" d="M0 3C0 4.66 1.34 6 3 6C4.66 6 6 4.66 6 3L6 0L3 0C1.34 0 0 1.34 0 3Z" fill="currentColor" opacity="1"/></g>,<g transform="matrix(
          1 0
          0 1
          13 1
        )"><path fill-rule="nonzero" clip-rule="nonzero" d="M6 3C6 1.34 4.66 0 3 0L0 0L0 6L3 6C4.66 6 6 4.66 6 3Z" fill="currentColor" opacity="1"/></g>,<g transform="matrix(
          1 0
          0 1
          13 9
        )"><path fill-rule="nonzero" clip-rule="nonzero" d="M3 6C4.65685 6 6 4.65685 6 3C6 1.34315 4.65685 0 3 0C1.34315 0 0 1.34315 0 3C0 4.65685 1.34315 6 3 6Z" fill="currentColor" opacity="1"/></g>
</svg>