<svg width="24" height="24" viewBox="0 0 24 24" fill="none" xmlns="http://www.w3.org/2000/svg">
  <title>Multistop (filled)</title>
  <g transform="matrix(
          1 0
          0 1
          2 1
        )"><path fill-rule="nonzero" clip-rule="nonzero" d="M20 10.5C20 8.57 18.43 7 16.5 7C15.11 7 13.91 7.82 13.35 9L6.65 9C6.31 8.28 5.72 7.69 5 7.35L5 0L2 0L2 7.35C0.82 7.91 0 9.11 0 10.5C0 12.43 1.57 14 3.5 14C4.89 14 6.09 13.18 6.65 12L13.35 12C13.7 12.72 14.28 13.31 15 13.65L15 21L18 21L18 13.65C19.18 13.09 20 11.89 20 10.5Z" fill="currentColor" opacity="1"/></g>
</svg>