<svg width="24" height="24" viewBox="0 0 24 24" fill="none" xmlns="http://www.w3.org/2000/svg">
  <title>Arrow turn left right (filled)</title>
  <g transform="matrix(
          1 0
          0 1
          0.080078125 2
        )"><path fill-rule="nonzero" clip-rule="nonzero" d="M20.24 0L16.4 0L18.8 3L16.92 3C14.91 3 13.11 3.91998 11.92 5.34998C10.73 3.90998 8.93 3 6.92 3L5.04 3L7.44 0L3.6 0L0 4.5L3.6 9L7.44 9L5.04 6L6.92 6C8.85 6 10.42 7.57 10.42 9.5L10.42 21L13.42 21L13.42 9.5C13.42 7.57 14.99 6 16.92 6L18.8 6L16.4 9L20.24 9L23.84 4.5L20.24 0Z" fill="currentColor" opacity="1"/></g>
</svg>