<svg width="24" height="24" viewBox="0 0 24 24" fill="none" xmlns="http://www.w3.org/2000/svg">
  <title>Bus enter (outlined)</title>
  <g transform="matrix(
          1 0
          0 1
          1 3
        )"><path fill-rule="nonzero" clip-rule="nonzero" d="M18 8L18 12L14 12L14 15L18 15L18 16L4 16L4 15L8 15L8 12L4 12L4 4.28C4 3.57 4.67 3 5.5 3L12 3L12 0L5.5 0C3.01 0 1 1.91 1 4.28L1 7L0 7L0 12L1 12L1 21L5 21L5 19L17 19L17 21L21 21L21 12L22 12L22 8L18 8Z" fill="currentColor" opacity="1"/></g>,<g transform="matrix(
          1 0
          0 1
          15 0
        )"><path fill-rule="nonzero" clip-rule="nonzero" d="M4.58 3L6.78 0L3.3 0L0 4.5L3.3 9L6.78 9L4.58 6L9 6L9 3L4.58 3Z" fill="currentColor" opacity="1"/></g>
</svg>