<svg width="24" height="24" viewBox="0 0 24 24" fill="none" xmlns="http://www.w3.org/2000/svg">
  <title>Cup coffee (outlined)</title>
  <g transform="matrix(
          1 0
          0 1
          2 2
        )"><path fill-rule="nonzero" clip-rule="nonzero" d="M16 3L16 0L0 0L0 14C0 17.3 2.7 20 6 20L10 20C13 20 15.4 17.8 15.9 15L16 15C19.3 15 22 12.3 22 9C22 5.7 19.3 3 16 3ZM10 17L6 17C4.3 17 3 15.7 3 14L3 3L13 3L13 14C13 15.7 11.7 17 10 17ZM16 12L16 6C17.7 6 19 7.3 19 9C19 10.7 17.7 12 16 12Z" fill="currentColor" opacity="1"/></g>
</svg>