<svg width="24" height="24" viewBox="0 0 24 24" fill="none" xmlns="http://www.w3.org/2000/svg">
  <title>Weather sun (filled)</title>
  <g transform="matrix(
          1 0
          0 1
          1 1
        )"><path fill-rule="evenodd" clip-rule="evenodd" d="M12.5 0L9.5 0L9.5 3L12.5 3L12.5 0ZM12.5 22L12.5 19L9.5 19L9.5 22L12.5 22ZM19 9.5L22 9.5L22 12.5L19 12.5L19 9.5ZM3 9.5L0 9.5L0 12.5L3 12.5L3 9.5ZM15.5576 4.3385L17.6789 2.2172L19.8002 4.3385L17.6789 6.4598L15.5576 4.3385ZM4.24337 15.6026L2.12207 17.7239L4.24337 19.8452L6.36467 17.7239L4.24337 15.6026ZM15.6187 17.8556L17.7403 15.7346L19.8613 17.8562L17.7397 19.9772L15.6187 17.8556ZM4.35451 2.29892L2.23291 4.41992L4.35391 6.54152L6.47551 4.42052L4.35451 2.29892ZM17 11C17 14.3137 14.3137 17 11 17C7.68629 17 5 14.3137 5 11C5 7.68629 7.68629 5 11 5C14.3137 5 17 7.68629 17 11Z" fill="currentColor" opacity="1"/></g>
</svg>