<svg width="24" height="24" viewBox="0 0 24 24" fill="none" xmlns="http://www.w3.org/2000/svg">
  <title>Paperclip (outlined)</title>
  <g transform="matrix(
          1 0
          0 1
          0.9951171875 1.010009765625
        )"><path fill-rule="nonzero" clip-rule="nonzero" d="M20.105 1.89C17.565 -0.63 13.445 -0.63 10.905 1.89L1.90503 10.89C-0.944971 13.76 -0.304971 17.86 1.90503 20.09C3.13503 21.31 4.76504 21.99 6.50504 21.99C6.67504 21.99 6.83504 21.98 7.00504 21.97L7.00504 18.92C5.94504 19.07 4.81502 18.75 4.02502 17.96C2.66502 16.6 2.66502 14.38 4.02502 13.02L13.025 4.00999C14.395 2.64999 16.625 2.65 17.985 4C19.345 5.37 19.345 7.6 17.985 8.96L11.775 15.17C11.395 15.55 10.725 15.55 10.345 15.17C9.95503 14.78 9.94503 14.13 10.345 13.74L16.015 8.14L13.905 6.00999L8.23505 11.61C6.65505 13.17 6.64503 15.72 8.21503 17.3C9.78503 18.87 12.315 18.87 13.885 17.3L20.095 11.09C22.635 8.55 22.635 4.43 20.105 1.89Z" fill="currentColor" opacity="1"/></g>
</svg>