<svg width="24" height="24" viewBox="0 0 24 24" fill="none" xmlns="http://www.w3.org/2000/svg">
  <title>Turtle (filled)</title>
  <g transform="matrix(
          1 0
          0 1
          0 5
        )"><path fill-rule="nonzero" clip-rule="nonzero" d="M20.47 4.78C19.6 1.94 16.97 0 14 0C11.03 0 8.4 1.94 7.53 4.78L7.15 6.03L5.27 4.15C4.53 3.41 3.55 3 2.5 3C1.12 3 0 4.12 0 5.5C0 6.88 1.12 8 2.5 8L4.88 8L5.1 8.22C5.44 8.56 5.81 8.86 6.19 9.14L6.19 9.15L5 13L8.14 13L8.9 10.54C9.83 10.84 10.81 11 11.81 11L19.25 11L19.86 13L23 13L20.47 4.78Z" fill="currentColor" opacity="1"/></g>
</svg>