<svg width="24" height="24" viewBox="0 0 24 24" fill="none" xmlns="http://www.w3.org/2000/svg">
  <title>Car sunroof (outlined)</title>
  <g transform="matrix(
          1 0
          0 1
          1 3
        )"><path fill-rule="nonzero" clip-rule="nonzero" d="M20 7L18 1.3C17.7 0.500003 17 0 16.1 0L15 0L15 1C15 1.6 14.6 2 14 2L8 2C7.4 2 7 1.6 7 1L7 0L5.89999 0C5.09999 0 4.3 0.500003 4 1.3L2 7L0 7L0 10L1 10L1 19L5 19L5 17L17 17L17 19L21 19L21 10L22 10L22 7L20 7ZM4 14L4 13L8 13L8 10L4.10001 10L6.10001 4.5C6.70001 4.8 7.3 5 8 5L14 5C14.7 5 15.4 4.8 15.9 4.5L17.9 10L14 10L14 13L18 13L18 14L4 14Z" fill="currentColor" opacity="1"/></g>
</svg>