<svg width="24" height="24" viewBox="0 0 24 24" fill="none" xmlns="http://www.w3.org/2000/svg">
  <title>Tire flat (outlined)</title>
  <g transform="matrix(
          1 0
          0 1
          1 2
        )"><path fill-rule="nonzero" clip-rule="nonzero" d="M20.07 17.21C21.28 15.44 22 13.31 22 11C22 4.92 17.08 0 11 0C4.92 0 0 4.92 0 11C0 13.31 0.71 15.44 1.93 17.21C0.8 17.64 0 18.72 0 20L22 20C22 18.72 21.2 17.64 20.07 17.21ZM19 11C19 11.34 18.97 11.67 18.93 12L16 11.05C16 11.03 16 11.02 16 11C16 9.88 15.62 8.87003 15 8.03003L16.82 5.53003C18.17 6.96003 19 8.88 19 11ZM11 13C9.9 13 9 12.1 9 11C9 9.9 9.9 9 11 9C12.1 9 13 9.9 13 11C13 12.1 12.1 13 11 13ZM14.4 3.77002L12.58 6.28003C12.08 6.11003 11.56 6 11 6C10.44 6 9.92 6.11003 9.42 6.28003L7.6 3.77002C8.63 3.28002 9.78 3 11 3C12.22 3 13.36 3.28002 14.4 3.77002ZM5.18 5.53003L7 8.03003C6.38 8.86003 6 9.88 6 11C6 11.02 6 11.03 6 11.05L3.07 12C3.03 11.67 3 11.34 3 11C3 8.88 3.83 6.96003 5.18 5.53003ZM4 14.85L6.93 13.9C7.55 14.77 8.45 15.42 9.49 15.75L9.49 17L5.71 17C5.02 16.38 4.45 15.65 4 14.85ZM12.5 17L12.5 15.75C13.54 15.42 14.44 14.77 15.06 13.9L17.99 14.85C17.55 15.65 16.97 16.39 16.27 17L12.5 17Z" fill="currentColor" opacity="1"/></g>
</svg>