<svg width="24" height="24" viewBox="0 0 24 24" fill="none" xmlns="http://www.w3.org/2000/svg">
  <title>Currency gbp (filled)</title>
  <g transform="matrix(
          1 0
          0 1
          4 1
        )"><path fill-rule="nonzero" clip-rule="nonzero" d="M6.4 17C6.78 16.25 7 15.4 7 14.5L7 12L11 12L11 9L6.5 9L6 9L6 6C6 4.35 7.35 3 9 3C10.65 3 12 4.35 12 6L15 6C15 2.69 12.31 0 9 0C5.69 0 3 2.69 3 6L3 9L0 9L0 12L3 12L4 12L4 14.5C4 15.88 2.88 17 1.5 17L0 17L0 20L16 20L16 17L6.4 17Z" fill="currentColor" opacity="1"/></g>
</svg>