<svg width="24" height="24" viewBox="0 0 24 24" fill="none" xmlns="http://www.w3.org/2000/svg">
  <title>Wheels (filled)</title>
  <g transform="matrix(
          1 0
          0 1
          1 1
        )"><path fill-rule="nonzero" clip-rule="nonzero" d="M11 0C4.9 0 0 4.9 0 11C0 17.1 4.9 22 11 22C17.1 22 22 17.1 22 11C22 4.9 17.1 0 11 0ZM15 10.7C15 10 14.7 9.4 14.4 8.9L16.2 6.4C17.3 7.6 18 9.3 18 11C18 11.2 18 11.5 18 11.7L15 10.7ZM4 11.7C4 11.5 4 11.2 4 11C4 9.2 4.69999 7.6 5.79999 6.4L7.60001 8.9C7.30001 9.4 7.1 10.1 7 10.7L4 11.7ZM13.8 4.6L12 7.1C11.7 7 11.4 7 11 7C10.6 7 10.4 7.1 10 7.1L8.20001 4.6C9.10001 4.2 10 4 11 4C12 4 12.9 4.2 13.8 4.6ZM5 14.5L8 13.5C8.4 14 8.9 14.4 9.5 14.6L9.5 17.7C7.6 17.4 5.9 16.2 5 14.5ZM12.5 17.8L12.5 14.7C13.1 14.5 13.6 14.1 14 13.6L17 14.6C16.1 16.2 14.4 17.4 12.5 17.8Z" fill="currentColor" opacity="1"/></g>
</svg>