<svg width="24" height="24" viewBox="0 0 24 24" fill="none" xmlns="http://www.w3.org/2000/svg">
  <title>Trailer (filled)</title>
  <g transform="matrix(
          1 0
          0 1
          1 3
        )"><path fill-rule="nonzero" clip-rule="nonzero" d="M8.5 19C10.433 19 12 17.433 12 15.5C12 13.567 10.433 12 8.5 12C6.567 12 5 13.567 5 15.5C5 17.433 6.567 19 8.5 19Z" fill="currentColor" opacity="1"/>
<path fill-rule="nonzero" clip-rule="nonzero" d="M20 13L20 5C20 2.2 17.8 0 15 0L0 0L0 16L3 16C3 15.8 3 15.7 3 15.5C3 12.5 5.5 10 8.5 10C11.5 10 14 12.5 14 15.5C14 15.7 14 15.8 14 16C15.9 16 14.5 16 22 16L22 13L20 13Z" fill="currentColor" opacity="1"/></g>
</svg>