<svg width="24" height="24" viewBox="0 0 24 24" fill="none" xmlns="http://www.w3.org/2000/svg">
  <title>Location pin (outlined)</title>
  <g transform="matrix(
          1 0
          0 1
          3 1
        )"><path fill-rule="evenodd" clip-rule="evenodd" d="M9 0C14 0 18 4 18 9C18 13.5 14.8 17.1 10.5 17.9L10.5 22L7.5 22L7.5 17.9C3.2 17.1 0 13.5 0 9C0 4 4 0 9 0ZM3 9C3 12.3 5.7 15 9 15C12.3 15 15 12.3 15 9C15 5.7 12.3 3 9 3C5.7 3 3 5.7 3 9ZM11 9C11 10.1046 10.1046 11 9 11C7.89543 11 7 10.1046 7 9C7 7.89543 7.89543 7 9 7C10.1046 7 11 7.89543 11 9Z" fill="currentColor" opacity="1"/></g>
</svg>