<svg width="24" height="24" viewBox="0 0 24 24" fill="none" xmlns="http://www.w3.org/2000/svg">
  <title>Pin entry (outlined)</title>
  <g transform="matrix(
          1 0
          0 1
          2 1
        )"><path fill-rule="nonzero" clip-rule="nonzero" d="M5 2.5C5 3.88071 3.88062 5 2.5 5C1.11938 5 0 3.88071 0 2.5C0 1.11929 1.11938 0 2.5 0C3.88062 0 5 1.11929 5 2.5Z" fill="currentColor" opacity="1"/>
<path fill-rule="nonzero" clip-rule="nonzero" d="M20 2.5C20 3.88071 18.8806 5 17.5 5C16.1194 5 15 3.88071 15 2.5C15 1.11929 16.1194 0 17.5 0C18.8806 0 20 1.11929 20 2.5Z" fill="currentColor" opacity="1"/>
<path fill-rule="nonzero" clip-rule="nonzero" d="M10 5C11.3806 5 12.5 3.88071 12.5 2.5C12.5 1.11929 11.3806 0 10 0C8.61938 0 7.5 1.11929 7.5 2.5C7.5 3.88071 8.61938 5 10 5Z" fill="currentColor" opacity="1"/>
<path fill-rule="nonzero" clip-rule="nonzero" d="M12.5 19.5C12.5 20.8807 11.3806 22 10 22C8.61938 22 7.5 20.8807 7.5 19.5C7.5 18.1193 8.61938 17 10 17C11.3806 17 12.5 18.1193 12.5 19.5Z" fill="currentColor" opacity="1"/>
<path fill-rule="nonzero" clip-rule="nonzero" d="M2.5 13.5C3.88062 13.5 5 12.3807 5 11C5 9.61929 3.88062 8.5 2.5 8.5C1.11938 8.5 0 9.61929 0 11C0 12.3807 1.11938 13.5 2.5 13.5Z" fill="currentColor" opacity="1"/>
<path fill-rule="nonzero" clip-rule="nonzero" d="M20 11C20 12.3807 18.8806 13.5 17.5 13.5C16.1194 13.5 15 12.3807 15 11C15 9.61929 16.1194 8.5 17.5 8.5C18.8806 8.5 20 9.61929 20 11Z" fill="currentColor" opacity="1"/>
<path fill-rule="nonzero" clip-rule="nonzero" d="M10 13.5C11.3806 13.5 12.5 12.3807 12.5 11C12.5 9.61929 11.3806 8.5 10 8.5C8.61938 8.5 7.5 9.61929 7.5 11C7.5 12.3807 8.61938 13.5 10 13.5Z" fill="currentColor" opacity="1"/></g>
</svg>