<svg width="24" height="24" viewBox="0 0 24 24" fill="none" xmlns="http://www.w3.org/2000/svg">
  <title>Weather wind (outlined)</title>
  <g transform="matrix(
          1 0
          0 1
          1 1
        )"><path fill-rule="evenodd" clip-rule="evenodd" d="M15.5 0C18 0 20 2 20 4.5C20 7 18 9 15.5 9L0 9L0 6L15.5 6C16.3 6 17 5.3 17 4.5C17 3.7 16.3 3 15.5 3C14.9 3 14.3001 3.4 14.1001 4L11.1001 4C11.3001 1.8 13.2 0 15.5 0ZM0 11L16.5 11C19.5 11 22 13.5 22 16.5C22 19.5 19.5 22 16.5 22C13.5 22 11 19.5 11 16.5L11 16L14 16L14 16.5C14 17.9 15.1 19 16.5 19C17.9 19 19 17.9 19 16.5C19 15.1 17.9 14 16.5 14L0 14L0 11Z" fill="currentColor" opacity="1"/></g>
</svg>