<svg width="24" height="24" viewBox="0 0 24 24" fill="none" xmlns="http://www.w3.org/2000/svg">
  <title>Buddhist temple (filled)</title>
  <g transform="matrix(
          1 0
          0 1
          1.199951171875 1
        )"><path fill-rule="evenodd" clip-rule="evenodd" d="M21.8 9.5L21.8 12.4L19.7001 12.4C19.5001 13.8 19.0001 15 18.2001 16.1L19.7001 17.6L17.6001 19.7L16.1001 18.2C15.0001 18.9 13.8 19.5 12.4 19.7L12.4 21.8L9.40002 21.8L9.40002 19.7C8.00002 19.5 6.80007 19 5.70007 18.2L4.20007 19.7L2.1001 17.6L3.6001 16.1C2.9001 15 2.3001 13.8 2.1001 12.4L0 12.4L0 9.39999L2.1001 9.39999C2.3001 7.99999 2.8001 6.8 3.6001 5.7L2.1001 4.2L4.20007 2.10001L5.70007 3.60001C6.80007 2.90001 8.00002 2.30001 9.40002 2.10001L9.40002 0L12.4 0L12.4 2.2C13.8 2.4 15.0001 2.9 16.1001 3.7L17.6001 2.2L19.7001 4.3L18.2001 5.8C18.9001 6.9 19.5001 8.1 19.7001 9.5L21.8 9.5ZM4.80005 11C4.80005 14.3 7.50005 17 10.8 17C14.1 17 16.8 14.3 16.8 11C16.8 7.7 14.1 5 10.8 5C7.50005 5 4.80005 7.7 4.80005 11ZM13.8 8.00005L13.8 9.80005L15 11L13.8 12.2L13.8 14L12 14L10.8 15.2L9.6001 14L7.80005 14L7.80005 12.2L6.6001 11L7.80005 9.80005L7.80005 8.00005L9.6001 8.00005L10.8 6.80005L12 8.00005L13.8 8.00005Z" fill="currentColor" opacity="1"/></g>
</svg>