<svg width="24" height="24" viewBox="0 0 24 24" fill="none" xmlns="http://www.w3.org/2000/svg">
  <title>Currency uber money (filled)</title>
  <g transform="matrix(
          1 0
          0 1
          3 2
        )"><path fill-rule="nonzero" clip-rule="nonzero" d="M0 12C0 16.41 3.59 20 8 20C9.88995 20 11.6293 19.3406 13 18.24L13 20L16 20L16 12L19.5 12L20.5 9L16 9L16 7L19.5 7L20.5 4L16 4L16 0L13 0L13 4L9.5 4L8.5 7L13 7L13 9L9.5 9L8.5 12L13 12C13 14.76 10.76 17 8 17C5.24 17 3 14.76 3 12L3 0L0 0L0 12Z" fill="currentColor" opacity="1"/></g>
</svg>