<svg width="24" height="24" viewBox="0 0 24 24" fill="none" xmlns="http://www.w3.org/2000/svg">
  <title>Pet (outlined)</title>
  <g transform="matrix(
          1 0
          0 1
          1 1
        )"><path fill-rule="evenodd" clip-rule="evenodd" d="M14 3.5C14 5.433 12.6569 7 11 7C9.34315 7 8 5.433 8 3.5C8 1.567 9.34315 0 11 0C12.6569 0 14 1.567 14 3.5ZM2 18C2 13 6 9 11 9C16 9 20 13 20 18C20 18.7 19.7002 19.4 19.2002 19.8C17.3002 21.3 14.1 22 11 22C7.9 22 4.6998 21.3 2.7998 19.8C2.2998 19.4 2 18.7 2 18ZM5 17.6C6.4 18.5 8.6 19 11 19C13.4 19 15.6 18.5 17 17.6C16.8 14.5 14.2 12 11 12C7.8 12 5.2 14.5 5 17.6ZM19 10C20.6569 10 22 8.433 22 6.5C22 4.567 20.6569 3 19 3C17.3431 3 16 4.567 16 6.5C16 8.433 17.3431 10 19 10ZM6 6.5C6 8.433 4.65685 10 3 10C1.34315 10 0 8.433 0 6.5C0 4.567 1.34315 3 3 3C4.65685 3 6 4.567 6 6.5Z" fill="currentColor" opacity="1"/></g>
</svg>