<svg width="24" height="24" viewBox="0 0 24 24" fill="none" xmlns="http://www.w3.org/2000/svg">
  <title>Gondola (filled)</title>
  <g transform="matrix(
          1 0
          0 1
          1 0
        )"><path fill-rule="nonzero" clip-rule="nonzero" d="M22 2.75L22 0L0 6.5L0 9.25L11 6L11 9L6 9C4.34 9 3 10.34 3 12L3 20C3 21.66 4.34 23 6 23L18 23C19.66 23 21 21.66 21 20L21 12C21 10.34 19.66 9 18 9L14 9L14 5.11L22 2.75ZM11 12L11 15L6 15L6 12L11 12ZM18 12L18 15L14 15L14 12L18 12Z" fill="currentColor" opacity="1"/></g>
</svg>