<svg width="24" height="24" viewBox="0 0 24 24" fill="none" xmlns="http://www.w3.org/2000/svg">
  <title>Phone cross (outlined)</title>
  <g transform="matrix(
          1 0
          0 1
          -0.10009765625 1.89990234375
        )"><path fill-rule="evenodd" clip-rule="evenodd" d="M10.5 15.8L14.7002 11.3L22 13.9L22 22L20.5 22C9.2 22 0 12.8 0 1.5L0 0L8.1001 0L10.8 7.39999L6.30005 11.6C7.50005 13.2 8.9 14.7 10.5 15.8ZM3.2002 3.10001C3.4002 5.30001 3.90005 7.30001 4.80005 9.10001L7.40015 6.70001L6.1001 3.10001L3.2002 3.10001ZM13.1001 17.4C15.0001 18.3 17.0001 18.8 19.1001 19L19.1001 16.1L15.5 14.8L13.1001 17.4ZM17.6001 6.59998L15.1001 9.09998L13.1001 7.09998L15.6001 4.59998L13.1001 2.09998L15.1001 0.0999756L17.6001 2.59998L20.1001 0.0999756L22.1001 2.09998L19.6001 4.59998L22.1001 7.09998L20.1001 9.09998L17.6001 6.59998Z" fill="currentColor" opacity="1"/></g>
</svg>