<svg width="24" height="24" viewBox="0 0 24 24" fill="none" xmlns="http://www.w3.org/2000/svg">
  <title>Percentage (outlined)</title>
  <g transform="matrix(
          1 0
          0 1
          2 2
        )"><path fill-rule="nonzero" clip-rule="nonzero" d="M4 3C4.55 3 5 3.45 5 4C5 4.55 4.55 5 4 5C3.45 5 3 4.55 3 4C3 3.45 3.45 3 4 3ZM4 0C1.79 0 0 1.79 0 4C0 6.21 1.79 8 4 8C6.21 8 8 6.21 8 4C8 1.79 6.21 0 4 0Z" fill="currentColor" opacity="1"/></g>,<g transform="matrix(
          1 0
          0 1
          14 14
        )"><path fill-rule="nonzero" clip-rule="nonzero" d="M4 3C4.55 3 5 3.45 5 4C5 4.55 4.55 5 4 5C3.45 5 3 4.55 3 4C3 3.45 3.45 3 4 3ZM4 0C1.79 0 0 1.79 0 4C0 6.21 1.79 8 4 8C6.21 8 8 6.21 8 4C8 1.79 6.21 0 4 0Z" fill="currentColor" opacity="1"/></g>,<g transform="matrix(
          0.707099974155426 -0.707099974155426
          0.707099974155426 0.707099974155426
          3.4365234375 18.441650390625
        )"><path fill-rule="nonzero" clip-rule="nonzero" d="M21.21 0L0 0L0 3L21.21 3L21.21 0Z" fill="currentColor" opacity="1"/></g>
</svg>