<svg width="24" height="24" viewBox="0 0 24 24" fill="none" xmlns="http://www.w3.org/2000/svg">
  <title>Person group (outlined)</title>
  <g transform="matrix(
          1 0
          0 1
          1 2
        )"><path fill-rule="evenodd" clip-rule="evenodd" d="M15 4C15 6.20914 13.2091 8 11 8C8.79086 8 7 6.20914 7 4C7 1.79086 8.79086 0 11 0C13.2091 0 15 1.79086 15 4ZM17 14C17 11.8 15.2 10 13 10L9 10C6.8 10 5 11.8 5 14L5 19L8 19L8 14C8 13.5 8.5 13 9 13L13 13C13.5 13 14 13.5 14 14L14 19L17 19L17 14ZM0 19L0 16C0 14.1 1.3 12.6 3 12.1L3 19L0 19ZM19 19L19 12.1C20.7 12.6 22 14.1 22 16L22 19L19 19ZM19 10C20.6569 10 22 8.65685 22 7C22 5.34315 20.6569 4 19 4C17.3431 4 16 5.34315 16 7C16 8.65685 17.3431 10 19 10ZM6 7C6 8.65685 4.65685 10 3 10C1.34315 10 0 8.65685 0 7C0 5.34315 1.34315 4 3 4C4.65685 4 6 5.34315 6 7Z" fill="currentColor" opacity="1"/></g>
</svg>