<svg width="24" height="24" viewBox="0 0 24 24" fill="none" xmlns="http://www.w3.org/2000/svg">
  <title>Burst (outlined)</title>
  <g transform="matrix(
          1 0
          0 1
          1 1
        )"><path fill-rule="evenodd" clip-rule="evenodd" d="M9.5 0L12.5 0L12.5 5L9.5 5L9.5 0ZM9.5 17L12.5 17L12.5 22L9.5 22L9.5 17ZM5 9.5L0 9.5L0 12.5L5 12.5L5 9.5ZM17 9.5L22 9.5L22 12.5L17 12.5L17 9.5ZM5.67564 14.1807L2.14014 17.7162L4.26144 19.8375L7.79694 16.302L5.67564 14.1807ZM14.1609 5.72461L17.6964 2.18911L19.8177 4.31041L16.2822 7.84591L14.1609 5.72461ZM4.42794 2.07249L2.30664 4.19409L5.84264 7.72959L7.96394 5.60799L4.42794 2.07249ZM14.2988 16.2146L16.4201 14.093L19.9561 17.6285L17.8348 19.7501L14.2988 16.2146Z" fill="currentColor" opacity="1"/></g>
</svg>