<svg width="24" height="24" viewBox="0 0 24 24" fill="none" xmlns="http://www.w3.org/2000/svg">
  <title>Accessibility (filled)</title>
  <g transform="matrix(
          1 0
          0 1
          3 1
        )"><path fill-rule="evenodd" clip-rule="evenodd" d="M11.5 2.5C11.5 3.88071 10.3807 5 9 5C7.61929 5 6.5 3.88071 6.5 2.5C6.5 1.11929 7.61929 0 9 0C10.3807 0 11.5 1.11929 11.5 2.5ZM18 7L18 10L12 10L12 13L14.6001 22L11.5 22L9.2002 14L8.7998 14L6.5 22L3.3999 22L6 13L6 10L0 10L0 7L18 7Z" fill="currentColor" opacity="1"/></g>
</svg>