<svg width="24" height="24" viewBox="0 0 24 24" fill="none" xmlns="http://www.w3.org/2000/svg">
  <title>Upload (outlined)</title>
  <g transform="matrix(
          1 0
          0 1
          1 2
        )"><path fill-rule="nonzero" clip-rule="nonzero" d="M17.3999 3.59998C16.0999 1.39998 13.7 0 11 0C8.3 0 6.0001 1.39998 4.6001 3.59998C1.8001 4.69998 0 7.4 0 10.5C0 14.6 3.4 18 7.5 18L14.5 18C18.6 18 22 14.6 22 10.5C22 7.4 20.0999 4.69998 17.3999 3.59998ZM14.5 15L12.5 15L12.5 10.2L16 12.5L16 9.09998L11 5.80005L6 9.09998L6 12.5L9.5 10.2L9.5 15L7.5 15C5 15 3 13 3 10.5C3 8.3 4.5998 6.39998 6.7998 6.09998C7.3998 4.29998 9.1 3 11 3C12.9 3 14.6002 4.29998 15.2002 6.09998C17.3002 6.49998 19 8.3 19 10.5C19 13 17 15 14.5 15Z" fill="currentColor" opacity="1"/></g>
</svg>