<svg width="24" height="24" viewBox="0 0 24 24" fill="none" xmlns="http://www.w3.org/2000/svg">
  <title>Steering wheel (filled)</title>
  <g transform="matrix(
          1 0
          0 1
          1 1
        )"><path fill-rule="nonzero" clip-rule="nonzero" d="M11 0C4.9 0 0 4.9 0 11C0 17.1 4.9 22 11 22C17.1 22 22 17.1 22 11C22 4.9 17.1 0 11 0ZM11 3C14.9 3 18.0999 5.8 18.8999 9.5L15.8 9.5C15.2 7.5 13.3001 6 11.1001 6C8.9001 6 6.9999 7.5 6.3999 9.5L3.30005 9.5C3.90005 5.8 7.1 3 11 3ZM11 13C9.9 13 9 12.1 9 11C9 9.9 9.9 9 11 9C12.1 9 13 9.9 13 11C13 12.1 12.1 13 11 13ZM3.1001 12.5L6.19995 12.5C6.69995 14 7.8999 15.3 9.3999 15.7L9.3999 18.8C6.2999 18.2 3.8001 15.7 3.1001 12.5ZM12.5 18.9L12.5 15.8C14 15.3 15.3 14.1 15.7 12.6L18.8 12.6C18.2 15.7 15.7 18.2 12.5 18.9Z" fill="currentColor" opacity="1"/></g>
</svg>