<svg width="24" height="24" viewBox="0 0 24 24" fill="none" xmlns="http://www.w3.org/2000/svg">
  <title>Sliders (outlined)</title>
  <g transform="matrix(
          1 0
          0 1
          1 1
        )"><path fill-rule="evenodd" clip-rule="evenodd" d="M5.5 0C8 0 10.1 1.7 10.8 4L22 4L22 7L10.8 7C10.1 9.3 8 11 5.5 11C2.5 11 0 8.5 0 5.5C0 2.5 2.5 0 5.5 0ZM3 5.5C3 6.9 4.1 8 5.5 8C6.9 8 8 6.9 8 5.5C8 4.1 6.9 3 5.5 3C4.1 3 3 4.1 3 5.5ZM11.2 15C11.9 12.7 14 11 16.5 11C19.5 11 22 13.5 22 16.5C22 19.5 19.5 22 16.5 22C14 22 11.9 20.3 11.2 18L0 18L0 15L11.2 15ZM14 16.5C14 17.9 15.1 19 16.5 19C17.9 19 19 17.9 19 16.5C19 15.1 17.9 14 16.5 14C15.1 14 14 15.1 14 16.5Z" fill="currentColor" opacity="1"/></g>
</svg>