<svg width="24" height="24" viewBox="0 0 24 24" fill="none" xmlns="http://www.w3.org/2000/svg">
  <title>Scooter check (outlined)</title>
  <g transform="matrix(
          1 0
          0 1
          3 3
        )"><path fill-rule="nonzero" clip-rule="nonzero" d="M5.08 17L12.12 17L17.16 11.96L14.18 0L9 0L9 3L11.84 3L13.84 11.04L10.88 14L7.13 14C5.86 11.57 3.31 10 0.5 10L0 10L0 13L0.5 13C2.41 13 4.11 14.2 4.73 15.99L5.08 17Z" fill="currentColor" opacity="1"/></g>,<g transform="matrix(
          1 0
          0 1
          1 18
        )"><path fill-rule="nonzero" clip-rule="nonzero" d="M2.5 5C3.88071 5 5 3.88071 5 2.5C5 1.11929 3.88071 0 2.5 0C1.11929 0 0 1.11929 0 2.5C0 3.88071 1.11929 5 2.5 5Z" fill="currentColor" opacity="1"/></g>,<g transform="matrix(
          1 0
          0 1
          18 18
        )"><path fill-rule="nonzero" clip-rule="nonzero" d="M2.5 5C3.88071 5 5 3.88071 5 2.5C5 1.11929 3.88071 0 2.5 0C1.11929 0 0 1.11929 0 2.5C0 3.88071 1.11929 5 2.5 5Z" fill="currentColor" opacity="1"/></g>,<g transform="matrix(
          1 0
          0 1
          0 0
        )"><path fill-rule="nonzero" clip-rule="nonzero" d="M10.12 2.12L8 0L4.06 3.94L2.12 2L0 4.12L4.06 8.18L10.12 2.12Z" fill="currentColor" opacity="1"/></g>
</svg>