<svg width="24" height="24" viewBox="0 0 24 24" fill="none" xmlns="http://www.w3.org/2000/svg">
  <title>Umbrella (outlined)</title>
  <g transform="matrix(
          1 0
          0 1
          1.0029296875 1
        )"><path fill-rule="nonzero" clip-rule="nonzero" d="M21.8968 13C22.7968 6 17.2969 0 10.9969 0C4.69687 0 -0.803034 6 0.0969658 13L8.99687 13L8.99687 17.5C8.99687 20 10.9969 22 13.4969 22C15.9969 22 17.9969 20 17.9969 17.5L17.9969 16L14.9969 16L14.9969 17.5C14.9969 18.3 14.2969 19 13.4969 19C12.6969 19 11.9969 18.3 11.9969 17.5L11.9969 13L21.8968 13ZM10.9969 3C14.5969 3 18.0968 5.9 18.8968 10L3.19706 10C3.89706 5.9 7.39687 3 10.9969 3Z" fill="currentColor" opacity="1"/></g>
</svg>