<svg width="24" height="24" viewBox="0 0 24 24" fill="none" xmlns="http://www.w3.org/2000/svg">
  <title>Delivery bag move (outlined)</title>
  <g transform="matrix(
          1 0
          0 1
          0 3
        )"><path fill-rule="evenodd" clip-rule="evenodd" d="M21 0L21 5L23 5L23 13.75C23 14.3081 22.8901 14.8608 22.6765 15.3764C22.4629 15.892 22.1499 16.3606 21.7552 16.7552C21.3606 17.1499 20.892 17.4629 20.3764 17.6765C19.8608 17.8901 19.3081 18 18.75 18L12.25 18C11.1228 18 10.0418 17.5522 9.2448 16.7552C8.85015 16.3606 8.53709 15.892 8.32351 15.3764C8.10993 14.8608 8 14.3081 8 13.75L8 5L10 5L10 0L21 0ZM18 3L13 3L13 5L18 5L18 3ZM19.6339 14.6339C19.8683 14.3995 20 14.0815 20 13.75L20 8L11 8L11 13.75C11 14.0815 11.1317 14.3995 11.3661 14.6339C11.6005 14.8683 11.9185 15 12.25 15L18.75 15C19.0815 15 19.3995 14.8683 19.6339 14.6339Z" fill="currentColor" opacity="1"/>
<path fill-rule="nonzero" clip-rule="nonzero" d="M6 5L0 5L0 8L6 8L6 5Z" fill="currentColor" opacity="1"/>
<path fill-rule="nonzero" clip-rule="nonzero" d="M6 10L1 10L1 13L6 13L6 10Z" fill="currentColor" opacity="1"/></g>
</svg>