<svg width="24" height="24" viewBox="0 0 24 24" fill="none" xmlns="http://www.w3.org/2000/svg">
  <title>Microphone sound (filled)</title>
  <g transform="matrix(
          1 0
          0 1
          7 11.5
        )"><path fill-rule="nonzero" clip-rule="nonzero" d="M0 1.5C0 3.74 1.48 5.61 3.5 6.25L3.5 9.5L0 9.5L0 12.5L10 12.5L10 9.5L6.5 9.5L6.5 6.25C8.52 5.61 10 3.74 10 1.5L10 0L0 0L0 1.5Z" fill="currentColor" opacity="1"/></g>,<g transform="matrix(
          1 0
          0 1
          7 2
        )"><path fill-rule="nonzero" clip-rule="nonzero" d="M5 0C2.24 0 0 2.24 0 5L0 6.5L10 6.5L10 5C10 2.24 7.76 0 5 0Z" fill="currentColor" opacity="1"/></g>,<g transform="matrix(
          1 0
          0 1
          0 2.010009765625
        )"><path fill-rule="nonzero" clip-rule="nonzero" d="M3.51 0C-1.17 4.68 -1.17 12.29 3.51 16.97L5.63 14.85C2.12 11.34 2.12 5.63 5.63 2.12L3.51 0Z" fill="currentColor" opacity="1"/></g>,<g transform="matrix(
          1 0
          0 1
          18.3701171875 2.010009765625
        )"><path fill-rule="nonzero" clip-rule="nonzero" d="M2.12 0L0 2.12C3.51 5.63 3.51 11.34 0 14.85L2.12 16.97C6.79 12.3 6.79 4.68 2.12 0Z" fill="currentColor" opacity="1"/></g>
</svg>