<svg width="24" height="24" viewBox="0 0 24 24" fill="none" xmlns="http://www.w3.org/2000/svg">
  <title>Scooter person (filled)</title>
  <g transform="matrix(
          1 0
          0 1
          3 6
        )"><path fill-rule="nonzero" clip-rule="nonzero" d="M15 13.05L15 8L12 8L12 14L9 14L9 6.34C9.69 6.76 10.5 7 11.35 7L12 7L15 7L15 4L11.35 4C10.78 4 10.26 3.68001 10.01 3.17001L8.43 0L6 0L6 14L4.49 14C4.03 13.4 3.32 13 2.5 13C1.12 13 0 14.12 0 15.5C0 16.88 1.12 18 2.5 18C3.32 18 4.03 17.6 4.49 17L12.51 17C12.97 17.6 13.68 18 14.5 18C15.88 18 17 16.88 17 15.5C17 14.29 16.14 13.28 15 13.05Z" fill="currentColor" opacity="1"/></g>,<g transform="matrix(
          1 0
          0 1
          9 0
        )"><path fill-rule="nonzero" clip-rule="nonzero" d="M2.5 5C3.88071 5 5 3.88071 5 2.5C5 1.11929 3.88071 0 2.5 0C1.11929 0 0 1.11929 0 2.5C0 3.88071 1.11929 5 2.5 5Z" fill="currentColor" opacity="1"/></g>
</svg>