<svg width="24" height="24" viewBox="0 0 24 24" fill="none" xmlns="http://www.w3.org/2000/svg">
  <title>Ski (filled)</title>
  <g transform="matrix(
          1 0
          0 1
          0.39990234375 0.300048828125
        )"><path fill-rule="nonzero" clip-rule="nonzero" d="M22.6 12.7L22.6 9.7L16.3 9.7L18 6.3L19.3 7L20.6 4.3L19.3 3.6L20.4 1.3L17.7 0L16.6 2.3L15.3 1.6L14 4.3L15.3 5L12.9 9.7L9.20001 9.7C7.60001 9.7 6.20002 8.9 5.30002 7.6L2.80002 9.2C4.20002 11.4 6.60001 12.7 9.20001 12.7L11.4 12.7L9.89999 15.7L6.39999 15.7C4.79999 15.7 3.4 14.9 2.5 13.6L0 15.2C1.4 17.4 3.79999 18.7 6.39999 18.7L8.39999 18.7L6.70001 22L9.39999 23.3L11.7 18.6L22.6 18.6L22.6 15.6L13.3 15.6L14.8 12.6L22.6 12.6L22.6 12.7Z" fill="currentColor" opacity="1"/></g>
</svg>