<svg width="24" height="24" viewBox="0 0 24 24" fill="none" xmlns="http://www.w3.org/2000/svg">
  <title>Satellite (outlined)</title>
  <g transform="matrix(
          1 0
          0 1
          9.510009765625 1
        )"><path fill-rule="nonzero" clip-rule="nonzero" d="M1.49 0C0.990002 0 0.49 0.04 0 0.1L0.350002 2.88C0.720002 2.83 1.1 2.8 1.49 2.8C6.56 2.8 10.69 6.93 10.69 12C10.69 12.39 10.66 12.77 10.61 13.14L13.39 13.49C13.45 13 13.49 12.5 13.49 12C13.49 5.37 8.12 0 1.49 0Z" fill="currentColor" opacity="1"/></g>,<g transform="matrix(
          1 0
          0 1
          10.1298828125 6
        )"><path fill-rule="nonzero" clip-rule="nonzero" d="M7.81 7.87C7.85 7.58 7.87 7.29 7.87 7C7.87 3.13 4.74 0 0.869999 0C0.579999 0 0.29 0.0199999 0 0.0599999L0.349998 2.85C0.519998 2.83 0.689999 2.8 0.869999 2.8C3.19 2.8 5.07 4.68 5.07 7C5.07 7.18 5.04 7.35 5.02 7.52L7.81 7.87Z" fill="currentColor" opacity="1"/></g>,<g transform="matrix(
          1 0
          0 1
          1.0048828125 5.929931640625
        )"><path fill-rule="nonzero" clip-rule="nonzero" d="M11.995 7.07C11.995 5.97 11.095 5.07 9.995 5.07C9.445 5.07 8.945 5.29 8.585 5.66L2.925 0C-0.975 3.91 -0.975 10.24 2.925 14.14C4.875 16.09 7.435 17.07 9.995 17.07C12.555 17.07 15.115 16.09 17.065 14.14L11.405 8.48C11.775 8.12 11.995 7.62 11.995 7.07ZM9.995 14.07C8.125 14.07 6.365 13.34 5.045 12.02C3.075 10.05 2.525 7.19 3.405 4.72L12.355 13.67C11.605 13.93 10.805 14.07 9.995 14.07Z" fill="currentColor" opacity="1"/></g>
</svg>