<svg width="24" height="24" viewBox="0 0 24 24" fill="none" xmlns="http://www.w3.org/2000/svg">
  <title>Cargo bike (filled)</title>
  <g transform="matrix(
          1 0
          0 1
          5 9
        )"><path fill-rule="nonzero" clip-rule="nonzero" d="M0 0L0 9L2 11L3.5 11L3.5 4L10.5 4L10.5 11L12 11L14 9L14 0L0 0Z" fill="currentColor" opacity="1"/></g>,<g transform="matrix(
          1 0
          0 1
          10.5 15
        )"><path fill-rule="nonzero" clip-rule="nonzero" d="M3 0L0 0L0 8L3 8L3 0Z" fill="currentColor" opacity="1"/></g>,<g transform="matrix(
          1 0
          0 1
          6 1
        )"><path fill-rule="nonzero" clip-rule="nonzero" d="M4.5 6L7.5 6L7.5 3L12 3L12 0L0 0L0 3L4.5 3L4.5 6Z" fill="currentColor" opacity="1"/></g>
</svg>