<svg width="24" height="24" viewBox="0 0 24 24" fill="none" xmlns="http://www.w3.org/2000/svg">
  <title>Subway enter (filled)</title>
  <g transform="matrix(
          1 0
          0 1
          1 2
        )"><path fill-rule="nonzero" clip-rule="nonzero" d="M22 11C22 10.32 21.94 9.65 21.82 9L15.9 9C15.97 9.32 16 9.66 16 10L16 12L6 12L6 10C6 7.24 8.24 5 11 5L11 0C4.92 0 0 4.92 0 11C0 14.56 1.68001 17.72 4.29001 19.73L2.01999 22L5.98001 22L8.98001 19L13.02 19L16.02 22L19.98 22L17.71 19.73C20.32 17.72 22 14.56 22 11ZM9 15.1L9 17L6 17L6 15L9 15L9 15.1ZM16 17L13 17L13 15.1L13 15L16 15L16 17Z" fill="currentColor" opacity="1"/></g>,<g transform="matrix(
          1 0
          0 1
          14 0
        )"><path fill-rule="nonzero" clip-rule="nonzero" d="M4.57999 3L6.78 0L3.29999 0L0 4.5L3.29999 9L6.78 9L4.57999 6L10 6L10 3L4.57999 3Z" fill="currentColor" opacity="1"/></g>
</svg>